<svg width="69" height="42" viewBox="0 0 69 42" fill="none" xmlns="http://www.w3.org/2000/svg">
<path d="M67.9418 0.0509442C69.2275 2.99706 68.2923 5.45289 67.1322 7.58364C65.4781 10.5234 63.4825 13.2959 61.262 15.7433C50.7228 26.728 37.3458 31.7616 21.8334 31.6418C17.8886 31.5971 13.8494 30.9808 9.4133 30.5523C10.9018 34.553 14.6081 37.2991 16.3631 41.3586C14.517 41.4101 13.5008 40.2677 12.6346 39.3421C9.09469 35.5311 5.56865 31.6314 2.14531 27.6625C0.51554 25.742 0.518166 24.5492 2.36684 23.3049C6.18076 20.6584 10.4973 19.4999 15.2138 19.8985C15.3915 19.9377 15.6164 20.2628 16.0051 20.7158C14.4316 24.3159 9.68431 22.3499 7.39446 25.241C13.3022 28.0141 19.3317 28.2436 25.2668 27.9015C31.4823 27.5294 37.5145 26.5661 43.1328 24.1343C48.6485 21.7717 53.3256 18.3059 57.8056 14.3377C62.3606 10.4777 65.5913 5.68279 67.9418 0.0509442Z" fill="white"/>
</svg>
