<svg width="77" height="30" viewBox="0 0 77 30" fill="none" xmlns="http://www.w3.org/2000/svg">
<path d="M69.9401 21.8132C68.5448 24.3455 67.2329 26.8287 65.6898 29.6192C67.3611 29.9477 68.6323 29.1426 69.3904 28.012C71.6645 24.6202 73.8984 21.1381 75.8448 17.4829C76.9659 15.3972 75.9103 13.7366 73.7793 13.7927C70.2216 13.8327 66.661 14.1026 63.0602 14.282C62.8533 14.2897 62.5846 14.2767 62.4798 14.3954C62.0202 14.78 61.6627 15.2756 61.2434 15.7505C61.6114 16.1043 61.8934 16.737 62.2857 16.7913C63.648 17.0164 64.9916 17.0815 66.3136 17.2162C67.0364 17.3042 67.719 17.3019 68.6002 17.9812C67.6622 18.5902 66.7027 19.2689 65.7648 19.8779C45.9362 31.546 22.7982 27.6495 7.9696 10.3072C6.07304 8.0577 4.44794 5.59146 2.65621 3.22327C2.02494 2.39685 1.37216 1.64013 0.740891 0.813719C0.512465 0.891094 0.324325 1.05884 0.0958989 1.13622C0.0876655 1.82557 -0.108709 2.68268 0.194797 3.24563C1.10257 5.16426 2.01034 7.0829 3.16805 8.85446C14.6216 26.5287 35.7916 34.1501 55.9924 27.6819C59.8541 26.4363 63.5387 24.4392 67.2608 22.7623C68.0509 22.4115 68.7389 21.9496 69.4887 21.5083C69.6339 21.48 69.7977 21.6117 69.9401 21.8132Z" fill="white"/>
</svg>
