<svg width="385" height="202" viewBox="0 0 385 202" fill="none" xmlns="http://www.w3.org/2000/svg">
<g clip-path="url(#clip0_154_451)">
<rect width="385" height="202" rx="20" fill="#DDEEFF"/>
<path d="M44 135H28.64L-11.2 84.6V135H-29.2V51H-13.84L26 101.64V51H44V135ZM65.6047 135V51H115.405V69H84.8047V83.76H111.805V101.76H84.8047V117H116.605V135H65.6047ZM243.828 51L220.188 135H201.828L184.308 81L167.028 135H148.668L123.828 51H145.548L159.708 104.04L175.428 51H194.748L210.948 104.04L225.348 51H243.828ZM285.468 111.96C285.468 109.72 284.268 107.72 281.868 105.96C279.468 104.12 276.548 102.4 273.108 100.8C269.668 99.2 266.228 97.4 262.788 95.4C259.348 93.4 256.428 90.56 254.028 86.88C251.628 83.2 250.428 78.84 250.428 73.8C250.428 67.08 252.908 61.36 257.868 56.64C262.828 51.92 269.388 49.56 277.548 49.56C288.268 49.56 296.508 52.64 302.268 58.8L291.948 73.2C289.788 71.2 287.828 69.76 286.068 68.88C284.388 68 282.108 67.56 279.228 67.56C276.588 67.56 274.508 68.12 272.988 69.24C271.548 70.36 270.828 71.88 270.828 73.8C270.828 75.96 271.668 77.88 273.348 79.56C275.108 81.24 277.268 82.64 279.828 83.76C282.468 84.8 285.308 86.12 288.348 87.72C291.388 89.32 294.188 91.04 296.748 92.88C299.388 94.64 301.548 97.16 303.228 100.44C304.988 103.64 305.868 107.4 305.868 111.72C305.868 118.92 303.108 124.84 297.588 129.48C292.148 134.12 285.308 136.44 277.068 136.44C271.068 136.44 265.308 135.2 259.788 132.72C254.268 130.24 250.548 126.88 248.628 122.64L259.548 109.56C261.788 112.44 264.548 114.64 267.828 116.16C271.188 117.68 274.428 118.44 277.548 118.44C280.028 118.44 281.948 117.88 283.308 116.76C284.748 115.56 285.468 113.96 285.468 111.96Z" fill="#5FA4F1"/>
<path d="M31.66 203.99L37.15 214.79C35.23 216.95 32.38 218.72 28.6 220.1C24.82 221.42 20.83 222.08 16.63 222.08C6.85 222.08 -1.1 219.11 -7.22 213.17C-13.34 207.17 -16.4 199.28 -16.4 189.5C-16.4 180.02 -13.52 172.22 -7.76 166.1C-2 159.98 6.1 156.92 16.54 156.92C20.56 156.92 24.28 157.55 27.7 158.81C31.12 160.01 33.82 161.57 35.8 163.49L29.41 174.29C25.15 171.71 20.86 170.42 16.54 170.42C11.44 170.42 7.21 172.1 3.85 175.46C0.550001 178.82 -1.1 183.5 -1.1 189.5C-1.1 195.08 0.670001 199.67 4.21 203.27C7.75 206.81 12.34 208.58 17.98 208.58C23.02 208.58 27.58 207.05 31.66 203.99ZM39.85 189.5C39.85 180.2 42.94 172.46 49.12 166.28C55.36 160.04 63.43 156.92 73.33 156.92C83.11 156.92 91.12 159.89 97.36 165.83C103.66 171.77 106.81 179.66 106.81 189.5C106.81 198.98 103.63 206.78 97.27 212.9C90.97 219.02 82.99 222.08 73.33 222.08C63.55 222.08 55.51 219.11 49.21 213.17C42.97 207.23 39.85 199.34 39.85 189.5ZM55.15 189.5C55.15 194.9 56.92 199.43 60.46 203.09C64 206.75 68.29 208.58 73.33 208.58C79.09 208.58 83.56 206.81 86.74 203.27C89.92 199.67 91.51 195.08 91.51 189.5C91.51 183.86 89.77 179.27 86.29 175.73C82.81 172.19 78.49 170.42 73.33 170.42C68.05 170.42 63.7 172.19 60.28 175.73C56.86 179.21 55.15 183.8 55.15 189.5ZM173.43 221H161.91L132.03 183.2V221H118.53V158H130.05L159.93 195.98V158H173.43V221ZM182.433 171.5V158H234.633V171.5H215.733V221H201.333V171.5H182.433ZM243.598 221V158H280.948V171.5H257.998V182.57H278.248V196.07H257.998V207.5H281.848V221H243.598ZM350.266 221H338.746L308.866 183.2V221H295.366V158H306.886L336.766 195.98V158H350.266V221ZM359.269 171.5V158H411.469V171.5H392.569V221H378.169V171.5H359.269Z" fill="white"/>
</g>
<defs>
<clipPath id="clip0_154_451">
<rect width="385" height="202" rx="20" fill="white"/>
</clipPath>
</defs>
</svg>
