<svg width="49" height="49" viewBox="0 0 49 49" fill="none" xmlns="http://www.w3.org/2000/svg">
<g id="Group 29">
<path id="Vector" d="M15.4556 1.55919C17.0678 4.82748 18.7098 8.1563 20.3219 11.4246C20.7996 12.393 22.4883 11.56 22.0106 10.5916C20.3984 7.32334 18.7564 3.99452 17.1443 0.726227C16.6666 -0.242157 14.978 0.590803 15.4556 1.55919Z" fill="white"/>
<path id="Vector_2" d="M37.473 29.0203C40.6823 29.8803 43.9511 30.7561 47.1604 31.616C48.1113 31.8708 48.5724 30.1498 47.6215 29.895C44.4122 29.035 41.1435 28.1592 37.9342 27.2993C36.9833 27.0445 36.5221 28.7655 37.473 29.0203Z" fill="white"/>
<path id="Vector_3" d="M33.216 1.20005C32.924 3.73519 32.6265 6.31727 32.3344 8.85241C32.2479 9.60356 33.9306 9.79741 34.0171 9.04626C34.3092 6.51113 34.6067 3.92904 34.8987 1.3939C34.9852 0.642753 33.3026 0.448899 33.216 1.20005Z" fill="white"/>
<path id="Vector_4" d="M46.3286 11.4788C44.1489 12.0629 41.9288 12.6577 39.749 13.2418C39.1032 13.4148 39.5416 15.0509 40.1874 14.8779C42.3672 14.2938 44.5873 13.699 46.767 13.1149C47.4129 12.9418 46.9745 11.3057 46.3286 11.4788Z" fill="white"/>
<path id="Vector_5" d="M33.5383 13.6416C23.5094 14.9869 13.9613 18.3853 4.00106 19.943C3.38284 20.0138 3.24546 21.005 3.6576 21.4298C6.26787 23.9787 8.67207 26.6691 11.145 29.3596C7.91647 32.758 4.06975 35.3777 0.978644 38.847C0.566496 39.1302 0.291731 39.7674 0.703879 40.263C3.10807 43.0243 6.0618 45.2191 8.19123 48.1928C8.466 48.6176 9.15291 48.83 9.56506 48.4052C12.7935 44.2279 16.2968 40.1922 19.9374 36.3689C22.0669 38.9178 24.6771 40.9002 27.0126 43.2367C27.4935 43.7323 28.3178 43.5199 28.4552 42.8118C30.7907 33.5369 31.6837 23.9079 34.5 14.7745C34.5 14.2789 34.0879 13.5708 33.5383 13.6416ZM27.0126 40.9002C24.8145 38.847 22.4103 37.0061 20.6244 34.5281C20.2809 34.1033 19.7314 33.8909 19.2505 34.3157C15.6099 38.139 12.1753 42.1038 8.87814 46.2811C6.95479 43.8739 4.55059 41.8914 2.48985 39.6258C5.78704 36.1565 9.70244 33.4661 12.8622 29.926C13.2057 29.572 13.2057 29.0056 12.8622 28.6516C10.5954 26.1735 8.39731 23.6955 6.0618 21.2882C14.8543 19.7306 23.4407 16.8277 32.3019 15.4825C29.8977 23.8371 29.0047 32.5456 27.0126 40.9002Z" fill="white"/>
</g>
</svg>
