<svg width="50" height="48" viewBox="0 0 50 48" fill="none" xmlns="http://www.w3.org/2000/svg">
<g id="Frame" clip-path="url(#clip0_164_416)">
<path id="Vector" d="M37.5651 30.6623C33.8728 26.8095 29.8594 23.2777 26.0066 19.6657C23.0367 16.9366 20.2273 13.8061 17.0969 11.3178C20.0668 4.7359 13.0032 -2.48819 6.26076 0.883052C5.93969 1.04359 5.77915 1.28439 5.77915 1.52519C5.61862 1.92653 5.61862 2.32787 5.93969 2.64894C7.3845 4.17402 9.07012 5.37804 10.4347 6.98339C10.5149 8.90981 9.23066 10.2744 7.30424 10.4349C5.69889 8.82954 3.933 7.38472 2.16711 6.02018C1.60524 5.69911 1.12363 5.85964 0.882832 6.26098C0.722296 6.42151 0.642029 6.58205 0.561761 6.74258C-2.08707 13.6456 5.37781 20.8697 11.9598 17.0971C15.4113 19.8262 18.622 23.358 21.7524 26.3279C25.2842 29.6188 28.8159 32.8295 32.1872 36.281C28.7357 43.0235 35.8795 50.6489 42.7825 47.1974C43.1036 47.0369 43.2641 46.7961 43.2641 46.475C43.4246 46.154 43.4246 45.6723 43.1036 45.3513C41.6588 43.8262 39.9731 42.6222 38.6086 41.0168C38.5283 39.0904 39.8126 37.7259 41.739 37.5653C43.3444 39.1707 45.1103 40.6155 46.8761 41.98C47.3578 42.3814 47.8394 42.1406 48.1604 41.7392C48.321 41.659 48.4012 41.4984 48.4815 41.2576C51.1303 34.5152 44.0668 27.4516 37.5651 30.6623ZM43.0233 35.96C42.943 35.8797 42.7825 35.7994 42.7022 35.7192C42.5417 35.5586 42.3812 35.5586 42.0601 35.5586C38.8494 35.7192 36.2808 38.1272 36.6822 41.4984C36.6822 41.5787 36.7624 41.659 36.7624 41.7392C36.7624 41.8998 36.8427 42.0603 37.0032 42.1406C38.127 43.5051 39.4915 44.6289 40.7758 45.8329C36.04 47.1974 31.6253 41.8195 33.9531 37.2443C33.9531 37.164 34.0333 37.0837 34.0333 37.0035C34.5149 36.6824 34.7557 35.96 34.2741 35.4784C30.4213 31.465 26.2474 27.7727 22.1537 24.0001C18.943 21.1105 15.9731 17.659 12.5216 15.0904C12.1203 14.7693 11.6387 14.8496 11.3979 15.1707C11.3176 15.1707 11.1571 15.2509 11.0768 15.3312C6.26076 18.1406 1.28417 13.4048 2.08684 8.58874C3.53166 9.63222 4.89621 10.756 6.10022 12.0402C6.18049 12.1205 6.34103 12.2008 6.42129 12.281C6.58183 12.4416 6.74236 12.4416 7.06343 12.4416C10.2741 12.281 12.8427 9.87302 12.4414 6.50178C12.4414 6.42151 12.3611 6.34125 12.3611 6.26098C12.3611 6.10044 12.2808 5.93991 12.1203 5.85964C10.9965 4.49509 9.632 3.37135 8.34771 2.16733C13.0835 0.802784 17.4982 6.18071 15.1705 10.756C15.0902 10.9165 15.0902 10.9968 15.0902 11.1573C14.8494 11.5586 14.9297 12.1205 15.4113 12.5218C19.0233 15.2509 22.3143 18.9433 25.6052 22.0737C29.2975 25.5252 33.1504 28.9767 36.6822 32.669C37.0032 32.9901 37.3243 32.9901 37.6454 32.9098C37.8059 32.9098 37.8862 32.8295 38.0467 32.7493C42.8628 29.9399 47.8394 34.6757 47.0367 39.4917C45.5919 38.368 44.2273 37.2443 43.0233 35.96Z" fill="white"/>
</g>
<defs>
<clipPath id="clip0_164_416">
<rect width="49.1237" height="48" fill="white"/>
</clipPath>
</defs>
</svg>
