<svg width="159" height="40" viewBox="0 0 159 40" fill="none" xmlns="http://www.w3.org/2000/svg">
<g clip-path="url(#clip0_51_22)">
<mask id="mask0_51_22" style="mask-type:luminance" maskUnits="userSpaceOnUse" x="0" y="0" width="159" height="40">
<path d="M158.742 0H0V40H158.742V0Z" fill="white"/>
</mask>
<g mask="url(#mask0_51_22)">
<path d="M58.862 27.0621L53.062 19.8901C53.0455 19.8705 53.0365 19.8457 53.0365 19.8201C53.0365 19.7945 53.0455 19.7697 53.062 19.7501L58.545 13.1561C58.5589 13.1405 58.5681 13.1211 58.5712 13.1003C58.5744 13.0796 58.5715 13.0584 58.5628 13.0393C58.5541 13.0202 58.54 13.0041 58.5223 12.9928C58.5045 12.9816 58.4839 12.9758 58.463 12.9761H55.418C55.4024 12.9763 55.387 12.9797 55.3729 12.9863C55.3587 12.9928 55.3462 13.0023 55.336 13.0141L50.665 18.7221C50.6504 18.7387 50.6311 18.7505 50.6097 18.7559C50.5883 18.7614 50.5657 18.7601 50.545 18.7524C50.5243 18.7447 50.5064 18.7309 50.4937 18.7128C50.481 18.6947 50.4741 18.6732 50.474 18.6511V13.0851C50.4741 13.0708 50.4714 13.0567 50.466 13.0434C50.4607 13.0302 50.4527 13.0182 50.4427 13.0081C50.4326 12.9979 50.4207 12.9899 50.4075 12.9844C50.3944 12.9789 50.3802 12.9761 50.366 12.9761H47.694C47.6651 12.9761 47.6373 12.9876 47.6169 13.008C47.5964 13.0285 47.585 13.0562 47.585 13.0851V27.1301C47.585 27.159 47.5964 27.1867 47.6169 27.2072C47.6373 27.2276 47.6651 27.2391 47.694 27.2391H50.366C50.3802 27.2391 50.3944 27.2363 50.4075 27.2308C50.4207 27.2253 50.4326 27.2172 50.4427 27.2071C50.4527 27.197 50.4607 27.1849 50.466 27.1717C50.4714 27.1585 50.4741 27.1444 50.474 27.1301V21.2301C50.474 21.2075 50.4811 21.1856 50.4941 21.1672C50.5072 21.1488 50.5256 21.1349 50.5469 21.1275C50.5682 21.12 50.5913 21.1193 50.6129 21.1255C50.6346 21.1317 50.6538 21.1445 50.668 21.1621L55.552 27.2001C55.5622 27.2129 55.5751 27.2232 55.5898 27.2303C55.6045 27.2374 55.6206 27.2411 55.637 27.2411H58.778C58.7987 27.2412 58.8191 27.2353 58.8367 27.2242C58.8542 27.2131 58.8683 27.1972 58.8771 27.1784C58.8859 27.1596 58.8892 27.1386 58.8865 27.118C58.8838 27.0974 58.8753 27.078 58.862 27.0621Z" fill="#333333"/>
<path d="M65.2281 18.1319L63.1221 23.4999C63.114 23.5198 63.1002 23.5368 63.0824 23.5488C63.0646 23.5608 63.0436 23.5672 63.0221 23.5672C63.0007 23.5672 62.9797 23.5608 62.9619 23.5488C62.9441 23.5368 62.9302 23.5198 62.9221 23.4999L60.7841 18.1339C60.776 18.114 60.7622 18.0968 60.7444 18.0845C60.7266 18.0723 60.7057 18.0655 60.6841 18.0649H58.0931C58.0748 18.0648 58.0568 18.0693 58.0407 18.078C58.0246 18.0867 58.0109 18.0992 58.001 18.1146C57.991 18.1299 57.9851 18.1475 57.9837 18.1658C57.9823 18.184 57.9856 18.2023 57.9931 18.2189L61.6571 26.2789C61.6633 26.2928 61.6665 26.3078 61.6665 26.3229C61.6665 26.3381 61.6633 26.3531 61.6571 26.3669L59.4571 31.4769C59.45 31.4935 59.4471 31.5116 59.4487 31.5295C59.4503 31.5475 59.4563 31.5648 59.4662 31.5799C59.4761 31.5949 59.4896 31.6073 59.5055 31.6159C59.5214 31.6244 59.5391 31.6289 59.5571 31.6289H61.9351C61.9564 31.6288 61.9772 31.6225 61.9949 31.6108C62.0126 31.599 62.0266 31.5824 62.0351 31.5629L67.8351 18.2169C67.8422 18.2004 67.8451 18.1823 67.8435 18.1643C67.842 18.1464 67.8359 18.1291 67.826 18.114C67.8161 18.099 67.8026 18.0866 67.7868 18.078C67.7709 18.0695 67.7532 18.065 67.7351 18.0649H65.3291C65.3076 18.0651 65.2866 18.0715 65.2687 18.0834C65.2507 18.0953 65.2367 18.1122 65.2281 18.1319Z" fill="#333333"/>
<path d="M78.3648 19.9881C77.9955 19.3011 77.4413 18.7312 76.7648 18.3431C76.1151 17.9739 75.38 17.7812 74.6328 17.7841C73.9148 17.7678 73.2098 17.9777 72.6177 18.3841C72.2765 18.6239 71.9802 18.9222 71.7427 19.2651C71.7302 19.2857 71.7111 19.3015 71.6885 19.31C71.6659 19.3185 71.6411 19.3191 71.6181 19.3119C71.5951 19.3046 71.5751 19.2899 71.5615 19.27C71.5478 19.2501 71.5412 19.2262 71.5427 19.2021V18.1721C71.5427 18.1432 71.5313 18.1155 71.5108 18.095C71.4904 18.0746 71.4627 18.0631 71.4338 18.0631H69.0997C69.0855 18.0631 69.0714 18.0659 69.0582 18.0714C69.045 18.0769 69.0331 18.0849 69.023 18.0951C69.013 18.1052 69.0051 18.1172 68.9997 18.1305C68.9943 18.1437 68.9916 18.1578 68.9917 18.1721V31.5181C68.9916 31.5324 68.9943 31.5465 68.9997 31.5597C69.0051 31.5729 69.013 31.585 69.023 31.5951C69.0331 31.6052 69.045 31.6133 69.0582 31.6188C69.0714 31.6243 69.0855 31.6271 69.0997 31.6271H71.4378C71.4667 31.6271 71.4944 31.6156 71.5148 31.5952C71.5353 31.5747 71.5467 31.547 71.5467 31.5181V26.1001C71.5452 26.076 71.5518 26.0521 71.5655 26.0322C71.5791 26.0123 71.5991 25.9976 71.6221 25.9903C71.6451 25.983 71.6699 25.9837 71.6925 25.9922C71.7151 26.0007 71.7342 26.0165 71.7467 26.0371C71.9836 26.3814 72.2799 26.6807 72.6217 26.9211C73.2138 27.3275 73.9188 27.5374 74.6367 27.5211C75.384 27.524 76.1191 27.3313 76.7687 26.9621C77.4472 26.572 78.0018 25.9984 78.3687 25.3071C78.7748 24.5738 78.9781 23.6894 78.9787 22.6541C78.9761 21.6021 78.7714 20.7134 78.3648 19.9881ZM76.0068 24.0471C75.7967 24.4196 75.4844 24.7243 75.1068 24.9251C74.7288 25.1258 74.3067 25.2289 73.8787 25.2251C73.4901 25.2231 73.1081 25.1238 72.7677 24.9361C72.3983 24.7343 72.0923 24.4338 71.8838 24.0681C71.6538 23.6828 71.5391 23.2108 71.5398 22.6521C71.5235 22.1576 71.6425 21.668 71.8838 21.2361C72.0923 20.8704 72.3983 20.5699 72.7677 20.3681C73.1083 20.1809 73.4901 20.0816 73.8787 20.0791C74.3067 20.0753 74.7288 20.1784 75.1068 20.3791C75.4844 20.5799 75.7967 20.8845 76.0068 21.2571C76.2263 21.6897 76.3408 22.168 76.3408 22.6531C76.3408 23.1382 76.2263 23.6165 76.0068 24.0491V24.0471Z" fill="#333333"/>
<path d="M84.1139 20.3269C84.517 20.0939 84.9753 19.9733 85.4409 19.9779C85.8148 19.9792 86.1861 20.04 86.5409 20.1579C86.9021 20.2747 87.2434 20.446 87.5529 20.6659C87.7409 20.799 87.9092 20.9579 88.0529 21.1379C88.0664 21.1563 88.0854 21.17 88.1072 21.1769C88.129 21.1838 88.1524 21.1836 88.174 21.1764C88.1957 21.1692 88.2145 21.1553 88.2278 21.1367C88.2411 21.1181 88.2481 21.0958 88.2479 21.0729V18.8319C88.2479 18.816 88.2445 18.8003 88.2379 18.7858C88.2314 18.7714 88.2218 18.7584 88.2099 18.7479C87.8573 18.4618 87.453 18.2462 87.0189 18.1129C86.4494 17.9374 85.8557 17.8533 85.2599 17.8639C84.3622 17.8505 83.4749 18.0565 82.6749 18.4639C81.9287 18.8445 81.3029 19.4247 80.8669 20.1399C80.4275 20.8579 80.2082 21.6956 80.2089 22.6529C80.192 23.5312 80.4198 24.3968 80.8669 25.1529C81.3003 25.8727 81.9266 26.4567 82.6749 26.8389C83.4749 27.2463 84.3622 27.4523 85.2599 27.4389C85.8557 27.4495 86.4494 27.3655 87.0189 27.1899C87.4574 27.056 87.8635 26.833 88.2119 26.5349C88.2233 26.5244 88.2324 26.5115 88.2386 26.4972C88.2448 26.4829 88.248 26.4675 88.2479 26.4519V24.2129C88.249 24.1891 88.2423 24.1655 88.2287 24.1458C88.2151 24.1261 88.1954 24.1115 88.1727 24.1041C88.15 24.0967 88.1254 24.097 88.1029 24.1049C88.0803 24.1128 88.061 24.1279 88.0479 24.1479C87.9093 24.3252 87.7471 24.4826 87.5659 24.6159C87.2636 24.8389 86.9287 25.0136 86.5729 25.1339C86.2062 25.2607 85.8208 25.3249 85.4329 25.3239C84.9685 25.3292 84.5109 25.2123 84.1059 24.9849C83.7103 24.7628 83.3813 24.439 83.1529 24.0469C82.9095 23.6212 82.7871 23.1371 82.7989 22.6469C82.7876 22.1778 82.9031 21.7144 83.1331 21.3054C83.3631 20.8964 83.6992 20.557 84.1059 20.3229L84.1139 20.3269Z" fill="#333333"/>
<path d="M104.5 12.978H103.027C103.006 12.9779 102.985 12.9841 102.967 12.9959C102.949 13.0076 102.935 13.0244 102.927 13.044L98.935 21.838C98.9268 21.8579 98.913 21.8749 98.8952 21.8869C98.8774 21.8988 98.8564 21.9052 98.835 21.9052C98.8135 21.9052 98.7925 21.8988 98.7747 21.8869C98.7569 21.8749 98.7431 21.8579 98.735 21.838L94.743 13.044C94.7345 13.0245 94.7205 13.0079 94.7027 12.9962C94.685 12.9845 94.6642 12.9782 94.643 12.978H93.168C93.1417 12.9782 93.1164 12.9878 93.0966 13.0051C93.0768 13.0223 93.0638 13.046 93.06 13.072L91.046 27.115C91.0438 27.1305 91.045 27.1462 91.0495 27.1611C91.0539 27.1761 91.0615 27.1899 91.0717 27.2016C91.082 27.2134 91.0946 27.2228 91.1088 27.2292C91.123 27.2357 91.1384 27.239 91.154 27.239H93.534C93.5612 27.2389 93.5874 27.2285 93.6074 27.21C93.6274 27.1915 93.6397 27.1662 93.642 27.139L94.635 18.965C94.638 18.9418 94.6484 18.9201 94.6646 18.9033C94.6809 18.8864 94.7022 18.8752 94.7253 18.8714C94.7484 18.8676 94.7722 18.8713 94.793 18.8821C94.8138 18.8928 94.8306 18.91 94.841 18.931C96.082 21.465 97.058 24.656 98.319 27.143C98.3283 27.1614 98.3426 27.1767 98.3604 27.1871C98.3781 27.1976 98.3984 27.2027 98.419 27.202H99.269C99.2895 27.2027 99.3098 27.1976 99.3276 27.1871C99.3453 27.1767 99.3596 27.1614 99.369 27.143C100.545 24.821 101.659 21.337 102.83 18.931C102.84 18.91 102.857 18.8928 102.878 18.8821C102.899 18.8714 102.923 18.8678 102.946 18.8717C102.969 18.8756 102.99 18.8869 103.007 18.9039C103.023 18.9209 103.033 18.9427 103.036 18.966L104.029 27.139C104.031 27.1662 104.044 27.1915 104.064 27.21C104.084 27.2285 104.11 27.2389 104.137 27.239H106.517C106.532 27.2389 106.548 27.2355 106.562 27.2289C106.576 27.2224 106.588 27.213 106.599 27.2012C106.609 27.1895 106.616 27.1757 106.621 27.1609C106.625 27.146 106.626 27.1304 106.624 27.115L104.6 13.072C104.597 13.0472 104.585 13.0242 104.567 13.0071C104.549 12.99 104.525 12.9797 104.5 12.978Z" fill="#333333"/>
<path d="M116.07 19.15C115.703 18.6989 115.218 18.3575 114.67 18.163C114.005 17.9255 113.302 17.8107 112.596 17.824C111.841 17.8151 111.091 17.9331 110.375 18.173C109.825 18.358 109.29 18.5843 108.775 18.85C108.75 18.8638 108.731 18.8868 108.723 18.9141C108.715 18.9414 108.718 18.9708 108.731 18.996L109.552 20.573C109.559 20.586 109.568 20.5975 109.579 20.6068C109.591 20.6161 109.604 20.623 109.618 20.6272C109.632 20.6313 109.646 20.6325 109.661 20.6308C109.675 20.629 109.689 20.6244 109.702 20.617C109.839 20.5364 110.019 20.443 110.244 20.337C110.561 20.1917 110.89 20.0749 111.227 19.988C111.622 19.8861 112.028 19.8361 112.436 19.839C112.936 19.839 113.336 19.955 113.654 20.188C113.807 20.2975 113.93 20.4432 114.012 20.612C114.094 20.7808 114.134 20.9674 114.126 21.155V22.035C114.127 22.0535 114.123 22.0719 114.114 22.0883C114.106 22.1047 114.093 22.1186 114.077 22.1287C114.062 22.1388 114.044 22.1446 114.026 22.1458C114.007 22.1469 113.989 22.1432 113.972 22.135C113.692 22.0048 113.402 21.8977 113.104 21.815C112.662 21.693 112.206 21.6328 111.748 21.636C111.046 21.6204 110.349 21.7424 109.694 21.995C109.154 22.2015 108.683 22.5577 108.338 23.022C108.009 23.4917 107.84 24.0548 107.856 24.628C107.856 25.2394 107.997 25.7547 108.279 26.174C108.562 26.5942 108.961 26.9231 109.428 27.121C109.95 27.3408 110.513 27.4494 111.079 27.44C111.662 27.4487 112.241 27.3366 112.779 27.111C113.262 26.9086 113.68 26.5776 113.987 26.154C114.037 26.0835 114.083 26.01 114.125 25.934V27.134C114.125 27.163 114.136 27.1907 114.157 27.2111C114.177 27.2316 114.205 27.243 114.234 27.243H116.473C116.502 27.243 116.53 27.2316 116.55 27.2111C116.571 27.1907 116.582 27.163 116.582 27.134V20.736C116.599 20.1643 116.418 19.6042 116.07 19.15ZM113.829 24.785C113.639 25.0862 113.356 25.3173 113.023 25.443C112.666 25.5797 112.286 25.6476 111.903 25.643C111.645 25.6462 111.388 25.6022 111.146 25.513C110.934 25.4396 110.747 25.3083 110.606 25.134C110.469 24.9542 110.398 24.7322 110.406 24.506C110.399 24.251 110.471 24.0001 110.613 23.788C110.77 23.5728 110.984 23.4066 111.232 23.309C111.55 23.1821 111.89 23.1212 112.232 23.13C112.706 23.1203 113.179 23.1879 113.632 23.33C113.801 23.3877 113.965 23.4576 114.123 23.539V23.569C114.124 24.0744 114.026 24.4797 113.829 24.785Z" fill="#333333"/>
<path d="M128.256 19.9881C127.887 19.3011 127.332 18.7312 126.656 18.3431C126.006 17.9739 125.271 17.7811 124.523 17.7841C123.805 17.7679 123.101 17.9778 122.509 18.3841C122.168 18.6239 121.871 18.9221 121.634 19.2651C121.621 19.2857 121.602 19.3015 121.58 19.31C121.557 19.3184 121.532 19.3191 121.509 19.3119C121.486 19.3046 121.466 19.2899 121.453 19.27C121.439 19.2501 121.432 19.2262 121.434 19.2021V18.1721C121.434 18.1432 121.422 18.1154 121.402 18.095C121.382 18.0746 121.354 18.0631 121.325 18.0631H118.987C118.958 18.0631 118.93 18.0746 118.91 18.095C118.889 18.1154 118.878 18.1432 118.878 18.1721V31.5181C118.878 31.547 118.889 31.5747 118.91 31.5951C118.93 31.6156 118.958 31.6271 118.987 31.6271H121.325C121.354 31.6271 121.382 31.6156 121.402 31.5951C121.422 31.5747 121.434 31.547 121.434 31.5181V26.1001C121.432 26.076 121.439 26.0521 121.453 26.0322C121.466 26.0123 121.486 25.9975 121.509 25.9903C121.532 25.983 121.557 25.9837 121.58 25.9922C121.602 26.0007 121.621 26.0165 121.634 26.0371C121.871 26.3814 122.167 26.6807 122.509 26.9211C123.101 27.3274 123.805 27.5373 124.523 27.5211C125.271 27.524 126.006 27.3313 126.656 26.9621C127.334 26.572 127.889 25.9984 128.256 25.3071C128.662 24.5737 128.865 23.6894 128.865 22.6541C128.865 21.6021 128.662 20.7134 128.256 19.9881ZM125.9 24.0471C125.692 24.4189 125.381 24.7235 125.006 24.9251C124.628 25.1258 124.206 25.2289 123.778 25.2251C123.389 25.2232 123.007 25.1239 122.667 24.9361C122.297 24.7343 121.991 24.4338 121.782 24.0681C121.556 23.6301 121.439 23.1447 121.439 22.6521C121.439 22.1595 121.556 21.674 121.782 21.2361C121.991 20.8703 122.297 20.5698 122.667 20.3681C123.007 20.1807 123.389 20.0814 123.778 20.0791C124.206 20.0753 124.628 20.1784 125.006 20.3791C125.381 20.5807 125.692 20.8853 125.9 21.2571C126.12 21.6895 126.235 22.1678 126.235 22.6531C126.235 23.1383 126.12 23.6167 125.9 24.0491V24.0471Z" fill="#333333"/>
<path d="M139.791 27.062L135.707 21.93C135.69 21.9088 135.682 21.8823 135.684 21.8556C135.686 21.8288 135.698 21.8037 135.717 21.785L139.346 18.25C139.361 18.2349 139.372 18.2156 139.376 18.1945C139.381 18.1734 139.379 18.1514 139.371 18.1314C139.363 18.1114 139.349 18.0942 139.331 18.082C139.313 18.0698 139.292 18.0632 139.271 18.063H136.535C136.521 18.063 136.507 18.0657 136.494 18.071C136.481 18.0763 136.47 18.0841 136.46 18.094L133.354 21.118C133.339 21.133 133.319 21.1432 133.299 21.1473C133.278 21.1513 133.256 21.1491 133.236 21.1409C133.217 21.1326 133.2 21.1188 133.188 21.101C133.176 21.0832 133.17 21.0623 133.17 21.041V18.172C133.17 18.1431 133.158 18.1154 133.138 18.0949C133.118 18.0745 133.09 18.063 133.061 18.063H130.821C130.807 18.063 130.793 18.0658 130.779 18.0713C130.766 18.0768 130.754 18.0848 130.744 18.095C130.734 18.1051 130.726 18.1171 130.721 18.1304C130.715 18.1436 130.713 18.1577 130.713 18.172V27.13C130.713 27.1443 130.715 27.1584 130.721 27.1716C130.726 27.1848 130.734 27.1969 130.744 27.207C130.754 27.2171 130.766 27.2252 130.779 27.2307C130.793 27.2362 130.807 27.239 130.821 27.239H133.061C133.09 27.239 133.118 27.2275 133.138 27.2071C133.158 27.1866 133.17 27.1589 133.17 27.13V22.876C133.17 22.8537 133.177 22.832 133.19 22.8139C133.203 22.7957 133.222 22.782 133.243 22.7746C133.264 22.7672 133.287 22.7664 133.308 22.7724C133.33 22.7784 133.349 22.7908 133.363 22.808L136.871 27.198C136.881 27.2108 136.894 27.2211 136.909 27.2282C136.923 27.2353 136.94 27.239 136.956 27.239H139.706C139.726 27.239 139.746 27.2331 139.764 27.2222C139.781 27.2113 139.795 27.1957 139.804 27.1772C139.813 27.1587 139.816 27.1381 139.814 27.1177C139.812 27.0973 139.804 27.078 139.791 27.062Z" fill="#333333"/>
<path d="M149.405 20.038C149.045 19.3539 148.488 18.7941 147.805 18.432C147.104 18.0527 146.255 17.8633 145.259 17.864C144.355 17.864 143.562 18.0237 142.881 18.343C142.229 18.6375 141.667 19.0983 141.25 19.679C140.833 20.2759 140.557 20.9598 140.444 21.679C140.417 21.838 140.398 21.998 140.385 22.157C140.372 22.316 140.365 22.483 140.365 22.657C140.351 23.5134 140.55 24.3599 140.945 25.12C141.327 25.8406 141.911 26.4336 142.626 26.826C143.359 27.238 144.231 27.444 145.24 27.444C146.078 27.444 146.789 27.3377 147.372 27.125C147.925 26.9307 148.431 26.6212 148.856 26.217C149.239 25.8459 149.572 25.4267 149.847 24.97C149.855 24.9559 149.861 24.94 149.862 24.9236C149.863 24.9072 149.861 24.8906 149.855 24.8752C149.849 24.8598 149.84 24.8459 149.828 24.8347C149.816 24.8234 149.802 24.8149 149.786 24.81L147.777 24.178C147.754 24.1709 147.729 24.1717 147.707 24.1802C147.684 24.1888 147.665 24.2045 147.653 24.225C147.504 24.4602 147.32 24.6713 147.107 24.851C146.868 25.0487 146.594 25.2009 146.3 25.3C145.964 25.4115 145.612 25.4653 145.258 25.459C144.84 25.4661 144.427 25.3666 144.058 25.17C143.689 24.9611 143.397 24.6398 143.223 24.253C143.091 23.9682 143.004 23.6646 142.965 23.353C142.963 23.3377 142.964 23.322 142.969 23.3072C142.973 23.2924 142.981 23.2787 142.991 23.2671C143.001 23.2555 143.014 23.2461 143.028 23.2397C143.042 23.2333 143.057 23.23 143.073 23.23H149.823C149.849 23.2301 149.874 23.221 149.894 23.2044C149.913 23.1877 149.927 23.1645 149.931 23.139C149.946 23.0374 149.954 22.9348 149.955 22.832V22.532C149.955 21.5613 149.772 20.73 149.405 20.038ZM143.123 21.638C143.107 21.6381 143.091 21.6347 143.077 21.628C143.062 21.6213 143.049 21.6115 143.039 21.5993C143.029 21.5871 143.021 21.5728 143.017 21.5573C143.013 21.5419 143.012 21.5258 143.015 21.51C143.06 21.2695 143.14 21.037 143.253 20.82C143.432 20.4657 143.71 20.171 144.053 19.972C144.408 19.7762 144.808 19.6765 145.213 19.683C145.575 19.6696 145.935 19.752 146.255 19.922C146.531 20.0829 146.756 20.3182 146.904 20.601C147.054 20.8864 147.155 21.1945 147.204 21.513C147.206 21.5285 147.205 21.5443 147.2 21.5593C147.196 21.5742 147.188 21.5881 147.178 21.5999C147.168 21.6118 147.155 21.6213 147.141 21.6278C147.127 21.6344 147.112 21.6379 147.096 21.638H143.123Z" fill="#333333"/>
<path d="M158.634 18.063H151.2C151.186 18.063 151.172 18.0659 151.158 18.0713C151.145 18.0768 151.133 18.0849 151.123 18.095C151.113 18.1051 151.105 18.1172 151.1 18.1304C151.095 18.1436 151.092 18.1578 151.092 18.172V20.129C151.092 20.1433 151.095 20.1574 151.1 20.1707C151.105 20.1839 151.113 20.1959 151.123 20.206C151.133 20.2162 151.145 20.2242 151.158 20.2297C151.172 20.2352 151.186 20.238 151.2 20.238H153.591C153.605 20.2379 153.619 20.2406 153.633 20.246C153.646 20.2513 153.658 20.2593 153.668 20.2693C153.678 20.2793 153.686 20.2913 153.692 20.3045C153.697 20.3176 153.7 20.3318 153.7 20.346V27.13C153.7 27.1443 153.703 27.1584 153.708 27.1717C153.713 27.1849 153.721 27.1969 153.731 27.207C153.741 27.2172 153.753 27.2252 153.766 27.2307C153.78 27.2362 153.794 27.239 153.808 27.239H156.048C156.077 27.239 156.105 27.2275 156.125 27.2071C156.146 27.1867 156.157 27.1589 156.157 27.13V20.346C156.157 20.3318 156.16 20.3178 156.165 20.3047C156.171 20.2916 156.179 20.2797 156.189 20.2697C156.199 20.2596 156.211 20.2517 156.224 20.2462C156.237 20.2408 156.251 20.238 156.265 20.238H158.637C158.651 20.238 158.665 20.2352 158.679 20.2297C158.692 20.2242 158.704 20.2162 158.714 20.206C158.724 20.1959 158.732 20.1839 158.737 20.1707C158.742 20.1574 158.745 20.1433 158.745 20.129V18.172C158.745 18.1575 158.742 18.1431 158.737 18.1297C158.731 18.1163 158.723 18.1041 158.713 18.0939C158.702 18.0838 158.69 18.0758 158.677 18.0705C158.663 18.0652 158.649 18.0626 158.634 18.063Z" fill="#333333"/>
<path d="M37 0H3C1.34315 0 0 1.34315 0 3V37C0 38.6569 1.34315 40 3 40H37C38.6569 40 40 38.6569 40 37V3C40 1.34315 38.6569 0 37 0Z" fill="#E66366"/>
<path d="M28.2357 5.0769H11.7637V6.4069H16.7637C16.6737 6.6599 16.5637 7.4169 16.4257 7.8559H15.3657C15.0207 7.8559 14.9657 8.1049 14.8827 8.5189C14.8407 8.7189 14.7827 9.0069 14.7207 9.3189C14.6587 9.6309 14.5107 10.3909 14.4127 10.9579C14.3237 10.9949 14.2297 11.0319 14.1327 11.0689C13.9018 11.1537 13.6755 11.2505 13.4547 11.3589C13.3154 11.4318 13.2097 11.5559 13.1597 11.705C13.1098 11.8541 13.1195 12.0168 13.1867 12.1589C13.3747 12.5489 13.5927 12.9379 13.8027 13.3129C14.0127 13.6879 14.2217 14.0599 14.4027 14.4359C14.2897 15.3049 14.2127 16.8089 14.7847 17.9539C15.2447 18.8729 15.9847 19.5539 17.0037 19.9989C16.2087 20.369 15.511 20.9196 14.9664 21.6069C14.4218 22.2943 14.0452 23.0993 13.8667 23.9579C13.4667 25.7479 14.1487 27.4139 14.4577 28.0469C14.6487 28.4379 14.8397 28.8059 15.0247 29.1619C15.7117 30.4879 16.3127 32.0739 16.4747 33.5929H11.7637V34.9229H28.2357V33.5929H23.3447C23.4647 33.2389 23.5837 32.4619 23.6627 32.2329L25.1097 32.2129L25.5857 29.0659L26.5447 28.7659L26.5827 28.7519C26.6602 28.7185 26.7298 28.6694 26.7871 28.6075C26.8445 28.5457 26.8883 28.4726 26.9158 28.3929C26.9433 28.3132 26.9538 28.2286 26.9467 28.1446C26.9397 28.0605 26.9151 27.9789 26.8747 27.9049C26.6057 27.4159 26.3277 26.9159 26.0487 26.4169L25.6587 25.7169C25.7927 25.1169 25.9867 23.4169 25.2087 21.9469C24.7557 21.0919 23.7837 20.4599 22.9837 20.0669C24.9437 19.2299 26.2837 17.1339 26.2347 14.7369C26.2037 13.1219 25.6777 12.1369 25.0127 10.8979C24.8427 10.5809 24.6667 10.2539 24.4797 9.8799C24.0797 8.7939 23.7457 7.1509 23.5567 6.4099H28.2357V5.0769ZM23.6997 10.1799L23.7217 10.2309C23.9157 10.6199 24.0987 10.9609 24.2747 11.2909C24.9357 12.5229 25.3747 13.3369 25.3977 14.7499C25.4377 16.8279 24.1367 19.2249 21.6477 19.5749C21.5492 19.5895 21.459 19.638 21.3924 19.7121C21.3258 19.7861 21.2871 19.881 21.283 19.9804C21.2789 20.0799 21.3095 20.1777 21.3697 20.257C21.4299 20.3363 21.5158 20.3921 21.6127 20.4149C21.8617 20.4719 23.8687 21.2009 24.4697 22.3359C25.1967 23.7099 24.9057 25.3699 24.8217 25.6169C24.8003 25.6763 24.7918 25.7396 24.7968 25.8025C24.8018 25.8655 24.8202 25.9266 24.8507 25.9819C25.006 26.2612 25.162 26.5409 25.3187 26.8209C25.5497 27.2349 25.7797 27.6479 26.0047 28.0549L25.0997 28.3429L25.0617 28.3569C24.9925 28.3871 24.9321 28.4344 24.8862 28.4944C24.8404 28.5544 24.8106 28.6252 24.7997 28.6999L24.3927 31.3889L23.3707 31.4029C23.0707 31.4029 23.0057 31.5859 22.8707 31.9879C22.8077 32.1699 22.7247 32.4129 22.6427 32.6559C22.5817 32.8359 22.5207 33.4409 22.4687 33.5959H17.3167C17.1517 31.8739 16.4797 30.1489 15.7687 28.7799C15.5867 28.4279 15.3977 28.0639 15.2117 27.6799C14.9407 27.1259 14.3477 25.6709 14.6857 24.1379C15.1767 21.9119 16.9797 20.6519 18.4477 20.4229C18.5438 20.4075 18.6318 20.3597 18.6971 20.2875C18.7624 20.2154 18.8012 20.1231 18.807 20.0259C18.8128 19.9288 18.7854 19.8325 18.7291 19.7531C18.6729 19.6736 18.5913 19.6157 18.4977 19.5889L18.3487 19.5529C17.8397 19.4389 16.2907 19.0909 15.5357 17.5789C15.0187 16.5469 15.1627 15.0369 15.2487 14.4329C15.2609 14.3494 15.248 14.2641 15.2117 14.1879C15.0117 13.7489 14.7667 13.3189 14.5337 12.9029C14.3607 12.5959 14.1957 12.3029 14.0457 12.0029C14.1707 11.9499 14.3037 11.9029 14.4347 11.8469C14.6097 11.7789 14.7907 11.7089 14.9537 11.6329C15.019 11.6028 15.0759 11.5572 15.1195 11.5C15.1631 11.4428 15.192 11.3758 15.2037 11.3049C15.3227 10.5689 15.5797 9.2779 15.7037 8.6889H16.7277C17.0377 8.6889 17.1067 8.4689 17.2027 8.1639C17.4077 7.5119 17.5587 6.6399 17.6547 6.4029H22.6937C22.8737 7.1369 23.2397 8.9409 23.6997 10.1799Z" fill="white" stroke="white" stroke-width="0.75" stroke-miterlimit="10"/>
</g>
</g>
<defs>
<clipPath id="clip0_51_22">
<rect width="159" height="40" fill="white"/>
</clipPath>
</defs>
</svg>
