<svg width="149" height="123" viewBox="0 0 149 123" fill="none" xmlns="http://www.w3.org/2000/svg">
<g id="Frame" clip-path="url(#clip0_163_89)">
<g id="Group">
<path id="Vector" d="M30.2339 64.9977C29.9334 65.2452 29.9559 65.8603 30.4368 65.9892C55.7829 72.6401 80.9885 79.8156 106.405 86.2042C106.711 86.2862 106.944 86.1145 107.058 85.8639C107.332 85.8905 107.598 85.7742 107.68 85.4682C112.19 67.9353 117.313 50.5664 122.042 33.0922C122.206 32.4801 121.399 32.1702 121.051 32.5925C95.9285 24.4084 70.0913 18.8909 44.5968 11.9192C44.4283 11.4992 43.6617 11.3875 43.5094 11.9558C38.8443 29.5409 34.5173 47.2635 30.2456 64.954C30.2339 64.9977 30.2339 64.9977 30.2339 64.9977ZM120.671 33.6619C116.068 50.8419 111.039 67.861 106.567 85.0762C81.4007 78.8016 56.4692 71.6526 31.3416 65.0603C35.5313 47.6757 39.8084 30.3146 44.3477 13.0237C69.7547 19.9721 95.5919 25.4895 120.671 33.6619Z" fill="#E66366"/>
<path id="Vector_2" d="M126.979 114.863C126.958 114.763 126.982 114.676 126.994 114.632C127.076 114.326 126.904 114.093 126.653 113.979C126.621 113.923 126.578 113.912 126.502 113.845C125.007 110.68 122.521 107.718 120.603 104.908C117.69 100.567 114.666 96.2892 112.141 91.7238C112.109 91.6683 112.077 91.6129 112.034 91.6012C115.288 80.8536 118.837 70.2317 121.961 59.4489C124.885 49.4093 127.218 39.3049 129.125 29.0396C129.148 28.9522 129.116 28.8968 129.14 28.8093C129.21 28.547 129.117 28.1942 128.768 28.1005C99.0734 20.1908 69.3355 12.2694 39.5859 4.39172C38.8864 4.2043 38.5936 5.29718 39.2931 5.48459C39.3805 5.50802 39.4679 5.53145 39.5553 5.55487C39.4445 5.61888 39.3656 5.73831 39.3305 5.86945C33.6878 26.7535 28.5259 47.7664 23.5506 68.7824C23.5506 68.7824 23.5506 68.7824 23.5069 68.7707C16.2349 72.3041 8.98323 75.9366 2.96244 81.445C2.55729 81.3833 2.28872 81.6862 2.25044 82.0039C2.19502 82.0359 2.12787 82.1116 2.09273 82.2428C1.41734 83.8891 0.873084 85.5706 0.547406 87.3106C0.52084 87.5846 0.648847 87.8063 0.843995 87.9523C0.829143 88.1826 0.945437 88.448 1.25144 88.53C15.832 92.3431 30.2868 96.4506 44.8204 100.439C58.7304 104.306 72.6637 108.087 86.4714 112.161C90.8952 113.487 95.2636 114.845 99.7373 115.809C107.886 117.571 116.191 118.578 124.472 119.673C124.395 120.308 125.401 120.577 125.588 119.878C125.986 118.392 126.373 116.949 126.771 115.463C126.993 115.335 127.095 115.128 126.979 114.863ZM128.038 29.0762C126.154 39.2541 123.801 49.2594 120.912 59.1678C117.812 69.8631 114.286 80.3976 111.055 91.0578C82.0616 84.5541 53.2354 77.2518 24.6552 69.0316C29.5985 47.9601 34.7486 26.9909 40.4351 6.11857C40.4819 5.94371 40.4616 5.84457 40.3976 5.73371C69.611 13.5145 98.8243 21.2954 128.038 29.0762ZM23.7621 69.9167C23.7941 69.9722 23.8815 69.9956 23.969 70.019C52.7677 78.2979 81.8008 85.7024 111.024 92.221C111.068 92.2327 111.068 92.2327 111.112 92.2444C111.155 92.2561 111.155 92.2561 111.199 92.2678C113.628 96.6669 116.544 100.822 119.373 104.953C120.776 107.063 122.222 109.184 123.625 111.293C124.064 111.926 124.492 112.603 124.963 113.292C110.462 108.657 95.2822 106.557 80.5471 102.796C80.8126 102.68 81.0374 102.365 80.8571 101.989C80.2319 100.65 79.6482 98.8069 78.6904 97.66C77.9161 96.7029 76.9864 96.5006 75.8061 96.1844C72.0466 95.177 68.3425 94.1377 64.6065 93.0429C61.1007 91.963 57.4615 90.3319 53.862 89.6017C51.4225 89.0886 49.726 91.3984 48.0217 92.8627C47.8991 92.9704 47.864 93.1016 47.8289 93.2327C41.9859 91.4328 36.175 89.6884 30.2969 88.0196C21.7201 85.5809 13.1169 83.4163 4.34103 81.7207C10.1018 76.658 16.8781 73.2261 23.7621 69.9167ZM79.8797 102.664C79.3551 102.523 78.8305 102.383 78.306 102.242C68.4381 99.5514 58.7076 96.5225 48.9655 93.5373C50.1357 92.4921 51.8931 90.4797 53.5692 90.6945C54.7089 90.8125 56.0258 91.4934 57.0515 91.8619C59.7587 92.7747 62.4456 93.5884 65.1762 94.4137C67.732 95.1923 70.3432 95.9388 72.9223 96.6299C74.7147 97.1101 76.9621 97.2906 78.1087 98.9566C78.8596 100.001 79.2748 101.424 79.8594 102.565C79.8477 102.609 79.8914 102.62 79.8797 102.664ZM87.7697 111.338C82.9642 109.863 78.1118 108.562 73.2829 107.175C56.2489 102.376 39.2352 97.6769 22.1778 92.9659C15.3699 91.0949 8.51839 89.2121 1.68713 87.4286C1.97767 85.8197 2.43135 84.3014 3.07161 82.7862C3.08332 82.7425 3.10675 82.6551 3.11847 82.6113C35.6192 88.7898 66.4387 101.593 98.8543 108.264C107.869 110.117 116.951 111.894 125.696 114.753C125.728 114.809 125.716 114.852 125.76 114.864C125.432 116.088 125.104 117.312 124.776 118.536C112.234 116.909 99.9365 115.066 87.7697 111.338Z" fill="#E66366"/>
<path id="Vector_3" d="M45.0764 30.4141C44.7204 30.6935 44.6439 31.3289 45.2239 31.4375C58.4915 33.6807 71.2617 37.4304 84.2685 40.8218C93.0786 43.0888 102.093 44.942 110.684 47.853C110.859 47.8999 111.002 47.8913 111.124 47.7836C111.279 47.7313 111.402 47.6236 111.46 47.405C112.018 44.2747 112.782 41.2466 113.733 38.2217C114.153 38.0531 114.253 37.3303 113.697 37.1343C102.806 33.8882 91.9072 30.4993 80.9582 27.4718C70.3589 24.538 59.5338 22.6214 48.8994 19.8187C49.0197 19.195 48.0025 18.9693 47.7831 19.6133C46.6391 23.0082 45.7021 26.5054 44.9953 30.0175C44.9602 30.1486 44.9687 30.2915 45.0764 30.4141ZM80.6333 28.5092C91.3638 31.4782 101.957 34.7851 112.629 37.9726C111.736 40.7789 111.007 43.6758 110.464 46.5759C101.993 43.7438 93.1529 41.9374 84.5613 39.729C71.7177 36.4281 59.1224 32.7252 46.053 30.4415C46.0647 30.3978 46.0765 30.354 46.0882 30.3103C46.7567 27.116 47.5446 24.0005 48.5628 20.8999C59.209 23.6588 70.034 25.5754 80.6333 28.5092Z" fill="#E66366"/>
<path id="Vector_4" d="M64.3206 39.5532C64.3354 39.3229 64.2074 39.1012 63.9014 39.0192C57.8805 37.359 51.7689 35.862 45.6543 34.5516C45.5668 34.5281 45.4794 34.5047 45.4357 34.493L45.392 34.4813C44.8557 34.3844 44.5488 35.005 44.7846 35.3493C42.1936 44.4943 39.9407 53.7767 37.9617 63.0857C37.5737 63.3098 37.6923 64.0912 38.284 64.156C44.5744 64.8107 50.6422 66.2961 56.5429 68.5799C56.8809 68.7174 57.126 68.5019 57.208 68.1959C57.3766 68.6159 58.1432 68.7276 58.2955 68.1593C60.8224 58.9035 62.9879 49.5976 64.8037 40.198C64.842 39.8803 64.6266 39.6352 64.3206 39.5532ZM56.824 67.5308C51.0865 65.3375 45.1498 63.8873 39.0694 63.1483C41.025 53.9267 43.2748 44.8309 45.7986 35.7616C51.7821 37.0369 57.7188 38.487 63.6086 40.1121C61.8045 49.4679 59.6507 58.7301 57.1472 67.8985C57.1386 67.7556 57.0426 67.5894 56.824 67.5308Z" fill="#E66366"/>
<path id="Vector_5" d="M86.9651 45.6207C86.98 45.3904 86.8519 45.1687 86.5459 45.0867C80.525 43.4265 74.4135 41.9295 68.2988 40.6191C68.2114 40.5956 68.1239 40.5722 68.0802 40.5605L68.0365 40.5488C67.5002 40.4519 67.1934 41.0725 67.4291 41.4168C64.8147 50.6492 62.5501 59.9754 60.5477 69.3718L60.536 69.4155C60.2791 69.6747 60.3134 70.2461 60.806 70.3313C67.1127 71.9743 73.4748 73.5853 79.7814 75.2283C80.2186 75.3454 80.5106 74.9551 80.4731 74.5703C80.6714 74.5297 80.8377 74.4337 80.908 74.1714C83.4349 64.9155 85.6005 55.6097 87.4163 46.2101C87.4865 45.9478 87.2274 45.691 86.9651 45.6207ZM86.2968 46.1913C84.4927 55.5471 82.3389 64.8093 79.8354 73.9777C79.8237 74.0214 79.8003 74.1089 79.8323 74.1643C73.7879 72.5916 67.7318 71.0625 61.7311 69.5015C63.6984 60.2362 65.9833 51.0092 68.5306 41.8525C74.4821 43.0724 80.4187 44.5225 86.2968 46.1913Z" fill="#E66366"/>
<path id="Vector_6" d="M109.216 51.5828C109.231 51.3526 109.103 51.1308 108.797 51.0489C102.776 49.3887 96.6644 47.8917 90.5498 46.5812C90.4624 46.5578 90.3749 46.5344 90.3312 46.5227L90.2875 46.5109C89.7512 46.4141 89.4444 47.0347 89.6801 47.379C87.0891 56.524 84.8362 65.8064 82.8572 75.1154C82.4692 75.3394 82.5878 76.1209 83.1795 76.1857C89.4699 76.8404 95.5377 78.3257 101.438 80.6096C101.776 80.747 102.022 80.5316 102.104 80.2256C102.272 80.6456 103.039 80.7573 103.191 80.189C105.718 70.9331 107.883 61.6273 109.699 52.2277C109.738 51.91 109.522 51.6648 109.216 51.5828ZM101.72 79.5604C95.982 77.3671 90.0453 75.917 83.9649 75.178C85.9205 65.9564 88.1703 56.8605 90.6941 47.7912C96.6776 49.0665 102.614 50.5167 108.504 52.1417C106.7 61.4976 104.546 70.7597 102.043 79.9282C102.034 79.7853 101.938 79.619 101.72 79.5604Z" fill="#E66366"/>
<path id="Vector_7" d="M60.7637 44.7848C61.4749 44.9285 61.7677 43.8356 61.0566 43.6919C56.0262 42.5314 50.9638 41.3155 45.9335 40.1551C45.2223 40.0114 44.9295 41.1042 45.6406 41.2479C50.671 42.4084 55.7451 43.5806 60.7637 44.7848Z" fill="#E66366"/>
<path id="Vector_8" d="M60.2378 47.9705C55.298 46.6469 50.3145 45.3116 45.3747 43.988C44.6752 43.8006 44.3824 44.8934 45.0818 45.0808C50.0216 46.4045 55.0051 47.7398 59.9449 49.0634C60.6444 49.2508 60.9372 48.1579 60.2378 47.9705Z" fill="#E66366"/>
<path id="Vector_9" d="M51.3503 49.6653C48.9897 49.0328 46.5854 48.3886 44.2248 47.756C43.5253 47.5686 43.2325 48.6615 43.9319 48.8489C46.2925 49.4814 48.6969 50.1257 51.0575 50.7582C51.7569 50.9456 52.0498 49.8527 51.3503 49.6653Z" fill="#E66366"/>
<path id="Vector_10" d="M56.7763 58.6159C52.1425 57.3743 47.5524 56.1444 42.9186 54.9028C42.2192 54.7154 41.9263 55.8082 42.6258 55.9956C47.2596 57.2373 51.8497 58.4672 56.4834 59.7088C57.1829 59.8962 57.4757 58.8033 56.7763 58.6159Z" fill="#E66366"/>
<path id="Vector_11" d="M55.5474 62.5034C51.0448 61.2969 46.4984 60.0787 41.9958 58.8723C41.2963 58.6848 41.0035 59.7777 41.7029 59.9651C46.2056 61.1716 50.7519 62.3898 55.2546 63.5963C55.954 63.7837 56.2906 62.7025 55.5474 62.5034Z" fill="#E66366"/>
<path id="Vector_12" d="M68.6512 45.7737C73.3287 47.0271 77.9625 48.2687 82.64 49.522C83.3394 49.7094 83.6322 48.6165 82.9328 48.4291C78.2553 47.1758 73.6215 45.9342 68.944 44.6808C68.2446 44.4934 67.9517 45.5863 68.6512 45.7737Z" fill="#E66366"/>
<path id="Vector_13" d="M67.5755 50.3116C72.3841 51.6 77.1928 52.8885 82.0014 54.177C82.7009 54.3644 82.9937 53.2715 82.2943 53.0841C77.4856 51.7956 72.677 50.5072 67.8683 49.2187C67.1689 49.0313 66.8761 50.1241 67.5755 50.3116Z" fill="#E66366"/>
<path id="Vector_14" d="M78.1473 56.8456C74.3441 55.8265 70.5846 54.8192 66.7814 53.8001C66.082 53.6127 65.7891 54.7056 66.4886 54.893C70.2918 55.912 74.0513 56.9194 77.8545 57.9385C78.5539 58.1259 78.8905 57.0447 78.1473 56.8456Z" fill="#E66366"/>
<path id="Vector_15" d="M70.8988 62.9153C71.5982 63.1028 71.8911 62.0099 71.1916 61.8225C69.5742 61.3891 68.0004 60.9674 66.383 60.534C65.6835 60.3466 65.3907 61.4395 66.0901 61.6269C67.7076 62.0603 69.3251 62.4937 70.8988 62.9153Z" fill="#E66366"/>
<path id="Vector_16" d="M65.5036 64.5152C64.8041 64.3278 64.5113 65.4207 65.2107 65.6081C69.5822 66.7794 73.9537 67.9507 78.3252 69.1221C79.0247 69.3095 79.3175 68.2166 78.6181 68.0292C74.2466 66.8579 69.8751 65.6865 65.5036 64.5152Z" fill="#E66366"/>
<path id="Vector_17" d="M99.7478 58.4166C96.8626 57.6435 94.0211 56.8822 91.1359 56.1091C90.4365 55.9217 90.1436 57.0145 90.8431 57.2019C93.7283 57.975 96.5697 58.7364 99.4549 59.5095C100.154 59.6969 100.491 58.6157 99.7478 58.4166Z" fill="#E66366"/>
<path id="Vector_18" d="M104.359 56.4193C105.059 56.6067 105.352 55.5138 104.652 55.3264C100.412 54.1902 96.2151 53.0657 91.9748 51.9295C91.2753 51.7421 90.9825 52.835 91.6819 53.0224C95.9223 54.1586 100.119 55.2831 104.359 56.4193Z" fill="#E66366"/>
<path id="Vector_19" d="M89.7668 62.4423C89.0673 62.2549 88.7745 63.3478 89.4739 63.5352C91.3537 64.0389 93.2771 64.5543 95.1569 65.0579C95.8563 65.2453 96.1492 64.1525 95.4497 63.9651C93.57 63.4614 91.6902 62.9577 89.7668 62.4423Z" fill="#E66366"/>
<path id="Vector_20" d="M101.31 71.2981C97.0256 70.1501 92.7415 69.0022 88.5011 67.866C87.8017 67.6786 87.5089 68.7715 88.2083 68.9589C92.4924 70.1068 96.7764 71.2547 101.017 72.3909C101.716 72.5783 102.009 71.4855 101.31 71.2981Z" fill="#E66366"/>
<path id="Vector_21" d="M100.077 75.3722C95.7056 74.2009 91.3341 73.0296 86.9626 71.8582C86.2631 71.6708 85.9703 72.7637 86.6697 72.9511C91.0412 74.1224 95.4127 75.2938 99.7842 76.4651C100.484 76.6525 100.777 75.5596 100.077 75.3722Z" fill="#E66366"/>
</g>
</g>
<defs>
<clipPath id="clip0_163_89">
<rect width="129.435" height="92.3245" fill="white" transform="translate(23.8955) rotate(15)"/>
</clipPath>
</defs>
</svg>
