<svg width="40" height="38" viewBox="0 0 40 38" fill="none" xmlns="http://www.w3.org/2000/svg">
<path d="M9.24003 5.98757C10.3212 8.17932 11.4223 10.4117 12.5034 12.6034C12.8237 13.2528 13.8384 12.7523 13.5181 12.1029C12.437 9.91114 11.3358 7.6788 10.2547 5.48705C9.9344 4.83765 8.9197 5.33817 9.24003 5.98757Z" fill="#E66366"/>
<path d="M23.24 24.9876C24.3212 27.1793 25.4223 29.4117 26.5034 31.6034C26.8237 32.2528 27.8384 31.7523 27.5181 31.1029C26.437 28.9111 25.3358 26.6788 24.2547 24.4871C23.9344 23.8376 22.9197 24.3382 23.24 24.9876Z" fill="#E66366"/>
<path d="M25.282 1.41709C23.9364 4.9717 22.566 8.59213 21.2204 12.1467C20.8217 13.1999 21.8799 13.6005 22.2786 12.5473C23.6241 8.99268 24.9946 5.37225 26.3401 1.81764C26.7388 0.764427 25.6807 0.363875 25.282 1.41709Z" fill="#E66366"/>
<path d="M27.8159 18.1827C31.4876 17.2006 35.2272 16.2003 38.8989 15.2182C39.9868 14.9273 40.2792 16.0203 39.1913 16.3112C35.5196 17.2933 31.7799 18.2936 28.1082 19.2757C27.0203 19.5667 26.728 18.4737 27.8159 18.1827Z" fill="#E66366"/>
<g clip-path="url(#clip0_164_148)">
<path d="M19.5144 18C13.6035 18.7692 7.97592 20.7126 2.10548 21.6032C1.7411 21.6437 1.66013 22.2105 1.90305 22.4534C3.44151 23.9109 4.85851 25.4494 6.316 26.9879C4.41317 28.9312 2.14596 30.4292 0.324099 32.413C0.0811841 32.5749 -0.0807592 32.9393 0.162156 33.2227C1.57916 34.8016 3.32005 36.0567 4.57511 37.7571C4.73705 38 5.14191 38.1215 5.38483 37.8785C7.28766 35.4899 9.35244 33.1822 11.4982 30.996C12.7532 32.4534 14.2917 33.5871 15.6682 34.9231C15.9516 35.2065 16.4375 35.085 16.5184 34.6802C17.8949 29.3765 18.4213 23.8705 20.0812 18.6478C20.0812 18.3644 19.8383 17.9595 19.5144 18ZM15.6682 33.5871C14.3727 32.413 12.9557 31.3603 11.903 29.9433C11.7006 29.7004 11.3767 29.579 11.0933 29.8219C8.94758 32.0081 6.92329 34.2753 4.97997 36.664C3.84637 35.2875 2.42936 34.1539 1.21479 32.8583C3.15811 30.8745 5.4658 29.336 7.32815 27.3117C7.53058 27.1093 7.53058 26.7854 7.32815 26.583C5.99212 25.166 4.69657 23.749 3.32005 22.3725C8.50224 21.4818 13.563 19.8219 18.7856 19.0526C17.3686 23.83 16.8423 28.8097 15.6682 33.5871Z" fill="#E66366"/>
</g>
<defs>
<clipPath id="clip0_164_148">
<rect width="20" height="20" fill="white" transform="translate(0 18)"/>
</clipPath>
</defs>
</svg>
