<svg width="50" height="48" viewBox="0 0 50 48" fill="none" xmlns="http://www.w3.org/2000/svg">
<g id="Frame" clip-path="url(#clip0_164_121)">
<g id="Group">
<path id="Vector" d="M49.2001 18.9822C48.9667 17.8931 48.6555 16.8039 48.2665 15.7926C48.1109 15.4814 47.9553 15.248 47.6441 15.1702C47.4886 15.0924 47.4108 15.0924 47.2552 15.0146C45.2325 14.859 43.132 14.7812 41.1093 14.7812C40.2536 13.2253 39.0866 11.825 37.6863 10.7358C38.2309 8.79095 38.7754 6.92385 39.32 4.97896C39.6312 4.51218 39.3978 3.96761 39.0088 3.65643C38.1531 3.03406 37.1417 2.48949 36.2082 2.02272C35.897 1.86712 35.5858 1.86712 35.3524 2.02272C35.1968 2.02272 35.0412 2.10051 34.9634 2.2561C33.3297 3.50084 31.8516 4.82336 30.3735 6.22369C28.3508 5.52353 26.3281 5.36794 24.1498 5.67912C23.1385 3.96761 22.2049 2.2561 21.1158 0.622393C21.1158 0.622393 21.1158 0.622393 21.1158 0.544597C20.8824 0.233414 20.5712 2.63304e-05 20.0266 0.0778221C18.9375 0.311209 17.8484 0.622393 16.837 1.01137C16.5258 1.16696 16.2924 1.32255 16.2147 1.63374C16.1369 1.71153 16.0591 1.78933 16.0591 1.94492C15.9035 3.96761 15.8257 5.9903 15.7479 8.09079C14.192 8.94654 12.7916 10.1135 11.7025 11.5138C9.7576 10.9692 7.8905 10.3469 5.94561 9.88009C5.94561 9.88009 5.94561 9.88009 5.86781 9.88009C5.40104 9.56891 4.85647 9.80229 4.54528 10.1913C3.92292 11.047 3.30055 12.0584 2.91157 12.9919C2.75598 13.3031 2.75598 13.6143 2.91157 13.8477C2.91157 14.0033 2.98937 14.1589 3.06716 14.2367C4.3119 15.8704 5.63442 17.3485 7.03475 18.9044C6.41238 20.7715 6.17899 22.6386 6.41238 24.5835C4.62308 25.7504 2.83378 26.9174 1.04447 28.1621C0.655493 28.3177 0.34431 28.7067 0.499902 29.2512C0.811085 30.4182 1.20006 31.5073 1.66684 32.5965C1.74463 32.8298 1.90023 32.9076 2.13361 32.9854C2.28921 33.0632 2.4448 33.141 2.60039 33.141C4.62308 33.2188 6.72357 33.2188 8.74626 33.141C9.7576 34.8525 11.1579 36.3307 12.7916 37.4198C12.3249 39.3647 11.7803 41.2318 11.3135 43.1767C11.3135 43.1767 11.3135 43.1767 11.3135 43.2545C11.1579 43.6435 11.3135 44.1102 11.7025 44.3436C12.636 44.966 13.5696 45.5106 14.5809 45.8995C14.8921 46.0551 15.1255 46.0551 15.4367 45.9773C15.5923 45.9773 15.7479 45.8995 15.9035 45.7439C17.4594 44.4214 18.9375 43.0211 20.4156 41.6208C22.2049 42.1653 23.9164 42.3209 25.7057 42.0875C26.6393 43.799 27.5728 45.5884 28.5842 47.2999V47.3777C28.7398 47.9222 29.2843 48.1556 29.7511 48.0778C30.8403 47.9222 31.9294 47.611 32.9408 47.2221C33.2519 47.1443 33.4075 46.9109 33.4853 46.6775C33.5631 46.5219 33.6409 46.3663 33.7187 46.2107C33.9521 44.188 34.1077 42.1653 34.1855 40.1426C35.897 39.2869 37.3751 38.12 38.6198 36.564C40.7203 37.0308 42.8208 37.4976 44.9213 37.8866C45.3103 38.0422 45.7771 37.9644 46.0882 37.4976C46.7106 36.4862 47.2552 35.3971 47.6441 34.308C47.7219 34.0746 47.7219 33.8412 47.5664 33.6856C47.5664 33.53 47.4886 33.3744 47.333 33.2966C45.9326 31.7407 44.4545 30.3404 42.9764 28.9401C43.4432 27.073 43.521 25.2837 43.2098 23.4166C44.9991 22.3274 46.7884 21.3161 48.5777 20.2269C48.5777 20.2269 48.5777 20.2269 48.6555 20.2269C49.1223 19.8379 49.3557 19.5268 49.2001 18.9822ZM45.6993 34.1524C45.4659 34.6969 45.2325 35.2415 44.9213 35.7861C42.9764 35.3971 41.0315 34.9303 39.0866 34.5414C38.931 34.4636 38.6976 34.5414 38.542 34.5414C38.1531 34.4636 37.7641 34.5414 37.4529 34.9303C36.3638 36.4862 34.8078 37.6532 33.0963 38.4311C32.9408 38.5089 32.863 38.5867 32.7852 38.6645C32.5518 38.8201 32.474 39.0535 32.3962 39.3647C32.3184 41.3874 32.1628 43.3323 31.9294 45.355C31.307 45.5106 30.7625 45.6661 30.1401 45.8217C29.2065 44.188 28.3508 42.5543 27.495 40.9206C27.495 40.376 27.0283 39.7537 26.2503 39.9093C24.3832 40.2982 22.5161 40.0648 20.649 39.5203C20.4934 39.4425 20.4156 39.4425 20.3378 39.4425C20.0266 39.3647 19.7155 39.4425 19.4821 39.6759C18.0817 41.0762 16.6036 42.4765 15.0477 43.7213C14.5031 43.4879 13.9586 43.1767 13.414 42.8655C13.8808 40.9206 14.4253 38.9757 14.8921 37.0308C15.0477 36.4862 14.7365 36.0973 14.3476 35.9417C14.2698 35.8639 14.192 35.7861 14.1142 35.7083C12.4805 34.6969 11.1579 33.2966 10.2244 31.6629C10.1466 31.5851 10.0688 31.5073 10.0688 31.4295C9.91319 31.1183 9.6798 30.9627 9.21303 30.9627C7.19034 31.0405 5.16765 31.0405 3.14496 31.0405C2.91157 30.496 2.67818 29.8736 2.52259 29.329C4.1563 28.2399 5.86781 27.1508 7.50152 26.0616C7.65711 25.9838 7.81271 25.8282 7.8905 25.6726C8.20169 25.4392 8.43507 25.1281 8.35728 24.6613C8.04609 22.7942 8.35728 20.9271 8.97964 19.1378C9.05744 18.9822 9.05744 18.8266 9.05744 18.671C9.05744 18.4376 9.05744 18.1264 8.82405 17.8931C7.42373 16.4149 6.17899 14.9368 4.93426 13.3809C5.24545 12.8363 5.55663 12.2918 5.86781 11.7472C7.65711 12.214 9.44642 12.7585 11.2357 13.3031C11.6247 13.6921 12.4027 13.8477 12.7916 13.2253C13.8808 11.5916 15.3589 10.4247 16.9926 9.56891C17.1482 9.49111 17.226 9.41332 17.3038 9.33552C17.5372 9.17993 17.6928 8.94654 17.6928 8.55756C17.6928 6.53487 17.7706 4.51218 17.9262 2.56729C18.4707 2.3339 19.0931 2.17831 19.7155 2.02272C20.7268 3.73422 21.7382 5.44573 22.8273 7.23503C23.1385 7.7796 23.8386 7.7796 24.2276 7.46842C24.3054 7.46842 24.3832 7.46842 24.461 7.46842C26.3281 7.15724 28.1952 7.39062 29.9845 8.09079C30.1401 8.16858 30.2957 8.16858 30.3735 8.16858C30.6069 8.24638 30.9181 8.16858 31.1514 7.9352C32.6296 6.53487 34.1077 5.29014 35.6636 4.04541C36.2082 4.35659 36.7527 4.66777 37.2973 4.97896C36.8305 6.76826 36.286 8.55756 35.7414 10.3469C35.3524 10.7358 35.1968 11.5138 35.8192 11.9028C37.4529 12.9919 38.6198 14.3922 39.4756 16.1038C39.5534 16.2593 39.6312 16.3371 39.709 16.4149C39.8646 16.6483 40.098 16.8039 40.4869 16.8039C42.5096 16.8039 44.5323 16.8817 46.4772 17.0373C46.7106 17.5819 46.8662 18.2042 47.0218 18.8266C45.3103 19.838 43.5988 20.8493 41.8095 21.9384C41.7317 22.0162 41.6539 22.094 41.5761 22.1718C41.2649 22.4052 41.0315 22.7164 41.1093 23.261C41.5761 25.1281 41.4983 26.9952 40.9537 28.8623C40.9537 28.9401 40.9537 29.0956 40.9537 29.1734C40.8759 29.4846 40.8759 29.7958 41.1871 30.107C42.8986 31.2739 44.2989 32.6743 45.6993 34.1524Z" fill="white"/>
<path id="Vector_2" d="M27.8839 14.2367C27.8061 14.2367 27.6506 14.2367 27.5728 14.2367C22.516 13.2253 17.1481 15.8704 15.5922 21.0049C13.9585 26.295 17.2259 31.5073 22.4382 33.0633C27.7284 34.6192 33.952 31.4295 35.3523 25.906C36.5971 20.7715 32.9407 15.4814 27.8839 14.2367ZM33.4852 25.0503C32.6295 29.718 27.3394 32.4409 22.905 31.1962C12.9472 28.3177 17.4593 14.0811 27.1838 16.1038C27.2616 16.1038 27.3394 16.1038 27.4172 16.1038C31.307 17.1151 34.2632 21.0049 33.4852 25.0503Z" fill="white"/>
</g>
</g>
<defs>
<clipPath id="clip0_164_121">
<rect width="48.778" height="48" fill="white" transform="translate(0.5)"/>
</clipPath>
</defs>
</svg>
