<svg width="29" height="48" viewBox="0 0 29 48" fill="none" xmlns="http://www.w3.org/2000/svg">
<g id="Frame" clip-path="url(#clip0_164_135)">
<g id="Group">
<path id="Vector" d="M28.6476 42.4381C28.6476 42.3619 28.6476 42.2095 28.5714 42.1333C28.4952 41.6762 28.1905 41.2952 27.6571 41.2952C27.2 41.2952 26.819 41.2952 26.3619 41.2952C26.2095 37.1809 24.9905 33.6 22.4 30.4C20.3428 27.9619 16.6095 25.0666 19.5809 22.1714C24.0762 17.8285 25.7524 12.8 25.8286 6.62855C25.9048 6.62855 25.9809 6.62855 25.9809 6.62855C26.5143 6.70474 27.1238 6.39998 27.1238 5.71426C27.1238 4.26664 27.1238 2.81902 27.1238 1.3714C27.1238 1.29521 27.1238 1.21902 27.1238 1.14283C27.1238 0.68569 26.819 0.228547 26.2095 0.152356C17.9048 -0.152406 9.59999 0.228547 1.21904 0.304737C1.06666 0.304737 0.838086 0.304737 0.761896 0.380928C0.304753 0.457118 -0.0761995 0.76188 -9.00682e-06 1.29521C0.152372 2.74283 0.228562 4.19045 0.304753 5.63807C0.304753 6.1714 0.761896 6.55236 1.29523 6.55236C1.59999 6.55236 1.98094 6.55236 2.28571 6.55236C2.3619 9.67617 2.89523 12.7238 4.57142 15.4666C6.24761 18.1333 9.37142 20.0381 10.819 22.7809C12.419 25.7524 7.99999 28.419 6.39999 30.5524C3.9619 33.8285 3.27618 37.4095 3.35237 41.3714C2.74285 41.3714 2.13332 41.3714 1.5238 41.3714C0.914277 41.3714 0.609515 41.9047 0.609515 42.3619C0.609515 42.4381 0.533324 42.5905 0.609515 42.6666C0.761896 43.8857 0.761896 45.1047 0.761896 46.3238C0.761896 46.4762 0.761896 46.5524 0.838086 46.6285C0.609515 47.3143 0.914277 48 1.59999 48C10.2095 48.1524 18.8952 47.9238 27.5048 47.8476C28.1905 47.8476 28.4952 47.3143 28.419 46.7809C28.5714 46.6285 28.6476 46.4 28.6476 46.1714C28.6476 44.8762 28.6476 43.6571 28.6476 42.4381ZM25.2952 1.98093C25.2952 2.89521 25.2952 3.8095 25.2952 4.72378C17.6 4.95236 9.82856 4.79998 2.13332 4.72378C2.13332 3.88569 2.05713 3.04759 1.98094 2.2095C9.75237 2.13331 17.5238 1.75236 25.2952 1.98093ZM10.0571 29.2571C11.7333 27.5809 13.5619 26.0571 12.9524 23.3905C12.419 20.8762 9.75237 19.1238 8.15237 17.2952C5.40951 14.0952 4.26666 10.819 4.03809 6.62855C10.6667 6.70474 17.2952 6.78093 23.9238 6.62855C23.9238 10.7428 23.2381 14.9333 20.6476 18.2857C19.5809 19.7333 17.8286 20.7238 16.8381 22.2476C15.5428 24.3047 16.4571 26.1333 17.7524 27.8857C21.0286 32.3809 24.2286 35.2 24.4571 41.219C23.9238 41.219 23.3905 41.219 22.8571 41.219C21.0286 39.0095 17.9048 34.9714 14.6286 35.4285C11.5809 35.8095 8.91428 39.3143 6.93332 41.3714C6.93332 41.3714 6.93332 41.3714 6.93332 41.4476C6.3238 41.4476 5.71428 41.4476 5.10475 41.4476C5.10475 36.4952 6.47618 32.7619 10.0571 29.2571ZM20.4952 41.2952C16.8381 41.2952 13.2571 41.3714 9.59999 41.4476C10.9714 40 12.419 38.4 14.0952 37.7143C16.3809 36.7238 18.7428 39.2381 20.4952 41.2952ZM2.51428 46.0952C2.51428 45.1809 2.51428 44.2666 2.3619 43.3524C10.4381 43.3524 18.5905 43.0476 26.6667 43.2C26.6667 44.1143 26.6667 45.0285 26.6667 45.9428C18.6667 46.019 10.5905 46.1714 2.51428 46.0952Z" fill="white"/>
</g>
</g>
<defs>
<clipPath id="clip0_164_135">
<rect width="28.6476" height="48" fill="white"/>
</clipPath>
</defs>
</svg>
