<svg width="54" height="54" viewBox="0 0 54 54" fill="none" xmlns="http://www.w3.org/2000/svg">
<circle cx="27" cy="27" r="27" fill="#262934"/>
<path d="M26.4435 31.7519C27.252 31.7519 27.627 31.1894 27.627 30.4394V30.0409C27.6505 28.4939 28.213 27.8494 30.088 26.5609C32.092 25.2009 33.369 23.6309 33.369 21.3689C33.369 17.8534 30.51 15.8379 26.959 15.8379C24.3105 15.8379 21.9785 17.0919 20.9825 19.3534C20.7365 19.9044 20.631 20.4434 20.631 20.8884C20.631 21.5564 21.0175 22.0254 21.7325 22.0254C22.33 22.0254 22.7285 21.6739 22.9045 21.0994C23.5135 18.8729 24.9785 18.0294 26.877 18.0294C29.162 18.0294 30.9435 19.3184 30.9435 21.3574C30.9435 23.0329 29.9005 23.9704 28.4005 25.0254C26.5605 26.3029 25.213 27.6739 25.213 29.7364V30.4744C25.213 31.2244 25.6235 31.7519 26.4435 31.7519ZM26.443 38.1619C27.3685 38.1619 28.107 37.4119 28.107 36.4979C28.1082 36.279 28.0659 36.0621 27.9827 35.8597C27.8995 35.6573 27.777 35.4734 27.6223 35.3186C27.4675 35.1639 27.2836 35.0413 27.0812 34.9581C26.8788 34.8749 26.6618 34.8327 26.443 34.8339C25.529 34.8339 24.767 35.5724 24.767 36.4979C24.767 37.4119 25.529 38.1619 26.443 38.1619Z" fill="white"/>
</svg>
