<svg width="59" height="59" viewBox="0 0 59 59" fill="none" xmlns="http://www.w3.org/2000/svg">
<path d="M29.5 3.6875C15.2455 3.6875 3.6875 15.2455 3.6875 29.5C3.6875 43.7545 15.2455 55.3125 29.5 55.3125C43.7545 55.3125 55.3125 43.7545 55.3125 29.5C55.3125 15.2455 43.7545 3.6875 29.5 3.6875ZM46.451 46.451C44.25 48.652 41.6803 50.3805 38.834 51.5904C35.884 52.835 32.7381 53.4688 29.5 53.4688C26.2619 53.4688 23.1275 52.835 20.166 51.5904C17.3082 50.3805 14.75 48.652 12.549 46.451C10.348 44.25 8.61953 41.6803 7.40957 38.834C6.16504 35.8725 5.53125 32.7381 5.53125 29.5C5.53125 26.2619 6.16504 23.1275 7.40957 20.166C8.61953 17.3082 10.348 14.75 12.549 12.549C14.75 10.348 17.3197 8.61953 20.166 7.40957C23.1275 6.16504 26.2619 5.53125 29.5 5.53125C32.7381 5.53125 35.8725 6.16504 38.834 7.40957C41.6918 8.61953 44.25 10.348 46.451 12.549C48.652 14.75 50.3805 17.3197 51.5904 20.166C52.835 23.116 53.4688 26.2619 53.4688 29.5C53.4688 32.7381 52.835 35.8725 51.5904 38.834C50.3805 41.6803 48.652 44.25 46.451 46.451Z" fill="#F57A3F"/>
<path d="M29.5 10.1406C30.0091 10.1406 30.4219 9.72789 30.4219 9.21875C30.4219 8.70961 30.0091 8.29688 29.5 8.29688C28.9909 8.29688 28.5781 8.70961 28.5781 9.21875C28.5781 9.72789 28.9909 10.1406 29.5 10.1406Z" fill="#F57A3F"/>
<path d="M29.5 50.7031C30.0091 50.7031 30.4219 50.2904 30.4219 49.7812C30.4219 49.2721 30.0091 48.8594 29.5 48.8594C28.9909 48.8594 28.5781 49.2721 28.5781 49.7812C28.5781 50.2904 28.9909 50.7031 29.5 50.7031Z" fill="#F57A3F"/>
<path d="M49.7812 30.4219C50.2904 30.4219 50.7031 30.0091 50.7031 29.5C50.7031 28.9909 50.2904 28.5781 49.7812 28.5781C49.2721 28.5781 48.8594 28.9909 48.8594 29.5C48.8594 30.0091 49.2721 30.4219 49.7812 30.4219Z" fill="#F57A3F"/>
<path d="M9.21875 30.4219C9.72789 30.4219 10.1406 30.0091 10.1406 29.5C10.1406 28.9909 9.72789 28.5781 9.21875 28.5781C8.70961 28.5781 8.29688 28.9909 8.29688 29.5C8.29688 30.0091 8.70961 30.4219 9.21875 30.4219Z" fill="#F57A3F"/>
<path d="M19.3594 12.8601C19.8685 12.8601 20.2812 12.4474 20.2812 11.9382C20.2812 11.4291 19.8685 11.0164 19.3594 11.0164C18.8502 11.0164 18.4375 11.4291 18.4375 11.9382C18.4375 12.4474 18.8502 12.8601 19.3594 12.8601Z" fill="#F57A3F"/>
<path d="M39.6406 47.9836C40.1498 47.9836 40.5625 47.5709 40.5625 47.0618C40.5625 46.5526 40.1498 46.1399 39.6406 46.1399C39.1315 46.1399 38.7188 46.5526 38.7188 47.0618C38.7188 47.5709 39.1315 47.9836 39.6406 47.9836Z" fill="#F57A3F"/>
<path d="M47.0618 20.2812C47.5709 20.2812 47.9836 19.8685 47.9836 19.3594C47.9836 18.8502 47.5709 18.4375 47.0618 18.4375C46.5526 18.4375 46.1399 18.8502 46.1399 19.3594C46.1399 19.8685 46.5526 20.2812 47.0618 20.2812Z" fill="#F57A3F"/>
<path d="M11.9382 40.5625C12.4474 40.5625 12.8601 40.1498 12.8601 39.6406C12.8601 39.1315 12.4474 38.7188 11.9382 38.7188C11.4291 38.7188 11.0164 39.1315 11.0164 39.6406C11.0164 40.1498 11.4291 40.5625 11.9382 40.5625Z" fill="#F57A3F"/>
<path d="M11.9382 20.2812C12.4474 20.2812 12.8601 19.8685 12.8601 19.3594C12.8601 18.8502 12.4474 18.4375 11.9382 18.4375C11.4291 18.4375 11.0164 18.8502 11.0164 19.3594C11.0164 19.8685 11.4291 20.2812 11.9382 20.2812Z" fill="#F57A3F"/>
<path d="M47.0618 40.5625C47.5709 40.5625 47.9836 40.1498 47.9836 39.6406C47.9836 39.1315 47.5709 38.7188 47.0618 38.7188C46.5526 38.7188 46.1399 39.1315 46.1399 39.6406C46.1399 40.1498 46.5526 40.5625 47.0618 40.5625Z" fill="#F57A3F"/>
<path d="M39.6406 12.8601C40.1498 12.8601 40.5625 12.4474 40.5625 11.9382C40.5625 11.4291 40.1498 11.0164 39.6406 11.0164C39.1315 11.0164 38.7188 11.4291 38.7188 11.9382C38.7188 12.4474 39.1315 12.8601 39.6406 12.8601Z" fill="#F57A3F"/>
<path d="M19.3594 47.9836C19.8685 47.9836 20.2812 47.5709 20.2812 47.0618C20.2812 46.5526 19.8685 46.1399 19.3594 46.1399C18.8502 46.1399 18.4375 46.5526 18.4375 47.0618C18.4375 47.5709 18.8502 47.9836 19.3594 47.9836Z" fill="#F57A3F"/>
<path d="M31.1018 28.5781C30.7676 28.0019 30.1684 27.6793 29.5576 27.6562L25.1787 20.3504C24.9137 19.9125 24.349 19.7742 23.9111 20.0392C23.4733 20.3043 23.335 20.8689 23.6 21.3068L27.9328 28.555C27.5986 29.1082 27.5641 29.8341 27.9098 30.4334C28.0826 30.7215 28.3131 30.9519 28.5897 31.1017V45.1718C28.5897 45.6789 29.0045 46.0937 29.5115 46.0937C30.0186 46.0937 30.4334 45.6789 30.4334 45.1718V31.1017C31.3092 30.5832 31.6088 29.4654 31.1018 28.5781Z" fill="#F57A3F"/>
</svg>
