<svg width="251" height="530" viewBox="0 0 251 530" fill="none" xmlns="http://www.w3.org/2000/svg">
<g opacity="0.2">
<path d="M270.586 89.1012C271.367 88.3202 272.633 88.3202 273.414 89.1012L453.899 269.586C454.68 270.367 454.68 271.633 453.899 272.414L273.414 452.899C272.633 453.68 271.367 453.68 270.586 452.899L90.101 272.414C89.32 271.633 89.32 270.367 90.101 269.586L270.586 89.1012Z" stroke="#FBF1E8" stroke-width="4"/>
<path d="M272 35.5858L308.945 72.5304L345.889 109.475L370.805 134.391L395.721 159.307M272 506.414L298.635 479.78M198.111 109.475L167.181 140.405L134.532 173.054M71.8121 235.774L39.4144 268.172C37.8523 269.734 37.8523 272.266 39.4144 273.828L62.3612 296.775M62.3612 296.775L88.1365 322.551L134.532 368.946L62.3612 296.775ZM186.083 420.497L218.731 453.145M351.044 427.37L373.383 405.031L409.468 368.946L431.807 346.607L455.864 322.551L467.892 310.522L487.653 290.761L504.586 273.828C506.148 272.266 506.148 269.734 504.586 268.172L455.864 219.449" stroke="#FBF1E8" stroke-width="2" stroke-dasharray="1 2"/>
<path d="M1 270.4L47.6051 223.898L94.2102 177.396M473.955 201.508L540.162 267.568C541.728 269.131 541.728 271.669 540.162 273.231L487.764 325.513M394.554 418.517L333.277 479.658L308.896 503.986L284.514 528.313M94.2102 363.404L127.006 396.127L177.064 446.074L221.943 490.853L246.971 515.827M183.968 87.8369L227.984 43.9185L269.175 2.81903C270.736 1.26111 273.264 1.26111 274.825 2.81903L298.323 26.265L324.647 52.5299L377.293 105.06" stroke="#FBF1E8" stroke-width="2"/>
<path d="M272 481.778L235.752 445.529L199.503 409.281M218.299 113.924L269.171 63.0507C270.734 61.4886 273.266 61.4886 274.828 63.0507L314.961 103.183M387.458 175.68L435.118 223.34L479.949 268.172C481.511 269.734 481.511 272.266 479.949 273.828L443.844 309.933L408.938 344.839L370.005 383.773L344.497 409.281M129.691 339.469L95.4568 305.235L64.0506 273.828C62.4885 272.266 62.4885 269.734 64.0506 268.172L102.169 230.053L143.117 189.105" stroke="#FBF1E8" stroke-width="3"/>
<path d="M26.7223 312.343C26.8785 312.187 27.1318 312.187 27.288 312.343L36.3031 321.359C36.4593 321.515 36.4593 321.768 36.3031 321.924L27.288 330.939C27.1318 331.096 26.8785 331.096 26.7223 330.939L17.7072 321.924C17.5509 321.768 17.5509 321.515 17.7072 321.359L26.7223 312.343Z" fill="#FBF1E8"/>
</g>
</svg>
