<svg width="317" height="316" viewBox="0 0 317 316" fill="none" xmlns="http://www.w3.org/2000/svg">
<g opacity="0.2">
<path d="M44.5857 -124.899C45.3668 -125.68 46.6331 -125.68 47.4141 -124.899L227.899 55.5858C228.68 56.3669 228.68 57.6332 227.899 58.4143L47.4141 238.899C46.6331 239.68 45.3668 239.68 44.5857 238.899L-135.899 58.4142C-136.68 57.6332 -136.68 56.3669 -135.899 55.5858L44.5857 -124.899Z" stroke="#FBF1E8" stroke-width="4"/>
<path d="M46 -178.414L82.9445 -141.47L119.889 -104.525L144.805 -79.609L169.721 -54.6929M46 292.414L72.6344 265.78M-27.8892 -104.525L-58.8195 -73.5947L-91.4682 -40.9461M-154.188 21.7738L-186.586 54.1715C-188.148 55.7336 -188.148 58.2663 -186.586 59.8284L-163.639 82.7752M-163.639 82.7752L-137.864 108.551L-91.4682 154.946L-163.639 82.7752ZM-39.9176 206.497L-7.26893 239.145M125.044 213.37L147.383 191.031L183.468 154.946L205.807 132.607L229.864 108.551L241.892 96.5221L261.653 76.761L278.586 59.8284C280.148 58.2663 280.148 55.7336 278.586 54.1715L229.864 5.44943" stroke="#FBF1E8" stroke-width="2" stroke-dasharray="1 2"/>
<path d="M-225 56.3999L-178.395 9.89798L-131.79 -36.6039M247.955 -12.4918L314.162 53.5683C315.728 55.1311 315.728 57.6686 314.162 59.2314L261.764 111.513M168.554 204.517L107.277 265.658L82.8957 289.986L58.5143 314.313M-131.79 149.404L-98.9936 182.127L-48.9363 232.074L-4.05733 276.853L20.9713 301.827M-42.0318 -126.163L1.98408 -170.082L43.1747 -211.181C44.7361 -212.739 47.2639 -212.739 48.8253 -211.181L72.3232 -187.735L98.6465 -161.47L151.293 -108.94" stroke="#FBF1E8" stroke-width="2"/>
<path d="M46.0001 267.778L9.75166 231.529L-26.4968 195.281M-7.7013 -100.076L43.1716 -150.949C44.7337 -152.511 47.2664 -152.511 48.8285 -150.949L88.9611 -110.817M161.458 -38.3198L209.118 9.34011L253.949 54.1716C255.511 55.7337 255.511 58.2664 253.949 59.8285L217.844 95.9335L182.938 130.839L144.005 169.773L118.497 195.281M-96.3085 125.469L-130.543 91.2347L-161.949 59.8285C-163.511 58.2664 -163.511 55.7337 -161.949 54.1716L-123.83 16.0528L-82.8832 -24.8945" stroke="#FBF1E8" stroke-width="3"/>
<path d="M260.601 125.717C260.758 125.561 261.011 125.561 261.167 125.717L267.445 131.995C267.601 132.151 267.601 132.404 267.445 132.561L261.167 138.838C261.011 138.995 260.758 138.995 260.601 138.838L254.324 132.561C254.167 132.404 254.167 132.151 254.324 131.995L260.601 125.717Z" fill="#FBF1E8"/>
</g>
</svg>
