<svg width="522" height="416" viewBox="0 0 522 416" fill="none" xmlns="http://www.w3.org/2000/svg">
<path d="M97.8787 137.536C99.0503 136.364 100.95 136.364 102.121 137.536L164.464 199.879C165.636 201.05 165.636 202.95 164.464 204.121L102.121 266.464C100.95 267.636 99.0503 267.636 97.8787 266.464L35.5355 204.121C34.364 202.95 34.364 201.05 35.5355 199.879L97.8787 137.536Z" stroke="#E54628" stroke-width="2"/>
<path d="M100 116L113.496 129.496L126.993 142.993L136.095 152.095L145.197 161.197M100 288L109.73 278.27M73.0073 142.993L61.708 154.292L49.781 166.219M26.8686 189.131L16.8284 199.172C15.2663 200.734 15.2663 203.266 16.8284 204.828L23.4161 211.416M23.4161 211.416L32.8321 220.832L49.781 237.781L23.4161 211.416ZM68.6131 256.613L80.5401 268.54M128.876 259.124L137.036 250.964L150.219 237.781L158.38 229.62L167.168 220.832L171.562 216.438L178.781 209.219L183.172 204.828C184.734 203.266 184.734 200.734 183.172 199.172L167.168 183.168" stroke="url(#paint0_angular_448_1194)" stroke-dasharray="1 2"/>
<path d="M1 201.781L18.0255 184.793L35.051 167.805M173.777 176.614L196.162 198.949C197.728 200.512 197.728 203.05 196.162 204.612L178.822 221.914M144.771 255.89L122.385 278.226L113.479 287.113L104.572 296M35.051 235.756L47.0319 247.711L65.3185 265.957L81.7134 282.315L90.8567 291.438M67.8408 135.088L83.9204 119.044L97.1747 105.819C98.7361 104.261 101.264 104.261 102.825 105.819L109.616 112.595L119.232 122.19L138.465 141.38" stroke="url(#paint1_angular_448_1194)"/>
<path d="M100 279L86.758 265.758L73.5159 252.516M80.3822 144.618L97.1716 127.828C98.7337 126.266 101.266 126.266 102.828 127.828L115.694 140.694M142.178 167.178L159.589 184.589L174.172 199.172C175.734 200.734 175.734 203.266 174.172 204.828L162.777 216.223L150.025 228.975L135.803 243.197L126.484 252.516M48.0127 227.013L35.5064 214.506L25.8284 204.828C24.2663 203.266 24.2663 200.734 25.8284 199.172L37.9586 187.041L52.9172 172.083" stroke="url(#paint2_angular_448_1194)" stroke-width="1.3"/>
<path d="M159.217 163.283C159.373 163.127 159.627 163.127 159.783 163.283L162.717 166.217C162.873 166.373 162.873 166.627 162.717 166.783L159.783 169.717C159.627 169.873 159.373 169.873 159.217 169.717L156.283 166.783C156.127 166.627 156.127 166.373 156.283 166.217L159.217 163.283Z" fill="#E54628"/>
<path d="M10.2172 217.283C10.3734 217.127 10.6266 217.127 10.7828 217.283L13.7172 220.217C13.8734 220.373 13.8734 220.627 13.7172 220.783L10.7828 223.717C10.6266 223.873 10.3734 223.873 10.2172 223.717L7.28284 220.783C7.12663 220.627 7.12663 220.373 7.28284 220.217L10.2172 217.283Z" fill="#E54628" fill-opacity="0.58"/>
<path d="M178.217 227.283C178.373 227.127 178.627 227.127 178.783 227.283L180.717 229.217C180.873 229.373 180.873 229.627 180.717 229.783L178.783 231.717C178.627 231.873 178.373 231.873 178.217 231.717L176.283 229.783C176.127 229.627 176.127 229.373 176.283 229.217L178.217 227.283Z" fill="#E54628" fill-opacity="0.46"/>
<g clip-path="url(#clip0_448_1194)">
<path d="M95.3226 209.898C95.3226 209.552 95.4556 209.224 95.704 208.985L106.589 198.091C107.103 197.577 107.387 196.894 107.387 196.175C107.387 194.676 106.172 193.46 104.673 193.46C103.945 193.46 103.262 193.744 102.748 194.259L96.4492 200.557C95.5976 201.409 94.5774 202.083 93.4685 202.544C94.1871 201.595 94.6129 200.415 94.6129 199.138C94.6129 196.006 92.0669 193.46 88.9355 193.46C85.804 193.46 83.2581 196.006 83.2581 199.138C83.2581 200.912 84.0742 202.491 85.3516 203.538C81.7411 204.212 79 207.388 79 211.194V219H95.3226V209.898ZM89.6452 204.806L90.2839 204.718C90.0976 205.578 89.5653 206.226 88.9355 206.226C88.3323 206.226 87.8089 205.623 87.6048 204.806H89.6452ZM84.6774 199.129C84.6774 196.778 86.5847 194.871 88.9355 194.871C91.2863 194.871 93.1935 196.778 93.1935 199.129C93.1935 201.48 91.2863 203.387 88.9355 203.387C86.5847 203.387 84.6774 201.48 84.6774 199.129ZM93.9032 209.898V217.581H83.9677V209.065H82.5484V217.581H80.4194V211.194C80.4194 207.894 82.9387 205.161 86.1589 204.842C86.4339 206.439 87.5694 207.645 88.9355 207.645C90.3903 207.645 91.579 206.261 91.7387 204.505C93.8855 204.132 95.9081 203.094 97.4516 201.551L103.75 195.252C103.99 195.013 104.327 194.871 104.664 194.871C105.382 194.871 105.959 195.456 105.959 196.166C105.959 196.512 105.826 196.84 105.577 197.08L94.7016 207.973C94.1871 208.488 93.9032 209.171 93.9032 209.898ZM118.751 203.547C120.046 202.5 120.871 200.912 120.871 199.129C120.871 195.998 118.325 193.452 115.194 193.452C112.062 193.452 109.516 195.998 109.516 199.129C109.516 201.835 111.415 204.097 113.952 204.665C113.091 205.374 112.435 206.332 112.124 207.468L111.104 211.194H104.194C102.827 211.194 101.71 212.311 101.71 213.677C101.71 215.044 102.827 216.161 104.194 216.161H110.935V219H123V208.923C123 206.315 121.181 204.132 118.751 203.547ZM110.935 199.129C110.935 196.778 112.843 194.871 115.194 194.871C117.544 194.871 119.452 196.778 119.452 199.129C119.452 201.48 117.544 203.387 115.194 203.387C112.843 203.387 110.935 201.48 110.935 199.129ZM121.581 217.581H112.355V216.161H112.949C114.173 216.161 115.256 215.381 115.646 214.219L117.997 207.157L116.648 206.705L114.298 213.766C114.102 214.352 113.561 214.733 112.949 214.733H104.194C103.608 214.733 103.129 214.254 103.129 213.669C103.129 213.083 103.608 212.604 104.194 212.604H112.186L113.49 207.831C113.978 206.048 115.61 204.798 117.465 204.798C119.735 204.798 121.581 206.643 121.581 208.914V217.581ZM88.9355 183.516H87.5161V182.097H88.9355V183.516ZM90.3548 182.097H98.871V183.516H90.3548V182.097ZM87.5161 184.935H98.871V186.355H87.5161V184.935ZM87.5161 187.774H98.871V189.194H87.5161V187.774ZM118.742 180.677H120.161V182.097H118.742V180.677ZM117.323 182.097H103.129V180.677H117.323V182.097ZM103.129 183.516H120.161V184.935H103.129V183.516ZM103.129 186.355H120.161V187.774H103.129V186.355ZM119.452 175H103.839C101.878 175 100.29 176.588 100.29 178.548V179.258H87.5161C85.9548 179.258 84.6774 180.535 84.6774 182.097V189.194C84.6774 190.755 85.9548 192.032 87.5161 192.032H93.9032V195.492L99.0839 192.032H100.29C101.381 192.032 102.357 191.385 102.827 190.444C103.147 190.542 103.484 190.613 103.839 190.613H105.755L110.935 194.073V190.613H119.452C121.412 190.613 123 189.025 123 187.065V178.548C123 176.588 121.412 175 119.452 175ZM100.29 190.613H98.6581L95.3226 192.831V190.613H87.5161C86.7355 190.613 86.0968 189.974 86.0968 189.194V182.097C86.0968 181.316 86.7355 180.677 87.5161 180.677H100.29V187.065C100.29 188.156 100.796 189.123 101.577 189.779C101.355 190.267 100.858 190.613 100.29 190.613ZM121.581 187.065C121.581 188.235 120.623 189.194 119.452 189.194H109.516V191.411L106.181 189.194H103.839C102.668 189.194 101.71 188.235 101.71 187.065V178.548C101.71 177.377 102.668 176.419 103.839 176.419H119.452C120.623 176.419 121.581 177.377 121.581 178.548V187.065ZM104.548 179.258H103.129V177.839H104.548V179.258ZM107.387 179.258H105.968V177.839H107.387V179.258ZM108.806 177.839H120.161V179.258H108.806V177.839Z" fill="#E54628"/>
</g>
<path d="M420.879 139.536C422.05 138.364 423.95 138.364 425.121 139.536L487.464 201.879C488.636 203.05 488.636 204.95 487.464 206.121L425.121 268.464C423.95 269.636 422.05 269.636 420.879 268.464L358.536 206.121C357.364 204.95 357.364 203.05 358.536 201.879L420.879 139.536Z" stroke="#E54628" stroke-width="2"/>
<path d="M423 118L436.496 131.496L449.993 144.993L459.095 154.095L468.197 163.197M423 290L432.73 280.27M396.007 144.993L384.708 156.292L372.781 168.219M349.869 191.131L339.828 201.172C338.266 202.734 338.266 205.266 339.828 206.828L346.416 213.416M346.416 213.416L355.832 222.832L372.781 239.781L346.416 213.416ZM391.613 258.613L403.54 270.54M451.876 261.124L460.036 252.964L473.219 239.781L481.38 231.62L490.168 222.832L494.562 218.438L501.781 211.219L506.172 206.828C507.734 205.266 507.734 202.734 506.172 201.172L490.168 185.168" stroke="url(#paint3_angular_448_1194)" stroke-dasharray="1 2"/>
<path d="M324 203.781L341.025 186.793L358.051 169.805M496.777 178.614L519.162 200.949C520.728 202.512 520.728 205.05 519.162 206.612L501.822 223.914M467.771 257.89L445.385 280.226L436.479 289.113L427.572 298M358.051 237.756L370.032 249.711L388.318 267.957L404.713 284.315L413.857 293.438M390.841 137.088L406.92 121.044L420.175 107.819C421.736 106.261 424.264 106.261 425.825 107.819L432.616 114.595L442.232 124.19L461.465 143.38" stroke="url(#paint4_angular_448_1194)"/>
<path d="M423 281L409.758 267.758L396.516 254.516M403.382 146.618L420.172 129.828C421.734 128.266 424.266 128.266 425.828 129.828L438.694 142.694M465.178 169.178L482.589 186.589L497.172 201.172C498.734 202.734 498.734 205.266 497.172 206.828L485.777 218.223L473.025 230.975L458.803 245.197L449.484 254.516M371.013 229.013L358.506 216.506L348.828 206.828C347.266 205.266 347.266 202.734 348.828 201.172L360.959 189.041L375.917 174.083" stroke="url(#paint5_angular_448_1194)" stroke-width="1.3"/>
<path d="M482.217 165.283C482.373 165.127 482.627 165.127 482.783 165.283L485.717 168.217C485.873 168.373 485.873 168.627 485.717 168.783L482.783 171.717C482.627 171.873 482.373 171.873 482.217 171.717L479.283 168.783C479.127 168.627 479.127 168.373 479.283 168.217L482.217 165.283Z" fill="#E54628"/>
<path d="M333.217 219.283C333.373 219.127 333.627 219.127 333.783 219.283L336.717 222.217C336.873 222.373 336.873 222.627 336.717 222.783L333.783 225.717C333.627 225.873 333.373 225.873 333.217 225.717L330.283 222.783C330.127 222.627 330.127 222.373 330.283 222.217L333.217 219.283Z" fill="#E54628" fill-opacity="0.58"/>
<path d="M501.217 229.283C501.373 229.127 501.627 229.127 501.783 229.283L503.717 231.217C503.873 231.373 503.873 231.627 503.717 231.783L501.783 233.717C501.627 233.873 501.373 233.873 501.217 233.717L499.283 231.783C499.127 231.627 499.127 231.373 499.283 231.217L501.217 229.283Z" fill="#E54628" fill-opacity="0.46"/>
<g clip-path="url(#clip1_448_1194)">
<path d="M417.613 217.24H416.194V215.82H417.613V217.24ZM417.613 220.078V218.659H416.194V220.078H417.613ZM430.387 199.471V197.369H426.094C425.916 199.551 424.905 201.565 423.255 203.028C423.015 205.237 421.649 207.1 419.742 208.049V209.584L424.692 210.746C424.701 210.746 424.701 210.746 424.71 210.746V206.594C424.71 204.634 426.298 203.046 428.258 203.046H442.452C444.412 203.046 446 204.634 446 206.594V212.272C446 214.232 444.412 215.82 442.452 215.82H440.323V217.923C440.323 219.111 439.356 220.078 438.167 220.078C437.528 220.078 436.916 219.794 436.508 219.298L433.598 215.82H430.937C431.487 217.009 431.798 218.34 431.798 219.723V222.917H402V219.723C402 215.421 404.927 211.731 409.115 210.746L414.065 209.584V208.049C412.157 207.1 410.791 205.228 410.552 203.028C408.724 201.405 407.677 199.107 407.677 196.659C407.677 194.335 409.292 192.303 411.536 191.762C413.009 189.935 415.262 188.852 417.613 188.852H418.323C420.212 188.852 421.942 189.527 423.29 190.644V186.723C423.29 184.763 424.878 183.175 426.839 183.175H430.387C430.387 180.824 432.294 178.917 434.645 178.917C436.996 178.917 438.903 180.824 438.903 183.175H442.452C444.412 183.175 446 184.763 446 186.723V193.82C446 195.781 444.412 197.369 442.452 197.369H437.111L434.202 200.846C433.794 201.343 433.181 201.627 432.543 201.627C431.354 201.627 430.387 200.66 430.387 199.471ZM431.806 183.175C431.806 184.736 433.084 186.014 434.645 186.014C436.206 186.014 437.484 184.736 437.484 183.175C437.484 181.614 436.206 180.336 434.645 180.336C433.084 180.336 431.806 181.614 431.806 183.175ZM412.929 211.305L414.357 215.182L416.016 212.982L414.481 210.941L412.929 211.305ZM414.952 216.769L416.69 221.498H417.116L418.855 216.769L416.903 214.161L414.952 216.769ZM403.419 221.498H407.677V217.24H409.097V221.498H415.173L411.536 211.633L409.434 212.13C405.894 212.964 403.419 216.086 403.419 219.723V221.498ZM426.129 211.207C427.761 211.882 429.127 212.999 430.121 214.401H434.273L437.599 218.393C437.741 218.561 437.945 218.659 438.167 218.659C438.575 218.659 438.903 218.331 438.903 217.923V214.401H442.452C443.623 214.401 444.581 213.443 444.581 212.272V206.594C444.581 205.423 443.623 204.465 442.452 204.465H428.258C427.087 204.465 426.129 205.423 426.129 206.594V211.207ZM424.373 212.13L422.27 211.633L418.633 221.498H424.71V217.24H426.129V221.498H430.387V219.723C430.387 216.086 427.912 212.964 424.373 212.13ZM419.325 210.941L417.79 212.982L419.44 215.182L420.869 211.305L419.325 210.941ZM418.323 208.555C417.861 208.661 417.391 208.723 416.903 208.723C416.415 208.723 415.945 208.661 415.484 208.555V209.903L416.903 211.793L418.323 209.903V208.555ZM421.871 201.627C421.871 200.456 420.913 199.498 419.742 199.498H415.271L413.373 198.238C413.222 198.14 413.044 198.078 412.858 198.078C412.344 198.078 411.935 198.495 411.935 199.001V202.336C411.935 205.077 414.162 207.304 416.903 207.304C419.644 207.304 421.871 205.077 421.871 202.336V201.627ZM424.71 196.659C424.71 193.137 421.844 190.272 418.323 190.272H417.613C415.617 190.272 413.701 191.23 412.503 192.827L412.344 193.04L412.006 193.111C410.321 193.448 409.097 194.938 409.097 196.659C409.097 198.211 409.602 199.693 410.516 200.908V199.001C410.516 197.706 411.563 196.659 412.858 196.659C413.319 196.659 413.772 196.792 414.162 197.049L415.697 198.078H419.742C421.481 198.078 422.927 199.338 423.228 200.997C424.177 199.764 424.71 198.247 424.71 196.659ZM431.806 195.949V199.471C431.806 199.879 432.135 200.207 432.543 200.207C432.765 200.207 432.969 200.11 433.11 199.941L436.437 195.949H442.452C443.623 195.949 444.581 194.991 444.581 193.82V186.723C444.581 185.552 443.623 184.594 442.452 184.594H438.655C438.38 185.366 437.901 186.032 437.271 186.519C439.888 187.566 441.742 190.121 441.742 193.111V194.53H427.548V193.111C427.548 190.121 429.402 187.566 432.019 186.519C431.39 186.023 430.902 185.357 430.635 184.594H426.839C425.668 184.594 424.71 185.552 424.71 186.723V192.188C425.473 193.27 425.969 194.557 426.094 195.949H431.806ZM428.968 193.111H440.323C440.323 189.979 437.777 187.433 434.645 187.433C431.514 187.433 428.968 189.979 428.968 193.111ZM443.161 205.885H427.548V207.304H443.161V205.885ZM443.161 208.723H427.548V210.143H443.161V208.723ZM430.387 212.982H440.323V211.562H430.387V212.982ZM441.742 212.982H443.161V211.562H441.742V212.982Z" fill="#E54628"/>
</g>
<path d="M258.879 254.536C260.05 253.364 261.95 253.364 263.121 254.536L325.464 316.879C326.636 318.05 326.636 319.95 325.464 321.121L263.121 383.464C261.95 384.636 260.05 384.636 258.879 383.464L196.536 321.121C195.364 319.95 195.364 318.05 196.536 316.879L258.879 254.536Z" stroke="#E54628" stroke-width="2"/>
<path d="M261 233L274.496 246.496L287.993 259.993L297.095 269.095L306.197 278.197M261 405L270.73 395.27M234.007 259.993L222.708 271.292L210.781 283.219M187.869 306.131L177.828 316.172C176.266 317.734 176.266 320.266 177.828 321.828L184.416 328.416M184.416 328.416L193.832 337.832L210.781 354.781L184.416 328.416ZM229.613 373.613L241.54 385.54M289.876 376.124L298.036 367.964L311.219 354.781L319.38 346.62L328.168 337.832L332.562 333.438L339.781 326.219L344.172 321.828C345.734 320.266 345.734 317.734 344.172 316.172L328.168 300.168" stroke="url(#paint6_angular_448_1194)" stroke-dasharray="1 2"/>
<path d="M162 318.781L179.025 301.793L196.051 284.805M334.777 293.614L357.162 315.949C358.728 317.512 358.728 320.05 357.162 321.612L339.822 338.914M305.771 372.89L283.385 395.226L274.479 404.113L265.572 413M196.051 352.756L208.032 364.711L226.318 382.957L242.713 399.315L251.857 408.438M228.841 252.088L244.92 236.044L258.175 222.819C259.736 221.261 262.264 221.261 263.825 222.819L270.616 229.595L280.232 239.19L299.465 258.38" stroke="url(#paint7_angular_448_1194)"/>
<path d="M261 396L247.758 382.758L234.516 369.516M241.382 261.618L258.172 244.828C259.734 243.266 262.266 243.266 263.828 244.828L276.694 257.694M303.178 284.178L320.589 301.589L335.172 316.172C336.734 317.734 336.734 320.266 335.172 321.828L323.777 333.223L311.025 345.975L296.803 360.197L287.484 369.516M209.013 344.013L196.506 331.506L186.828 321.828C185.266 320.266 185.266 317.734 186.828 316.172L198.959 304.041L213.917 289.083" stroke="url(#paint8_angular_448_1194)" stroke-width="1.3"/>
<path d="M320.217 280.283C320.373 280.127 320.627 280.127 320.783 280.283L323.717 283.217C323.873 283.373 323.873 283.627 323.717 283.783L320.783 286.717C320.627 286.873 320.373 286.873 320.217 286.717L317.283 283.783C317.127 283.627 317.127 283.373 317.283 283.217L320.217 280.283Z" fill="#E54628"/>
<path d="M171.217 334.283C171.373 334.127 171.627 334.127 171.783 334.283L174.717 337.217C174.873 337.373 174.873 337.627 174.717 337.783L171.783 340.717C171.627 340.873 171.373 340.873 171.217 340.717L168.283 337.783C168.127 337.627 168.127 337.373 168.283 337.217L171.217 334.283Z" fill="#E54628" fill-opacity="0.58"/>
<path d="M339.217 344.283C339.373 344.127 339.627 344.127 339.783 344.283L341.717 346.217C341.873 346.373 341.873 346.627 341.717 346.783L339.783 348.717C339.627 348.873 339.373 348.873 339.217 348.717L337.283 346.783C337.127 346.627 337.127 346.373 337.283 346.217L339.217 344.283Z" fill="#E54628" fill-opacity="0.46"/>
<g clip-path="url(#clip2_448_1194)">
<path d="M242.484 336H247.097H249.581H256.323V329.64C256.323 329.356 256.429 329.09 256.633 328.885L267.589 317.93C268.103 317.415 268.387 316.732 268.387 316.005C268.387 314.506 267.172 313.29 265.673 313.29C264.945 313.29 264.262 313.574 263.748 314.089L257.449 320.387C256.598 321.239 255.577 321.913 254.469 322.374C255.187 321.425 255.613 320.245 255.613 318.968C255.613 315.836 253.067 313.29 249.935 313.29C246.804 313.29 244.258 315.836 244.258 318.968C244.258 320.742 245.074 322.321 246.352 323.368C242.741 324.051 240 327.227 240 331.032V333.516C240 334.882 241.118 336 242.484 336ZM245.677 318.968C245.677 316.617 247.585 314.71 249.935 314.71C252.286 314.71 254.194 316.617 254.194 318.968C254.194 321.319 252.286 323.226 249.935 323.226C247.585 323.226 245.677 321.319 245.677 318.968ZM241.419 331.032C241.419 327.51 244.285 324.645 247.806 324.645H250.645L252.437 324.397C254.699 324.077 256.837 323.004 258.46 321.39L264.759 315.091C265.007 314.843 265.327 314.71 265.673 314.71C266.391 314.71 266.968 315.295 266.968 316.005C266.968 316.351 266.835 316.679 266.586 316.919L255.631 327.883C255.16 328.353 254.903 328.974 254.903 329.64V334.581H251.816C251.967 334.261 252.065 333.898 252.065 333.516C252.065 332.15 250.947 331.032 249.581 331.032H243.548V332.452H249.581C250.166 332.452 250.645 332.931 250.645 333.516C250.645 334.102 250.166 334.581 249.581 334.581H247.097H242.484C241.898 334.581 241.419 334.102 241.419 333.516V331.032ZM280.452 296.258H266.258C264.298 296.258 262.71 297.846 262.71 299.806V308.323C262.71 310.283 264.298 311.871 266.258 311.871H273.355V315.224L279.219 311.871H280.452C282.412 311.871 284 310.283 284 308.323V299.806C284 297.846 282.412 296.258 280.452 296.258ZM282.581 308.323C282.581 309.494 281.623 310.452 280.452 310.452H278.846L274.774 312.776V310.452H266.258C265.087 310.452 264.129 309.494 264.129 308.323V299.806C264.129 298.635 265.087 297.677 266.258 297.677H280.452C281.623 297.677 282.581 298.635 282.581 299.806V308.323ZM280.452 323.226H276.38L270.516 319.873V323.226H266.258C264.298 323.226 262.71 324.814 262.71 326.774V332.452C262.71 334.412 264.298 336 266.258 336H280.452C282.412 336 284 334.412 284 332.452V326.774C284 324.814 282.412 323.226 280.452 323.226ZM282.581 332.452C282.581 333.623 281.623 334.581 280.452 334.581H266.258C265.087 334.581 264.129 333.623 264.129 332.452V326.774C264.129 325.603 265.087 324.645 266.258 324.645H271.935V322.321L276.007 324.645H280.452C281.623 324.645 282.581 325.603 282.581 326.774V332.452ZM243.548 307.613H244.781L250.645 310.966V307.613H257.742C259.702 307.613 261.29 306.025 261.29 304.065V295.548C261.29 293.588 259.702 292 257.742 292H243.548C241.588 292 240 293.588 240 295.548V304.065C240 306.025 241.588 307.613 243.548 307.613ZM241.419 295.548C241.419 294.377 242.377 293.419 243.548 293.419H257.742C258.913 293.419 259.871 294.377 259.871 295.548V304.065C259.871 305.235 258.913 306.194 257.742 306.194H249.226V308.518L245.154 306.194H243.548C242.377 306.194 241.419 305.235 241.419 304.065V295.548ZM278.527 299.301L279.529 300.303L271.226 308.615L267.881 305.271L268.884 304.269L271.217 306.602L278.527 299.301ZM245.172 304.269L249.643 299.806L245.172 295.344L246.174 294.342L250.645 298.804L255.107 294.342L256.11 295.344L251.648 299.806L256.11 304.269L255.107 305.271L250.645 300.809L246.183 305.271L245.172 304.269ZM265.548 333.161H272.645V326.065H265.548V333.161ZM266.968 327.484H271.226V331.742H266.968V327.484ZM274.065 326.065H281.161V327.484H274.065V326.065ZM274.065 328.903H281.161V330.323H274.065V328.903ZM274.065 331.742H281.161V333.161H274.065V331.742Z" fill="#E54628"/>
</g>
<path d="M257.879 36.5355C259.05 35.364 260.95 35.364 262.121 36.5355L324.464 98.8787C325.636 100.05 325.636 101.95 324.464 103.121L262.121 165.464C260.95 166.636 259.05 166.636 257.879 165.464L195.536 103.121C194.364 101.95 194.364 100.05 195.536 98.8787L257.879 36.5355Z" stroke="#E54628" stroke-width="2"/>
<path d="M260 15L273.496 28.4964L286.993 41.9927L296.095 51.0949L305.197 60.1971M260 187L269.73 177.27M233.007 41.9927L221.708 53.292L209.781 65.219M186.869 88.1314L176.828 98.1716C175.266 99.7337 175.266 102.266 176.828 103.828L183.416 110.416M183.416 110.416L192.832 119.832L209.781 136.781L183.416 110.416ZM228.613 155.613L240.54 167.54M288.876 158.124L297.036 149.964L310.219 136.781L318.38 128.62L327.168 119.832L331.562 115.438L338.781 108.219L343.172 103.828C344.734 102.266 344.734 99.7337 343.172 98.1716L327.168 82.1679" stroke="url(#paint9_angular_448_1194)" stroke-dasharray="1 2"/>
<path d="M161 100.781L178.025 83.793L195.051 66.8052M333.777 75.6137L356.162 97.9492C357.728 99.512 357.728 102.05 356.162 103.612L338.822 120.914M304.771 154.89L282.385 177.226L273.479 186.113L264.572 195M195.051 134.756L207.032 146.711L225.318 164.957L241.713 181.315L250.857 190.438M227.841 34.088L243.92 18.044L257.175 4.81903C258.736 3.26111 261.264 3.26111 262.825 4.81903L269.616 11.5949L279.232 21.1899L298.465 40.3798" stroke="url(#paint10_angular_448_1194)"/>
<path d="M260 178L246.758 164.758L233.516 151.516M240.382 43.6178L257.172 26.8284C258.734 25.2663 261.266 25.2663 262.828 26.8284L275.694 39.6943M302.178 66.1783L319.589 83.5892L334.172 98.1716C335.734 99.7337 335.734 102.266 334.172 103.828L322.777 115.223L310.025 127.975L295.803 142.197L286.484 151.516M208.013 126.013L195.506 113.506L185.828 103.828C184.266 102.266 184.266 99.7337 185.828 98.1716L197.959 86.0414L212.917 71.0828" stroke="url(#paint11_angular_448_1194)" stroke-width="1.3"/>
<path d="M319.217 62.2828C319.373 62.1266 319.627 62.1266 319.783 62.2828L322.717 65.2172C322.873 65.3734 322.873 65.6266 322.717 65.7828L319.783 68.7172C319.627 68.8734 319.373 68.8734 319.217 68.7172L316.283 65.7828C316.127 65.6266 316.127 65.3734 316.283 65.2172L319.217 62.2828Z" fill="#E54628"/>
<path d="M170.217 116.283C170.373 116.127 170.627 116.127 170.783 116.283L173.717 119.217C173.873 119.373 173.873 119.627 173.717 119.783L170.783 122.717C170.627 122.873 170.373 122.873 170.217 122.717L167.283 119.783C167.127 119.627 167.127 119.373 167.283 119.217L170.217 116.283Z" fill="#E54628" fill-opacity="0.58"/>
<path d="M338.217 126.283C338.373 126.127 338.627 126.127 338.783 126.283L340.717 128.217C340.873 128.373 340.873 128.627 340.717 128.783L338.783 130.717C338.627 130.873 338.373 130.873 338.217 130.717L336.283 128.783C336.127 128.627 336.127 128.373 336.283 128.217L338.217 126.283Z" fill="#E54628" fill-opacity="0.46"/>
<g clip-path="url(#clip3_448_1194)">
<path d="M280.802 113.931H280.069V87.3792H278.602V109.379H243.402V85.1033H261.735V83.5861H243.402V80.5516C243.402 79.7171 244.062 79.0343 244.869 79.0343H261.002V77.5171H244.869C243.246 77.5171 241.935 78.8731 241.935 80.5516V113.931H241.202C240.799 113.931 240.469 114.272 240.469 114.69V116.965C240.469 118.644 241.78 120 243.402 120H278.602C280.225 120 281.535 118.644 281.535 116.965V114.69C281.535 114.272 281.205 113.931 280.802 113.931ZM243.402 110.896H278.602V113.931H267.602C267.41 113.931 267.217 114.007 267.08 114.149L265.833 115.448H256.171L254.915 114.149C254.778 114.007 254.595 113.931 254.393 113.931H243.402V110.896ZM280.069 116.965C280.069 117.8 279.409 118.483 278.602 118.483H243.402C242.595 118.483 241.935 117.8 241.935 116.965V115.448H254.1L255.355 116.747C255.493 116.89 255.676 116.965 255.878 116.965H266.145C266.337 116.965 266.53 116.89 266.667 116.747L267.923 115.448H280.069V116.965Z" fill="#E54628"/>
<path d="M244.866 80.5518H246.333V82.069H244.866V80.5518Z" fill="#E54628"/>
<path d="M247.8 80.5518H249.267V82.069H247.8V80.5518Z" fill="#E54628"/>
<path d="M250.734 80.5518H252.201V82.069H250.734V80.5518Z" fill="#E54628"/>
<path d="M260.266 112.414H261.732V113.931H260.266V112.414Z" fill="#E54628"/>
<path d="M278.388 76.2181C278.25 76.0759 278.058 76 277.865 76H266.132C265.939 76 265.747 76.0759 265.609 76.2181L261.209 80.7698C260.925 81.0638 260.925 81.5474 261.209 81.8414L271.476 92.4621C271.485 92.4716 271.503 92.481 271.513 92.4905C271.558 92.5379 271.613 92.5664 271.668 92.6043C271.687 92.6138 271.714 92.6328 271.733 92.6422C271.898 92.7086 272.081 92.7086 272.246 92.6422C272.273 92.6328 272.292 92.6233 272.31 92.6043C272.365 92.5759 272.42 92.5379 272.466 92.4905C272.475 92.481 272.493 92.481 272.503 92.4621L282.769 81.8414C283.053 81.5474 283.053 81.0638 282.769 80.7698L278.388 76.2181ZM270.431 80.5517L271.998 78.1241L273.566 80.5517H270.431ZM273.96 82.069L271.998 89.1716L270.037 82.069H273.96ZM273.364 77.5172H276.49L274.932 79.9448L273.364 77.5172ZM269.065 79.9448L267.498 77.5172H270.623L269.065 79.9448ZM267.699 80.5517H263.51L266.022 77.9534L267.699 80.5517ZM268.515 82.069L270.523 89.3233L263.501 82.069H268.515ZM275.482 82.069H280.496L273.483 89.3233L275.482 82.069ZM276.298 80.5517L277.975 77.9534L280.496 80.5517H276.298Z" fill="#E54628"/>
<path d="M250.211 87.5974L248.011 89.8733C247.727 90.1672 247.727 90.6509 248.011 90.9448L250.211 93.2207L251.247 92.1491L249.569 90.4138L251.247 88.6784L250.211 87.5974Z" fill="#E54628"/>
<path d="M255.657 93.2302L257.857 90.9544C258.141 90.6604 258.141 90.1768 257.857 89.8828L255.657 87.6069L254.621 88.6785L256.298 90.4138L254.621 92.1492L255.657 93.2302Z" fill="#E54628"/>
<path d="M251.492 93.2775L252.959 87.2085L254.38 87.5783L252.913 93.6473L251.492 93.2775Z" fill="#E54628"/>
<path d="M245.601 95.7241H247.068V97.2414H245.601V95.7241Z" fill="#E54628"/>
<path d="M245.601 98.7585H247.068V100.276H245.601V98.7585Z" fill="#E54628"/>
<path d="M245.601 101.793H247.068V103.31H245.601V101.793Z" fill="#E54628"/>
<path d="M245.601 104.828H247.068V106.345H245.601V104.828Z" fill="#E54628"/>
<path d="M248.531 95.7241H259.531V97.2414H248.531V95.7241Z" fill="#E54628"/>
<path d="M248.531 98.7585H265.398V100.276H248.531V98.7585Z" fill="#E54628"/>
<path d="M248.531 101.793H271.265V103.31H248.531V101.793Z" fill="#E54628"/>
<path d="M248.531 104.828H264.665V106.345H248.531V104.828Z" fill="#E54628"/>
<path d="M261 95.7241H262.467V97.2414H261V95.7241Z" fill="#E54628"/>
<path d="M266.134 104.828H267.6V106.345H266.134V104.828Z" fill="#E54628"/>
<path d="M266.866 98.7585H269.8V100.276H266.866V98.7585Z" fill="#E54628"/>
<path d="M272.734 101.793H275.668V103.31H272.734V101.793Z" fill="#E54628"/>
<path d="M239 80.5518H240.467V99.5173H239V80.5518Z" fill="#E54628"/>
<path d="M281.531 94.9656H282.998V110.138H281.531V94.9656Z" fill="#E54628"/>
<path d="M281.531 91.9312H282.998V93.4484H281.531V91.9312Z" fill="#E54628"/>
</g>
<defs>
<radialGradient id="paint0_angular_448_1194" cx="0" cy="0" r="1" gradientUnits="userSpaceOnUse" gradientTransform="translate(97.2078 204.234) rotate(58.4258) scale(62.9257)">
<stop offset="0.133603" stop-color="#E54628" stop-opacity="0.6"/>
<stop offset="0.263803" stop-color="#E54628" stop-opacity="0"/>
<stop offset="0.344764" stop-color="#E54628" stop-opacity="0.46"/>
<stop offset="0.495766" stop-color="#E54628" stop-opacity="0.4"/>
<stop offset="0.59375" stop-color="#E54628"/>
<stop offset="0.595701" stop-color="#E54628" stop-opacity="0.17"/>
<stop offset="0.634876" stop-color="#E54628" stop-opacity="0.49"/>
<stop offset="0.907799" stop-color="#E54628" stop-opacity="0.71"/>
<stop offset="0.994631" stop-color="#E54628" stop-opacity="0"/>
</radialGradient>
<radialGradient id="paint1_angular_448_1194" cx="0" cy="0" r="1" gradientUnits="userSpaceOnUse" gradientTransform="translate(96.7857 202.006) rotate(57.7684) scale(71.1147 71.9222)">
<stop stop-color="#E54628" stop-opacity="0"/>
<stop offset="0.189525" stop-color="#E54628" stop-opacity="0.6"/>
<stop offset="0.296875" stop-color="#E54628" stop-opacity="0"/>
<stop offset="0.390339" stop-color="#E54628" stop-opacity="0.2"/>
<stop offset="0.538589" stop-color="#E54628" stop-opacity="0.17"/>
<stop offset="0.59375" stop-color="#E54628"/>
<stop offset="0.652722" stop-color="#E54628" stop-opacity="0"/>
<stop offset="0.779498" stop-color="#E54628" stop-opacity="0"/>
<stop offset="0.833333" stop-color="#E54628" stop-opacity="0.49"/>
</radialGradient>
<radialGradient id="paint2_angular_448_1194" cx="0" cy="0" r="1" gradientUnits="userSpaceOnUse" gradientTransform="translate(102 204.5) rotate(-31.5742) scale(56.3405)">
<stop stop-color="#E54628" stop-opacity="0"/>
<stop offset="0.09375" stop-color="#E54628" stop-opacity="0.6"/>
<stop offset="0.296875" stop-color="#E54628" stop-opacity="0"/>
<stop offset="0.538589" stop-color="#E54628" stop-opacity="0.17"/>
<stop offset="0.59375" stop-color="#E54628"/>
<stop offset="0.652722" stop-color="#E54628" stop-opacity="0.17"/>
<stop offset="0.833333" stop-color="#E54628" stop-opacity="0.17"/>
</radialGradient>
<radialGradient id="paint3_angular_448_1194" cx="0" cy="0" r="1" gradientUnits="userSpaceOnUse" gradientTransform="translate(420.208 206.234) rotate(58.4258) scale(62.9257)">
<stop offset="0.133603" stop-color="#E54628" stop-opacity="0.6"/>
<stop offset="0.263803" stop-color="#E54628" stop-opacity="0"/>
<stop offset="0.344764" stop-color="#E54628" stop-opacity="0.46"/>
<stop offset="0.495766" stop-color="#E54628" stop-opacity="0.4"/>
<stop offset="0.59375" stop-color="#E54628"/>
<stop offset="0.595701" stop-color="#E54628" stop-opacity="0.17"/>
<stop offset="0.634876" stop-color="#E54628" stop-opacity="0.49"/>
<stop offset="0.907799" stop-color="#E54628" stop-opacity="0.71"/>
<stop offset="0.994631" stop-color="#E54628" stop-opacity="0"/>
</radialGradient>
<radialGradient id="paint4_angular_448_1194" cx="0" cy="0" r="1" gradientUnits="userSpaceOnUse" gradientTransform="translate(419.786 204.006) rotate(57.7684) scale(71.1147 71.9222)">
<stop stop-color="#E54628" stop-opacity="0"/>
<stop offset="0.189525" stop-color="#E54628" stop-opacity="0.6"/>
<stop offset="0.296875" stop-color="#E54628" stop-opacity="0"/>
<stop offset="0.390339" stop-color="#E54628" stop-opacity="0.2"/>
<stop offset="0.538589" stop-color="#E54628" stop-opacity="0.17"/>
<stop offset="0.59375" stop-color="#E54628"/>
<stop offset="0.652722" stop-color="#E54628" stop-opacity="0"/>
<stop offset="0.779498" stop-color="#E54628" stop-opacity="0"/>
<stop offset="0.833333" stop-color="#E54628" stop-opacity="0.49"/>
</radialGradient>
<radialGradient id="paint5_angular_448_1194" cx="0" cy="0" r="1" gradientUnits="userSpaceOnUse" gradientTransform="translate(425 206.5) rotate(-31.5742) scale(56.3405)">
<stop stop-color="#E54628" stop-opacity="0"/>
<stop offset="0.09375" stop-color="#E54628" stop-opacity="0.6"/>
<stop offset="0.296875" stop-color="#E54628" stop-opacity="0"/>
<stop offset="0.538589" stop-color="#E54628" stop-opacity="0.17"/>
<stop offset="0.59375" stop-color="#E54628"/>
<stop offset="0.652722" stop-color="#E54628" stop-opacity="0.17"/>
<stop offset="0.833333" stop-color="#E54628" stop-opacity="0.17"/>
</radialGradient>
<radialGradient id="paint6_angular_448_1194" cx="0" cy="0" r="1" gradientUnits="userSpaceOnUse" gradientTransform="translate(258.208 321.234) rotate(58.4258) scale(62.9257)">
<stop offset="0.133603" stop-color="#E54628" stop-opacity="0.6"/>
<stop offset="0.263803" stop-color="#E54628" stop-opacity="0"/>
<stop offset="0.344764" stop-color="#E54628" stop-opacity="0.46"/>
<stop offset="0.495766" stop-color="#E54628" stop-opacity="0.4"/>
<stop offset="0.59375" stop-color="#E54628"/>
<stop offset="0.595701" stop-color="#E54628" stop-opacity="0.17"/>
<stop offset="0.634876" stop-color="#E54628" stop-opacity="0.49"/>
<stop offset="0.907799" stop-color="#E54628" stop-opacity="0.71"/>
<stop offset="0.994631" stop-color="#E54628" stop-opacity="0"/>
</radialGradient>
<radialGradient id="paint7_angular_448_1194" cx="0" cy="0" r="1" gradientUnits="userSpaceOnUse" gradientTransform="translate(257.786 319.006) rotate(57.7684) scale(71.1147 71.9222)">
<stop stop-color="#E54628" stop-opacity="0"/>
<stop offset="0.189525" stop-color="#E54628" stop-opacity="0.6"/>
<stop offset="0.296875" stop-color="#E54628" stop-opacity="0"/>
<stop offset="0.390339" stop-color="#E54628" stop-opacity="0.2"/>
<stop offset="0.538589" stop-color="#E54628" stop-opacity="0.17"/>
<stop offset="0.59375" stop-color="#E54628"/>
<stop offset="0.652722" stop-color="#E54628" stop-opacity="0"/>
<stop offset="0.779498" stop-color="#E54628" stop-opacity="0"/>
<stop offset="0.833333" stop-color="#E54628" stop-opacity="0.49"/>
</radialGradient>
<radialGradient id="paint8_angular_448_1194" cx="0" cy="0" r="1" gradientUnits="userSpaceOnUse" gradientTransform="translate(263 321.5) rotate(-31.5742) scale(56.3405)">
<stop stop-color="#E54628" stop-opacity="0"/>
<stop offset="0.09375" stop-color="#E54628" stop-opacity="0.6"/>
<stop offset="0.296875" stop-color="#E54628" stop-opacity="0"/>
<stop offset="0.538589" stop-color="#E54628" stop-opacity="0.17"/>
<stop offset="0.59375" stop-color="#E54628"/>
<stop offset="0.652722" stop-color="#E54628" stop-opacity="0.17"/>
<stop offset="0.833333" stop-color="#E54628" stop-opacity="0.17"/>
</radialGradient>
<radialGradient id="paint9_angular_448_1194" cx="0" cy="0" r="1" gradientUnits="userSpaceOnUse" gradientTransform="translate(257.208 103.234) rotate(58.4258) scale(62.9257)">
<stop offset="0.133603" stop-color="#E54628" stop-opacity="0.6"/>
<stop offset="0.263803" stop-color="#E54628" stop-opacity="0"/>
<stop offset="0.344764" stop-color="#E54628" stop-opacity="0.46"/>
<stop offset="0.495766" stop-color="#E54628" stop-opacity="0.4"/>
<stop offset="0.59375" stop-color="#E54628"/>
<stop offset="0.595701" stop-color="#E54628" stop-opacity="0.17"/>
<stop offset="0.634876" stop-color="#E54628" stop-opacity="0.49"/>
<stop offset="0.907799" stop-color="#E54628" stop-opacity="0.71"/>
<stop offset="0.994631" stop-color="#E54628" stop-opacity="0"/>
</radialGradient>
<radialGradient id="paint10_angular_448_1194" cx="0" cy="0" r="1" gradientUnits="userSpaceOnUse" gradientTransform="translate(256.786 101.006) rotate(57.7684) scale(71.1147 71.9222)">
<stop stop-color="#E54628" stop-opacity="0"/>
<stop offset="0.189525" stop-color="#E54628" stop-opacity="0.6"/>
<stop offset="0.296875" stop-color="#E54628" stop-opacity="0"/>
<stop offset="0.390339" stop-color="#E54628" stop-opacity="0.2"/>
<stop offset="0.538589" stop-color="#E54628" stop-opacity="0.17"/>
<stop offset="0.59375" stop-color="#E54628"/>
<stop offset="0.652722" stop-color="#E54628" stop-opacity="0"/>
<stop offset="0.779498" stop-color="#E54628" stop-opacity="0"/>
<stop offset="0.833333" stop-color="#E54628" stop-opacity="0.49"/>
</radialGradient>
<radialGradient id="paint11_angular_448_1194" cx="0" cy="0" r="1" gradientUnits="userSpaceOnUse" gradientTransform="translate(262 103.5) rotate(-31.5742) scale(56.3405)">
<stop stop-color="#E54628" stop-opacity="0"/>
<stop offset="0.09375" stop-color="#E54628" stop-opacity="0.6"/>
<stop offset="0.296875" stop-color="#E54628" stop-opacity="0"/>
<stop offset="0.538589" stop-color="#E54628" stop-opacity="0.17"/>
<stop offset="0.59375" stop-color="#E54628"/>
<stop offset="0.652722" stop-color="#E54628" stop-opacity="0.17"/>
<stop offset="0.833333" stop-color="#E54628" stop-opacity="0.17"/>
</radialGradient>
<clipPath id="clip0_448_1194">
<rect width="44" height="44" fill="white" transform="translate(79 175)"/>
</clipPath>
<clipPath id="clip1_448_1194">
<rect width="44" height="44" fill="white" transform="translate(402 178.917)"/>
</clipPath>
<clipPath id="clip2_448_1194">
<rect width="44" height="44" fill="white" transform="translate(240 292)"/>
</clipPath>
<clipPath id="clip3_448_1194">
<rect width="44" height="44" fill="white" transform="translate(239 76)"/>
</clipPath>
</defs>
</svg>
