<svg width="245" height="120" viewBox="0 0 245 120" fill="none" xmlns="http://www.w3.org/2000/svg">
<g id="Group 22">
<rect id="Rectangle 60" width="245" height="120" rx="10" fill="#DD4A2E"/>
<g id="&#208;&#154;&#209;&#129;&#208;&#181;&#208;&#189;&#208;&#184;&#209;&#143;">
<path d="M49.5389 67.7326H40.7798V29.4116H49.5389V46.1086L62.0753 29.4116H72.5862L58.1884 47.094L73.7358 67.7326H62.6227L49.5389 49.5027V67.7326Z" fill="white"/>
<path d="M92.7025 57.9881L96.5346 64.01C94.3813 66.9296 91.0237 68.3895 86.4617 68.3895C82.3741 68.3895 79.0895 67.2034 76.6077 64.8311C74.1625 62.4954 72.9399 59.3567 72.9399 55.4151C72.9399 51.729 74.1442 48.6633 76.553 46.2181C79.0347 43.6999 82.1734 42.4407 85.969 42.4407C90.458 42.4407 93.8156 43.6086 96.0419 45.9444L92.2646 52.4042C90.7317 50.8713 88.9799 50.1049 87.0091 50.1049C85.5493 50.1049 84.2902 50.5976 83.2318 51.583C82.2099 52.5684 81.6989 53.8458 81.6989 55.4151C81.6989 56.9844 82.2464 58.2618 83.3413 59.2472C84.5091 60.2326 85.7683 60.7253 87.1186 60.7253C89.1259 60.7253 90.9872 59.8129 92.7025 57.9881Z" fill="white"/>
<path d="M118.867 59.7947L121.111 65.5975C118.63 67.4588 115.436 68.3895 111.531 68.3895C107.517 68.3895 104.268 67.2034 101.787 64.8311C99.3779 62.4589 98.1735 59.3202 98.1735 55.4151C98.1735 51.6925 99.3961 48.6086 101.841 46.1633C104.323 43.6816 107.553 42.4407 111.531 42.4407C114.779 42.4407 117.589 43.5356 119.962 45.7254C122.297 47.8422 123.465 50.6159 123.465 54.0465C123.465 55.6888 123.301 57.0574 122.973 58.1523H106.659C107.389 60.4151 109.305 61.5465 112.407 61.5465C114.816 61.5465 116.969 60.9625 118.867 59.7947ZM111.257 49.2838C108.849 49.2838 107.225 50.4151 106.385 52.6779H115.254C115.254 51.729 114.889 50.9261 114.159 50.2692C113.429 49.6122 112.462 49.2838 111.257 49.2838Z" fill="white"/>
<path d="M151.917 67.7326H143.705V59.2472H135.767V67.7326H127.556V43.0977H135.767V51.583H143.705V43.0977H151.917V67.7326Z" fill="white"/>
<path d="M174.892 54.8677L166.133 67.7326H157.922V43.0977H166.133V55.9626L174.892 43.0977H183.104V67.7326H174.892V54.8677Z" fill="white"/>
<path d="M202.172 43.0977H210.657V67.7326H202.446V61.437H200.475L196.588 67.7326H187.227L193.085 59.6304C190.347 58.1706 188.979 55.7436 188.979 52.3494C188.979 49.5027 190.092 47.2582 192.318 45.6159C194.544 43.9371 197.829 43.0977 202.172 43.0977ZM197.738 53.0064C197.738 53.6633 198.048 54.229 198.668 54.7034C199.289 55.1779 200.055 55.4151 200.968 55.4151H202.446V50.2144H200.858C199.982 50.2144 199.234 50.5064 198.614 51.0903C198.03 51.6378 197.738 52.2764 197.738 53.0064Z" fill="white"/>
</g>
<g id="project manager">
<path d="M54.3009 86.6395V90.3621H51.7983V79.4133C52.278 79.4133 52.8046 79.4081 53.3781 79.3976C53.962 79.3872 54.5512 79.382 55.1456 79.382C56.6888 79.382 57.815 79.7261 58.5241 80.4143C59.2227 81.0817 59.572 81.9472 59.572 83.0108C59.572 84.0326 59.2018 84.9033 58.4615 85.6228C57.7211 86.3319 56.741 86.6864 55.5209 86.6864C54.9787 86.6864 54.572 86.6708 54.3009 86.6395ZM55.3958 81.7282C55.3854 81.7282 55.3385 81.7334 55.255 81.7438C55.1716 81.7438 55.0413 81.749 54.864 81.7595C54.6867 81.7595 54.4991 81.7595 54.3009 81.7595V84.2621C54.7389 84.3142 55.1195 84.3403 55.4427 84.3403C55.8703 84.3403 56.2196 84.2308 56.4907 84.0118C56.7722 83.7824 56.913 83.4435 56.913 82.9951C56.913 82.1505 56.4073 81.7282 55.3958 81.7282Z" fill="white"/>
<path d="M64.1072 86.53V90.3621H61.6046V79.4133C62.199 79.4133 62.8559 79.4081 63.5754 79.3976C64.2949 79.3872 64.8789 79.382 65.3272 79.382C68.028 79.382 69.3783 80.5499 69.3783 82.8856C69.3783 84.3872 68.7631 85.4404 67.5327 86.0451L70.7235 90.3621H67.6891L65.0301 86.53H64.1072ZM65.2021 81.7282C65.1917 81.7282 65.1448 81.7334 65.0613 81.7438C64.9779 81.7438 64.8476 81.749 64.6703 81.7595C64.493 81.7595 64.3054 81.7595 64.1072 81.7595V84.1838H65.0144C66.151 84.1838 66.7193 83.7615 66.7193 82.9169C66.7193 82.1244 66.2136 81.7282 65.2021 81.7282Z" fill="white"/>
<path d="M70.8733 84.8877C70.8733 83.2714 71.4103 81.9263 72.4843 80.8523C73.5688 79.7678 74.9713 79.2256 76.6918 79.2256C78.4019 79.2256 79.794 79.7417 80.868 80.7741C81.9629 81.8064 82.5103 83.1776 82.5103 84.8877C82.5103 86.5352 81.9577 87.8908 80.8524 88.9544C79.7575 90.018 78.3706 90.5498 76.6918 90.5498C74.9921 90.5498 73.5948 90.0337 72.5 89.0013C71.4155 87.969 70.8733 86.5978 70.8733 84.8877ZM73.5323 84.8877C73.5323 85.8157 73.8399 86.603 74.4551 87.2495C75.0599 87.8856 75.8055 88.2036 76.6918 88.2036C77.6928 88.2036 78.4697 87.896 79.0223 87.2808C79.575 86.6447 79.8513 85.847 79.8513 84.8877C79.8513 83.8971 79.5489 83.0994 78.9441 82.4946C78.3289 81.8794 77.5781 81.5718 76.6918 81.5718C75.7742 81.5718 75.0182 81.8794 74.4238 82.4946C73.8295 83.1098 73.5323 83.9075 73.5323 84.8877Z" fill="white"/>
<path d="M85.2132 79.4133H87.7158V87.6875C87.7158 88.6155 87.4655 89.3246 86.965 89.8147C86.4645 90.3048 85.7502 90.5498 84.8222 90.5498C84.3946 90.5498 83.9828 90.4768 83.5865 90.3308C83.2007 90.1744 82.9244 89.9919 82.7575 89.7834L83.5709 87.8752C83.8733 88.0941 84.1757 88.2036 84.4781 88.2036C84.9682 88.2036 85.2132 87.8804 85.2132 87.2339V79.4133Z" fill="white"/>
<path d="M97.1823 90.3621H90.5348V79.4133H97.0258V81.7595H93.0373V83.6833H96.5566V86.0295H93.0373V88.0159H97.1823V90.3621Z" fill="white"/>
<path d="M107.102 87.4059L108.056 89.2829C107.722 89.6583 107.227 89.9659 106.57 90.2057C105.924 90.4351 105.23 90.5498 104.49 90.5498C102.79 90.5498 101.408 90.0337 100.345 89.0013C99.2812 87.9482 98.7494 86.5769 98.7494 84.8877C98.7494 83.2402 99.25 81.8846 100.251 80.821C101.252 79.7574 102.66 79.2256 104.474 79.2256C105.162 79.2256 105.804 79.3299 106.398 79.5384C106.992 79.747 107.467 80.0233 107.821 80.3674L106.711 82.2443C105.981 81.796 105.235 81.5718 104.474 81.5718C103.588 81.5718 102.853 81.8637 102.269 82.4477C101.695 83.0212 101.408 83.8345 101.408 84.8877C101.408 85.847 101.716 86.6447 102.331 87.2808C102.946 87.896 103.744 88.2036 104.724 88.2036C105.6 88.2036 106.393 87.9377 107.102 87.4059Z" fill="white"/>
<path d="M111.814 81.7595H108.529V79.4133H117.601V81.7595H114.317V90.3621H111.814V81.7595Z" fill="white"/>
<path d="M124.793 90.3621H122.291V79.4133H124.809L128.187 84.0274L131.378 79.4133H133.74V90.3621H131.237V83.3861L128.187 87.6562H127.828L124.793 83.4331V90.3621Z" fill="white"/>
<path d="M137.668 90.3621H135.149L139.701 79.4133H141.938L146.489 90.3621H143.815L142.907 88.0629H138.575L137.668 90.3621ZM141.969 85.7167L140.749 82.6197L139.513 85.7167H141.969Z" fill="white"/>
<path d="M157.432 79.4133V90.3621H155.43L150.237 83.7928V90.3621H147.891V79.4133H149.893L155.086 86.0139V79.4133H157.432Z" fill="white"/>
<path d="M161.359 90.3621H158.84L163.392 79.4133H165.629L170.18 90.3621H167.506L166.598 88.0629H162.266L161.359 90.3621ZM165.66 85.7167L164.44 82.6197L163.204 85.7167H165.66Z" fill="white"/>
<path d="M178.035 86.4675H175.705V84.1213H180.381V89.0013C179.912 89.4706 179.286 89.846 178.504 90.1275C177.743 90.409 177.003 90.5498 176.283 90.5498C174.448 90.5498 173.009 90.0389 171.966 89.017C170.934 87.9951 170.418 86.6187 170.418 84.8877C170.418 83.2714 170.924 81.9263 171.935 80.8523C172.957 79.7678 174.302 79.2256 175.971 79.2256C177.41 79.2256 178.603 79.6062 179.552 80.3674L178.504 82.3851C178.285 82.1557 177.962 81.9628 177.535 81.8064C177.118 81.65 176.695 81.5718 176.268 81.5718C175.298 81.5718 174.521 81.8585 173.937 82.432C173.364 83.0055 173.077 83.8241 173.077 84.8877C173.077 85.8992 173.369 86.7073 173.953 87.3121C174.547 87.9065 175.334 88.2036 176.315 88.2036C176.607 88.2036 176.935 88.1463 177.3 88.0316C177.644 87.9169 177.889 87.7917 178.035 87.6562V86.4675Z" fill="white"/>
<path d="M189.212 90.3621H182.564V79.4133H189.055V81.7595H185.067V83.6833H188.586V86.0295H185.067V88.0159H189.212V90.3621Z" fill="white"/>
<path d="M194.064 86.53V90.3621H191.561V79.4133C192.155 79.4133 192.812 79.4081 193.532 79.3976C194.251 79.3872 194.835 79.382 195.284 79.382C197.984 79.382 199.335 80.5499 199.335 82.8856C199.335 84.3872 198.719 85.4404 197.489 86.0451L200.68 90.3621H197.645L194.986 86.53H194.064ZM195.158 81.7282C195.148 81.7282 195.101 81.7334 195.018 81.7438C194.934 81.7438 194.804 81.749 194.627 81.7595C194.449 81.7595 194.262 81.7595 194.064 81.7595V84.1838H194.971C196.107 84.1838 196.676 83.7615 196.676 82.9169C196.676 82.1244 196.17 81.7282 195.158 81.7282Z" fill="white"/>
</g>
</g>
</svg>
