<svg width="24" height="24" viewBox="0 0 24 24" fill="none" xmlns="http://www.w3.org/2000/svg">
<path d="M16.6 20.075V18.275C16.6 17.3202 16.2207 16.4045 15.5456 15.7294C14.8705 15.0543 13.9548 14.675 13 14.675H7.6C6.64522 14.675 5.72955 15.0543 5.05442 15.7294C4.37928 16.4045 4 17.3202 4 18.275V20.075M22 20.075V18.275C21.9994 17.4774 21.7339 16.7025 21.2452 16.0721C20.7565 15.4417 20.0723 14.9914 19.3 14.792M16.6 3.992C17.3744 4.19027 18.0607 4.64063 18.5509 5.27208C19.041 5.90353 19.3071 6.68015 19.3071 7.4795C19.3071 8.27885 19.041 9.05547 18.5509 9.68692C18.0607 10.3184 17.3744 10.7687 16.6 10.967M13.9 7.475C13.9 9.46323 12.2882 11.075 10.3 11.075C8.31177 11.075 6.7 9.46323 6.7 7.475C6.7 5.48677 8.31177 3.875 10.3 3.875C12.2882 3.875 13.9 5.48677 13.9 7.475Z" stroke="black" stroke-width="2" stroke-linecap="round" stroke-linejoin="round"/>
</svg>
