<svg width="24" height="24" viewBox="0 0 24 24" fill="none" xmlns="http://www.w3.org/2000/svg">
<path d="M12.5 16.3V20.1M8.7 20.1H16.3M10.6 7.5125C10.6002 7.38595 10.6342 7.26175 10.6983 7.15266C10.7625 7.04357 10.8545 6.95354 10.965 6.89182C11.0755 6.8301 11.2004 6.79892 11.3269 6.80148C11.4535 6.80404 11.577 6.84026 11.6849 6.9064L15.1657 9.04295C15.2694 9.1067 15.3551 9.19597 15.4145 9.30224C15.474 9.40851 15.5052 9.52824 15.5052 9.65C15.5052 9.77176 15.474 9.89149 15.4145 9.99776C15.3551 10.104 15.2694 10.1933 15.1657 10.2571L11.6849 12.3946C11.5769 12.4608 11.4531 12.497 11.3265 12.4995C11.1998 12.502 11.0747 12.4706 10.9642 12.4087C10.8536 12.3467 10.7616 12.2564 10.6976 12.1471C10.6336 12.0377 10.5999 11.9133 10.6 11.7866V7.5125ZM4.9 3H20.1C21.1493 3 22 3.85066 22 4.9V14.4C22 15.4493 21.1493 16.3 20.1 16.3H4.9C3.85066 16.3 3 15.4493 3 14.4V4.9C3 3.85066 3.85066 3 4.9 3Z" stroke="black" stroke-width="2" stroke-linecap="round" stroke-linejoin="round"/>
</svg>
