<svg width="24" height="25" viewBox="0 0 24 25" fill="none" xmlns="http://www.w3.org/2000/svg">
<path d="M7 11.5V15.5C7 16.0304 7.21071 16.5391 7.58579 16.9142C7.96086 17.2893 8.46957 17.5 9 17.5H13M5 3.5H9C10.1046 3.5 11 4.39543 11 5.5V9.5C11 10.6046 10.1046 11.5 9 11.5H5C3.89543 11.5 3 10.6046 3 9.5V5.5C3 4.39543 3.89543 3.5 5 3.5ZM15 13.5H19C20.1046 13.5 21 14.3954 21 15.5V19.5C21 20.6046 20.1046 21.5 19 21.5H15C13.8954 21.5 13 20.6046 13 19.5V15.5C13 14.3954 13.8954 13.5 15 13.5Z" stroke="black" stroke-width="2" stroke-linecap="round" stroke-linejoin="round"/>
</svg>
