<svg width="22" height="22" viewBox="0 0 22 22" fill="none" xmlns="http://www.w3.org/2000/svg">
<path d="M13.6216 16.9146L2.94155 14.0016M7.99955 7.01756C6.19555 9.72756 4.02955 10.4776 1.41655 10.9656C1.32987 10.9814 1.24881 11.0195 1.18136 11.0762C1.11391 11.1329 1.06241 11.2062 1.03192 11.2889C1.00143 11.3716 0.993022 11.4608 1.00751 11.5477C1.022 11.6346 1.0589 11.7162 1.11455 11.7846L8.43456 20.6676C8.58323 20.8255 8.77922 20.9308 8.99297 20.9676C9.20671 21.0044 9.42663 20.9707 9.61955 20.8716C11.7346 19.4226 14.9996 15.8096 14.9996 14.0176M17.3756 1.63956C17.5727 1.44244 17.8067 1.28608 18.0642 1.17941C18.3218 1.07273 18.5978 1.01782 18.8766 1.01782C19.1553 1.01782 19.4313 1.07273 19.6889 1.17941C19.9464 1.28608 20.1804 1.44244 20.3776 1.63956C20.5747 1.83667 20.731 2.07068 20.8377 2.32822C20.9444 2.58576 20.9993 2.8618 20.9993 3.14056C20.9993 3.41932 20.9444 3.69535 20.8377 3.95289C20.731 4.21043 20.5747 4.44444 20.3776 4.64156L16.3596 8.66056C16.2658 8.75432 16.2132 8.88148 16.2132 9.01406C16.2132 9.14664 16.2658 9.27379 16.3596 9.36756L17.3036 10.3116C17.7554 10.7635 18.0093 11.3764 18.0093 12.0156C18.0093 12.6547 17.7554 13.2676 17.3036 13.7196L16.3596 14.6636C16.2658 14.7573 16.1386 14.81 16.0061 14.81C15.8735 14.81 15.7463 14.7573 15.6526 14.6636L7.35355 6.36556C7.25982 6.27179 7.20716 6.14464 7.20716 6.01206C7.20716 5.87948 7.25982 5.75232 7.35355 5.65856L8.29755 4.71456C8.74951 4.26267 9.36245 4.00881 10.0016 4.00881C10.6407 4.00881 11.2536 4.26267 11.7056 4.71456L12.6496 5.65856C12.7433 5.75229 12.8705 5.80495 13.0031 5.80495C13.1356 5.80495 13.2628 5.75229 13.3566 5.65856L17.3756 1.63956Z" stroke="white" stroke-width="1.5" stroke-linecap="round" stroke-linejoin="round"/>
</svg>
