<svg width="18" height="16" viewBox="0 0 18 16" fill="none" xmlns="http://www.w3.org/2000/svg">
<path d="M8.24656 2.2842L8.24657 2.28419C8.39916 2.12605 8.48399 1.91267 8.48399 1.69125C8.48399 1.46983 8.39916 1.25645 8.24657 1.0983C8.09379 0.93998 7.88542 0.85 7.66697 0.85C7.44852 0.85 7.24015 0.93998 7.08738 1.0983L1.08763 7.31601C1.08762 7.31603 1.0876 7.31605 1.08758 7.31607C1.01194 7.39438 0.952211 7.48708 0.911545 7.58874C0.870872 7.69042 0.85 7.79924 0.85 7.90901C0.85 8.01878 0.870872 8.1276 0.911545 8.22928L1.05082 8.17357L0.911545 8.22928C0.952211 8.33094 1.01194 8.42364 1.08758 8.50195L8.24656 2.2842ZM8.24656 2.2842L3.62951 7.06815L8.24656 2.2842ZM7.08732 14.7197L1.08763 8.50201L8.28333 13.8622C8.31687 13.9461 8.33414 14.036 8.33414 14.1268C8.33414 14.2176 8.31687 14.3075 8.28333 14.3913C8.24978 14.4752 8.20061 14.5514 8.13862 14.6156L8.24662 14.7197C8.24659 14.7197 8.24655 14.7197 8.24651 14.7198C8.17094 14.7981 8.08093 14.8606 7.98147 14.9033C7.88193 14.9461 7.77505 14.9682 7.66697 14.9682C7.5589 14.9682 7.45201 14.9461 7.35248 14.9033C7.25299 14.8606 7.16296 14.7981 7.08738 14.7197C7.08736 14.7197 7.08734 14.7197 7.08732 14.7197Z" fill="white" stroke="white" stroke-width="0.3"/>
</svg>
