<svg width="18" height="16" viewBox="0 0 18 16" fill="none" xmlns="http://www.w3.org/2000/svg">
<path d="M9.75344 2.2842L9.75343 2.28419C9.60084 2.12605 9.51601 1.91267 9.51601 1.69125C9.51601 1.46983 9.60084 1.25645 9.75343 1.0983C9.90621 0.93998 10.1146 0.85 10.333 0.85C10.5515 0.85 10.7598 0.93998 10.9126 1.0983L16.9124 7.31601C16.9124 7.31603 16.9124 7.31605 16.9124 7.31607C16.9881 7.39438 17.0478 7.48708 17.0885 7.58874C17.1291 7.69042 17.15 7.79924 17.15 7.90901C17.15 8.01878 17.1291 8.1276 17.0885 8.22928L16.9492 8.17357L17.0885 8.22928C17.0478 8.33094 16.9881 8.42364 16.9124 8.50195L9.75344 2.2842ZM9.75344 2.2842L14.3705 7.06815L9.75344 2.2842ZM10.9127 14.7197L16.9124 8.50201L9.71667 13.8622C9.68313 13.9461 9.66586 14.036 9.66586 14.1268C9.66586 14.2176 9.68313 14.3075 9.71667 14.3913C9.75022 14.4752 9.79939 14.5514 9.86138 14.6156L9.75338 14.7197C9.75341 14.7197 9.75345 14.7197 9.75349 14.7198C9.82906 14.7981 9.91907 14.8606 10.0185 14.9033C10.1181 14.9461 10.225 14.9682 10.333 14.9682C10.4411 14.9682 10.548 14.9461 10.6475 14.9033C10.747 14.8606 10.837 14.7981 10.9126 14.7197C10.9126 14.7197 10.9127 14.7197 10.9127 14.7197Z" fill="white" stroke="white" stroke-width="0.3"/>
</svg>
