<svg width="250" height="25" viewBox="0 0 250 25" fill="none" xmlns="http://www.w3.org/2000/svg">
<path d="M30.1205 0L11.5582 13.2566L5.77895 24.0964L0 13.2566L30.1205 0Z" fill="white"/>
<path d="M30.1205 0L17.3371 24.0964L11.5582 13.2566L30.1205 0Z" fill="white"/>
<path d="M45.5998 9.3732L49.2372 20.928H49.4178L52.5135 9.3732H56.409L59.5821 20.928H59.7369L63.4517 9.3732H66.8312L61.6975 23.7324H57.2603L54.5 12.9565H54.3452L51.5332 23.7324H47.1476L42.1687 9.3732H45.5998Z" fill="white"/>
<path d="M86.9449 9.3732V12.3074H77.2192V14.9559H85.9646V17.89H77.2192V20.7463H87.306V23.7324H73.9945V9.3732H86.9449Z" fill="white"/>
<path d="M104.058 9.3732C104.695 9.3732 105.279 9.46841 105.813 9.65883C106.363 9.83193 106.836 10.0916 107.231 10.4378C107.627 10.7667 107.928 11.1649 108.134 11.6322C108.358 12.0996 108.47 12.6276 108.47 13.2162C108.47 13.7355 108.375 14.2115 108.186 14.6443C108.014 15.0597 107.739 15.3973 107.36 15.657C108.014 16.0032 108.521 16.4706 108.883 17.0591C109.261 17.6477 109.45 18.3834 109.45 19.2662C109.45 19.8894 109.33 20.4693 109.089 21.0059C108.865 21.5426 108.539 22.0186 108.109 22.4341C107.696 22.8322 107.197 23.1525 106.612 23.3948C106.045 23.6198 105.426 23.7324 104.755 23.7324H94.8744V9.3732H104.058ZM98.0991 14.9039H104.162C104.506 14.9039 104.781 14.7741 104.987 14.5145C105.211 14.2375 105.322 13.9346 105.322 13.6056C105.322 13.2941 105.219 12.9998 105.013 12.7228C104.824 12.4285 104.454 12.2814 103.904 12.2814H98.0991V14.9039ZM98.0991 20.7982H104.652C105.168 20.7982 105.572 20.6597 105.864 20.3828C106.157 20.0885 106.303 19.7163 106.303 19.2662C106.303 18.7988 106.157 18.4267 105.864 18.1497C105.572 17.8727 105.193 17.7342 104.729 17.7342H98.0991V20.7982Z" fill="white"/>
<path d="M129.712 9.3732V12.3074H119.987V14.9559H128.732V17.89H119.987V20.7463H130.074V23.7324H116.762V9.3732H129.712Z" fill="white"/>
<path d="M146.052 9.3732C146.895 9.3732 147.669 9.51169 148.374 9.78866C149.096 10.0483 149.715 10.4292 150.231 10.9312C150.764 11.4159 151.177 12.0044 151.47 12.6968C151.779 13.3893 151.934 14.1596 151.934 15.0078C151.934 16.1157 151.684 17.0764 151.186 17.89C150.687 18.7036 150.016 19.3355 149.174 19.7855L151.366 23.7324H147.858L146.181 20.5386H140.867V23.7324H137.642V9.3732H146.052ZM140.867 17.5784H145.923C146.749 17.5784 147.419 17.3621 147.935 16.9293C148.451 16.4792 148.709 15.8387 148.709 15.0078C148.709 14.1769 148.451 13.5278 147.935 13.0604C147.419 12.5757 146.749 12.3333 145.923 12.3333H140.867V17.5784Z" fill="white"/>
<path d="M162.221 9.3732L170.76 19.0325V9.3732H173.959V23.7324H170.889L162.35 14.0471V23.7324H159.177V9.3732H162.221Z" fill="white"/>
<path d="M194.645 9.3732V12.3074H184.919V14.9559H193.665V17.89H184.919V20.7463H195.006V23.7324H181.694V9.3732H194.645Z" fill="white"/>
<path d="M216.892 9.3732V12.2814H211.088V23.7324H207.863V12.2814H202.058V9.3732H216.892Z" fill="white"/>
<path d="M227.334 9.3732V23.7324H224.109V9.3732H227.334Z" fill="white"/>
<path d="M247.498 14.3327C246.947 13.5537 246.294 12.9565 245.537 12.541C244.798 12.1256 243.86 11.9179 242.725 11.9179C242.003 11.9179 241.349 12.0304 240.764 12.2554C240.197 12.4631 239.707 12.7747 239.294 13.1902C238.881 13.5883 238.563 14.073 238.34 14.6443C238.116 15.2155 238.004 15.856 238.004 16.5658C238.004 17.2582 238.116 17.89 238.34 18.4613C238.58 19.0325 238.907 19.5259 239.32 19.9413C239.733 20.3395 240.223 20.6511 240.79 20.8761C241.375 21.1011 242.02 21.2137 242.725 21.2137C243.86 21.2137 244.798 21.0059 245.537 20.5905C246.294 20.175 246.947 19.5778 247.498 18.7988L250 20.2529C249.26 21.5166 248.289 22.4773 247.085 23.1351C245.881 23.7756 244.445 24.0959 242.777 24.0959C241.642 24.0959 240.584 23.9228 239.604 23.5766C238.623 23.2304 237.781 22.737 237.075 22.0965C236.37 21.4387 235.811 20.6424 235.399 19.7076C235.003 18.7729 234.805 17.7256 234.805 16.5658C234.805 15.406 235.012 14.3587 235.424 13.4239C235.837 12.4891 236.396 11.7015 237.101 11.061C237.824 10.4032 238.666 9.90118 239.629 9.55496C240.61 9.20875 241.659 9.03564 242.777 9.03564C244.445 9.03564 245.881 9.36455 247.085 10.0224C248.289 10.6628 249.26 11.6149 250 12.8786L247.498 14.3327Z" fill="white"/>
</svg>
