<svg width="26" height="26" viewBox="0 0 26 26" fill="none" xmlns="http://www.w3.org/2000/svg">
<path fill-rule="evenodd" clip-rule="evenodd" d="M13 2.16675C8.91445 2.16675 6.8717 2.16675 5.6025 3.43595C4.45081 4.58764 4.34417 6.37625 4.3343 9.75008H3.24996C2.65165 9.75008 2.16663 10.2351 2.16663 10.8334V11.9167C2.16663 12.2577 2.32717 12.5788 2.59996 12.7834L4.33329 14.0834C4.34317 17.4572 4.45081 19.2459 5.6025 20.3975C5.86486 20.6599 6.16028 20.868 6.49996 21.0331V22.75C6.49996 23.3483 6.98498 23.8333 7.58329 23.8333H9.20829C9.8066 23.8333 10.2916 23.3483 10.2916 22.75V21.6467C11.0793 21.6667 11.9754 21.6667 13 21.6667C14.0245 21.6667 14.9206 21.6667 15.7083 21.6467V22.75C15.7083 23.3483 16.1933 23.8333 16.7916 23.8333H18.4166C19.0149 23.8333 19.5 23.3483 19.5 22.75V21.0331C19.8396 20.868 20.1351 20.6599 20.3974 20.3975C21.5491 19.2459 21.6568 17.4572 21.6666 14.0834L23.4 12.7834C23.6728 12.5788 23.8333 12.2577 23.8333 11.9167V10.8334C23.8333 10.2351 23.3483 9.75008 22.75 9.75008H21.6656C21.6557 6.37625 21.5491 4.58764 20.3974 3.43595C19.1282 2.16675 17.0855 2.16675 13 2.16675ZM5.95829 10.2917C5.95829 11.8238 5.95829 12.5898 6.43424 13.0658C6.9102 13.5417 7.67623 13.5417 9.20829 13.5417H13H16.7916C18.3237 13.5417 19.0897 13.5417 19.5657 13.0658C20.0416 12.5898 20.0416 11.8238 20.0416 10.2917V7.58341C20.0416 6.05135 20.0416 5.28532 19.5657 4.80937C19.0897 4.33341 18.3237 4.33341 16.7916 4.33341H13H9.20829C7.67623 4.33341 6.9102 4.33341 6.43424 4.80937C5.95829 5.28532 5.95829 6.05135 5.95829 7.58341V10.2917ZM6.77079 17.3334C6.77079 16.8847 7.13456 16.5209 7.58329 16.5209H9.20829C9.65702 16.5209 10.0208 16.8847 10.0208 17.3334C10.0208 17.7821 9.65702 18.1459 9.20829 18.1459H7.58329C7.13456 18.1459 6.77079 17.7821 6.77079 17.3334ZM19.2291 17.3334C19.2291 16.8847 18.8654 16.5209 18.4166 16.5209H16.7916C16.3429 16.5209 15.9791 16.8847 15.9791 17.3334C15.9791 17.7821 16.3429 18.1459 16.7916 18.1459H18.4166C18.8654 18.1459 19.2291 17.7821 19.2291 17.3334Z" fill="white"/>
</svg>
