<svg width="34" height="35" viewBox="0 0 34 35" fill="none" xmlns="http://www.w3.org/2000/svg">
<path fill-rule="evenodd" clip-rule="evenodd" d="M2.83325 23.5427V7.28842C2.83325 5.68692 4.08884 4.38593 5.64166 4.48417C7.02485 4.57168 8.66069 4.74466 9.91659 5.08581C11.403 5.48958 13.1694 6.34956 14.5664 7.11C15.0015 7.34682 15.4642 7.51108 15.9377 7.60366V29.7392C15.5084 29.6418 15.0896 29.4846 14.6942 29.2676C13.2782 28.4906 11.4486 27.5898 9.91659 27.1736C8.67458 26.8362 7.06098 26.6633 5.68764 26.5749C4.11682 26.4738 2.83325 25.1629 2.83325 23.5427ZM7.3412 12.0639C6.77192 11.9174 6.19505 12.2737 6.05273 12.8597C5.91041 13.4457 6.25653 14.0395 6.82581 14.1861L12.4925 15.6444C13.0618 15.7909 13.6386 15.4346 13.7809 14.8486C13.9233 14.2625 13.5771 13.6687 13.0079 13.5222L7.3412 12.0639ZM7.3412 17.8972C6.77192 17.7507 6.19505 18.107 6.05273 18.693C5.91041 19.279 6.25653 19.8729 6.82581 20.0194L12.4925 21.4777C13.0618 21.6242 13.6386 21.2679 13.7809 20.6819C13.9233 20.0959 13.5771 19.502 13.0079 19.3555L7.3412 17.8972Z" fill="white"/>
<path fill-rule="evenodd" clip-rule="evenodd" d="M18.0627 29.7391C18.4917 29.6417 18.9104 29.4845 19.3057 29.2676C20.7216 28.4906 22.5512 27.5898 24.0833 27.1736C25.3253 26.8362 26.9389 26.6633 28.3122 26.5749C29.883 26.4738 31.1666 25.1629 31.1666 23.5427V7.1942C31.1666 5.63021 29.9678 4.34639 28.4494 4.40084C26.8506 4.45817 24.858 4.62875 23.3749 5.08581C22.0891 5.48207 20.5916 6.27689 19.3712 7.00397C18.9583 7.24994 18.5171 7.43061 18.0627 7.54518V29.7391ZM27.1745 14.1861C27.7438 14.0395 28.0899 13.4457 27.9476 12.8597C27.8053 12.2737 27.2284 11.9174 26.6591 12.0639L20.9925 13.5222C20.4232 13.6687 20.0771 14.2625 20.2194 14.8486C20.3617 15.4346 20.9386 15.7909 21.5079 15.6444L27.1745 14.1861ZM27.1745 20.0194C27.7438 19.8729 28.0899 19.279 27.9476 18.693C27.8053 18.107 27.2284 17.7507 26.6591 17.8972L20.9925 19.3555C20.4232 19.502 20.0771 20.0959 20.2194 20.6819C20.3617 21.2679 20.9386 21.6242 21.5079 21.4777L27.1745 20.0194Z" fill="white"/>
</svg>
