<svg width="35" height="35" viewBox="0 0 35 35" fill="none" xmlns="http://www.w3.org/2000/svg">
<path fill-rule="evenodd" clip-rule="evenodd" d="M17.5 17.1355C18.1041 17.1355 18.5938 17.6252 18.5938 18.2292V19.323H19.6875C20.2916 19.323 20.7812 19.8127 20.7812 20.4167C20.7812 21.0208 20.2916 21.5105 19.6875 21.5105H18.5938V22.6042C18.5938 23.2083 18.1041 23.698 17.5 23.698C16.8959 23.698 16.4062 23.2083 16.4062 22.6042V21.5105H15.3125C14.7084 21.5105 14.2188 21.0208 14.2188 20.4167C14.2188 19.8127 14.7084 19.323 15.3125 19.323H16.4062V18.2292C16.4062 17.6252 16.8959 17.1355 17.5 17.1355Z" fill="white"/>
<path fill-rule="evenodd" clip-rule="evenodd" d="M17.4242 1.823C16.114 1.82296 15.0213 1.82292 14.154 1.93954C13.2384 2.06263 12.4118 2.3334 11.7476 2.99763C11.0834 3.66185 10.8126 4.48844 10.6895 5.40397C10.5729 6.27136 10.573 7.36397 10.573 8.67425L10.573 8.78759C7.62545 8.88403 5.85546 9.22847 4.62529 10.4586C2.91675 12.1672 2.91675 14.917 2.91675 20.4168C2.91675 25.9165 2.91675 28.6663 4.62529 30.3749C6.33383 32.0834 9.08369 32.0834 14.5834 32.0834H20.4167C25.9165 32.0834 28.6663 32.0834 30.3749 30.3749C32.0834 28.6663 32.0834 25.9165 32.0834 20.4168C32.0834 14.917 32.0834 12.1672 30.3749 10.4586C29.1447 9.22847 27.3747 8.88403 24.4272 8.78759L24.4272 8.67426C24.4272 7.36399 24.4272 6.27135 24.3106 5.40397C24.1875 4.48844 23.9168 3.66185 23.2525 2.99763C22.5883 2.3334 21.7617 2.06263 20.8462 1.93954C19.9788 1.82292 18.8862 1.82296 17.576 1.823H17.4242ZM22.2397 8.75283V8.75009C22.2397 7.34424 22.2373 6.39988 22.1426 5.69545C22.0522 5.02248 21.8958 4.73447 21.7057 4.54442C21.5157 4.35438 21.2277 4.19801 20.5547 4.10753C19.8503 4.01283 18.9059 4.0105 17.5001 4.0105C16.0942 4.0105 15.1499 4.01283 14.4454 4.10753C13.7725 4.19801 13.4845 4.35438 13.2944 4.54442C13.1044 4.73447 12.948 5.02248 12.8575 5.69545C12.7628 6.39988 12.7605 7.34424 12.7605 8.75009V8.75283C13.3322 8.75009 13.9389 8.75009 14.5834 8.75009H20.4167C21.0612 8.75009 21.668 8.75009 22.2397 8.75283ZM23.3334 20.4168C23.3334 23.6384 20.7217 26.2501 17.5001 26.2501C14.2784 26.2501 11.6667 23.6384 11.6667 20.4168C11.6667 17.1951 14.2784 14.5834 17.5001 14.5834C20.7217 14.5834 23.3334 17.1951 23.3334 20.4168Z" fill="white"/>
</svg>
