<svg width="35" height="35" viewBox="0 0 35 35" fill="none" xmlns="http://www.w3.org/2000/svg">
<path d="M24.1109 26.2499H10.0427C9.9523 26.2499 9.90712 26.2499 9.86616 26.2493C9.85871 26.2492 9.85127 26.2491 9.84383 26.249V27.7076V29.1666C9.84383 29.7707 9.35414 30.2604 8.75008 30.2604C8.14602 30.2604 7.65633 29.7707 7.65633 29.1666V25.7768C6.44767 25.2492 5.48448 24.312 5.01963 23.1282C5.00607 23.0937 4.99178 23.0554 4.96322 22.9789L3.06299 17.8854C2.45693 16.2609 3.81024 14.5833 5.72679 14.5833C6.9085 14.5833 7.96374 15.2443 8.36653 16.2369L9.96795 20.1833C10.1137 20.5424 10.1866 20.722 10.2922 20.8688C10.5388 21.2116 10.9262 21.4543 11.3709 21.5446C11.5614 21.5833 11.7752 21.5833 12.2028 21.5833H22.3807C23.2106 21.5833 23.6256 21.5833 23.9726 21.4402C24.1621 21.3621 24.3344 21.2542 24.4811 21.1217C24.7499 20.8789 24.8914 20.5304 25.1742 19.8333L26.6336 16.2369C27.0364 15.2443 28.0917 14.5833 29.2734 14.5833C31.1899 14.5833 32.5432 16.2609 31.9372 17.8854L30.3047 22.2612C30.0201 23.0239 29.8779 23.4053 29.69 23.7294C29.1679 24.63 28.3396 25.3422 27.3438 25.7767V29.1666C27.3438 29.7707 26.8541 30.2604 26.2501 30.2604C25.646 30.2604 25.1563 29.7707 25.1563 29.1666V26.2433C24.8841 26.2499 24.5514 26.2499 24.1109 26.2499Z" fill="white"/>
<path d="M19.302 5.10425H15.6979C14.0921 5.10423 12.8163 5.10422 11.8169 5.23219C10.7892 5.36378 9.94393 5.64195 9.27217 6.28171C8.59541 6.92624 8.29655 7.74532 8.15605 8.74058C8.02072 9.69927 8.02073 10.9202 8.02075 12.4436V13.7271L8.3277 13.9451C8.93386 14.3756 9.42359 14.9636 9.71786 15.6887L11.5181 20.1249L22.3807 20.1251C22.5911 20.1251 22.7617 20.1251 22.9105 20.123L22.9135 20.1229L23.4792 20.1128L23.6632 19.6747C23.709 19.5657 23.7602 19.4397 23.823 19.2851L25.2823 15.6887C25.5766 14.9637 26.0662 14.3758 26.6722 13.9453L26.9791 13.7273V12.4437C26.9791 10.9202 26.9791 9.69928 26.8438 8.74059C26.7033 7.74532 26.4044 6.92624 25.7277 6.28171C25.0559 5.64195 24.2107 5.36378 23.183 5.23219C22.1836 5.10422 20.9077 5.10423 19.302 5.10425Z" fill="white"/>
</svg>
