<svg width="35" height="35" viewBox="0 0 35 35" fill="none" xmlns="http://www.w3.org/2000/svg">
<path fill-rule="evenodd" clip-rule="evenodd" d="M17.0624 4H16.9376C15.8594 3.99997 14.9604 3.99994 14.2466 4.09628C13.4933 4.19798 12.8131 4.42167 12.2666 4.97043C11.72 5.51919 11.4972 6.20208 11.3959 6.95846C11.3271 7.47215 11.3076 8.70057 11.3022 9.75381C8.87545 9.83338 7.41844 10.1178 6.40589 11.1344C5 12.546 5 14.8178 5 19.3614C5 23.9051 5 26.1769 6.40589 27.5885C7.81177 29 10.0745 29 14.6 29H19.4C23.9255 29 26.1882 29 27.5941 27.5885C29 26.1769 29 23.9051 29 19.3614C29 14.8178 29 12.546 27.5941 11.1344C26.5816 10.1178 25.1246 9.83338 22.6979 9.75381C22.6924 8.70057 22.6729 7.47215 22.6041 6.95846C22.5028 6.20208 22.28 5.51919 21.7335 4.97043C21.1869 4.42167 20.5067 4.19798 19.7534 4.09628C19.0397 3.99994 18.1406 3.99997 17.0624 4ZM20.8975 9.72515C20.8921 8.7051 20.8748 7.60732 20.8202 7.19927C20.7457 6.64329 20.617 6.40534 20.4607 6.24834C20.3043 6.09133 20.0673 5.96215 19.5135 5.8874C18.9339 5.80915 18.1568 5.80723 17 5.80723C15.8432 5.80723 15.0661 5.80915 14.4865 5.8874C13.9327 5.96215 13.6957 6.09133 13.5393 6.24834C13.383 6.40534 13.2543 6.64329 13.1798 7.19927C13.1252 7.60732 13.1079 8.7051 13.1025 9.72515C13.5722 9.72289 14.0706 9.72289 14.6 9.72289H19.4C19.9294 9.72289 20.4278 9.72289 20.8975 9.72515ZM17 13.6386C17.4971 13.6386 17.9 14.0431 17.9 14.5422V14.5545C19.2065 14.885 20.3 15.9193 20.3 17.3534C20.3 17.8525 19.8971 18.257 19.4 18.257C18.9029 18.257 18.5 17.8525 18.5 17.3534C18.5 16.8907 17.989 16.249 17 16.249C16.011 16.249 15.5 16.8907 15.5 17.3534C15.5 17.8161 16.011 18.4578 17 18.4578C18.6619 18.4578 20.3 19.6142 20.3 21.3695C20.3 22.8036 19.2065 23.8379 17.9 24.1684V24.1807C17.9 24.6798 17.4971 25.0843 17 25.0843C16.5029 25.0843 16.1 24.6798 16.1 24.1807V24.1684C14.7935 23.8379 13.7 22.8036 13.7 21.3695C13.7 20.8704 14.1029 20.4659 14.6 20.4659C15.0971 20.4659 15.5 20.8704 15.5 21.3695C15.5 21.8322 16.011 22.4739 17 22.4739C17.989 22.4739 18.5 21.8322 18.5 21.3695C18.5 20.9068 17.989 20.2651 17 20.2651C15.3381 20.2651 13.7 19.1087 13.7 17.3534C13.7 15.9193 14.7935 14.885 16.1 14.5545V14.5422C16.1 14.0431 16.5029 13.6386 17 13.6386Z" fill="white"/>
</svg>
