<svg width="35" height="35" viewBox="0 0 35 35" fill="none" xmlns="http://www.w3.org/2000/svg">
<path fill-rule="evenodd" clip-rule="evenodd" d="M7.75736 6.75736C6 8.51472 6 11.3431 6 17C6 22.6569 6 25.4853 7.75736 27.2426C9.51472 29 12.3431 29 18 29C23.6569 29 26.4853 29 28.2426 27.2426C30 25.4853 30 22.6569 30 17C30 11.3431 30 8.51472 28.2426 6.75736C26.4853 5 23.6569 5 18 5C12.3431 5 9.51472 5 7.75736 6.75736ZM19.7857 10.3351C20.2658 10.4637 20.5507 10.9572 20.4221 11.4374L17.3162 23.0285C17.1876 23.5086 16.6941 23.7935 16.214 23.6649C15.7338 23.5362 15.4489 23.0427 15.5776 22.5626L18.6834 10.9715C18.812 10.4914 19.3056 10.2064 19.7857 10.3351ZM21.5636 12.7636C21.9151 12.4121 22.4849 12.4121 22.8364 12.7636L23.0864 13.0136C23.8488 13.776 24.4846 14.4117 24.9214 14.9842C25.3825 15.5886 25.7059 16.227 25.7059 17C25.7059 17.773 25.3825 18.4115 24.9214 19.0158C24.4846 19.5883 23.8488 20.224 23.0865 20.9864L22.8364 21.2364C22.4849 21.5879 21.9151 21.5879 21.5636 21.2364C21.2121 20.8849 21.2121 20.3151 21.5636 19.9636L21.7695 19.7577C22.5875 18.9397 23.1356 18.3889 23.4904 17.9239C23.8293 17.4797 23.9059 17.2212 23.9059 17C23.9059 16.7789 23.8293 16.5203 23.4904 16.0761C23.1356 15.6111 22.5875 15.0603 21.7695 14.2423L21.5636 14.0364C21.2121 13.6849 21.2121 13.1151 21.5636 12.7636ZM13.1638 12.7636C13.5153 12.4121 14.0851 12.4121 14.4366 12.7636C14.7881 13.1151 14.7881 13.6849 14.4366 14.0364L14.2307 14.2423C13.4127 15.0603 12.8646 15.6111 12.5099 16.0761C12.1709 16.5203 12.0943 16.7789 12.0943 17C12.0943 17.2212 12.1709 17.4797 12.5099 17.9239C12.8646 18.3889 13.4127 18.9397 14.2307 19.7577L14.4366 19.9636C14.7881 20.3151 14.7881 20.8849 14.4366 21.2364C14.0851 21.5879 13.5153 21.5879 13.1638 21.2364L12.9138 20.9864C12.1514 20.224 11.5157 19.5883 11.0788 19.0158C10.6177 18.4115 10.2943 17.773 10.2943 17C10.2943 16.227 10.6177 15.5886 11.0788 14.9842C11.5157 14.4117 12.1514 13.776 12.9138 13.0136L13.1638 12.7636Z" fill="white"/>
</svg>
