<svg width="34" height="35" viewBox="0 0 34 35" fill="none" xmlns="http://www.w3.org/2000/svg">
<path fill-rule="evenodd" clip-rule="evenodd" d="M15.1113 8.94612L14.4003 8.42811C13.3855 7.68878 12.1728 7.29175 10.9296 7.29175H10.0619C9.48929 7.29175 8.91088 7.32892 8.37121 7.52595C4.99572 8.75834 2.67386 13.2637 2.8418 23.4831C2.87564 25.5421 3.34367 27.8178 5.14841 28.7063C5.7108 28.9831 6.3702 29.1667 7.12109 29.1667C8.02212 29.1667 8.73764 28.9023 9.2899 28.5297C9.869 28.139 10.3789 27.6312 10.8886 27.1236C11.5184 26.4963 12.148 25.8693 12.9075 25.4639C13.7348 25.0223 14.653 24.7917 15.5849 24.7917H18.415C19.3468 24.7917 20.2651 25.0223 21.0923 25.4639C21.8519 25.8693 22.4814 26.4963 23.1112 27.1236C23.6209 27.6312 24.1308 28.139 24.7099 28.5297C25.2622 28.9023 25.9777 29.1667 26.8787 29.1667C27.6296 29.1667 28.289 28.9831 28.8514 28.7063C30.6562 27.8178 31.1242 25.5421 31.158 23.4831C31.326 13.2637 29.0041 8.75833 25.6286 7.52594C25.089 7.32892 24.5105 7.29175 23.938 7.29175H23.0703C21.827 7.29175 20.6144 7.68878 19.5996 8.42811L18.8886 8.9461C18.3364 9.34842 17.6765 9.56448 16.9999 9.56448C16.3234 9.56448 15.6636 9.34843 15.1113 8.94612ZM23.7291 13.1251C24.3159 13.1251 24.7916 13.6148 24.7916 14.2188C24.7916 14.8229 24.3159 15.3126 23.7291 15.3126C23.1423 15.3126 22.6666 14.8229 22.6666 14.2188C22.6666 13.6148 23.1423 13.1251 23.7291 13.1251ZM10.6249 13.4897C11.2117 13.4897 11.6874 13.9794 11.6874 14.5834V15.6772H12.7499C13.3367 15.6772 13.8124 16.1669 13.8124 16.7709C13.8124 17.375 13.3367 17.8647 12.7499 17.8647H11.6874V18.9584C11.6874 19.5625 11.2117 20.0522 10.6249 20.0522C10.0381 20.0522 9.56242 19.5625 9.56242 18.9584V17.8647H8.49992C7.91312 17.8647 7.43742 17.375 7.43742 16.7709C7.43742 16.1669 7.91312 15.6772 8.49992 15.6772H9.56242V14.5834C9.56242 13.9794 10.0381 13.4897 10.6249 13.4897ZM26.9166 16.4063C26.9166 17.0104 26.4409 17.5001 25.8541 17.5001C25.2673 17.5001 24.7916 17.0104 24.7916 16.4063C24.7916 15.8023 25.2673 15.3126 25.8541 15.3126C26.4409 15.3126 26.9166 15.8023 26.9166 16.4063ZM21.6041 17.5001C22.1909 17.5001 22.6666 17.0104 22.6666 16.4063C22.6666 15.8023 22.1909 15.3126 21.6041 15.3126C21.0173 15.3126 20.5416 15.8023 20.5416 16.4063C20.5416 17.0104 21.0173 17.5001 21.6041 17.5001ZM24.7916 18.5938C24.7916 17.9898 24.3159 17.5001 23.7291 17.5001C23.1423 17.5001 22.6666 17.9898 22.6666 18.5938C22.6666 19.1979 23.1423 19.6876 23.7291 19.6876C24.3159 19.6876 24.7916 19.1979 24.7916 18.5938Z" fill="white"/>
</svg>
