<svg width="35" height="34" viewBox="0 0 35 34" fill="none" xmlns="http://www.w3.org/2000/svg">
<path d="M22.6041 10.6251C22.6041 13.3635 20.3189 15.5834 17.4999 15.5834C14.681 15.5834 12.3958 13.3635 12.3958 10.6251C12.3958 7.88667 14.681 5.66675 17.4999 5.66675C20.3189 5.66675 22.6041 7.88667 22.6041 10.6251Z" fill="white"/>
<path d="M26.25 23.3751C26.25 26.1135 22.3325 28.3334 17.5 28.3334C12.6675 28.3334 8.75 26.1135 8.75 23.3751C8.75 20.6367 12.6675 18.4167 17.5 18.4167C22.3325 18.4167 26.25 20.6367 26.25 23.3751Z" fill="white"/>
<path d="M10.3864 7.08325C10.6452 7.08325 10.8979 7.10792 11.1418 7.15488C10.5475 8.1804 10.2084 9.3642 10.2084 10.6249C10.2084 11.8549 10.5312 13.0117 11.0989 14.0198C10.8682 14.0615 10.63 14.0834 10.3864 14.0834C8.32371 14.0834 6.65158 12.5163 6.65158 10.5833C6.65158 8.65028 8.32371 7.08325 10.3864 7.08325Z" fill="white"/>
<path d="M7.94411 26.8967C7.1159 25.935 6.56258 24.7548 6.56258 23.3749C6.56258 22.0372 7.08258 20.8872 7.86893 19.942C5.09127 20.1512 2.91675 21.627 2.91675 23.4165C2.91675 25.2228 5.12948 26.7095 7.94411 26.8967Z" fill="white"/>
<path d="M24.7916 10.6249C24.7916 11.8549 24.4688 13.0117 23.9011 14.0198C24.1317 14.0615 24.3699 14.0834 24.6136 14.0834C26.6763 14.0834 28.3484 12.5163 28.3484 10.5833C28.3484 8.65028 26.6763 7.08325 24.6136 7.08325C24.3548 7.08325 24.1021 7.10792 23.8582 7.15488C24.4525 8.1804 24.7916 9.3642 24.7916 10.6249Z" fill="white"/>
<path d="M27.0559 26.8967C29.8705 26.7095 32.0832 25.2228 32.0832 23.4165C32.0832 21.627 29.9087 20.1512 27.1311 19.942C27.9174 20.8872 28.4374 22.0372 28.4374 23.3749C28.4374 24.7548 27.8841 25.935 27.0559 26.8967Z" fill="white"/>
</svg>
