<svg width="19" height="19" viewBox="0 0 19 19" fill="none" xmlns="http://www.w3.org/2000/svg">
<path d="M4.75 0C4.93378 0 5.09282 0.0671503 5.22712 0.201451C5.36142 0.335752 5.42857 0.494792 5.42857 0.678571V10.1256L11.1116 5.57701C11.2318 5.47805 11.3731 5.42857 11.5357 5.42857C11.7195 5.42857 11.8785 5.49572 12.0128 5.63002C12.1471 5.76432 12.2143 5.92336 12.2143 6.10714V10.1256L17.8973 5.57701C18.0175 5.47805 18.1589 5.42857 18.3214 5.42857C18.5052 5.42857 18.6642 5.49572 18.7985 5.63002C18.9329 5.76432 19 5.92336 19 6.10714V18.3214C19 18.5052 18.9329 18.6642 18.7985 18.7985C18.6642 18.9329 18.5052 19 18.3214 19H0.678571C0.494792 19 0.335752 18.9329 0.201451 18.7985C0.0671503 18.6642 0 18.5052 0 18.3214V0.678571C0 0.494792 0.0671503 0.335752 0.201451 0.201451C0.335752 0.0671503 0.494792 0 0.678571 0H4.75Z" fill="white"/>
</svg>
