<svg width="34" height="35" viewBox="0 0 34 35" fill="none" xmlns="http://www.w3.org/2000/svg">
<path d="M31.1666 20.4166V14.5833C31.1666 13.2243 31.1666 12.5448 30.9509 12.0088C30.6633 11.2941 30.1118 10.7263 29.4175 10.4303C28.8968 10.2083 28.2368 10.2083 26.9166 10.2083C25.5964 10.2083 24.9363 10.2083 24.4157 10.4303C23.7214 10.7263 23.1698 11.2941 22.8823 12.0088C22.6666 12.5448 22.6666 13.9534 22.6666 15.3124H11.3333C11.3333 13.9534 11.3333 12.5448 11.1176 12.0088C10.83 11.2941 10.2784 10.7263 9.58419 10.4303C9.0635 10.2083 8.40342 10.2083 7.08325 10.2083C5.76308 10.2083 5.103 10.2083 4.58232 10.4303C3.88807 10.7263 3.33649 11.2941 3.04893 12.0088C2.83325 12.5448 2.83325 13.2243 2.83325 14.5833V20.4166C2.83325 21.7756 2.83325 22.4551 3.04893 22.9911C3.33649 23.7057 3.88807 24.2735 4.58232 24.5696C5.103 24.7916 5.76308 24.7916 7.08325 24.7916C8.40342 24.7916 9.0635 24.7916 9.58419 24.5696C10.2784 24.2735 10.83 23.7057 11.1176 22.9911C11.3333 22.4551 11.3333 21.0464 11.3333 19.6874H22.6666C22.6666 21.0464 22.6666 22.4551 22.8823 22.9911C23.1698 23.7057 23.7214 24.2735 24.4157 24.5696C24.9363 24.7916 25.5964 24.7916 26.9166 24.7916C28.2368 24.7916 28.8968 24.7916 29.4175 24.5696C30.1118 24.2735 30.6633 23.7057 30.9509 22.9911C31.1666 22.4551 31.1666 21.7756 31.1666 20.4166Z" fill="white"/>
</svg>
