<svg width="150" height="150" viewBox="0 0 150 150" fill="none" xmlns="http://www.w3.org/2000/svg">
<g clip-path="url(#clip0_122_4247)">
<path d="M153.5 -1.12122H0V152.116H153.5V-1.12122Z" fill="#F9F5EA"/>
<path d="M37.5 80.1294H38.3073C38.5351 81.5713 39.1354 82.8072 40.1083 83.8371C41.0813 84.867 42.3234 85.382 43.8345 85.382C45.1387 85.382 46.1531 85.0009 46.8776 84.2388C47.6228 83.4766 47.9955 82.5188 47.9955 81.3653C47.9955 80.3971 47.7057 79.5938 47.126 78.9552C46.5464 78.3167 45.6459 77.7296 44.4245 77.1941L42.9961 76.607C41.278 75.886 39.9738 75.0827 39.0836 74.197C38.1935 73.3112 37.7484 72.1165 37.7484 70.6128C37.7484 68.8825 38.3384 67.5642 39.5184 66.6579C40.6983 65.7515 42.2095 65.2983 44.0519 65.2983C45.2319 65.2983 46.2773 65.5146 47.1881 65.9472C47.5607 66.0914 47.8195 66.1635 47.9644 66.1635C48.13 66.1635 48.2542 66.1017 48.337 65.9781C48.4198 65.8339 48.4923 65.6382 48.5544 65.391H49.2375L49.5481 70.86H48.7407C48.5337 69.5005 48.0472 68.4087 47.2813 67.5848C46.5153 66.7608 45.4596 66.3489 44.114 66.3489C43.0168 66.3489 42.1371 66.6476 41.4746 67.2449C40.8329 67.8217 40.512 68.6868 40.512 69.8403C40.512 70.8291 40.8018 71.6118 41.3815 72.1886C41.9611 72.7653 42.8512 73.3112 44.0519 73.8262L45.5424 74.4441C46.6395 74.9179 47.5504 75.3917 48.2749 75.8654C49.0202 76.3392 49.6309 76.9675 50.107 77.7502C50.5831 78.5124 50.8212 79.4496 50.8212 80.5619C50.8212 82.3746 50.1898 83.8062 48.927 84.8567C47.685 85.9073 45.9978 86.4325 43.8656 86.4325C43.079 86.4325 42.4269 86.3708 41.9093 86.2472C41.3918 86.1442 40.8432 85.9897 40.2636 85.7837C39.891 85.6189 39.6012 85.5365 39.3942 85.5365C39.1664 85.5365 38.9905 85.6086 38.8663 85.7528C38.7628 85.897 38.7007 86.0824 38.68 86.309H37.9037L37.5 80.1294Z" fill="#333333"/>
<path d="M53.8172 85.1657C54.6038 85.1657 55.1524 85.1245 55.4629 85.0421C55.7941 84.9391 56.0011 84.7744 56.0839 84.5478C56.1667 84.3006 56.2082 83.8886 56.2082 83.3119V68.4499C56.2082 67.8526 56.1564 67.4406 56.0529 67.214C55.9701 66.9668 55.7631 66.802 55.4319 66.7196C55.1213 66.6167 54.5831 66.5652 53.8172 66.5652V65.6691H61.4559V66.5652C60.6692 66.5652 60.1207 66.6167 59.8101 66.7196C59.4996 66.802 59.2926 66.9668 59.1891 67.214C59.1063 67.4406 59.0649 67.8526 59.0649 68.4499V83.3119C59.0649 83.8886 59.1063 84.3006 59.1891 84.5478C59.2926 84.7744 59.4996 84.9391 59.8101 85.0421C60.1414 85.1245 60.6899 85.1657 61.4559 85.1657V86.0618H53.8172V85.1657Z" fill="#333333"/>
<path d="M62.7741 85.1657L75.5985 66.6887H70.4749C69.1294 66.6887 68.115 66.802 67.4319 67.0286C66.7487 67.2346 66.2416 67.626 65.9103 68.2027C65.5998 68.7795 65.3721 69.6653 65.2272 70.86H64.3888V65.6691H78.8899V66.5343L66.0035 85.0421H71.7791C73.3524 85.0421 74.5531 84.9288 75.3811 84.7023C76.2092 84.4551 76.8302 84.0225 77.2442 83.4045C77.6789 82.7866 78.0102 81.8596 78.2379 80.6237H79.1073L78.7657 86.0618H62.7741V85.1657Z" fill="#333333"/>
<path d="M81.0784 85.1657C81.865 85.1657 82.4136 85.1245 82.7241 85.0421C83.0553 84.9597 83.2623 84.8053 83.3451 84.5787C83.4279 84.3315 83.4693 83.9092 83.4693 83.3119V68.419C83.4693 67.8217 83.4176 67.4097 83.3141 67.1831C83.2313 66.9359 83.0346 66.7711 82.7241 66.6887C82.4136 66.6064 81.865 66.5652 81.0784 66.5652V65.6691H95.5174V70.6128H94.7101C94.5237 69.5211 94.296 68.7177 94.0269 68.2027C93.7578 67.6672 93.3334 67.2861 92.7538 67.0595C92.1742 66.8329 91.3151 66.7196 90.1765 66.7196H87.444C86.9678 66.7196 86.6573 66.7917 86.5124 66.9359C86.3882 67.0595 86.3261 67.3582 86.3261 67.832V74.8458H89.866C90.6526 74.8458 91.2323 74.7737 91.6049 74.6295C91.9775 74.4647 92.2259 74.2176 92.3501 73.888C92.495 73.5584 92.6296 73.0228 92.7538 72.2813H93.499V78.5845H92.7538C92.6296 77.8635 92.495 77.3382 92.3501 77.0087C92.2259 76.6791 91.9775 76.4319 91.6049 76.2671C91.2323 76.1023 90.6526 76.0199 89.866 76.0199H86.3261V82.6321C86.3261 83.3531 86.4193 83.8783 86.6056 84.2079C86.7919 84.5169 87.1334 84.7332 87.6303 84.8567C88.1478 84.9803 88.9758 85.0421 90.1144 85.0421C91.4186 85.0421 92.4226 84.9288 93.1264 84.7023C93.8303 84.4757 94.3788 84.0637 94.7722 83.4663C95.1655 82.8484 95.4967 81.942 95.7658 80.7473H96.5732L96.2316 86.0618H81.0784V85.1657Z" fill="#333333"/>
<path d="M99.1788 80.1294H99.9862C100.214 81.5713 100.814 82.8072 101.787 83.8371C102.76 84.867 104.002 85.382 105.513 85.382C106.818 85.382 107.832 85.0009 108.556 84.2388C109.302 83.4766 109.674 82.5188 109.674 81.3653C109.674 80.3971 109.384 79.5938 108.805 78.9552C108.225 78.3167 107.325 77.7296 106.103 77.1941L104.675 76.607C102.957 75.886 101.653 75.0827 100.762 74.197C99.8723 73.3112 99.4272 72.1165 99.4272 70.6128C99.4272 68.8825 100.017 67.5642 101.197 66.6579C102.377 65.7515 103.888 65.2983 105.731 65.2983C106.911 65.2983 107.956 65.5146 108.867 65.9472C109.24 66.0914 109.498 66.1635 109.643 66.1635C109.809 66.1635 109.933 66.1017 110.016 65.9781C110.099 65.8339 110.171 65.6382 110.233 65.391H110.916L111.227 70.86H110.42C110.213 69.5005 109.726 68.4087 108.96 67.5848C108.194 66.7608 107.138 66.3489 105.793 66.3489C104.696 66.3489 103.816 66.6476 103.153 67.2449C102.512 67.8217 102.191 68.6868 102.191 69.8403C102.191 70.8291 102.481 71.6118 103.06 72.1886C103.64 72.7653 104.53 73.3112 105.731 73.8262L107.221 74.4441C108.318 74.9179 109.229 75.3917 109.954 75.8654C110.699 76.3392 111.31 76.9675 111.786 77.7502C112.262 78.5124 112.5 79.4496 112.5 80.5619C112.5 82.3746 111.869 83.8062 110.606 84.8567C109.364 85.9073 107.677 86.4325 105.544 86.4325C104.758 86.4325 104.106 86.3708 103.588 86.2472C103.071 86.1442 102.522 85.9897 101.942 85.7837C101.57 85.6189 101.28 85.5365 101.073 85.5365C100.845 85.5365 100.669 85.6086 100.545 85.7528C100.442 85.897 100.379 86.0824 100.359 86.309H99.5825L99.1788 80.1294Z" fill="#333333"/>
</g>
<rect x="1" y="1.37134" width="148" height="147.257" rx="73.6287" stroke="#3C3011" stroke-width="2"/>
<defs>
<clipPath id="clip0_122_4247">
<rect y="0.371338" width="150" height="149.257" rx="74.6287" fill="white"/>
</clipPath>
</defs>
</svg>
