<svg width="361" height="352" viewBox="0 0 361 352" fill="none" xmlns="http://www.w3.org/2000/svg">
<path fill-rule="evenodd" clip-rule="evenodd" d="M307.743 58.5496C328.013 74.4242 337.331 100.544 344.927 125.15C352.2 148.711 348.978 173.378 350.784 197.974C352.844 226.012 368.465 255.677 356.379 281.071C344.397 306.25 314.773 318.557 288.7 328.432C265.137 337.357 239.261 331.094 214.352 334.865C189.751 338.589 166.373 356.989 142.336 350.59C118.333 344.2 108.655 314.706 87.8255 301.181C62.4069 284.675 22.2241 288.632 6.76994 262.559C-8.03604 237.58 5.1293 204.447 14.1108 176.816C22.1296 152.147 44.8774 135.757 55.6567 112.162C67.5909 86.0381 61.1255 51.8253 80.7793 30.8799C100.384 9.98667 131.537 -0.654503 160.137 0.815146C188.337 2.2642 208.355 28.503 234.646 38.7866C258.449 48.0969 287.622 42.7923 307.743 58.5496Z" fill="#F7E4B0"/>
</svg>
