<svg width="155" height="150" viewBox="0 0 155 150" fill="none" xmlns="http://www.w3.org/2000/svg">
<mask id="mask0_122_143" style="mask-type:alpha" maskUnits="userSpaceOnUse" x="0" y="-1" width="155" height="152">
<path fill-rule="evenodd" clip-rule="evenodd" d="M88.843 -0.773863C109.953 -0.56767 129.179 13.1787 141.043 30.6418C153.306 48.6934 156.46 71.1893 152.281 92.6085C147.953 114.789 138.975 139.468 118.113 148.156C98.3326 156.394 79.0034 137.947 58.5208 131.655C40.7471 126.196 18.4802 129.453 7.76181 114.26C-3.18064 98.7499 0.163696 76.9451 7.6038 59.4819C13.9701 44.5392 14.4545 22.676 27.5 13C42.6366 1.77303 69.9982 -0.957925 88.843 -0.773863Z" fill="#FFC0A7"/>
</mask>
<g mask="url(#mask0_122_143)">
<rect x="-2.5" width="165" height="150" fill="#F7E4B0"/>
<path d="M35.5767 67.3282C35.5767 67.3282 35.8675 68.1486 36.2982 68.3668C36.7289 68.5849 38.2585 69.6698 38.2585 69.6698C38.2585 69.6698 39.9772 68.8044 40.8618 66.2889C41.7464 63.7734 42.8061 62.0067 42.8061 62.0067L40.362 60.5511C40.362 60.5511 37.7664 66.0413 37.3267 66.5314C36.9027 67.0559 36.6285 67.6364 36.3788 67.543C36.1291 67.4495 35.9634 66.9036 35.9634 66.9036L35.5767 67.3282Z" fill="#E8DAC3"/>
<path d="M87.2296 51.4157C87.2296 51.4157 91.7583 48.4424 92.7589 46.9097C93.7439 45.3427 96.4345 41.8806 95.3364 37.2852C94.2539 32.7241 89.6293 27.2073 89.6293 27.2073C89.6293 27.2073 84.2413 28.2934 83.0161 29.9698C81.7909 31.6461 81.2612 32.7573 81.2612 32.7573C81.2612 32.7573 82.7445 34.6503 83.0477 35.5893C83.3354 36.494 83.895 38.2691 84.4323 39.2672C84.9353 40.281 84.9353 40.281 84.9353 40.281C84.9353 40.281 83.122 39.5739 82.679 39.6927C82.2516 39.8459 81.5216 39.9711 81.5216 39.9711C81.5216 39.9711 78.9635 40.7216 78.8731 40.8871C78.8731 40.8871 78.4038 38.9466 77.792 38.6037C77.1459 38.2765 76.3316 38.3987 76.3316 38.3987C76.3316 38.3987 76.8815 39.5154 76.4921 40.4798C76.0683 41.4599 75.6167 42.7426 74.9651 43.495C74.329 44.2817 73.8155 46.3382 72.8985 46.9629C72.4494 47.2502 72.0192 47.9432 71.6421 48.5706C71.961 49.5439 72.4832 51.4189 72.7338 52.879C73.0971 54.9506 75.0837 58.313 75.9019 59.4732C76.7389 60.5835 79.3674 62.5351 80.1332 64.672C80.899 66.8088 82.9671 70.7141 84.5606 74.214C86.1542 77.7139 88.4817 82.371 89.9101 86.2361C91.3385 90.1011 93.7914 95.4883 94.2138 97.3258C94.5204 98.6361 95.4455 101.032 95.9892 102.317C96.3293 102.245 98.2854 101.81 98.9655 101.666C99.7143 101.491 102.663 102.054 103.587 101.716C104.494 101.344 105.868 102.542 105.868 102.542C105.868 102.542 105.038 103.085 105.189 104.052C105.324 104.985 106.186 106.333 106.236 107.262C106.287 108.192 105.939 110.795 106.102 112.336C106.265 113.877 106.462 119.132 106.54 119.303C106.603 119.441 107.399 120.735 109.224 120.65C111.015 120.58 113.098 122.242 115.659 120.951C118.22 119.661 119.37 118.184 119.37 118.184L117.534 115.789C117.534 115.789 118.263 113.842 118.177 112.016C118.107 110.225 117.461 108.987 117.65 107.492C117.84 105.998 117.73 105.302 117.991 103.236C118.252 101.17 118.989 97.6034 119.006 95.7312C119.039 93.8934 118.729 91.3006 117.845 90.0874C116.961 88.8742 110.516 85.6364 108.559 84.7047C106.602 83.7729 103.178 81.438 103.178 81.438L99.4767 81.1346C99.4767 81.1346 100.215 79.8455 100.106 79.1497C99.9961 78.454 98.0011 76.711 97.314 75.6568C96.6269 74.6026 95.1589 72.2883 94.9898 71.3711C94.8208 70.4538 92.3099 67.123 90.8782 62.8866C89.4121 58.6658 88.4692 57.6867 88.4692 57.6867C88.4692 57.6867 88.2116 55.0284 87.4059 53.9867C86.6002 52.9451 85.8043 52.5618 85.8043 52.5618C85.8043 52.5618 86.3779 51.6378 86.4683 51.4724C86.4744 51.3039 87.2296 51.4157 87.2296 51.4157Z" fill="#D8BD74"/>
<path d="M93.155 111.992C91.1861 111.852 91.395 111.674 91.395 111.674C91.395 111.674 90.8669 110.424 90.1491 110.212C89.397 110.016 88.2861 109.942 88.2861 109.942C88.2861 109.942 89.5429 108.789 90.0165 107.828C90.5058 106.901 90.2313 107.026 91.3009 105.918C92.3704 104.809 92.7512 105.009 92.9942 104.36C93.2371 103.71 92.8346 103.645 92.9623 103.38C92.9623 103.38 92.1108 98.9621 91.2764 96.8565C90.4419 94.7508 84.951 81.0533 82.7049 76.9391C80.4744 72.8592 80.3023 72.0262 78.2244 67.4626C76.1622 62.9333 76.2629 64.3374 73.4026 60.8757C70.5422 57.414 69.1757 52.7751 69.1757 52.7751C69.0164 52.5162 68.8627 51.1777 68.734 50.0763C67.9976 49.9146 67.4948 49.3563 66.7492 49.4473C65.6634 49.6102 62.8774 50.1331 61.6357 50.4085C60.394 50.6838 59.0022 50.4476 57.8601 50.3048C56.718 50.162 55.2886 49.57 55.2886 49.57C55.2886 49.57 54.7242 50.2412 54.0505 50.6723C53.3768 51.1033 52.0099 50.6486 51.595 50.9203C51.1802 51.1921 50.2443 51.4111 50.6421 53.9226C51.04 56.4342 51.2992 56.7304 50.3521 59.1087C49.4051 61.4869 49.5033 63.8863 49.5033 63.8863L47.9096 65.0262L45.9928 63.4548C45.9928 63.4548 45.1246 62.2759 44.7095 62.0921C44.2788 61.8739 43.8706 62.8883 43.8706 62.8883L43.0873 62.6236C43.0873 62.6236 42.2114 63.9752 41.7037 65.4077C41.196 66.8402 39.3629 69.4562 38.9169 69.6593C38.4708 69.8624 38.4025 70.3492 38.4025 70.3492C38.4025 70.3492 39.1925 71.3565 40.1131 71.5587C40.1131 71.5587 42.3396 74.3562 44.7678 75.3219C47.2116 76.322 49.6113 76.6793 51.6578 76.0789C53.7043 75.4785 55.7949 75.5209 56.6865 74.2035C57.525 72.9518 59.1966 71.5279 58.9316 71.8557C59.3969 72.5138 60.2433 73.8269 60.7996 75.2306C61.6527 77.2863 64.3907 84.5735 67.2081 89.2146C69.2478 92.5114 69.0829 93.3322 69.0829 93.3322C69.0829 93.3322 68.2725 94.7368 68.6821 96.0003C69.0916 97.2637 69.6605 98.786 69.6605 98.786C69.6605 98.786 70.6457 107.41 70.6907 109.419C70.7356 111.429 70.7337 113.335 71.3216 115.263C71.9094 117.191 74.0542 118.99 75.5832 119.164C77.1122 119.338 78.3308 122.014 82.3371 121.805C86.3434 121.597 89.5797 122.609 91.0058 122.83C92.4319 123.05 95.7497 124.605 96.5861 124.804C97.4224 125.003 97.4224 125.003 97.4224 125.003C97.4224 125.003 99.3523 122.509 100.103 119.972C100.853 117.435 99.6838 113.866 99.6838 113.866C99.6838 113.866 95.124 112.131 93.155 111.992Z" fill="#D8BD74"/>
<path d="M89.3319 86.3081C87.9035 82.443 85.5603 77.7516 83.9824 74.286C82.3888 70.7861 80.2644 66.5751 79.4985 64.4382C78.7327 62.3013 76.1606 60.6555 75.3236 59.5452C74.4867 58.4349 72.4845 55.0382 72.1555 52.951C71.905 51.4909 71.3484 49.6315 71.0638 48.6426C70.6867 49.27 70.3095 49.8974 69.9695 49.9694C69.748 50.0288 69.4796 49.9853 69.1457 49.8888C69.2743 50.9902 69.4437 52.363 69.5873 52.5875C69.5873 52.5875 70.9695 57.2608 73.8142 60.6881C76.6745 64.1498 76.5582 62.7115 78.636 67.2751C80.6983 71.8044 80.9047 72.6217 83.1165 76.7515C85.3469 80.8314 90.8536 94.5633 91.688 96.6689C92.5224 98.7746 93.374 103.192 93.374 103.192C93.4861 102.893 94.4965 102.018 94.4965 102.018L95.3423 102.42C95.3423 102.42 95.3767 102.405 95.411 102.389C94.8516 101.07 93.9421 98.7081 93.6355 97.3978C93.2474 95.5446 90.7946 90.1575 89.3319 86.3081Z" fill="#CDAA4C"/>
<path d="M46.9861 42.1654C46.9861 42.1654 44.8748 38.9841 44.6705 36.7158C44.4663 34.4475 45.263 31.102 46.0546 29.7474L49.6704 33.7764C49.6891 33.7265 46.6703 41.1078 46.9861 42.1654Z" fill="#3C3011"/>
<path d="M49.5977 26.5186L53.3331 27.2619C53.3331 27.2619 54.4425 25.0583 54.9039 24.434C55.3653 23.8096 56.1606 23.2818 56.1606 23.2818C56.1606 23.2818 50.8382 24.421 49.5977 26.5186Z" fill="#3C3011"/>
<path d="M46.2725 27.9498C46.2725 27.9498 46.5883 29.0074 47.8593 30.7071C49.1303 32.4069 50.7163 33.7975 51.4935 34.2307C52.2551 34.6296 53.6977 36.2512 53.6977 36.2512L53.9265 37.8455L56.7287 38.2681C56.7287 38.2681 57.8613 33.1127 57.5767 32.1238C57.2921 31.1348 57.1046 30.7231 57.1046 30.7231C57.1046 30.7231 55.6314 29.944 55.1755 29.4887C54.7197 29.0334 53.6361 27.7455 53.6361 27.7455C53.6361 27.7455 49.598 26.9742 49.258 27.0462C48.9179 27.1182 46.2379 27.5099 46.2725 27.9498Z" fill="#C49CE3"/>
<path d="M53.7353 27.3274C53.7353 27.3274 55.0845 29.1987 55.4652 29.3982C55.846 29.5976 57.2694 30.3581 57.2694 30.3581C57.2694 30.3581 57.743 29.3967 58.1422 29.0907C58.5414 28.7846 59.3211 28.2225 59.5675 27.9446C59.8138 27.6668 59.5421 27.252 59.5421 27.252C59.5421 27.252 57.953 25.9456 57.0949 25.8806C56.2368 25.8156 55.1792 26.1314 55.1792 26.1314L54.5493 26.7497L53.7353 27.3274Z" fill="#C49CE3"/>
<path d="M53.9599 26.7283C53.9599 26.7283 54.792 25.1895 55.0788 24.7275C55.3999 24.2499 56.4384 23.5285 56.4384 23.5285C56.4384 23.5285 57.4469 24.5607 57.5315 25.0193C57.6503 25.4623 57.5912 25.6963 57.5912 25.6963C57.5912 25.6963 56.4647 25.5878 56.0061 25.6724C55.5132 25.7725 55.0732 25.8072 54.8456 26.0351C54.6523 26.2474 54.2126 26.7375 54.2126 26.7375L53.9599 26.7283Z" fill="#C49CE3"/>
<path d="M56.6062 17.528C56.6062 17.528 55.8182 19.7095 55.9373 20.6081C56.0564 21.5066 56.7405 22.6451 56.9249 23.1411C56.9249 23.1411 57.6151 24.111 57.7808 24.657C57.9465 25.2029 58.0093 25.7957 58.0093 25.7957C58.0093 25.7957 59.7105 26.8025 60.0352 27.1518C60.36 27.501 60.382 27.8224 61.287 27.9903C62.192 28.1582 62.4071 27.8117 63.0626 28.3418C63.7182 28.8718 65.6936 29.298 65.6936 29.298C65.6936 29.298 66.3913 27.2819 66.213 26.6174C66.0347 25.9529 65.5033 24.3307 65.3498 23.4478C65.212 22.5991 63.872 20.4751 63.2137 20.4849C63.2137 20.4849 62.3547 19.0532 61.7555 18.8289C61.1562 18.6047 58.7253 18.1787 58.2758 18.0105C57.7266 17.8049 56.6062 17.528 56.6062 17.528Z" fill="#C49CE3"/>
<path d="M55.8893 47.8882C55.8893 47.8882 55.9805 49.0894 56.0773 49.211C56.1741 49.3327 57.925 49.9026 57.925 49.9026C57.925 49.9026 57.8058 49.004 57.4342 48.5518C57.0626 48.0996 55.8893 47.8882 55.8893 47.8882Z" fill="#E3D09C"/>
<path d="M54.0049 38.9282C54.0049 38.9282 53.7346 40.7911 54.1258 42.5601C54.4826 44.3446 55.3489 47.43 55.3489 47.43L55.2875 49.115C55.2875 49.115 53.9365 49.1501 53.2371 48.4329C52.5377 47.7157 51.8757 46.8986 51.8757 46.8986C51.8757 46.8986 50.7771 46.4875 50.4741 46.004C50.1712 45.5206 48.2262 43.7963 48.2262 43.7963L47.5605 42.1523C47.5605 42.1523 48.8305 37.39 49.4599 35.8607C50.0892 34.3314 50.3698 34.0379 50.3698 34.0379L53.1202 36.3483L53.6425 38.2232L54.0049 38.9282Z" fill="#C49CE3"/>
<path d="M66.1782 25.7217C66.1782 25.7217 66.5158 26.6451 66.516 27.1006C66.516 27.1006 68.8391 29.5642 69.4542 30.2783C70.0694 30.9925 70.2035 31.0142 70.2035 31.0142C70.2035 31.0142 69.6785 29.6791 68.8976 28.419C68.0825 27.1745 66.1782 25.7217 66.1782 25.7217Z" fill="#3C3011"/>
<path d="M79.4609 30.6932L80.3171 32.6646C80.3171 32.6646 81.3549 30.5765 82.5243 29.5055C83.6937 28.4345 86.9632 27.6087 88.1985 27.0463C88.6445 26.8432 88.9785 26.9397 88.9785 26.9397L88.0726 25.4051C88.0726 25.4051 86.3999 25.0068 83.9296 26.5872C81.4282 28.099 79.4609 30.6932 79.4609 30.6932Z" fill="#E8DAC3"/>
<path d="M55.717 47.0554C55.717 47.0554 57.2181 47.5319 57.7334 48.2087C58.2487 48.8854 58.3678 49.784 58.3678 49.784C58.3678 49.784 60.0812 50.4538 62.0092 49.8659C63.9371 49.2781 66.9542 48.8986 67.5096 48.9357C68.065 48.9728 69.8621 48.7345 70.3456 48.4315C70.8134 48.0943 71.9203 46.886 72.4035 46.1275C72.8867 45.369 74.2831 43.1589 74.9094 41.7139C75.5356 40.2688 75.956 38.9174 74.5006 36.7217C73.0108 34.5416 70.8937 31.9843 70.75 31.7598C70.75 31.7598 69.9728 31.3266 68.9487 30.2601C67.9246 29.1936 66.6131 27.678 66.6131 27.678L66.1213 29.6004C66.1213 29.6004 64.58 29.7636 63.7559 29.2275C62.9318 28.6913 62.4698 28.4045 62.0112 28.4891C61.5526 28.5736 60.17 28.0846 60.17 28.0846C60.17 28.0846 57.6906 29.9178 57.6192 30.4888C57.5478 31.0599 57.8884 31.899 57.9325 32.5417C57.9766 33.1845 56.9378 38.5457 56.9378 38.5457L54.4291 38.4038C54.4634 38.3882 54.3976 42.975 55.717 47.0554Z" fill="#E3D09C"/>
<path d="M97.8996 125.325C97.9778 125.497 98.6183 126.904 99.5487 127.764C100.479 128.625 101.251 130.138 102.187 130.374C103.123 130.611 103.086 130.711 103.928 130.741C104.771 130.772 104.68 130.482 104.68 130.482C104.68 130.482 105.326 130.809 105.866 130.356C106.405 129.903 106.367 128.637 105.795 127.654C105.224 126.672 104.895 125.495 103.759 123.818C102.656 122.124 100.847 118.515 100.847 118.515C100.847 118.515 100.69 121.445 100.088 122.216C99.4864 122.987 97.8996 125.325 97.8996 125.325Z" fill="#E3D09C"/>
<path d="M112.853 121.955C113.034 122.08 115.228 123.442 116.289 124.409C117.351 125.375 117.922 125.902 119.061 126.129C120.2 126.356 121.009 126.403 121.009 126.403C121.009 126.403 121.717 127.323 122.75 127.225C123.783 127.128 124.032 126.766 124.032 126.766C124.032 126.766 124.291 126.151 124.328 125.596C124.365 125.04 123.812 124.008 123.812 124.008C123.812 124.008 122.866 122.657 122.391 122.252C121.917 121.847 119.456 118.534 119.238 118.51C119.019 118.485 117.292 120.97 115.947 121.292C114.634 121.683 112.853 121.955 112.853 121.955Z" fill="#E3D09C"/>
<path d="M38.085 56.8234C37.6665 56.2682 37.2358 56.0501 36.5305 55.9569C35.8253 55.8638 34.5986 55.2623 34.3241 55.3873C34.0496 55.5123 33.8566 56.1802 34.2218 56.3453C34.6026 56.5448 33.8973 56.4516 33.8973 56.4516C33.8973 56.4516 32.7555 56.7644 32.7527 57.3042C32.7527 57.3042 31.6143 57.9882 31.3839 58.756C31.3839 58.756 30.4951 59.5335 30.4145 60.3573C30.3526 61.1311 30.3526 61.1311 30.3526 61.1311C30.3526 61.1311 30.0223 61.8615 30.0226 62.317C30.0011 62.9068 30.2355 63.4215 30.982 64.6972C31.7286 65.9729 33.4389 66.7269 34.169 66.6016C34.9334 66.4607 35.9134 66.8845 35.9134 66.8845C35.9134 66.8845 37.4698 65.8444 38.1987 63.8969C38.9276 61.9494 40.2777 60.5476 40.2777 60.5476C40.2777 60.5476 38.519 57.4128 38.085 56.8234ZM37.356 58.7709C37.5346 59.8909 37.1418 60.484 36.5089 61.1865C35.9102 61.8733 34.3385 63.3346 33.7895 63.5846C33.2405 63.8345 32.5663 63.3545 32.5663 63.3545L32.9557 62.39C32.9557 62.39 34.1416 62.72 34.4813 62.1925C34.7868 61.6806 34.8456 60.991 34.8456 60.991C34.8456 60.991 35.4761 61.2839 35.9314 60.828C36.371 60.3379 36.0619 60.0229 36.0619 60.0229C36.0619 60.0229 36.8202 60.0505 36.9041 59.598C37.0224 59.1299 37.0598 59.0301 36.6165 58.6933C36.1732 58.3566 35.5115 57.9951 35.5115 57.9951C35.5115 57.9951 36.2691 57.1116 36.1754 56.9057C36.1004 56.6499 37.1775 57.6508 37.356 58.7709Z" fill="#E3D09C"/>
<path d="M83.7241 22.497C83.343 21.842 81.9638 21.7243 81.9638 21.7243C81.9638 21.7243 81.3643 21.0444 81.0303 20.9479C80.6621 20.867 79.2491 21.6761 78.8469 22.0664C78.4789 22.441 77.5092 23.5868 77.0822 24.1955C76.6551 24.8042 75.7975 25.6503 75.7571 25.8345C75.7166 26.0186 75.5674 26.8736 75.5674 26.8736C75.5769 27.0764 76.1179 28.9014 76.7143 29.6655C77.3108 30.4296 78.4997 30.6754 78.7899 30.5847C79.1143 30.4784 79.1143 30.4784 79.1143 30.4784C79.1143 30.4784 80.0154 29.3639 81.1348 28.2742C82.3042 27.2032 85.0989 25.5165 85.0177 25.4292C84.9366 25.3419 84.0717 24.5343 84.0717 24.5343C84.0717 24.5343 84.1052 23.152 83.7241 22.497ZM80.2086 24.0562C79.9095 24.8552 79.676 25.7072 79.676 25.7072C79.676 25.7072 78.7652 26.1633 78.313 26.5349C77.8608 26.9065 77.1531 27.8087 77.1531 27.8087C77.1531 27.8087 76.6939 26.9821 76.8841 26.8541C77.0744 26.726 77.6075 25.9862 77.6075 25.9862C77.6075 25.9862 78.1721 25.7705 78.6617 25.2991C79.1513 24.8276 78.8857 24.2443 78.8857 24.2443C79.3318 24.0412 79.5371 23.0363 79.5371 23.0363L80.3076 22.7269C80.3419 22.7113 80.5076 23.2572 80.2086 24.0562Z" fill="#E3D09C"/>
<path d="M70.2815 50.6565C69.9916 51.2027 70.7379 52.0229 71.0777 51.4954C71.4175 50.9678 70.8425 49.614 70.2815 50.6565Z" fill="#C49CE3"/>
<path d="M74.3562 60.1519C74.0976 60.7668 75.2308 61.6179 75.5237 60.9874C75.8166 60.3569 74.7487 59.1033 74.3562 60.1519Z" fill="#C49CE3"/>
<path d="M80.4337 69.315C79.938 69.955 80.6031 70.6878 81.1209 70.3692C81.6573 70.0007 81.0354 68.5439 80.4337 69.315Z" fill="#C49CE3"/>
<path d="M85.3394 79.6337C85.0683 80.13 85.1436 80.8413 85.7489 80.8971C86.3543 80.9529 86.4818 80.232 86.1601 79.7985C85.8385 79.365 85.5919 79.1873 85.3394 79.6337Z" fill="#C49CE3"/>
<path d="M89.9079 90.3955C89.7054 90.8606 89.8962 91.6436 90.4235 91.5278C90.9507 91.4121 90.8879 90.8192 90.6692 90.3389C90.4661 89.8928 90.126 89.9648 89.9079 90.3955Z" fill="#C49CE3"/>
</g>
</svg>
