<svg width="163" height="256" viewBox="0 0 163 256" fill="none" xmlns="http://www.w3.org/2000/svg">
<path opacity="0.9" fill-rule="evenodd" clip-rule="evenodd" d="M76.0262 182.695C76.2715 190.348 79.4855 197.237 86.8134 203.108C94.2797 209.09 98.8268 214.54 100.986 219.492C103.155 224.468 102.907 228.934 100.807 232.869C98.7211 236.778 94.8359 240.113 89.8245 242.924C84.8072 245.739 78.6185 248.053 71.8647 249.9C58.3566 253.593 42.5222 255.436 29.1168 255.652C22.4133 255.759 16.3051 255.46 11.3898 254.778C8.93234 254.437 6.76457 253.999 4.96557 253.465C3.17334 252.933 1.71564 252.296 0.702148 251.542L1.29936 250.74C2.17713 251.393 3.507 251.989 5.25019 252.506C6.98661 253.022 9.1021 253.451 11.5273 253.788C16.3773 254.461 22.4317 254.759 29.1007 254.652C42.4401 254.437 58.1891 252.602 71.6009 248.935C78.307 247.101 84.4123 244.814 89.3353 242.052C94.2642 239.287 97.9655 236.07 99.9247 232.399C101.87 228.753 102.125 224.609 100.069 219.891C98.002 215.15 93.594 209.822 86.1881 203.888C78.6439 197.844 75.2818 190.687 75.0267 182.727C74.7726 174.798 77.6031 166.119 82.3351 156.997C90.4998 141.257 104.421 124.028 118.332 106.81C120.538 104.079 122.745 101.349 124.927 98.6248C132.91 88.6625 140.589 78.7781 146.862 69.2451C153.139 59.7086 157.99 50.5514 160.341 42.0454C162.689 33.5469 162.531 25.7365 158.843 18.8427C155.15 11.9413 147.875 5.87355 135.812 0.96131L136.189 0.0351562C148.376 4.99792 155.883 11.1907 159.724 18.371C163.57 25.5587 163.698 33.6511 161.305 42.3117C158.914 50.9649 153.997 60.2236 147.698 69.7948C141.396 79.3696 133.693 89.285 125.708 99.2501C123.519 101.982 121.309 104.717 119.101 107.449C105.182 124.678 91.3367 141.815 83.2228 157.457C78.5246 166.514 75.78 175.013 76.0262 182.695Z" fill="#82BCFF"/>
</svg>
