<svg width="250" height="95" viewBox="0 0 250 95" fill="none" xmlns="http://www.w3.org/2000/svg">
<g clip-path="url(#clip0_286_350)">
<path d="M94.4248 28.9047V95.0001H108.769V28.9047H94.4248Z" fill="#5FA4F1"/>
<path d="M108.696 0H94.3525V16.5238H108.696V0Z" fill="#5FA4F1"/>
<path d="M232.315 28.9047L215.844 50.8799H215.366L199.062 29.0743H182.136L206.544 61.4678L182.064 94.9031H198.799L215.27 71.0623H215.844L232.411 94.9031H249.408L225.215 61.4678L249.121 28.9047H232.315Z" fill="#5FA4F1"/>
<path d="M33.3443 78.4762C25.3358 78.4762 16.9208 70.9169 16.9208 62.7277V29.0743L0.688477 28.9047V62.8246C0.688477 80.5599 14.3867 95.4119 37.3606 95.097L37.0976 78.5731L33.3443 78.4762Z" fill="#5FA4F1"/>
<path d="M65.9527 78.5004C57.992 78.5004 49.577 71.2319 49.577 62.6792V29.0743H33.2969V62.6792C33.2969 80.4387 48.812 94.9758 65.9766 95.0001V78.5004H82.2089V28.9047H65.7854L65.9527 78.5004Z" fill="#5FA4F1"/>
<path d="M188.065 78.0159L188.185 62.4127V61.4678C188.185 43.1268 171.45 28.9047 154.716 28.9047C137.982 28.9047 120.937 43.1268 120.937 61.4678C120.937 78.1128 135.974 95.0001 154.549 95.0001V78.2581L188.065 78.0159ZM137.719 62.4127C137.719 52.7213 143.098 45.162 154.453 45.162C156.601 45.1105 158.737 45.4883 160.74 46.2739C162.744 47.0595 164.575 48.2374 166.129 49.7404C167.683 51.2434 168.929 53.042 169.797 55.0335C170.665 57.0249 171.138 59.1702 171.187 61.3466L154.214 61.4678V78.137C148.261 78.137 137.719 71.9587 137.719 62.4127Z" fill="#5FA4F1"/>
</g>
<defs>
<clipPath id="clip0_286_350">
<rect width="248.624" height="95" fill="white" transform="translate(0.688477)"/>
</clipPath>
</defs>
</svg>
