<svg width="170" height="170" viewBox="0 0 170 170" fill="none" xmlns="http://www.w3.org/2000/svg">
<rect width="170" height="170" rx="20" fill="#209328"/>
<path fill-rule="evenodd" clip-rule="evenodd" d="M50.2396 83.8325H43.3675C42.5336 83.8325 41.833 84.4997 41.7329 85.3337L41.5995 87.3353C40.9657 96.2089 39.3978 96.4424 39.3644 96.4424H39.1642C38.2969 96.4424 37.6631 97.0095 37.563 97.9102V98.0437C37.563 98.8443 38.1301 99.4781 38.9974 99.6116C39.1642 99.6449 39.3644 99.6449 39.5312 99.6449C42.4668 99.6449 43.9013 96.6426 44.6352 88.9365L44.802 86.9016H48.5716V98.077C48.5716 98.9444 49.3055 99.6449 50.1729 99.6449C51.0402 99.6449 51.7408 98.9444 51.7408 98.077V85.3671C51.7741 84.5664 51.0736 83.8325 50.2396 83.8325Z" fill="white"/>
<path fill-rule="evenodd" clip-rule="evenodd" d="M67.3195 83.7322C66.5523 83.7322 66.1186 84.1993 65.7516 84.6329L58.7795 93.7734V85.3001C58.7795 84.4661 58.0456 83.7322 57.2116 83.7322C56.3443 83.7322 55.6104 84.4328 55.6104 85.3001V98.0101C55.6104 99.0109 56.2442 99.6781 57.2116 99.6781C58.0122 99.6781 58.4793 99.1777 58.8129 98.744L65.785 89.6035V98.0768C65.785 98.9442 66.5189 99.6447 67.3863 99.6447C68.2536 99.6447 68.9541 98.9442 68.9541 98.0768V85.3668C68.9541 84.3994 68.287 83.7322 67.3195 83.7322Z" fill="white"/>
<path fill-rule="evenodd" clip-rule="evenodd" d="M81.5974 86.9348V96.4423H76.3266C76.7602 95.3748 77.5942 92.9062 77.8945 88.8029L78.0279 86.9348H81.5974ZM85.1335 96.4423H84.7999V85.4336C84.7999 84.5663 84.0993 83.8657 83.232 83.8657H76.5601C75.6594 83.8657 74.9588 84.5329 74.9255 85.4003L74.8254 87.4018C74.5585 92.3724 73.491 95.3414 72.8238 96.4756H72.5236C71.6562 96.4756 70.9557 97.1762 70.9557 98.0435V100.679C70.9557 101.513 71.6562 102.213 72.4902 102.213C73.3242 102.213 74.0248 101.546 74.0248 100.679V99.5447H83.6323V100.679C83.6323 101.513 84.3328 102.213 85.1668 102.213C86.0008 102.213 86.7014 101.546 86.7014 100.679V98.0435C86.7347 97.1428 86.0008 96.4423 85.1335 96.4423Z" fill="white"/>
<path fill-rule="evenodd" clip-rule="evenodd" d="M94.8077 91.2715L99.478 86.3343C99.8116 86.0007 100.012 85.567 100.012 85.1333C100.012 84.3327 99.3779 83.6989 98.544 83.6989C98.0436 83.6989 97.6099 83.9324 97.2096 84.3994L92.2057 89.8704V85.3001C92.2057 84.4661 91.4717 83.7322 90.6378 83.7322C89.7704 83.7322 89.0365 84.4328 89.0365 85.3001V98.0768C89.0365 98.9441 89.7704 99.6447 90.6378 99.6447C91.5051 99.6447 92.2057 98.9441 92.2057 98.0768V92.9061L97.4431 98.9108C97.71 99.211 98.1436 99.6447 98.8442 99.6447C99.7115 99.6447 100.379 99.0109 100.379 98.1769C100.379 97.7432 100.212 97.3429 99.8783 96.9759L94.8077 91.2715Z" fill="white"/>
<path fill-rule="evenodd" clip-rule="evenodd" d="M113.656 91.6719C113.656 94.6075 111.721 96.6425 108.952 96.6425C106.283 96.6425 104.248 94.5075 104.248 91.6719C104.248 88.803 106.217 86.7014 108.952 86.7014C111.621 86.7347 113.656 88.8364 113.656 91.6719ZM108.952 83.6323C104.415 83.6323 100.979 87.1017 100.979 91.6719C100.979 96.3422 104.349 99.7116 108.952 99.7116C113.489 99.7116 116.925 96.2422 116.925 91.6719C116.958 87.0349 113.589 83.6323 108.952 83.6323Z" fill="white"/>
<path fill-rule="evenodd" clip-rule="evenodd" d="M130.803 83.7322C129.935 83.7322 129.201 84.4328 129.201 85.3001V90.0038H122.83V85.3001C122.83 84.4661 122.096 83.7322 121.262 83.7322C120.394 83.7322 119.661 84.4328 119.661 85.3001V98.0768C119.661 98.9442 120.394 99.6447 121.262 99.6447C122.129 99.6447 122.83 98.9442 122.83 98.0768V93.0729H129.201V98.0768C129.201 98.9442 129.935 99.6447 130.803 99.6447C131.67 99.6447 132.37 98.9442 132.37 98.0768V85.3001C132.404 84.4661 131.67 83.7322 130.803 83.7322Z" fill="white"/>
<path fill-rule="evenodd" clip-rule="evenodd" d="M130.769 108.252H116.491H51.6072H39.2308C32.8925 108.252 27.7218 103.081 27.7218 96.7425V86.8681C27.7218 80.5298 32.8925 75.3591 39.2308 75.3591H130.769C137.108 75.3591 142.278 80.5298 142.278 86.8681V96.7425C142.278 103.081 137.108 108.252 130.769 108.252ZM113.222 110.587C110.687 114.19 107.484 117.292 103.781 119.694C103.781 119.694 103.781 119.694 103.748 119.694C103.481 119.861 103.181 120.061 102.914 120.228C102.881 120.261 102.847 120.261 102.814 120.294C102.28 120.628 101.713 120.962 101.146 121.262C100.846 121.429 100.546 121.562 100.245 121.729C100.212 121.729 100.179 121.762 100.145 121.762C99.8784 121.896 99.6115 122.029 99.3113 122.162C99.2779 122.162 99.2779 122.196 99.2446 122.196C98.6441 122.463 98.0436 122.73 97.4098 122.963C97.3097 122.996 97.2096 123.03 97.0762 123.097C96.876 123.163 96.6425 123.263 96.4424 123.33C96.3756 123.363 96.3089 123.363 96.2422 123.397C95.9753 123.497 95.7418 123.564 95.4749 123.664C95.3748 123.697 95.3081 123.73 95.2081 123.73C94.9745 123.797 94.741 123.864 94.4741 123.964C94.4074 123.997 94.3407 123.997 94.274 124.031C93.6735 124.197 93.0731 124.364 92.4392 124.498C92.2724 124.531 92.1056 124.564 91.9388 124.598C91.772 124.631 91.6052 124.664 91.4051 124.698C91.1716 124.731 90.938 124.765 90.7045 124.831C90.5711 124.865 90.471 124.865 90.3376 124.898C90.1708 124.931 90.0373 124.931 89.8705 124.965C89.6704 124.998 89.4702 125.031 89.2701 125.031C89.2367 125.031 89.2033 125.031 89.17 125.031C88.5028 125.098 87.8022 125.165 87.1017 125.232C86.3678 125.265 85.6672 125.298 84.9333 125.298C84.1994 125.298 83.4655 125.265 82.765 125.232C82.0644 125.198 81.3972 125.131 80.6967 125.031C80.6633 125.031 80.63 125.031 80.5966 125.031C80.3964 124.998 80.1629 124.965 79.9628 124.931C79.8293 124.898 79.6959 124.898 79.5291 124.865C79.3957 124.831 79.2622 124.831 79.0954 124.798C78.8953 124.765 78.6951 124.731 78.4616 124.698C78.2948 124.664 78.128 124.631 77.9278 124.598C77.761 124.564 77.5942 124.531 77.4274 124.498C76.827 124.364 76.2265 124.197 75.626 124.031C75.5593 123.997 75.4926 123.997 75.3925 123.964C75.159 123.897 74.8921 123.83 74.6586 123.73C74.5585 123.697 74.4918 123.664 74.3917 123.664C74.1249 123.564 73.858 123.497 73.6245 123.397C73.5577 123.363 73.491 123.363 73.4243 123.33C73.1908 123.23 72.9573 123.163 72.6904 123.063C72.5903 123.03 72.5236 122.996 72.4235 122.963C72.1233 122.83 71.7897 122.73 71.4895 122.596H71.4561C71.1559 122.463 70.889 122.363 70.5887 122.229C70.5554 122.229 70.522 122.196 70.522 122.196C70.2551 122.062 69.9883 121.929 69.688 121.796C69.6547 121.762 69.6213 121.762 69.588 121.762C69.2877 121.629 68.9875 121.462 68.6873 121.295C68.1201 120.995 67.553 120.661 67.0193 120.328C66.9859 120.294 66.9526 120.294 66.9192 120.261C66.6523 120.094 66.3521 119.927 66.0852 119.727C66.0852 119.727 66.0852 119.727 66.0519 119.727C64.6508 118.793 63.283 117.792 62.0154 116.658C62.0154 116.658 62.0154 116.658 61.982 116.658C59.9471 114.857 58.1457 112.855 56.5778 110.62L113.222 110.587C113.256 110.587 113.256 110.587 113.222 110.587ZM49.7391 71.5895C49.7391 71.5561 49.7724 71.5228 49.7724 71.456C51.8741 65.9851 55.1767 61.148 59.38 57.2449L59.4133 57.2115C59.7469 56.9113 60.1139 56.5777 60.4475 56.2775C61.2481 55.6103 62.0487 54.9765 62.9161 54.3426C63.9168 58.0122 65.6849 61.3815 68.1869 64.3838C70.2218 66.8191 72.9573 69.0875 76.5601 71.2892C76.9604 71.5228 77.3941 71.7896 77.8611 72.0232C77.8611 72.0232 78.6617 72.4235 79.6959 72.9239H49.272C49.4055 72.5235 49.5723 72.0565 49.7391 71.5895ZM65.5181 46.8701L64.1504 45.936L64.1837 47.5706C64.3505 53.9423 66.5856 59.5133 70.5887 63.7166C72.8572 66.0852 75.4259 68.0867 78.2614 69.7213C80.7968 71.1558 83.1319 71.9231 85.1001 72.4568L86.0342 72.7237L86.1676 71.7896C86.9683 66.0518 84.4997 60.5808 78.8619 55.5102C76.3933 53.3085 73.5244 51.6739 70.7555 50.0726C69.0209 49.0718 67.2194 48.0377 65.5181 46.8701ZM75.526 48.438C75.1924 48.5381 74.8588 48.6048 74.5252 48.7049C74.1249 48.8049 73.7579 48.9384 73.3576 49.0718C73.7913 49.3053 74.2249 49.5722 74.6586 49.8057C78.0613 51.7739 80.73 53.9423 83.0318 56.6444C85.1335 59.113 86.2344 61.5816 87.1017 63.9168L87.7355 65.6181L88.6029 64.0169C89.1033 63.0828 90.004 62.082 90.9047 61.148C91.2049 60.8144 91.5385 60.4808 91.8054 60.1472C93.907 57.7453 96.5424 56.1774 99.3113 54.5428C100.679 53.7422 102.047 52.9082 103.381 51.9741C102.18 51.3069 100.946 50.7064 99.6782 50.1393C99.5448 50.0726 99.4447 50.0392 99.3113 50.0059C98.077 49.5055 96.8093 49.0385 95.5083 48.6715C95.1747 48.5714 94.8411 48.5047 94.5075 48.4046C94.3741 48.3713 94.2073 48.3379 94.0738 48.3046C93.907 48.2712 93.7069 48.2378 93.5401 48.1711C92.7394 48.0043 91.9388 47.8375 91.1382 47.7041C91.0381 47.7041 90.938 47.6707 90.838 47.6707C89.7705 47.5039 88.703 47.4038 87.6021 47.3038C86.7681 47.237 85.9008 47.2037 85.0334 47.2037C84.1661 47.2037 83.3321 47.237 82.4647 47.3038C81.3639 47.3705 80.2964 47.5039 79.2289 47.6707C79.1288 47.6707 79.0287 47.7041 78.9286 47.7041C78.128 47.8375 77.3274 48.0043 76.5267 48.1711C76.3599 48.2045 76.1598 48.2378 75.993 48.3046C75.7928 48.3713 75.6594 48.4046 75.526 48.438ZM105.816 52.9415L105.65 54.6095C104.916 62.6491 99.3446 69.1542 90.7712 71.9564L89.7705 72.29L89.6704 71.2225C89.3034 66.8858 91.4718 63.6499 94.8411 60.1138C96.7759 58.0789 99.2446 56.7111 101.613 55.3768C102.514 54.8764 103.481 54.3426 104.382 53.7755L105.816 52.9415ZM109.486 56.3108C109.853 56.6111 110.186 56.9113 110.52 57.2449L110.553 57.2783C114.757 61.1813 118.093 66.0184 120.161 71.4894C120.161 71.5228 120.194 71.5561 120.228 71.6228C120.394 72.0899 120.561 72.5569 120.728 73.0239H94.741C95.5083 72.5569 96.0754 72.1566 96.1088 72.1566C103.014 68.3536 107.217 62.1487 107.918 55.0432C108.452 55.4435 108.952 55.8438 109.486 56.3108ZM130.769 72.9906H123.063L122.997 72.7904C120.294 64.2504 114.924 57.1782 107.985 52.3077C107.985 51.8073 107.951 51.3069 107.885 50.7732C107.818 50.2394 107.518 49.8057 107.084 49.6389C106.684 49.5055 106.317 49.6056 105.95 49.9058C105.716 50.106 105.483 50.3395 105.249 50.5396C99.2446 47.0035 92.3058 45.0353 84.9667 45.0353C79.9961 45.0353 75.1924 45.9694 70.7555 47.6374C68.4204 46.2696 66.0852 44.8018 64.0503 42.8336C63.8168 42.6001 63.5499 42.5 63.283 42.5C63.1829 42.5 63.0495 42.5334 62.9494 42.5667C62.5157 42.7335 62.1822 43.1672 62.1154 43.7009C61.8152 46.5699 61.9153 49.3387 62.4157 51.9741C55.2767 56.8779 49.7391 64.0502 46.9702 72.7571L46.9035 72.9572H39.2308C31.5581 72.9906 25.3533 79.1954 25.3533 86.8681V96.7425C25.3533 104.382 31.5581 110.62 39.2308 110.62H53.1084H54.0424C60.8478 121.195 72.3902 127.5 84.9667 127.5C97.5432 127.5 109.086 121.195 115.891 110.62H121.429H130.769C138.409 110.62 144.647 104.415 144.647 96.7425V86.8681C144.613 79.1954 138.409 72.9906 130.769 72.9906Z" fill="white"/>
</svg>
