<svg width="260" height="19" viewBox="0 0 260 19" fill="none" xmlns="http://www.w3.org/2000/svg">
<path d="M4.29233 0.425862L8.84285 15.0034H9.06876L12.9415 0.425862H17.8148L21.7844 15.0034H21.978L26.6254 0.425862H30.8532L24.4308 18.5414H18.8798L15.4266 4.94655H15.2329L11.7152 18.5414H6.22872L0 0.425862H4.29233Z" fill="white"/>
<path d="M56.0156 0.425862V4.12759H43.8487V7.46897H54.7893V11.1707H43.8487V14.7741H56.4675V18.5414H39.8145V0.425862H56.0156Z" fill="white"/>
<path d="M77.4249 0.425862C78.2209 0.425862 78.9525 0.545977 79.6194 0.786206C80.3079 1.0046 80.8996 1.33218 81.3945 1.76897C81.8893 2.18391 82.2658 2.68621 82.524 3.27586C82.8037 3.86552 82.9436 4.53161 82.9436 5.27414C82.9436 5.92931 82.8252 6.52989 82.5886 7.07586C82.3734 7.6 82.0292 8.02586 81.5558 8.35345C82.3734 8.79023 83.0081 9.37989 83.46 10.1224C83.9333 10.8649 84.17 11.7931 84.17 12.9069C84.17 13.6931 84.0193 14.4247 83.7181 15.1017C83.4384 15.7787 83.0296 16.3793 82.4918 16.9035C81.9754 17.4057 81.3514 17.8098 80.6199 18.1155C79.9099 18.3994 79.1353 18.5414 78.2962 18.5414H65.9356V0.425862H77.4249ZM69.9698 7.40345H77.554C77.9843 7.40345 78.3285 7.23966 78.5867 6.91207C78.8664 6.56264 79.0062 6.18046 79.0062 5.76552C79.0062 5.37241 78.8772 5.00115 78.619 4.65172C78.3823 4.28046 77.9197 4.09483 77.2312 4.09483H69.9698V7.40345ZM69.9698 14.8397H78.1671C78.8126 14.8397 79.3182 14.6649 79.684 14.3155C80.0498 13.9443 80.2326 13.4747 80.2326 12.9069C80.2326 12.3172 80.0498 11.8477 79.684 11.4983C79.3182 11.1489 78.8449 10.9741 78.264 10.9741H69.9698V14.8397Z" fill="white"/>
<path d="M109.519 0.425862V4.12759H97.3515V7.46897H108.292V11.1707H97.3515V14.7741H109.97V18.5414H93.3174V0.425862H109.519Z" fill="white"/>
<path d="M129.96 0.425862C131.014 0.425862 131.982 0.600575 132.864 0.950001C133.768 1.27759 134.542 1.75805 135.188 2.39138C135.855 3.00287 136.371 3.7454 136.737 4.61897C137.124 5.49253 137.318 6.46437 137.318 7.53448C137.318 8.93218 137.006 10.1443 136.382 11.1707C135.758 12.1971 134.919 12.9943 133.865 13.5621L136.608 18.5414H132.219L130.121 14.5121H123.473V18.5414H119.438V0.425862H129.96ZM123.473 10.7776H129.798C130.831 10.7776 131.67 10.5046 132.315 9.95862C132.961 9.3908 133.284 8.58276 133.284 7.53448C133.284 6.48621 132.961 5.66724 132.315 5.07759C131.67 4.46609 130.831 4.16035 129.798 4.16035H123.473V10.7776Z" fill="white"/>
<path d="M150.187 0.425862L160.87 12.6121V0.425862H164.872V18.5414H161.031L150.349 6.32241V18.5414H146.379V0.425862H150.187Z" fill="white"/>
<path d="M190.75 0.425862V4.12759H178.583V7.46897H189.523V11.1707H178.583V14.7741H191.202V18.5414H174.549V0.425862H190.75Z" fill="white"/>
<path d="M218.581 0.425862V4.09483H211.32V18.5414H207.286V4.09483H200.024V0.425862H218.581Z" fill="white"/>
<path d="M231.645 0.425862V18.5414H227.61V0.425862H231.645Z" fill="white"/>
<path d="M256.87 6.68276C256.181 5.7 255.363 4.94655 254.417 4.42241C253.492 3.89828 252.319 3.63621 250.899 3.63621C249.995 3.63621 249.178 3.77816 248.446 4.06207C247.736 4.32414 247.123 4.71724 246.607 5.24138C246.09 5.74368 245.692 6.35517 245.413 7.07586C245.133 7.79655 244.993 8.6046 244.993 9.5C244.993 10.3736 245.133 11.1707 245.413 11.8914C245.714 12.6121 246.123 13.2345 246.639 13.7586C247.155 14.2609 247.768 14.654 248.478 14.9379C249.21 15.2218 250.017 15.3638 250.899 15.3638C252.319 15.3638 253.492 15.1017 254.417 14.5776C255.363 14.0534 256.181 13.3 256.87 12.3172L260 14.1517C259.075 15.746 257.859 16.958 256.353 17.7879C254.847 18.596 253.051 19 250.964 19C249.544 19 248.22 18.7816 246.994 18.3448C245.768 17.908 244.713 17.2856 243.831 16.4776C242.949 15.6477 242.25 14.6431 241.733 13.4638C241.239 12.2845 240.991 10.9632 240.991 9.5C240.991 8.03678 241.249 6.71552 241.766 5.53621C242.282 4.3569 242.981 3.36322 243.863 2.55517C244.767 1.72529 245.821 1.09195 247.026 0.655174C248.253 0.218391 249.565 0 250.964 0C253.051 0 254.847 0.414943 256.353 1.24483C257.859 2.05287 259.075 3.25402 260 4.84828L256.87 6.68276Z" fill="white"/>
</svg>
