<svg width="140" height="30" viewBox="0 0 140 30" fill="none" xmlns="http://www.w3.org/2000/svg">
<g id="Group 14">
<g id="FRENCH KISS">
<path d="M0 12.9975V0.898483H7.64699V2.76658H2.19982V5.8568H7.03593V7.7249H2.19982V12.9975H0Z" fill="#221207"/>
<path d="M16.4424 0.77627C18.1883 0.77627 19.521 1.09635 20.4405 1.73651C21.3717 2.37667 21.8372 3.35436 21.8372 4.6696C21.8372 6.31073 21.0283 7.42228 19.4105 8.00425C19.6316 8.27195 19.8818 8.59785 20.1612 8.98194C20.4405 9.36604 20.7257 9.78505 21.0167 10.239C21.3076 10.6813 21.587 11.141 21.8547 11.6182C22.1224 12.0838 22.361 12.5436 22.5705 12.9975H20.1088C19.8877 12.5785 19.6491 12.1595 19.393 11.7404C19.1369 11.3098 18.875 10.8966 18.6073 10.5009C18.3513 10.0935 18.0952 9.71522 17.8392 9.36604C17.5831 9.00522 17.3445 8.68514 17.1233 8.4058C16.9604 8.41744 16.8207 8.42326 16.7043 8.42326C16.5879 8.42326 16.4774 8.42326 16.3726 8.42326H15.3076V12.9975H13.1078V1.07307C13.6432 0.956679 14.2135 0.881024 14.8188 0.846106C15.424 0.799549 15.9652 0.77627 16.4424 0.77627ZM16.5996 2.67929C16.134 2.67929 15.7034 2.69675 15.3076 2.73167V6.64245H16.2679C16.8033 6.64245 17.2747 6.61336 17.682 6.55516C18.0894 6.49696 18.4269 6.39221 18.6946 6.2409C18.974 6.08959 19.1835 5.8859 19.3232 5.62984C19.4628 5.37378 19.5327 5.04788 19.5327 4.65214C19.5327 4.27969 19.4628 3.96543 19.3232 3.70936C19.1835 3.4533 18.9798 3.24961 18.7121 3.0983C18.456 2.94699 18.1476 2.84224 17.7868 2.78404C17.426 2.71421 17.0302 2.67929 16.5996 2.67929Z" fill="#221207"/>
<path d="M27.7671 12.9975V0.898483H35.5363V2.76658H29.9669V5.75205H34.9253V7.58523H29.9669V11.1294H35.9553V12.9975H27.7671Z" fill="#221207"/>
<path d="M49.642 12.9975C49.2463 12.334 48.804 11.6241 48.3151 10.8675C47.8263 10.0993 47.32 9.33112 46.7962 8.56293C46.2724 7.7831 45.737 7.03237 45.19 6.31073C44.6546 5.57746 44.1425 4.91984 43.6536 4.33788V12.9975H41.4887V0.898483H43.287C43.7525 1.38733 44.253 1.96929 44.7884 2.64437C45.3238 3.30781 45.8592 4.00034 46.3946 4.72198C46.9417 5.44361 47.4655 6.17106 47.9659 6.90434C48.4781 7.62597 48.932 8.30105 49.3277 8.92957V0.898483H51.5101V12.9975H49.642Z" fill="#221207"/>
<path d="M63.2815 13.2594C62.3736 13.2594 61.5589 13.1197 60.8372 12.8404C60.1156 12.561 59.5045 12.1536 59.004 11.6182C58.5036 11.0712 58.1195 10.4078 57.8518 9.62792C57.5841 8.84809 57.4502 7.95187 57.4502 6.93926C57.4502 5.92664 57.6015 5.03042 57.9041 4.25059C58.2184 3.47076 58.6432 2.81314 59.1786 2.27773C59.714 1.73069 60.3426 1.3175 61.0642 1.03815C61.7858 0.758811 62.5598 0.619141 63.3862 0.619141C63.8867 0.619141 64.3406 0.659878 64.748 0.741353C65.1554 0.811188 65.5104 0.892663 65.813 0.985777C66.1156 1.07889 66.3659 1.17783 66.5637 1.28258C66.7616 1.38733 66.9013 1.46299 66.9828 1.50954L66.3368 3.30781C66.0574 3.13322 65.6559 2.97027 65.1321 2.81896C64.62 2.65601 64.0613 2.57454 63.4561 2.57454C62.9323 2.57454 62.4434 2.66765 61.9895 2.85388C61.5356 3.02847 61.1399 3.29617 60.8023 3.65699C60.4764 4.0178 60.2203 4.47173 60.0341 5.01878C59.8479 5.56582 59.7548 6.20016 59.7548 6.9218C59.7548 7.56195 59.8246 8.14974 59.9643 8.68514C60.1156 9.22055 60.3426 9.68612 60.6452 10.0819C60.9478 10.4659 61.3319 10.7686 61.7975 10.9897C62.263 11.1992 62.8217 11.304 63.4735 11.304C64.2533 11.304 64.8877 11.2283 65.3765 11.077C65.8654 10.9141 66.2437 10.7627 66.5114 10.6231L67.105 12.4213C66.9653 12.5145 66.7732 12.6076 66.5288 12.7007C66.296 12.7938 66.0167 12.8869 65.6908 12.98C65.3649 13.0615 64.9983 13.1255 64.5909 13.1721C64.1835 13.2303 63.747 13.2594 63.2815 13.2594Z" fill="#221207"/>
<path d="M79.9843 0.898483H82.1841V12.9975H79.9843V7.63761H74.7292V12.9975H72.5294V0.898483H74.7292V5.73459H79.9843V0.898483Z" fill="#221207"/>
<path d="M103.364 12.9975C103.062 12.5319 102.713 12.0431 102.317 11.5309C101.921 11.0188 101.502 10.5241 101.06 10.0469C100.629 9.56973 100.181 9.1158 99.7154 8.68514C99.2498 8.25449 98.7901 7.88203 98.3362 7.56777V12.9975H96.1363V0.898483H98.3362V5.89172C98.7203 5.50763 99.1218 5.10025 99.5408 4.6696C99.9598 4.22731 100.373 3.78502 100.78 3.34273C101.199 2.8888 101.595 2.45232 101.968 2.03331C102.34 1.6143 102.678 1.23602 102.98 0.898483H105.617C105.232 1.34077 104.825 1.80053 104.394 2.27773C103.964 2.75494 103.521 3.23797 103.068 3.72682C102.614 4.20403 102.154 4.68124 101.688 5.15845C101.234 5.63566 100.786 6.08959 100.344 6.52024C100.833 6.8927 101.327 7.32917 101.828 7.82966C102.34 8.31851 102.841 8.84809 103.329 9.41842C103.818 9.9771 104.284 10.5649 104.726 11.1818C105.18 11.787 105.593 12.3922 105.966 12.9975H103.364Z" fill="#221207"/>
<path d="M111 0.898483H113.2V12.9975H111V0.898483Z" fill="#221207"/>
<path d="M122.523 11.3564C123.314 11.3564 123.891 11.2225 124.251 10.9548C124.612 10.6871 124.793 10.3088 124.793 9.81997C124.793 9.52899 124.729 9.27874 124.601 9.06924C124.484 8.85973 124.31 8.6735 124.077 8.51055C123.856 8.33597 123.582 8.17884 123.256 8.03916C122.93 7.88785 122.558 7.74236 122.139 7.60269C121.72 7.45138 121.312 7.28843 120.917 7.11384C120.533 6.92762 120.189 6.70065 119.887 6.43295C119.596 6.16524 119.357 5.84516 119.171 5.47271C118.996 5.10025 118.909 4.65214 118.909 4.12838C118.909 3.03429 119.287 2.1788 120.044 1.56192C120.8 0.9334 121.83 0.619141 123.134 0.619141C123.891 0.619141 124.56 0.706435 125.142 0.881024C125.735 1.04397 126.201 1.22438 126.539 1.42225L125.858 3.20305C125.462 2.98191 125.025 2.81314 124.548 2.69675C124.083 2.58036 123.6 2.52216 123.099 2.52216C122.506 2.52216 122.04 2.64437 121.702 2.88879C121.377 3.13322 121.214 3.47658 121.214 3.91887C121.214 4.18657 121.266 4.41936 121.371 4.61722C121.487 4.80345 121.644 4.97222 121.842 5.12353C122.052 5.27484 122.29 5.41451 122.558 5.54254C122.837 5.67058 123.14 5.79279 123.466 5.90918C124.036 6.11869 124.542 6.33401 124.985 6.55516C125.439 6.76467 125.817 7.02073 126.12 7.32335C126.434 7.61433 126.672 7.96351 126.835 8.37088C126.998 8.76662 127.08 9.24965 127.08 9.81997C127.08 10.9141 126.69 11.7637 125.91 12.369C125.142 12.9626 124.013 13.2594 122.523 13.2594C122.022 13.2594 121.563 13.2245 121.144 13.1546C120.736 13.0964 120.37 13.0208 120.044 12.9277C119.73 12.8345 119.456 12.7414 119.223 12.6483C118.99 12.5436 118.804 12.4504 118.665 12.369L119.311 10.5707C119.625 10.7453 120.05 10.9199 120.585 11.0945C121.12 11.2691 121.766 11.3564 122.523 11.3564Z" fill="#221207"/>
<path d="M135.443 11.3564C136.235 11.3564 136.811 11.2225 137.172 10.9548C137.532 10.6871 137.713 10.3088 137.713 9.81997C137.713 9.52899 137.649 9.27874 137.521 9.06924C137.404 8.85973 137.23 8.6735 136.997 8.51055C136.776 8.33597 136.502 8.17884 136.176 8.03916C135.851 7.88785 135.478 7.74236 135.059 7.60269C134.64 7.45138 134.233 7.28843 133.837 7.11384C133.453 6.92762 133.11 6.70065 132.807 6.43295C132.516 6.16524 132.277 5.84516 132.091 5.47271C131.917 5.10025 131.829 4.65214 131.829 4.12838C131.829 3.03429 132.208 2.1788 132.964 1.56192C133.721 0.9334 134.751 0.619141 136.054 0.619141C136.811 0.619141 137.48 0.706435 138.062 0.881024C138.656 1.04397 139.121 1.22438 139.459 1.42225L138.778 3.20305C138.382 2.98191 137.946 2.81314 137.468 2.69675C137.003 2.58036 136.52 2.52216 136.019 2.52216C135.426 2.52216 134.96 2.64437 134.623 2.88879C134.297 3.13322 134.134 3.47658 134.134 3.91887C134.134 4.18657 134.186 4.41936 134.291 4.61722C134.407 4.80345 134.564 4.97222 134.762 5.12353C134.972 5.27484 135.21 5.41451 135.478 5.54254C135.757 5.67058 136.06 5.79279 136.386 5.90918C136.956 6.11869 137.463 6.33401 137.905 6.55516C138.359 6.76467 138.737 7.02073 139.04 7.32335C139.354 7.61433 139.593 7.96351 139.756 8.37088C139.919 8.76662 140 9.24965 140 9.81997C140 10.9141 139.61 11.7637 138.83 12.369C138.062 12.9626 136.933 13.2594 135.443 13.2594C134.943 13.2594 134.483 13.2245 134.064 13.1546C133.657 13.0964 133.29 13.0208 132.964 12.9277C132.65 12.8345 132.376 12.7414 132.144 12.6483C131.911 12.5436 131.724 12.4504 131.585 12.369L132.231 10.5707C132.545 10.7453 132.97 10.9199 133.505 11.0945C134.041 11.2691 134.687 11.3564 135.443 11.3564Z" fill="#221207"/>
</g>
<g id="CHOCOLATE BOUTIQUE">
<path d="M20.7467 28.2016C20.39 28.2016 20.0699 28.1468 19.7864 28.037C19.5029 27.9273 19.2629 27.7673 19.0662 27.5569C18.8696 27.342 18.7187 27.0814 18.6136 26.775C18.5084 26.4686 18.4558 26.1166 18.4558 25.7187C18.4558 25.3209 18.5153 24.9688 18.6341 24.6625C18.7576 24.3561 18.9245 24.0978 19.1348 23.8874C19.3452 23.6725 19.5921 23.5102 19.8756 23.4005C20.1591 23.2907 20.4632 23.2358 20.7878 23.2358C20.9844 23.2358 21.1628 23.2518 21.3228 23.2839C21.4828 23.3113 21.6223 23.3433 21.7412 23.3799C21.8601 23.4165 21.9584 23.4553 22.0361 23.4965C22.1139 23.5376 22.1687 23.5674 22.2007 23.5856L21.947 24.2921C21.8372 24.2235 21.6795 24.1595 21.4737 24.1001C21.2725 24.036 21.053 24.004 20.8153 24.004C20.6095 24.004 20.4174 24.0406 20.2391 24.1138C20.0608 24.1824 19.9053 24.2875 19.7727 24.4293C19.6447 24.571 19.5441 24.7494 19.4709 24.9643C19.3978 25.1792 19.3612 25.4284 19.3612 25.7119C19.3612 25.9634 19.3886 26.1943 19.4435 26.4046C19.5029 26.615 19.5921 26.7979 19.711 26.9533C19.8299 27.1042 19.9808 27.2231 20.1637 27.31C20.3466 27.3923 20.566 27.4335 20.8221 27.4335C21.1285 27.4335 21.3777 27.4037 21.5697 27.3443C21.7618 27.2803 21.9104 27.2208 22.0156 27.166L22.2488 27.8724C22.1939 27.909 22.1184 27.9456 22.0224 27.9822C21.931 28.0187 21.8212 28.0553 21.6932 28.0919C21.5652 28.1239 21.4211 28.1491 21.2611 28.1673C21.101 28.1902 20.9296 28.2016 20.7467 28.2016Z" fill="#221207"/>
<path d="M27.5143 23.3456H28.3785V28.0988H27.5143V25.9931H25.4497V28.0988H24.5855V23.3456H25.4497V25.2455H27.5143V23.3456Z" fill="#221207"/>
<path d="M31.7993 25.7187C31.7993 25.9794 31.8313 26.2172 31.8953 26.4321C31.9594 26.6424 32.0508 26.823 32.1697 26.9739C32.2932 27.1202 32.4418 27.2345 32.6155 27.3169C32.7893 27.3992 32.9859 27.4403 33.2054 27.4403C33.4203 27.4403 33.6146 27.3992 33.7884 27.3169C33.9621 27.2345 34.1085 27.1202 34.2273 26.9739C34.3508 26.823 34.4445 26.6424 34.5086 26.4321C34.5726 26.2172 34.6046 25.9794 34.6046 25.7187C34.6046 25.4581 34.5726 25.2226 34.5086 25.0123C34.4445 24.7974 34.3508 24.6168 34.2273 24.4704C34.1085 24.3195 33.9621 24.2029 33.7884 24.1206C33.6146 24.0383 33.4203 23.9972 33.2054 23.9972C32.9859 23.9972 32.7893 24.0383 32.6155 24.1206C32.4418 24.2029 32.2932 24.3195 32.1697 24.4704C32.0508 24.6213 31.9594 24.8019 31.8953 25.0123C31.8313 25.2226 31.7993 25.4581 31.7993 25.7187ZM35.51 25.7187C35.51 26.1257 35.4482 26.4846 35.3248 26.7956C35.2059 27.1065 35.0413 27.3672 34.8309 27.5775C34.6252 27.7833 34.3828 27.9387 34.1039 28.0439C33.825 28.1491 33.5277 28.2016 33.2122 28.2016C32.8967 28.2016 32.5972 28.1491 32.3137 28.0439C32.0348 27.9387 31.7902 27.7833 31.5798 27.5775C31.3741 27.3672 31.2095 27.1065 31.086 26.7956C30.9625 26.4846 30.9008 26.1257 30.9008 25.7187C30.9008 25.3118 30.9625 24.9551 31.086 24.6488C31.2095 24.3378 31.3764 24.0772 31.5867 23.8669C31.8016 23.6565 32.0485 23.4988 32.3274 23.3936C32.6064 23.2884 32.9013 23.2358 33.2122 23.2358C33.5232 23.2358 33.8181 23.2884 34.097 23.3936C34.376 23.4988 34.6183 23.6565 34.8241 23.8669C35.0344 24.0772 35.2013 24.3378 35.3248 24.6488C35.4482 24.9551 35.51 25.3118 35.51 25.7187Z" fill="#221207"/>
<path d="M40.1481 28.2016C39.7914 28.2016 39.4713 28.1468 39.1878 28.037C38.9043 27.9273 38.6643 27.7673 38.4677 27.5569C38.271 27.342 38.1202 27.0814 38.015 26.775C37.9098 26.4686 37.8572 26.1166 37.8572 25.7187C37.8572 25.3209 37.9167 24.9688 38.0356 24.6625C38.159 24.3561 38.3259 24.0978 38.5363 23.8874C38.7466 23.6725 38.9935 23.5102 39.277 23.4005C39.5605 23.2907 39.8646 23.2358 40.1892 23.2358C40.3859 23.2358 40.5642 23.2518 40.7242 23.2839C40.8843 23.3113 41.0237 23.3433 41.1426 23.3799C41.2615 23.4165 41.3598 23.4553 41.4375 23.4965C41.5153 23.5376 41.5702 23.5674 41.6022 23.5856L41.3484 24.2921C41.2386 24.2235 41.0809 24.1595 40.8751 24.1001C40.6739 24.036 40.4544 24.004 40.2167 24.004C40.0109 24.004 39.8189 24.0406 39.6405 24.1138C39.4622 24.1824 39.3067 24.2875 39.1741 24.4293C39.0461 24.571 38.9455 24.7494 38.8723 24.9643C38.7992 25.1792 38.7626 25.4284 38.7626 25.7119C38.7626 25.9634 38.79 26.1943 38.8449 26.4046C38.9043 26.615 38.9935 26.7979 39.1124 26.9533C39.2313 27.1042 39.3822 27.2231 39.5651 27.31C39.748 27.3923 39.9675 27.4335 40.2235 27.4335C40.5299 27.4335 40.7791 27.4037 40.9711 27.3443C41.1632 27.2803 41.3118 27.2208 41.417 27.166L41.6502 27.8724C41.5953 27.909 41.5199 27.9456 41.4238 27.9822C41.3324 28.0187 41.2226 28.0553 41.0946 28.0919C40.9666 28.1239 40.8225 28.1491 40.6625 28.1673C40.5025 28.1902 40.331 28.2016 40.1481 28.2016Z" fill="#221207"/>
<path d="M44.5728 25.7187C44.5728 25.9794 44.6049 26.2172 44.6689 26.4321C44.7329 26.6424 44.8243 26.823 44.9432 26.9739C45.0667 27.1202 45.2153 27.2345 45.389 27.3169C45.5628 27.3992 45.7594 27.4403 45.9789 27.4403C46.1938 27.4403 46.3881 27.3992 46.5619 27.3169C46.7357 27.2345 46.882 27.1202 47.0009 26.9739C47.1243 26.823 47.2181 26.6424 47.2821 26.4321C47.3461 26.2172 47.3781 25.9794 47.3781 25.7187C47.3781 25.4581 47.3461 25.2226 47.2821 25.0123C47.2181 24.7974 47.1243 24.6168 47.0009 24.4704C46.882 24.3195 46.7357 24.2029 46.5619 24.1206C46.3881 24.0383 46.1938 23.9972 45.9789 23.9972C45.7594 23.9972 45.5628 24.0383 45.389 24.1206C45.2153 24.2029 45.0667 24.3195 44.9432 24.4704C44.8243 24.6213 44.7329 24.8019 44.6689 25.0123C44.6049 25.2226 44.5728 25.4581 44.5728 25.7187ZM48.2835 25.7187C48.2835 26.1257 48.2217 26.4846 48.0983 26.7956C47.9794 27.1065 47.8148 27.3672 47.6045 27.5775C47.3987 27.7833 47.1563 27.9387 46.8774 28.0439C46.5985 28.1491 46.3013 28.2016 45.9858 28.2016C45.6703 28.2016 45.3708 28.1491 45.0873 28.0439C44.8083 27.9387 44.5637 27.7833 44.3534 27.5775C44.1476 27.3672 43.983 27.1065 43.8595 26.7956C43.7361 26.4846 43.6743 26.1257 43.6743 25.7187C43.6743 25.3118 43.7361 24.9551 43.8595 24.6488C43.983 24.3378 44.1499 24.0772 44.3602 23.8669C44.5751 23.6565 44.822 23.4988 45.101 23.3936C45.3799 23.2884 45.6748 23.2358 45.9858 23.2358C46.2967 23.2358 46.5916 23.2884 46.8706 23.3936C47.1495 23.4988 47.3918 23.6565 47.5976 23.8669C47.8079 24.0772 47.9748 24.3378 48.0983 24.6488C48.2217 24.9551 48.2835 25.3118 48.2835 25.7187Z" fill="#221207"/>
<path d="M53.8133 27.3511V28.0988H50.8091V23.3456H51.6733V27.3511H53.8133Z" fill="#221207"/>
<path d="M59.3797 28.0988C59.3157 27.9113 59.2494 27.7261 59.1808 27.5432C59.1122 27.3603 59.0459 27.1728 58.9819 26.9808H56.9791C56.9151 27.1728 56.8488 27.3626 56.7802 27.5501C56.7162 27.733 56.6522 27.9159 56.5881 28.0988H55.6896C55.868 27.5912 56.0372 27.1225 56.1972 26.6927C56.3572 26.2629 56.5127 25.8559 56.6636 25.4718C56.8191 25.0877 56.9722 24.7219 57.1231 24.3744C57.274 24.0269 57.4295 23.684 57.5895 23.3456H58.4057C58.5658 23.684 58.7212 24.0269 58.8721 24.3744C59.023 24.7219 59.1739 25.0877 59.3248 25.4718C59.4803 25.8559 59.638 26.2629 59.7981 26.6927C59.9627 27.1225 60.1342 27.5912 60.3125 28.0988H59.3797ZM57.9805 24.2647C57.8753 24.507 57.7541 24.8019 57.617 25.1495C57.4844 25.497 57.3449 25.8742 57.1986 26.2812H58.7624C58.6161 25.8742 58.4743 25.4947 58.3372 25.1426C58.2 24.7905 58.0811 24.4979 57.9805 24.2647Z" fill="#221207"/>
<path d="M65.4152 23.3456V24.0932H63.9542V28.0988H63.0831V24.0932H61.6222V23.3456H65.4152Z" fill="#221207"/>
<path d="M67.6518 28.0988V23.3456H70.704V24.0795H68.5161V25.2523H70.464V25.9725H68.5161V27.3649H70.8686V28.0988H67.6518Z" fill="#221207"/>
<path d="M77.8601 28.1536C77.6086 28.1536 77.3548 28.1445 77.0988 28.1262C76.8427 28.1125 76.6187 28.0805 76.4266 28.0302V23.4142C76.5272 23.3959 76.6347 23.3799 76.749 23.3662C76.8633 23.3479 76.9799 23.3342 77.0988 23.325C77.2177 23.3159 77.3343 23.309 77.4486 23.3044C77.5675 23.2999 77.6795 23.2976 77.7847 23.2976C78.0727 23.2976 78.3402 23.3204 78.5871 23.3662C78.8341 23.4073 79.0467 23.4782 79.225 23.5788C79.4079 23.6794 79.5497 23.812 79.6503 23.9766C79.7509 24.1412 79.8012 24.3447 79.8012 24.587C79.8012 24.8111 79.7463 25.0031 79.6365 25.1632C79.5314 25.3232 79.3828 25.4512 79.1907 25.5473C79.4788 25.6433 79.6914 25.785 79.8286 25.9725C79.9658 26.16 80.0344 26.3978 80.0344 26.6858C80.0344 27.1751 79.856 27.5432 79.4994 27.7901C79.1427 28.0325 78.5963 28.1536 77.8601 28.1536ZM77.2771 25.9588V27.406C77.3731 27.4152 77.476 27.422 77.5858 27.4266C77.6955 27.4312 77.7961 27.4335 77.8875 27.4335C78.0659 27.4335 78.2305 27.422 78.3814 27.3992C78.5368 27.3763 78.6694 27.3374 78.7792 27.2826C78.8935 27.2231 78.9827 27.1454 79.0467 27.0494C79.1153 26.9533 79.1496 26.8299 79.1496 26.679C79.1496 26.4092 79.0513 26.2217 78.8546 26.1166C78.658 26.0114 78.3859 25.9588 78.0384 25.9588H77.2771ZM77.2771 25.2798H77.8875C78.2168 25.2798 78.4751 25.2341 78.6626 25.1426C78.8501 25.0466 78.9438 24.8774 78.9438 24.635C78.9438 24.4064 78.8455 24.2441 78.6489 24.1481C78.4568 24.052 78.2053 24.004 77.8944 24.004C77.7618 24.004 77.6429 24.0063 77.5377 24.0109C77.4371 24.0155 77.3503 24.0223 77.2771 24.0315V25.2798Z" fill="#221207"/>
<path d="M83.2184 25.7187C83.2184 25.9794 83.2504 26.2172 83.3144 26.4321C83.3784 26.6424 83.4699 26.823 83.5888 26.9739C83.7122 27.1202 83.8609 27.2345 84.0346 27.3169C84.2084 27.3992 84.405 27.4403 84.6245 27.4403C84.8394 27.4403 85.0337 27.3992 85.2075 27.3169C85.3812 27.2345 85.5276 27.1202 85.6464 26.9739C85.7699 26.823 85.8636 26.6424 85.9277 26.4321C85.9917 26.2172 86.0237 25.9794 86.0237 25.7187C86.0237 25.4581 85.9917 25.2226 85.9277 25.0123C85.8636 24.7974 85.7699 24.6168 85.6464 24.4704C85.5276 24.3195 85.3812 24.2029 85.2075 24.1206C85.0337 24.0383 84.8394 23.9972 84.6245 23.9972C84.405 23.9972 84.2084 24.0383 84.0346 24.1206C83.8609 24.2029 83.7122 24.3195 83.5888 24.4704C83.4699 24.6213 83.3784 24.8019 83.3144 25.0123C83.2504 25.2226 83.2184 25.4581 83.2184 25.7187ZM86.929 25.7187C86.929 26.1257 86.8673 26.4846 86.7439 26.7956C86.625 27.1065 86.4604 27.3672 86.25 27.5775C86.0443 27.7833 85.8019 27.9387 85.523 28.0439C85.2441 28.1491 84.9468 28.2016 84.6313 28.2016C84.3158 28.2016 84.0163 28.1491 83.7328 28.0439C83.4539 27.9387 83.2093 27.7833 82.9989 27.5775C82.7932 27.3672 82.6285 27.1065 82.5051 26.7956C82.3816 26.4846 82.3199 26.1257 82.3199 25.7187C82.3199 25.3118 82.3816 24.9551 82.5051 24.6488C82.6285 24.3378 82.7954 24.0772 83.0058 23.8669C83.2207 23.6565 83.4676 23.4988 83.7465 23.3936C84.0255 23.2884 84.3204 23.2358 84.6313 23.2358C84.9423 23.2358 85.2372 23.2884 85.5161 23.3936C85.7951 23.4988 86.0374 23.6565 86.2432 23.8669C86.4535 24.0772 86.6204 24.3378 86.7439 24.6488C86.8673 24.9551 86.929 25.3118 86.929 25.7187Z" fill="#221207"/>
<path d="M91.286 28.2016C90.9613 28.2016 90.6824 28.1559 90.4492 28.0645C90.216 27.9684 90.0217 27.8358 89.8662 27.6667C89.7153 27.4975 89.6033 27.2986 89.5301 27.0699C89.4569 26.8413 89.4204 26.5898 89.4204 26.3155V23.3456H90.2914V26.2332C90.2914 26.4481 90.3143 26.6333 90.36 26.7887C90.4103 26.9396 90.4789 27.0631 90.5658 27.1591C90.6572 27.2551 90.7624 27.326 90.8813 27.3717C91.0048 27.4174 91.1419 27.4403 91.2928 27.4403C91.4437 27.4403 91.5809 27.4174 91.7044 27.3717C91.8278 27.326 91.933 27.2551 92.0199 27.1591C92.1113 27.0631 92.1799 26.9396 92.2256 26.7887C92.2759 26.6333 92.3011 26.4481 92.3011 26.2332V23.3456H93.1721V26.3155C93.1721 26.5898 93.1333 26.8413 93.0555 27.0699C92.9824 27.2986 92.8681 27.4975 92.7126 27.6667C92.5617 27.8358 92.3674 27.9684 92.1296 28.0645C91.8918 28.1559 91.6106 28.2016 91.286 28.2016Z" fill="#221207"/>
<path d="M99.1676 23.3456V24.0932H97.7067V28.0988H96.8356V24.0932H95.3747V23.3456H99.1676Z" fill="#221207"/>
<path d="M101.404 23.3456H102.269V28.0988H101.404V23.3456Z" fill="#221207"/>
<path d="M105.691 25.7187C105.691 25.9794 105.723 26.2172 105.787 26.4321C105.851 26.6424 105.943 26.823 106.061 26.9739C106.185 27.1202 106.333 27.2345 106.507 27.3169C106.681 27.3992 106.878 27.4403 107.097 27.4403C107.312 27.4403 107.506 27.3992 107.68 27.3169C107.854 27.2345 108 27.1202 108.119 26.9739C108.243 26.823 108.336 26.6424 108.4 26.4321C108.464 26.2172 108.496 25.9794 108.496 25.7187C108.496 25.4581 108.464 25.2226 108.4 25.0123C108.336 24.7974 108.243 24.6168 108.119 24.4704C108 24.3195 107.854 24.2029 107.68 24.1206C107.506 24.0383 107.312 23.9972 107.097 23.9972C106.878 23.9972 106.681 24.0383 106.507 24.1206C106.333 24.2029 106.185 24.3195 106.061 24.4704C105.943 24.6213 105.851 24.8019 105.787 25.0123C105.723 25.2226 105.691 25.4581 105.691 25.7187ZM109.402 25.7187C109.402 26.0617 109.358 26.3703 109.271 26.6447C109.184 26.919 109.063 27.1591 108.908 27.3649C108.752 27.5661 108.569 27.7307 108.359 27.8587C108.153 27.9867 107.927 28.0782 107.68 28.1331C107.694 28.2291 107.742 28.3114 107.824 28.38C107.906 28.4486 108.009 28.5057 108.133 28.5514C108.261 28.5972 108.405 28.6338 108.565 28.6612C108.729 28.6932 108.901 28.7161 109.079 28.7298L108.887 29.3814C108.297 29.3356 107.829 29.2213 107.481 29.0384C107.134 28.8601 106.912 28.5743 106.816 28.1811C106.532 28.1536 106.267 28.0805 106.02 27.9616C105.778 27.8427 105.565 27.6804 105.382 27.4746C105.199 27.2688 105.055 27.0196 104.95 26.727C104.845 26.4343 104.793 26.0983 104.793 25.7187C104.793 25.3118 104.854 24.9551 104.978 24.6488C105.101 24.3378 105.268 24.0772 105.478 23.8669C105.693 23.6565 105.94 23.4988 106.219 23.3936C106.498 23.2884 106.793 23.2358 107.104 23.2358C107.415 23.2358 107.71 23.2884 107.989 23.3936C108.268 23.4988 108.51 23.6565 108.716 23.8669C108.926 24.0772 109.093 24.3378 109.216 24.6488C109.34 24.9551 109.402 25.3118 109.402 25.7187Z" fill="#221207"/>
<path d="M113.759 28.2016C113.434 28.2016 113.155 28.1559 112.922 28.0645C112.689 27.9684 112.494 27.8358 112.339 27.6667C112.188 27.4975 112.076 27.2986 112.003 27.0699C111.93 26.8413 111.893 26.5898 111.893 26.3155V23.3456H112.764V26.2332C112.764 26.4481 112.787 26.6333 112.833 26.7887C112.883 26.9396 112.952 27.0631 113.038 27.1591C113.13 27.2551 113.235 27.326 113.354 27.3717C113.477 27.4174 113.615 27.4403 113.765 27.4403C113.916 27.4403 114.054 27.4174 114.177 27.3717C114.3 27.326 114.406 27.2551 114.492 27.1591C114.584 27.0631 114.653 26.9396 114.698 26.7887C114.749 26.6333 114.774 26.4481 114.774 26.2332V23.3456H115.645V26.3155C115.645 26.5898 115.606 26.8413 115.528 27.0699C115.455 27.2986 115.341 27.4975 115.185 27.6667C115.034 27.8358 114.84 27.9684 114.602 28.0645C114.364 28.1559 114.083 28.2016 113.759 28.2016Z" fill="#221207"/>
<path d="M118.327 28.0988V23.3456H121.38V24.0795H119.192V25.2523H121.14V25.9725H119.192V27.3649H121.544V28.0988H118.327Z" fill="#221207"/>
</g>
</g>
</svg>
