<svg width="40" height="40" viewBox="0 0 40 40" fill="none" xmlns="http://www.w3.org/2000/svg">
<path d="M31.667 28.3334V31.3334C31.667 32.4379 30.7716 33.3334 29.667 33.3334H27.0003C25.8958 33.3334 25.0003 32.4379 25.0003 31.3334V28.3334M31.667 28.3334V28.3334C32.5875 28.3334 33.3337 27.5872 33.3337 26.6667V19.5694C33.3337 18.8119 32.9057 18.1194 32.2281 17.7806L30.0003 16.6667M31.667 28.3334H25.0003M8.33366 28.3334V28.3334C7.41318 28.3334 6.66699 27.5872 6.66699 26.6667V19.5694C6.66699 18.8119 7.095 18.1194 7.77257 17.7806L10.0003 16.6667M8.33366 28.3334V31.3334C8.33366 32.4379 9.22909 33.3334 10.3337 33.3334H13.0003C14.1049 33.3334 15.0003 32.4379 15.0003 31.3334V28.3334M8.33366 28.3334H15.0003M15.0003 28.3334H25.0003M10.0003 16.6667L11.3454 9.94114C11.5324 9.00629 12.3532 8.33337 13.3066 8.33337H26.6941C27.6474 8.33337 28.4682 9.00629 28.6552 9.94114L30.0003 16.6667M10.0003 16.6667H30.0003M28.3337 21.6667H26.667M11.667 21.6667H13.3337" stroke="black" stroke-width="1.5" stroke-linecap="round" stroke-linejoin="round"/>
</svg>
