<svg width="56" height="57" viewBox="0 0 56 57" fill="none" xmlns="http://www.w3.org/2000/svg">
<rect y="0.667969" width="56" height="56" rx="8" fill="white" fill-opacity="0.6"/>
<path d="M22 38.668H34C34.5304 38.668 35.0391 38.4573 35.4142 38.0822C35.7893 37.7071 36 37.1984 36 36.668V20.668C36 20.1375 35.7893 19.6288 35.4142 19.2538C35.0391 18.8787 34.5304 18.668 34 18.668H22C21.4696 18.668 20.9609 18.8787 20.5858 19.2538C20.2107 19.6288 20 20.1375 20 20.668V36.668C20 37.1984 20.2107 37.7071 20.5858 38.0822C20.9609 38.4573 21.4696 38.668 22 38.668ZM25 35.668H23V33.668H25V35.668ZM25 31.668H23V29.668H25V31.668ZM25 27.668H23V25.668H25V27.668ZM29 35.668H27V33.668H29V35.668ZM29 31.668H27V29.668H29V31.668ZM29 27.668H27V25.668H29V27.668ZM33 35.668H31V29.668H33V35.668ZM33 27.668H31V25.668H33V27.668ZM22 20.668H34V23.668H22V20.668Z" fill="#374653"/>
</svg>
