<svg width="40" height="40" viewBox="0 0 40 40" fill="none" xmlns="http://www.w3.org/2000/svg">
<path d="M28.6804 21.7624C29.1623 20.457 29.4499 19.1232 29.4499 17.8001C29.4499 14.9358 28.312 12.1887 26.2866 10.1633C24.2612 8.13787 21.5141 7 18.6497 7C15.7854 7 13.0383 8.13787 11.0129 10.1633C8.98748 12.1887 7.84961 14.9358 7.84961 17.8001C7.84961 24.5408 15.3274 31.5609 17.8384 33.729C18.0723 33.9049 18.3571 34 18.6497 34C18.9424 34 19.2272 33.9049 19.4611 33.729C19.8325 33.4076 20.1984 33.08 20.5587 32.7462M24.0498 28.6003L26.7498 31.3003L32.1499 25.9002M22.6998 17.8001C22.6998 20.0369 20.8865 21.8502 18.6497 21.8502C16.413 21.8502 14.5997 20.0369 14.5997 17.8001C14.5997 15.5634 16.413 13.7501 18.6497 13.7501C20.8865 13.7501 22.6998 15.5634 22.6998 17.8001Z" stroke="black" stroke-width="1.5" stroke-linecap="round" stroke-linejoin="round"/>
</svg>
