<svg width="50" height="50" viewBox="0 0 50 50" fill="none" xmlns="http://www.w3.org/2000/svg">
<circle cx="25" cy="25" r="25" fill="white"/>
<path d="M22.375 17.2059L34.5835 23.5584C34.8472 23.6957 35.0683 23.9026 35.2225 24.1568C35.3768 24.411 35.4584 24.7026 35.4584 24.9999C35.4584 25.2972 35.3768 25.5889 35.2225 25.843C35.0683 26.0972 34.8472 26.3042 34.5835 26.4414L22.375 32.7939C22.1273 32.9228 21.8506 32.9857 21.5716 32.9765C21.2925 32.9673 21.0205 32.8864 20.7819 32.7415C20.5432 32.5966 20.3459 32.3927 20.2089 32.1494C20.072 31.9061 20 31.6316 20 31.3524V18.6474C19.9999 18.3776 20.067 18.112 20.1953 17.8746C20.3235 17.6372 20.5088 17.4355 20.7345 17.2877C20.9602 17.1398 21.2192 17.0505 21.488 17.0278C21.7569 17.005 22.0272 17.0496 22.2745 17.1574L22.375 17.2059Z" fill="black"/>
</svg>
