<svg width="50" height="50" viewBox="0 0 50 50" fill="none" xmlns="http://www.w3.org/2000/svg">
<rect width="50" height="50" rx="8" fill="white" fill-opacity="0.5"/>
<path d="M20 27.5H30M20 22.5H22.5M20 32.5H25M22.5 13.75H17.5C16.837 13.75 16.2011 14.0134 15.7322 14.4822C15.2634 14.9511 15 15.587 15 16.25V35C15 35.663 15.2634 36.2989 15.7322 36.7678C16.2011 37.2366 16.837 37.5 17.5 37.5H32.5C33.163 37.5 33.7989 37.2366 34.2678 36.7678C34.7366 36.2989 35 35.663 35 35V16.25C35 15.587 34.7366 14.9511 34.2678 14.4822C33.7989 14.0134 33.163 13.75 32.5 13.75H28.125M22.5 13.75V11.25M22.5 13.75V16.25" stroke="black" stroke-width="2" stroke-linecap="round" stroke-linejoin="round"/>
</svg>
