<svg width="245" height="121" viewBox="0 0 245 121" fill="none" xmlns="http://www.w3.org/2000/svg">
<g filter="url(#filter0_b_103_79)">
<rect y="0.693359" width="245" height="120" rx="10" fill="#F6F6F6" fill-opacity="0.8"/>
</g>
<path d="M49.5389 68.4259H40.7798V30.105H49.5389V46.802L62.0753 30.105H72.5862L58.1884 47.7874L73.7358 68.4259H62.6227L49.5389 50.1961V68.4259Z" fill="#26252A"/>
<path d="M92.7025 58.6815L96.5346 64.7033C94.3813 67.623 91.0237 69.0828 86.4617 69.0828C82.3741 69.0828 79.0895 67.8967 76.6077 65.5245C74.1625 63.1887 72.9399 60.0501 72.9399 56.1085C72.9399 52.4224 74.1442 49.3567 76.553 46.9114C79.0347 44.3932 82.1734 43.1341 85.969 43.1341C90.458 43.1341 93.8156 44.302 96.0419 46.6377L92.2646 53.0975C90.7317 51.5647 88.9799 50.7983 87.0091 50.7983C85.5493 50.7983 84.2902 51.291 83.2318 52.2764C82.2099 53.2618 81.6989 54.5391 81.6989 56.1085C81.6989 57.6778 82.2464 58.9552 83.3413 59.9406C84.5091 60.926 85.7683 61.4187 87.1186 61.4187C89.1259 61.4187 90.9872 60.5063 92.7025 58.6815Z" fill="#26252A"/>
<path d="M118.867 60.488L121.111 66.2909C118.63 68.1522 115.436 69.0828 111.531 69.0828C107.517 69.0828 104.268 67.8967 101.787 65.5245C99.3779 63.1522 98.1735 60.0136 98.1735 56.1085C98.1735 52.3859 99.3961 49.3019 101.841 46.8567C104.323 44.375 107.553 43.1341 111.531 43.1341C114.779 43.1341 117.589 44.229 119.962 46.4188C122.297 48.5355 123.465 51.3092 123.465 54.7399C123.465 56.3822 123.301 57.7508 122.973 58.8457H106.659C107.389 61.1084 109.305 62.2398 112.407 62.2398C114.816 62.2398 116.969 61.6559 118.867 60.488ZM111.257 49.9771C108.849 49.9771 107.225 51.1085 106.385 53.3713H115.254C115.254 52.4224 114.889 51.6194 114.159 50.9625C113.429 50.3056 112.462 49.9771 111.257 49.9771Z" fill="#26252A"/>
<path d="M151.917 68.4259H143.705V59.9406H135.767V68.4259H127.556V43.791H135.767V52.2764H143.705V43.791H151.917V68.4259Z" fill="#26252A"/>
<path d="M174.892 55.561L166.133 68.4259H157.922V43.791H166.133V56.6559L174.892 43.791H183.104V68.4259H174.892V55.561Z" fill="#26252A"/>
<path d="M202.172 43.791H210.657V68.4259H202.446V62.1303H200.475L196.588 68.4259H187.227L193.085 60.3238C190.347 58.8639 188.979 56.4369 188.979 53.0428C188.979 50.1961 190.092 47.9516 192.318 46.3093C194.544 44.6304 197.829 43.791 202.172 43.791ZM197.738 53.6997C197.738 54.3567 198.048 54.9223 198.668 55.3968C199.289 55.8713 200.055 56.1085 200.968 56.1085H202.446V50.9078H200.858C199.982 50.9078 199.234 51.1997 198.614 51.7837C198.03 52.3311 197.738 52.9698 197.738 53.6997Z" fill="#26252A"/>
<path d="M54.3009 87.3329V91.0555H51.7983V80.1066C52.278 80.1066 52.8046 80.1014 53.3781 80.091C53.962 80.0806 54.5512 80.0754 55.1456 80.0754C56.6888 80.0754 57.815 80.4195 58.5241 81.1077C59.2227 81.775 59.572 82.6405 59.572 83.7041C59.572 84.726 59.2018 85.5967 58.4615 86.3162C57.7211 87.0253 56.741 87.3798 55.5209 87.3798C54.9787 87.3798 54.572 87.3642 54.3009 87.3329ZM55.3958 82.4215C55.3854 82.4215 55.3385 82.4268 55.255 82.4372C55.1716 82.4372 55.0413 82.4424 54.864 82.4528C54.6867 82.4528 54.4991 82.4528 54.3009 82.4528V84.9554C54.7389 85.0075 55.1195 85.0336 55.4427 85.0336C55.8703 85.0336 56.2196 84.9241 56.4907 84.7052C56.7722 84.4757 56.913 84.1369 56.913 83.6885C56.913 82.8438 56.4073 82.4215 55.3958 82.4215Z" fill="#26252A"/>
<path d="M64.1072 87.2234V91.0555H61.6046V80.1066C62.199 80.1066 62.8559 80.1014 63.5754 80.091C64.2949 80.0806 64.8789 80.0754 65.3272 80.0754C68.028 80.0754 69.3783 81.2432 69.3783 83.579C69.3783 85.0805 68.7631 86.1337 67.5327 86.7385L70.7235 91.0555H67.6891L65.0301 87.2234H64.1072ZM65.2021 82.4215C65.1917 82.4215 65.1448 82.4268 65.0613 82.4372C64.9779 82.4372 64.8476 82.4424 64.6703 82.4528C64.493 82.4528 64.3054 82.4528 64.1072 82.4528V84.8772H65.0144C66.151 84.8772 66.7193 84.4549 66.7193 83.6103C66.7193 82.8178 66.2136 82.4215 65.2021 82.4215Z" fill="#26252A"/>
<path d="M70.8733 85.5811C70.8733 83.9648 71.4103 82.6197 72.4843 81.5456C73.5688 80.4612 74.9713 79.9189 76.6918 79.9189C78.4019 79.9189 79.794 80.4351 80.868 81.4674C81.9629 82.4997 82.5103 83.871 82.5103 85.5811C82.5103 87.2286 81.9577 88.5842 80.8524 89.6478C79.7575 90.7114 78.3706 91.2432 76.6918 91.2432C74.9921 91.2432 73.5948 90.727 72.5 89.6947C71.4155 88.6624 70.8733 87.2912 70.8733 85.5811ZM73.5323 85.5811C73.5323 86.5091 73.8399 87.2964 74.4551 87.9429C75.0599 88.579 75.8055 88.897 76.6918 88.897C77.6928 88.897 78.4697 88.5894 79.0223 87.9742C79.575 87.3381 79.8513 86.5404 79.8513 85.5811C79.8513 84.5904 79.5489 83.7927 78.9441 83.188C78.3289 82.5727 77.5781 82.2651 76.6918 82.2651C75.7742 82.2651 75.0182 82.5727 74.4238 83.188C73.8295 83.8032 73.5323 84.6009 73.5323 85.5811Z" fill="#26252A"/>
<path d="M85.2132 80.1066H87.7158V88.3808C87.7158 89.3089 87.4655 90.0179 86.965 90.508C86.4645 90.9981 85.7502 91.2432 84.8222 91.2432C84.3946 91.2432 83.9828 91.1702 83.5865 91.0242C83.2007 90.8678 82.9244 90.6853 82.7575 90.4768L83.5709 88.5685C83.8733 88.7875 84.1757 88.897 84.4781 88.897C84.9682 88.897 85.2132 88.5737 85.2132 87.9272V80.1066Z" fill="#26252A"/>
<path d="M97.1823 91.0555H90.5348V80.1066H97.0258V82.4528H93.0373V84.3767H96.5566V86.7229H93.0373V88.7093H97.1823V91.0555Z" fill="#26252A"/>
<path d="M107.102 88.0993L108.056 89.9762C107.722 90.3516 107.227 90.6592 106.57 90.8991C105.924 91.1285 105.23 91.2432 104.49 91.2432C102.79 91.2432 101.408 90.727 100.345 89.6947C99.2812 88.6415 98.7494 87.2703 98.7494 85.5811C98.7494 83.9335 99.25 82.5779 100.251 81.5143C101.252 80.4507 102.66 79.9189 104.474 79.9189C105.162 79.9189 105.804 80.0232 106.398 80.2318C106.992 80.4403 107.467 80.7166 107.821 81.0608L106.711 82.9377C105.981 82.4893 105.235 82.2651 104.474 82.2651C103.588 82.2651 102.853 82.5571 102.269 83.141C101.695 83.7145 101.408 84.5279 101.408 85.5811C101.408 86.5404 101.716 87.3381 102.331 87.9742C102.946 88.5894 103.744 88.897 104.724 88.897C105.6 88.897 106.393 88.6311 107.102 88.0993Z" fill="#26252A"/>
<path d="M111.814 82.4528H108.529V80.1066H117.601V82.4528H114.317V91.0555H111.814V82.4528Z" fill="#26252A"/>
<path d="M124.793 91.0555H122.291V80.1066H124.809L128.187 84.7208L131.378 80.1066H133.74V91.0555H131.237V84.0795L128.187 88.3496H127.828L124.793 84.1264V91.0555Z" fill="#26252A"/>
<path d="M137.668 91.0555H135.149L139.701 80.1066H141.938L146.489 91.0555H143.815L142.907 88.7562H138.575L137.668 91.0555ZM141.969 86.41L140.749 83.3131L139.513 86.41H141.969Z" fill="#26252A"/>
<path d="M157.432 80.1066V91.0555H155.43L150.237 84.4862V91.0555H147.891V80.1066H149.893L155.086 86.7072V80.1066H157.432Z" fill="#26252A"/>
<path d="M161.359 91.0555H158.84L163.392 80.1066H165.629L170.18 91.0555H167.506L166.598 88.7562H162.266L161.359 91.0555ZM165.66 86.41L164.44 83.3131L163.204 86.41H165.66Z" fill="#26252A"/>
<path d="M178.035 87.1608H175.705V84.8146H180.381V89.6947C179.912 90.1639 179.286 90.5393 178.504 90.8209C177.743 91.1024 177.003 91.2432 176.283 91.2432C174.448 91.2432 173.009 90.7322 171.966 89.7103C170.934 88.6884 170.418 87.312 170.418 85.5811C170.418 83.9648 170.924 82.6197 171.935 81.5456C172.957 80.4612 174.302 79.9189 175.971 79.9189C177.41 79.9189 178.603 80.2995 179.552 81.0608L178.504 83.0785C178.285 82.8491 177.962 82.6562 177.535 82.4997C177.118 82.3433 176.695 82.2651 176.268 82.2651C175.298 82.2651 174.521 82.5519 173.937 83.1254C173.364 83.6989 173.077 84.5175 173.077 85.5811C173.077 86.5925 173.369 87.4007 173.953 88.0054C174.547 88.5998 175.334 88.897 176.315 88.897C176.607 88.897 176.935 88.8396 177.3 88.7249C177.644 88.6102 177.889 88.4851 178.035 88.3496V87.1608Z" fill="#26252A"/>
<path d="M189.212 91.0555H182.564V80.1066H189.055V82.4528H185.067V84.3767H188.586V86.7229H185.067V88.7093H189.212V91.0555Z" fill="#26252A"/>
<path d="M194.064 87.2234V91.0555H191.561V80.1066C192.155 80.1066 192.812 80.1014 193.532 80.091C194.251 80.0806 194.835 80.0754 195.284 80.0754C197.984 80.0754 199.335 81.2432 199.335 83.579C199.335 85.0805 198.719 86.1337 197.489 86.7385L200.68 91.0555H197.645L194.986 87.2234H194.064ZM195.158 82.4215C195.148 82.4215 195.101 82.4268 195.018 82.4372C194.934 82.4372 194.804 82.4424 194.627 82.4528C194.449 82.4528 194.262 82.4528 194.064 82.4528V84.8772H194.971C196.107 84.8772 196.676 84.4549 196.676 83.6103C196.676 82.8178 196.17 82.4215 195.158 82.4215Z" fill="#26252A"/>
<defs>
<filter id="filter0_b_103_79" x="-20" y="-19.3066" width="285" height="160" filterUnits="userSpaceOnUse" color-interpolation-filters="sRGB">
<feFlood flood-opacity="0" result="BackgroundImageFix"/>
<feGaussianBlur in="BackgroundImageFix" stdDeviation="10"/>
<feComposite in2="SourceAlpha" operator="in" result="effect1_backgroundBlur_103_79"/>
<feBlend mode="normal" in="SourceGraphic" in2="effect1_backgroundBlur_103_79" result="shape"/>
</filter>
</defs>
</svg>
