<svg width="54" height="51" viewBox="0 0 54 51" fill="none" xmlns="http://www.w3.org/2000/svg">
<path d="M49.4664 29.33C52.4888 29.33 54 30.8633 54 33.9298V46.4002C54 49.4667 52.4888 51 49.4664 51H37.7799C34.7575 51 33.2463 49.4667 33.2463 46.4002V33.9298C33.2463 26.7746 33.9851 20.5394 35.4627 15.2241C37.0075 9.84069 39.9963 5.13872 44.4291 1.11819C45.9067 -0.176556 47.1493 -0.346918 48.1567 0.607106L52.6903 4.90021C53.6978 5.85424 53.4627 7.01269 51.9851 8.37558C49.7015 10.4199 47.8209 13.3842 46.3433 17.2684C44.9328 21.0845 44.2276 25.1051 44.2276 29.33H49.4664ZM16.2201 29.33C19.2425 29.33 20.7537 30.8633 20.7537 33.9298V46.4002C20.7537 49.4667 19.2425 51 16.2201 51H4.53358C1.51119 51 0 49.4667 0 46.4002V33.9298C0 26.7746 0.738806 20.5394 2.21642 15.2241C3.76119 9.84069 6.75 5.13872 11.1828 1.11819C12.6604 -0.176556 13.903 -0.346918 14.9104 0.607106L19.444 4.90021C20.4515 5.85424 20.2164 7.01269 18.7388 8.37558C16.4552 10.4199 14.5746 13.3842 13.097 17.2684C11.6866 21.0845 10.9813 25.1051 10.9813 29.33H16.2201Z" fill="#A4E6EF"/>
</svg>
