<svg width="64" height="64" viewBox="0 0 64 64" fill="none" xmlns="http://www.w3.org/2000/svg">
<rect width="64" height="64" rx="10" fill="#BED194"/>
<path d="M28.25 31.5006L30.75 34.0006L35.75 29.0006M42 32.7506C42 39.0006 37.625 42.1256 32.425 43.9381C32.1527 44.0303 31.8569 44.0259 31.5875 43.9256C26.375 42.1256 22 39.0006 22 32.7506V24.0006C22 23.669 22.1317 23.3511 22.3661 23.1167C22.6005 22.8823 22.9185 22.7506 23.25 22.7506C25.75 22.7506 28.875 21.2506 31.05 19.3506C31.3148 19.1243 31.6517 19 32 19C32.3483 19 32.6852 19.1243 32.95 19.3506C35.1375 21.2631 38.25 22.7506 40.75 22.7506C41.0815 22.7506 41.3995 22.8823 41.6339 23.1167C41.8683 23.3511 42 23.669 42 24.0006V32.7506Z" stroke="#2D361E" stroke-width="2.5" stroke-linecap="round" stroke-linejoin="round"/>
</svg>
