<svg width="330" height="315" viewBox="0 0 330 315" fill="none" xmlns="http://www.w3.org/2000/svg">
<rect x="0.5" y="0.5" width="179" height="179" rx="89.5" stroke="#E66366"/>
<path d="M78.948 82V65.284H75.812L76.904 63.324H81.02V82H78.948ZM88.2315 81.86C87.9515 81.58 87.8115 81.2533 87.8115 80.88C87.8115 80.5067 87.9515 80.18 88.2315 79.9C88.5115 79.62 88.8382 79.48 89.2115 79.48C89.5849 79.48 89.9115 79.62 90.1915 79.9C90.4715 80.18 90.6115 80.5067 90.6115 80.88C90.6115 81.2533 90.4715 81.58 90.1915 81.86C89.9115 82.14 89.5849 82.28 89.2115 82.28C88.8382 82.28 88.5115 82.14 88.2315 81.86ZM105.803 63.324V65.228H99.8106L98.6066 69.26C98.924 69.1853 99.316 69.148 99.7826 69.148C101.631 69.148 103.115 69.764 104.235 70.996C105.373 72.228 105.943 73.768 105.943 75.616C105.943 77.632 105.28 79.256 103.955 80.488C102.648 81.72 101.043 82.336 99.1386 82.336C97.5333 82.336 96.1426 81.8507 94.9666 80.88C94.2946 80.3013 93.7533 79.6667 93.3426 78.976L94.9946 77.8C95.2746 78.36 95.6946 78.864 96.2546 79.312C97.1693 80.0587 98.1773 80.432 99.2786 80.432C100.585 80.432 101.677 79.9653 102.555 79.032C103.432 78.0987 103.871 76.9693 103.871 75.644C103.871 74.3 103.432 73.1987 102.555 72.34C101.696 71.4813 100.604 71.052 99.2786 71.052C98.1026 71.052 96.8986 71.4813 95.6666 72.34L98.3826 63.324H105.803Z" fill="#E66366"/>
<path d="M72.8549 104V96.53H77.2829V97.718H74.1509V104H72.8549ZM84.5166 103.1C83.7726 103.844 82.8306 104.216 81.6906 104.216C80.5506 104.216 79.6026 103.844 78.8466 103.1C78.1026 102.356 77.7306 101.42 77.7306 100.292C77.7306 99.152 78.1026 98.21 78.8466 97.466C79.6026 96.722 80.5506 96.35 81.6906 96.35C82.8306 96.35 83.7726 96.722 84.5166 97.466C85.2726 98.21 85.6506 99.152 85.6506 100.292C85.6506 101.42 85.2726 102.356 84.5166 103.1ZM83.5446 98.24C83.0406 97.748 82.4226 97.502 81.6906 97.502C80.9586 97.502 80.3346 97.754 79.8186 98.258C79.3146 98.75 79.0626 99.428 79.0626 100.292C79.0626 101.156 79.3206 101.834 79.8366 102.326C80.3526 102.818 80.9706 103.064 81.6906 103.064C82.4106 103.064 83.0286 102.818 83.5446 102.326C84.0606 101.834 84.3186 101.156 84.3186 100.292C84.3186 99.416 84.0606 98.732 83.5446 98.24ZM88.1781 96.53H93.4341V102.812H94.5501V105.98H93.3621V104H87.6741V105.98H86.4861V102.812C87.1101 102.8 87.5721 102.476 87.8721 101.84C88.0761 101.42 88.1781 100.76 88.1781 99.86V96.53ZM92.1381 102.812V97.718H89.4741V100.526C89.4741 101.522 89.1741 102.284 88.5741 102.812H92.1381ZM101.641 97.592V96.53H102.937V104H101.641V102.956C100.993 103.796 100.141 104.216 99.0854 104.216C98.0774 104.216 97.2194 103.868 96.5114 103.172C95.8034 102.476 95.4494 101.504 95.4494 100.256C95.4494 99.032 95.7974 98.078 96.4934 97.394C97.2014 96.698 98.0654 96.35 99.0854 96.35C100.165 96.35 101.017 96.764 101.641 97.592ZM99.2294 97.502C98.5454 97.502 97.9634 97.748 97.4834 98.24C97.0154 98.72 96.7814 99.392 96.7814 100.256C96.7814 101.084 96.9974 101.762 97.4294 102.29C97.8734 102.806 98.4734 103.064 99.2294 103.064C99.9854 103.064 100.585 102.794 101.029 102.254C101.485 101.714 101.713 101.054 101.713 100.274C101.713 99.386 101.461 98.702 100.957 98.222C100.453 97.742 99.8774 97.502 99.2294 97.502ZM65.5112 120.956V126.14H64.2152V114.53H65.5112V115.574C66.1712 114.758 67.0232 114.35 68.0672 114.35C69.1832 114.35 70.0652 114.746 70.7132 115.538C71.3732 116.318 71.7032 117.242 71.7032 118.31C71.7032 119.39 71.3792 120.314 70.7312 121.082C70.0832 121.838 69.2132 122.216 68.1212 122.216C67.0292 122.216 66.1592 121.796 65.5112 120.956ZM67.9412 121.064C68.6732 121.064 69.2612 120.8 69.7052 120.272C70.1492 119.732 70.3712 119.078 70.3712 118.31C70.3712 117.446 70.1252 116.762 69.6332 116.258C69.1412 115.754 68.5712 115.502 67.9232 115.502C67.2752 115.502 66.6992 115.754 66.1952 116.258C65.6912 116.762 65.4392 117.44 65.4392 118.292C65.4392 119.072 65.6672 119.732 66.1232 120.272C66.5912 120.8 67.1972 121.064 67.9412 121.064ZM79.4138 115.592V114.53H80.7098V122H79.4138V120.956C78.7658 121.796 77.9138 122.216 76.8578 122.216C75.8498 122.216 74.9918 121.868 74.2838 121.172C73.5758 120.476 73.2218 119.504 73.2218 118.256C73.2218 117.032 73.5698 116.078 74.2658 115.394C74.9738 114.698 75.8378 114.35 76.8578 114.35C77.9378 114.35 78.7898 114.764 79.4138 115.592ZM77.0018 115.502C76.3178 115.502 75.7358 115.748 75.2558 116.24C74.7878 116.72 74.5538 117.392 74.5538 118.256C74.5538 119.084 74.7698 119.762 75.2018 120.29C75.6458 120.806 76.2458 121.064 77.0018 121.064C77.7578 121.064 78.3578 120.794 78.8018 120.254C79.2578 119.714 79.4858 119.054 79.4858 118.274C79.4858 117.386 79.2338 116.702 78.7298 116.222C78.2258 115.742 77.6498 115.502 77.0018 115.502ZM88.9244 109.4H90.3644C90.2324 109.844 90.0044 110.222 89.6804 110.534C89.3684 110.834 89.0804 111.038 88.8164 111.146C88.5644 111.254 88.2644 111.35 87.9164 111.434C87.8564 111.446 87.7124 111.482 87.4844 111.542C87.2564 111.59 87.0824 111.632 86.9624 111.668C86.8424 111.704 86.6864 111.752 86.4944 111.812C86.3024 111.872 86.1284 111.944 85.9724 112.028C85.8164 112.112 85.6724 112.202 85.5404 112.298C85.0844 112.646 84.7124 113.132 84.4244 113.756C84.1484 114.368 83.9984 115.022 83.9744 115.718H84.0104C84.5504 114.806 85.4564 114.35 86.7284 114.35C87.8444 114.35 88.7684 114.728 89.5004 115.484C90.2444 116.24 90.6164 117.176 90.6164 118.292C90.6164 119.42 90.2384 120.356 89.4824 121.1C88.7264 121.844 87.7424 122.216 86.5304 122.216C85.4864 122.216 84.6284 121.904 83.9564 121.28C83.1164 120.512 82.6964 119.228 82.6964 117.428C82.6964 114.296 83.4044 112.244 84.8204 111.272C84.9284 111.2 85.0424 111.134 85.1624 111.074C85.2824 111.002 85.4084 110.942 85.5404 110.894C85.6844 110.834 85.8044 110.786 85.9004 110.75C85.9964 110.702 86.1284 110.66 86.2964 110.624C86.4764 110.576 86.5964 110.546 86.6564 110.534C86.7284 110.51 86.8604 110.48 87.0524 110.444C87.2564 110.396 87.3824 110.366 87.4304 110.354C87.9104 110.246 88.2584 110.12 88.4744 109.976C88.6904 109.82 88.8404 109.628 88.9244 109.4ZM88.5104 116.24C88.0064 115.748 87.3884 115.502 86.6564 115.502C85.9244 115.502 85.3004 115.754 84.7844 116.258C84.2804 116.75 84.0284 117.428 84.0284 118.292C84.0284 119.156 84.2864 119.834 84.8024 120.326C85.3184 120.818 85.9364 121.064 86.6564 121.064C87.3764 121.064 87.9944 120.818 88.5104 120.326C89.0264 119.834 89.2844 119.156 89.2844 118.292C89.2844 117.416 89.0264 116.732 88.5104 116.24ZM98.9219 121.1C98.1779 121.844 97.2359 122.216 96.0959 122.216C94.9559 122.216 94.0079 121.844 93.2519 121.1C92.5079 120.356 92.1359 119.42 92.1359 118.292C92.1359 117.152 92.5079 116.21 93.2519 115.466C94.0079 114.722 94.9559 114.35 96.0959 114.35C97.2359 114.35 98.1779 114.722 98.9219 115.466C99.6779 116.21 100.056 117.152 100.056 118.292C100.056 119.42 99.6779 120.356 98.9219 121.1ZM97.9499 116.24C97.4459 115.748 96.8279 115.502 96.0959 115.502C95.3639 115.502 94.7399 115.754 94.2239 116.258C93.7199 116.75 93.4679 117.428 93.4679 118.292C93.4679 119.156 93.7259 119.834 94.2419 120.326C94.7579 120.818 95.3759 121.064 96.0959 121.064C96.8159 121.064 97.4339 120.818 97.9499 120.326C98.4659 119.834 98.7239 119.156 98.7239 118.292C98.7239 117.416 98.4659 116.732 97.9499 116.24ZM106.764 115.718H104.424V122H103.128V115.718H100.788V114.53H106.764V115.718ZM108.125 122V114.53H109.421V117.392H110.753C111.785 117.392 112.541 117.638 113.021 118.13C113.405 118.514 113.597 119.036 113.597 119.696C113.597 120.392 113.375 120.95 112.931 121.37C112.487 121.79 111.755 122 110.735 122H108.125ZM109.421 120.848H110.627C111.167 120.848 111.551 120.782 111.779 120.65C112.103 120.434 112.265 120.116 112.265 119.696C112.265 119.264 112.109 118.952 111.797 118.76C111.581 118.616 111.197 118.544 110.645 118.544H109.421V120.848ZM114.497 122V114.53H115.793V122H114.497Z" fill="#E66366"/>
<rect x="150.5" y="0.5" width="179" height="179" rx="89.5" stroke="#E66366"/>
<path d="M244.208 62.288V76.568H246.504V78.472H244.208V82H242.136V78.472H232.56L244.208 62.288ZM236.228 76.568H242.136V68.308L236.228 76.568Z" fill="#E66366"/>
<path d="M204.23 108.14L206.606 103.298L203.168 96.53H204.644L207.29 101.876L209.72 96.53H211.16L205.67 108.14H204.23ZM216.348 104V101.066C215.64 101.174 215.052 101.228 214.584 101.228C213.768 101.228 213.162 101.048 212.766 100.688C212.346 100.316 212.136 99.704 212.136 98.852V96.53H213.432V98.672C213.432 99.08 213.486 99.374 213.594 99.554C213.762 99.878 214.14 100.04 214.728 100.04C215.256 100.04 215.796 99.986 216.348 99.878V96.53H217.644V104H216.348ZM225.81 97.592V96.53H227.106V104H225.81V102.956C225.162 103.796 224.31 104.216 223.254 104.216C222.246 104.216 221.388 103.868 220.68 103.172C219.972 102.476 219.618 101.504 219.618 100.256C219.618 99.032 219.966 98.078 220.662 97.394C221.37 96.698 222.234 96.35 223.254 96.35C224.334 96.35 225.186 96.764 225.81 97.592ZM223.398 97.502C222.714 97.502 222.132 97.748 221.652 98.24C221.184 98.72 220.95 99.392 220.95 100.256C220.95 101.084 221.166 101.762 221.598 102.29C222.042 102.806 222.642 103.064 223.398 103.064C224.154 103.064 224.754 102.794 225.198 102.254C225.654 101.714 225.882 101.054 225.882 100.274C225.882 99.386 225.63 98.702 225.126 98.222C224.622 97.742 224.046 97.502 223.398 97.502ZM235.411 97.07V98.618C234.823 97.874 234.043 97.502 233.071 97.502C232.339 97.502 231.715 97.754 231.199 98.258C230.683 98.75 230.425 99.428 230.425 100.292C230.425 101.156 230.683 101.834 231.199 102.326C231.715 102.818 232.333 103.064 233.053 103.064C234.013 103.064 234.817 102.674 235.465 101.894V103.442C234.757 103.958 233.965 104.216 233.089 104.216C231.925 104.216 230.965 103.85 230.209 103.118C229.465 102.374 229.093 101.438 229.093 100.31C229.093 99.17 229.471 98.228 230.227 97.484C230.983 96.728 231.937 96.35 233.089 96.35C233.953 96.35 234.727 96.59 235.411 97.07ZM242.349 97.718H240.009V104H238.713V97.718H236.373V96.53H242.349V97.718ZM243.711 104V96.53H245.007V99.59H248.535V96.53H249.831V104H248.535V100.778H245.007V104H243.711ZM252.272 96.53H253.568V101.462L258.68 95.954V104H257.384V99.014L252.272 104.522V96.53ZM261.131 96.53H262.427V99.59L265.451 96.53H267.035L263.795 99.86L267.431 104H265.739L262.823 100.724L262.427 101.102V104H261.131V96.53ZM274.449 97.592V96.53H275.745V104H274.449V102.956C273.801 103.796 272.949 104.216 271.893 104.216C270.885 104.216 270.027 103.868 269.319 103.172C268.611 102.476 268.257 101.504 268.257 100.256C268.257 99.032 268.605 98.078 269.301 97.394C270.009 96.698 270.873 96.35 271.893 96.35C272.973 96.35 273.825 96.764 274.449 97.592ZM272.037 97.502C271.353 97.502 270.771 97.748 270.291 98.24C269.823 98.72 269.589 99.392 269.589 100.256C269.589 101.084 269.805 101.762 270.237 102.29C270.681 102.806 271.281 103.064 272.037 103.064C272.793 103.064 273.393 102.794 273.837 102.254C274.293 101.714 274.521 101.054 274.521 100.274C274.521 99.386 274.269 98.702 273.765 98.222C273.261 97.742 272.685 97.502 272.037 97.502ZM209.452 114.53H210.748V117.59L213.772 114.53H215.356L212.116 117.86L215.752 122H214.06L211.144 118.724L210.748 119.102V122H209.452V114.53ZM223.012 121.1C222.268 121.844 221.326 122.216 220.186 122.216C219.046 122.216 218.098 121.844 217.342 121.1C216.598 120.356 216.226 119.42 216.226 118.292C216.226 117.152 216.598 116.21 217.342 115.466C218.098 114.722 219.046 114.35 220.186 114.35C221.326 114.35 222.268 114.722 223.012 115.466C223.768 116.21 224.146 117.152 224.146 118.292C224.146 119.42 223.768 120.356 223.012 121.1ZM222.04 116.24C221.536 115.748 220.918 115.502 220.186 115.502C219.454 115.502 218.83 115.754 218.314 116.258C217.81 116.75 217.558 117.428 217.558 118.292C217.558 119.156 217.816 119.834 218.332 120.326C218.848 120.818 219.466 121.064 220.186 121.064C220.906 121.064 221.524 120.818 222.04 120.326C222.556 119.834 222.814 119.156 222.814 118.292C222.814 117.416 222.556 116.732 222.04 116.24ZM225.269 122L227.069 113.954L230.165 120.038L233.189 113.954L234.989 122H233.657L232.667 117.374L230.129 122.522L227.555 117.374L226.601 122H225.269ZM242.299 115.592V114.53H243.595V122H242.299V120.956C241.651 121.796 240.799 122.216 239.743 122.216C238.735 122.216 237.877 121.868 237.169 121.172C236.461 120.476 236.107 119.504 236.107 118.256C236.107 117.032 236.455 116.078 237.151 115.394C237.859 114.698 238.723 114.35 239.743 114.35C240.823 114.35 241.675 114.764 242.299 115.592ZM239.887 115.502C239.203 115.502 238.621 115.748 238.141 116.24C237.673 116.72 237.439 117.392 237.439 118.256C237.439 119.084 237.655 119.762 238.087 120.29C238.531 120.806 239.131 121.064 239.887 121.064C240.643 121.064 241.243 120.794 241.687 120.254C242.143 119.714 242.371 119.054 242.371 118.274C242.371 117.386 242.119 116.702 241.615 116.222C241.111 115.742 240.535 115.502 239.887 115.502ZM246.049 122V114.53H247.345V117.59H250.873V114.53H252.169V122H250.873V118.778H247.345V122H246.049ZM255.15 114.53H260.406V120.812H261.522V123.98H260.334V122H254.646V123.98H253.458V120.812C254.082 120.8 254.544 120.476 254.844 119.84C255.048 119.42 255.15 118.76 255.15 117.86V114.53ZM259.11 120.812V115.718H256.446V118.526C256.446 119.522 256.146 120.284 255.546 120.812H259.11ZM262.889 122V114.53H264.185V117.392H265.517C266.549 117.392 267.305 117.638 267.785 118.13C268.169 118.514 268.361 119.036 268.361 119.696C268.361 120.392 268.139 120.95 267.695 121.37C267.251 121.79 266.519 122 265.499 122H262.889ZM264.185 120.848H265.391C265.931 120.848 266.315 120.782 266.543 120.65C266.867 120.434 267.029 120.116 267.029 119.696C267.029 119.264 266.873 118.952 266.561 118.76C266.345 118.616 265.961 118.544 265.409 118.544H264.185V120.848ZM269.261 122V114.53H270.557V122H269.261Z" fill="#E66366"/>
<rect x="75.5" y="135.5" width="179" height="179" rx="89.5" stroke="#E66366"/>
<path d="M143.956 216.356L154.568 200.228H144.348V198.324H158.068L145.58 217.448L143.956 216.356ZM169.76 214.536C168.472 216.403 166.876 217.336 164.972 217.336C163.068 217.336 161.472 216.403 160.184 214.536C158.933 212.725 158.308 210.439 158.308 207.676C158.308 204.913 158.933 202.627 160.184 200.816C161.472 198.949 163.068 198.016 164.972 198.016C166.876 198.016 168.472 198.949 169.76 200.816C171.01 202.627 171.636 204.913 171.636 207.676C171.636 210.439 171.01 212.725 169.76 214.536ZM168.192 201.992C167.333 200.611 166.26 199.92 164.972 199.92C163.684 199.92 162.61 200.611 161.752 201.992C160.837 203.448 160.38 205.343 160.38 207.676C160.38 210.009 160.837 211.904 161.752 213.36C162.61 214.741 163.684 215.432 164.972 215.432C166.26 215.432 167.333 214.741 168.192 213.36C169.106 211.904 169.564 210.009 169.564 207.676C169.564 205.343 169.106 203.448 168.192 201.992ZM173.858 208.6V206.752H178.926V201.936H180.942V206.752H186.01V208.6H180.942V213.416H178.926V208.6H173.858Z" fill="#E66366"/>
<path d="M123.455 236.498L124.535 237.092C124.283 237.572 123.977 237.974 123.617 238.298C122.933 238.91 122.105 239.216 121.133 239.216C120.125 239.216 119.255 238.892 118.523 238.244C117.803 237.584 117.443 236.606 117.443 235.31C117.443 234.17 117.767 233.228 118.415 232.484C119.075 231.728 119.957 231.35 121.061 231.35C122.309 231.35 123.251 231.806 123.887 232.718C124.391 233.438 124.625 234.374 124.589 235.526H118.775C118.787 236.282 119.021 236.894 119.477 237.362C119.933 237.83 120.491 238.064 121.151 238.064C121.739 238.064 122.249 237.884 122.681 237.524C123.017 237.236 123.275 236.894 123.455 236.498ZM118.865 234.446H123.257C123.149 233.858 122.891 233.39 122.483 233.042C122.087 232.682 121.613 232.502 121.061 232.502C120.521 232.502 120.041 232.688 119.621 233.06C119.213 233.42 118.961 233.882 118.865 234.446ZM129.893 231.53H131.189V234.59L133.997 231.53H135.509L132.269 234.986L135.833 239H134.213L131.441 235.85L131.189 236.102V239H129.893V236.102L129.641 235.85L126.869 239H125.249L128.813 234.986L125.573 231.53H127.085L129.893 234.59V231.53ZM142.492 236.498L143.572 237.092C143.32 237.572 143.014 237.974 142.654 238.298C141.97 238.91 141.142 239.216 140.17 239.216C139.162 239.216 138.292 238.892 137.56 238.244C136.84 237.584 136.48 236.606 136.48 235.31C136.48 234.17 136.804 233.228 137.452 232.484C138.112 231.728 138.994 231.35 140.098 231.35C141.346 231.35 142.288 231.806 142.924 232.718C143.428 233.438 143.662 234.374 143.626 235.526H137.812C137.824 236.282 138.058 236.894 138.514 237.362C138.97 237.83 139.528 238.064 140.188 238.064C140.776 238.064 141.286 237.884 141.718 237.524C142.054 237.236 142.312 236.894 142.492 236.498ZM137.902 234.446H142.294C142.186 233.858 141.928 233.39 141.52 233.042C141.124 232.682 140.65 232.502 140.098 232.502C139.558 232.502 139.078 232.688 138.658 233.06C138.25 233.42 137.998 233.882 137.902 234.446ZM144.75 239L146.55 230.954L149.646 237.038L152.67 230.954L154.47 239H153.138L152.148 234.374L149.61 239.522L147.036 234.374L146.082 239H144.75ZM161.599 236.498L162.679 237.092C162.427 237.572 162.121 237.974 161.761 238.298C161.077 238.91 160.249 239.216 159.277 239.216C158.269 239.216 157.399 238.892 156.667 238.244C155.947 237.584 155.587 236.606 155.587 235.31C155.587 234.17 155.911 233.228 156.559 232.484C157.219 231.728 158.101 231.35 159.205 231.35C160.453 231.35 161.395 231.806 162.031 232.718C162.535 233.438 162.769 234.374 162.733 235.526H156.919C156.931 236.282 157.165 236.894 157.621 237.362C158.077 237.83 158.635 238.064 159.295 238.064C159.883 238.064 160.393 237.884 160.825 237.524C161.161 237.236 161.419 236.894 161.599 236.498ZM157.009 234.446H161.401C161.293 233.858 161.035 233.39 160.627 233.042C160.231 232.682 159.757 232.502 159.205 232.502C158.665 232.502 158.185 232.688 157.765 233.06C157.357 233.42 157.105 233.882 157.009 234.446ZM170.571 232.07V233.618C169.983 232.874 169.203 232.502 168.231 232.502C167.499 232.502 166.875 232.754 166.359 233.258C165.843 233.75 165.585 234.428 165.585 235.292C165.585 236.156 165.843 236.834 166.359 237.326C166.875 237.818 167.493 238.064 168.213 238.064C169.173 238.064 169.977 237.674 170.625 236.894V238.442C169.917 238.958 169.125 239.216 168.249 239.216C167.085 239.216 166.125 238.85 165.369 238.118C164.625 237.374 164.253 236.438 164.253 235.31C164.253 234.17 164.631 233.228 165.387 232.484C166.143 231.728 167.097 231.35 168.249 231.35C169.113 231.35 169.887 231.59 170.571 232.07ZM171.75 239L174.072 235.922C174 235.922 173.898 235.91 173.766 235.886C173.646 235.862 173.466 235.802 173.226 235.706C172.986 235.61 172.788 235.484 172.632 235.328C172.236 234.956 172.038 234.458 172.038 233.834C172.038 233.126 172.26 232.568 172.704 232.16C173.148 231.74 173.88 231.53 174.9 231.53H177.51V239H176.214V235.994H175.422L173.298 239H171.75ZM176.214 234.914V232.682H175.008C174.444 232.682 174.054 232.748 173.838 232.88C173.526 233.084 173.37 233.39 173.37 233.798C173.37 234.206 173.526 234.506 173.838 234.698C174.066 234.842 174.45 234.914 174.99 234.914H176.214ZM183.957 239V236.066C183.249 236.174 182.661 236.228 182.193 236.228C181.377 236.228 180.771 236.048 180.375 235.688C179.955 235.316 179.745 234.704 179.745 233.852V231.53H181.041V233.672C181.041 234.08 181.095 234.374 181.203 234.554C181.371 234.878 181.749 235.04 182.337 235.04C182.865 235.04 183.405 234.986 183.957 234.878V231.53H185.253V239H183.957ZM187.696 239V231.53H188.992V234.59H192.52V231.53H193.816V239H192.52V235.778H188.992V239H187.696ZM196.256 239V231.53H197.552V234.392H198.884C199.916 234.392 200.672 234.638 201.152 235.13C201.536 235.514 201.728 236.036 201.728 236.696C201.728 237.392 201.506 237.95 201.062 238.37C200.618 238.79 199.886 239 198.866 239H196.256ZM197.552 237.848H198.758C199.298 237.848 199.682 237.782 199.91 237.65C200.234 237.434 200.396 237.116 200.396 236.696C200.396 236.264 200.24 235.952 199.928 235.76C199.712 235.616 199.328 235.544 198.776 235.544H197.552V237.848ZM202.628 239V231.53H203.924V239H202.628ZM205.284 239L208.47 235.004L205.752 231.53H207.336L209.262 234.068L211.224 231.53H212.808L210.072 235.022L213.168 239H211.584L209.226 235.958L206.868 239H205.284ZM120.07 257V254.066C119.362 254.174 118.774 254.228 118.306 254.228C117.49 254.228 116.884 254.048 116.488 253.688C116.068 253.316 115.858 252.704 115.858 251.852V249.53H117.154V251.672C117.154 252.08 117.208 252.374 117.316 252.554C117.484 252.878 117.862 253.04 118.45 253.04C118.978 253.04 119.518 252.986 120.07 252.878V249.53H121.366V257H120.07ZM129.532 250.592V249.53H130.828V257H129.532V255.956C128.884 256.796 128.032 257.216 126.976 257.216C125.968 257.216 125.11 256.868 124.402 256.172C123.694 255.476 123.34 254.504 123.34 253.256C123.34 252.032 123.688 251.078 124.384 250.394C125.092 249.698 125.956 249.35 126.976 249.35C128.056 249.35 128.908 249.764 129.532 250.592ZM127.12 250.502C126.436 250.502 125.854 250.748 125.374 251.24C124.906 251.72 124.672 252.392 124.672 253.256C124.672 254.084 124.888 254.762 125.32 255.29C125.764 255.806 126.364 256.064 127.12 256.064C127.876 256.064 128.476 255.794 128.92 255.254C129.376 254.714 129.604 254.054 129.604 253.274C129.604 252.386 129.352 251.702 128.848 251.222C128.344 250.742 127.768 250.502 127.12 250.502ZM139.133 250.07V251.618C138.545 250.874 137.765 250.502 136.793 250.502C136.061 250.502 135.437 250.754 134.921 251.258C134.405 251.75 134.147 252.428 134.147 253.292C134.147 254.156 134.405 254.834 134.921 255.326C135.437 255.818 136.055 256.064 136.775 256.064C137.735 256.064 138.539 255.674 139.187 254.894V256.442C138.479 256.958 137.687 257.216 136.811 257.216C135.647 257.216 134.687 256.85 133.931 256.118C133.187 255.374 132.815 254.438 132.815 253.31C132.815 252.17 133.193 251.228 133.949 250.484C134.705 249.728 135.659 249.35 136.811 249.35C137.675 249.35 138.449 249.59 139.133 250.07ZM147.3 256.1C146.556 256.844 145.614 257.216 144.474 257.216C143.334 257.216 142.386 256.844 141.63 256.1C140.886 255.356 140.514 254.42 140.514 253.292C140.514 252.152 140.886 251.21 141.63 250.466C142.386 249.722 143.334 249.35 144.474 249.35C145.614 249.35 146.556 249.722 147.3 250.466C148.056 251.21 148.434 252.152 148.434 253.292C148.434 254.42 148.056 255.356 147.3 256.1ZM146.328 251.24C145.824 250.748 145.206 250.502 144.474 250.502C143.742 250.502 143.118 250.754 142.602 251.258C142.098 251.75 141.846 252.428 141.846 253.292C141.846 254.156 142.104 254.834 142.62 255.326C143.136 255.818 143.754 256.064 144.474 256.064C145.194 256.064 145.812 255.818 146.328 255.326C146.844 254.834 147.102 254.156 147.102 253.292C147.102 252.416 146.844 251.732 146.328 251.24ZM150.421 249.53H153.247C153.931 249.53 154.453 249.674 154.813 249.962C155.245 250.31 155.461 250.778 155.461 251.366C155.461 252.014 155.191 252.512 154.651 252.86C155.023 252.956 155.335 253.124 155.587 253.364C155.983 253.748 156.181 254.228 156.181 254.804C156.181 255.524 155.923 256.088 155.407 256.496C154.963 256.832 154.375 257 153.643 257H150.421V249.53ZM151.717 252.572H153.085C153.433 252.572 153.709 252.5 153.913 252.356C154.153 252.176 154.273 251.918 154.273 251.582C154.273 251.282 154.153 251.042 153.913 250.862C153.733 250.742 153.385 250.682 152.869 250.682H151.717V252.572ZM151.717 255.848H153.319C153.871 255.848 154.261 255.764 154.489 255.596C154.777 255.38 154.921 255.104 154.921 254.768C154.921 254.408 154.795 254.126 154.543 253.922C154.315 253.742 153.925 253.652 153.373 253.652H151.717V255.848ZM163.653 255.956V261.14H162.357V249.53H163.653V250.574C164.313 249.758 165.165 249.35 166.209 249.35C167.325 249.35 168.207 249.746 168.855 250.538C169.515 251.318 169.845 252.242 169.845 253.31C169.845 254.39 169.521 255.314 168.873 256.082C168.225 256.838 167.355 257.216 166.263 257.216C165.171 257.216 164.301 256.796 163.653 255.956ZM166.083 256.064C166.815 256.064 167.403 255.8 167.847 255.272C168.291 254.732 168.513 254.078 168.513 253.31C168.513 252.446 168.267 251.762 167.775 251.258C167.283 250.754 166.713 250.502 166.065 250.502C165.417 250.502 164.841 250.754 164.337 251.258C163.833 251.762 163.581 252.44 163.581 253.292C163.581 254.072 163.809 254.732 164.265 255.272C164.733 255.8 165.339 256.064 166.083 256.064ZM177.555 250.592V249.53H178.851V257H177.555V255.956C176.907 256.796 176.055 257.216 174.999 257.216C173.991 257.216 173.133 256.868 172.425 256.172C171.717 255.476 171.363 254.504 171.363 253.256C171.363 252.032 171.711 251.078 172.407 250.394C173.115 249.698 173.979 249.35 174.999 249.35C176.079 249.35 176.931 249.764 177.555 250.592ZM175.143 250.502C174.459 250.502 173.877 250.748 173.397 251.24C172.929 251.72 172.695 252.392 172.695 253.256C172.695 254.084 172.911 254.762 173.343 255.29C173.787 255.806 174.387 256.064 175.143 256.064C175.899 256.064 176.499 255.794 176.943 255.254C177.399 254.714 177.627 254.054 177.627 253.274C177.627 252.386 177.375 251.702 176.871 251.222C176.367 250.742 175.791 250.502 175.143 250.502ZM187.066 244.4H188.506C188.374 244.844 188.146 245.222 187.822 245.534C187.51 245.834 187.222 246.038 186.958 246.146C186.706 246.254 186.406 246.35 186.058 246.434C185.998 246.446 185.854 246.482 185.626 246.542C185.398 246.59 185.224 246.632 185.104 246.668C184.984 246.704 184.828 246.752 184.636 246.812C184.444 246.872 184.27 246.944 184.114 247.028C183.958 247.112 183.814 247.202 183.682 247.298C183.226 247.646 182.854 248.132 182.566 248.756C182.29 249.368 182.14 250.022 182.116 250.718H182.152C182.692 249.806 183.598 249.35 184.87 249.35C185.986 249.35 186.91 249.728 187.642 250.484C188.386 251.24 188.758 252.176 188.758 253.292C188.758 254.42 188.38 255.356 187.624 256.1C186.868 256.844 185.884 257.216 184.672 257.216C183.628 257.216 182.77 256.904 182.098 256.28C181.258 255.512 180.838 254.228 180.838 252.428C180.838 249.296 181.546 247.244 182.962 246.272C183.07 246.2 183.184 246.134 183.304 246.074C183.424 246.002 183.55 245.942 183.682 245.894C183.826 245.834 183.946 245.786 184.042 245.75C184.138 245.702 184.27 245.66 184.438 245.624C184.618 245.576 184.738 245.546 184.798 245.534C184.87 245.51 185.002 245.48 185.194 245.444C185.398 245.396 185.524 245.366 185.572 245.354C186.052 245.246 186.4 245.12 186.616 244.976C186.832 244.82 186.982 244.628 187.066 244.4ZM186.652 251.24C186.148 250.748 185.53 250.502 184.798 250.502C184.066 250.502 183.442 250.754 182.926 251.258C182.422 251.75 182.17 252.428 182.17 253.292C182.17 254.156 182.428 254.834 182.944 255.326C183.46 255.818 184.078 256.064 184.798 256.064C185.518 256.064 186.136 255.818 186.652 255.326C187.168 254.834 187.426 254.156 187.426 253.292C187.426 252.416 187.168 251.732 186.652 251.24ZM197.063 256.1C196.319 256.844 195.377 257.216 194.237 257.216C193.097 257.216 192.149 256.844 191.393 256.1C190.649 255.356 190.277 254.42 190.277 253.292C190.277 252.152 190.649 251.21 191.393 250.466C192.149 249.722 193.097 249.35 194.237 249.35C195.377 249.35 196.319 249.722 197.063 250.466C197.819 251.21 198.197 252.152 198.197 253.292C198.197 254.42 197.819 255.356 197.063 256.1ZM196.091 251.24C195.587 250.748 194.969 250.502 194.237 250.502C193.505 250.502 192.881 250.754 192.365 251.258C191.861 251.75 191.609 252.428 191.609 253.292C191.609 254.156 191.867 254.834 192.383 255.326C192.899 255.818 193.517 256.064 194.237 256.064C194.957 256.064 195.575 255.818 196.091 255.326C196.607 254.834 196.865 254.156 196.865 253.292C196.865 252.416 196.607 251.732 196.091 251.24ZM204.905 250.718H202.565V257H201.269V250.718H198.929V249.53H204.905V250.718ZM206.267 257V249.53H207.563V252.392H208.895C209.927 252.392 210.683 252.638 211.163 253.13C211.547 253.514 211.739 254.036 211.739 254.696C211.739 255.392 211.517 255.95 211.073 256.37C210.629 256.79 209.897 257 208.877 257H206.267ZM207.563 255.848H208.769C209.309 255.848 209.693 255.782 209.921 255.65C210.245 255.434 210.407 255.116 210.407 254.696C210.407 254.264 210.251 253.952 209.939 253.76C209.723 253.616 209.339 253.544 208.787 253.544H207.563V255.848ZM212.639 257V249.53H213.935V257H212.639Z" fill="#E66366"/>
</svg>
