<svg width="320" height="115" viewBox="0 0 320 115" fill="none" xmlns="http://www.w3.org/2000/svg">
<rect x="0.5" y="0.5" width="114" height="114" rx="57" stroke="#E66366"/>
<path d="M48.852 53.5V40.366H46.388L47.246 38.826H50.48V53.5H48.852ZM56.1462 53.39C55.9262 53.17 55.8162 52.9133 55.8162 52.62C55.8162 52.3267 55.9262 52.07 56.1462 51.85C56.3662 51.63 56.6229 51.52 56.9162 51.52C57.2095 51.52 57.4662 51.63 57.6862 51.85C57.9062 52.07 58.0162 52.3267 58.0162 52.62C58.0162 52.9133 57.9062 53.17 57.6862 53.39C57.4662 53.61 57.2095 53.72 56.9162 53.72C56.6229 53.72 56.3662 53.61 56.1462 53.39ZM69.9521 38.826V40.322H65.2441L64.2981 43.49C64.5474 43.4313 64.8554 43.402 65.2221 43.402C66.6741 43.402 67.8401 43.886 68.7201 44.854C69.6147 45.822 70.0621 47.032 70.0621 48.484C70.0621 50.068 69.5414 51.344 68.5001 52.312C67.4734 53.28 66.2121 53.764 64.7161 53.764C63.4547 53.764 62.3621 53.3827 61.4381 52.62C60.9101 52.1653 60.4847 51.6667 60.1621 51.124L61.4601 50.2C61.6801 50.64 62.0101 51.036 62.4501 51.388C63.1687 51.9747 63.9607 52.268 64.8261 52.268C65.8527 52.268 66.7107 51.9013 67.4001 51.168C68.0894 50.4347 68.4341 49.5473 68.4341 48.506C68.4341 47.45 68.0894 46.5847 67.4001 45.91C66.7254 45.2353 65.8674 44.898 64.8261 44.898C63.9021 44.898 62.9561 45.2353 61.9881 45.91L64.1221 38.826H69.9521Z" fill="#E66366"/>
<path d="M46.0699 68.5V63.52H49.0219V64.312H46.9339V68.5H46.0699ZM53.8444 67.9C53.3484 68.396 52.7204 68.644 51.9604 68.644C51.2004 68.644 50.5684 68.396 50.0644 67.9C49.5684 67.404 49.3204 66.78 49.3204 66.028C49.3204 65.268 49.5684 64.64 50.0644 64.144C50.5684 63.648 51.2004 63.4 51.9604 63.4C52.7204 63.4 53.3484 63.648 53.8444 64.144C54.3484 64.64 54.6004 65.268 54.6004 66.028C54.6004 66.78 54.3484 67.404 53.8444 67.9ZM53.1964 64.66C52.8604 64.332 52.4484 64.168 51.9604 64.168C51.4724 64.168 51.0564 64.336 50.7124 64.672C50.3764 65 50.2084 65.452 50.2084 66.028C50.2084 66.604 50.3804 67.056 50.7244 67.384C51.0684 67.712 51.4804 67.876 51.9604 67.876C52.4404 67.876 52.8524 67.712 53.1964 67.384C53.5404 67.056 53.7124 66.604 53.7124 66.028C53.7124 65.444 53.5404 64.988 53.1964 64.66ZM56.2854 63.52H59.7894V67.708H60.5334V69.82H59.7414V68.5H55.9494V69.82H55.1574V67.708C55.5734 67.7 55.8814 67.484 56.0814 67.06C56.2174 66.78 56.2854 66.34 56.2854 65.74V63.52ZM58.9254 67.708V64.312H57.1494V66.184C57.1494 66.848 56.9494 67.356 56.5494 67.708H58.9254ZM65.2609 64.228V63.52H66.1249V68.5H65.2609V67.804C64.8289 68.364 64.2609 68.644 63.5569 68.644C62.8849 68.644 62.3129 68.412 61.8409 67.948C61.3689 67.484 61.1329 66.836 61.1329 66.004C61.1329 65.188 61.3649 64.552 61.8289 64.096C62.3009 63.632 62.8769 63.4 63.5569 63.4C64.2769 63.4 64.8449 63.676 65.2609 64.228ZM63.6529 64.168C63.1969 64.168 62.8089 64.332 62.4889 64.66C62.1769 64.98 62.0209 65.428 62.0209 66.004C62.0209 66.556 62.1649 67.008 62.4529 67.36C62.7489 67.704 63.1489 67.876 63.6529 67.876C64.1569 67.876 64.5569 67.696 64.8529 67.336C65.1569 66.976 65.3089 66.536 65.3089 66.016C65.3089 65.424 65.1409 64.968 64.8049 64.648C64.4689 64.328 64.0849 64.168 63.6529 64.168ZM41.1741 79.804V83.26H40.3101V75.52H41.1741V76.216C41.6141 75.672 42.1821 75.4 42.8781 75.4C43.6221 75.4 44.2101 75.664 44.6421 76.192C45.0821 76.712 45.3021 77.328 45.3021 78.04C45.3021 78.76 45.0861 79.376 44.6541 79.888C44.2221 80.392 43.6421 80.644 42.9141 80.644C42.1861 80.644 41.6061 80.364 41.1741 79.804ZM42.7941 79.876C43.2821 79.876 43.6741 79.7 43.9701 79.348C44.2661 78.988 44.4141 78.552 44.4141 78.04C44.4141 77.464 44.2501 77.008 43.9221 76.672C43.5941 76.336 43.2141 76.168 42.7821 76.168C42.3501 76.168 41.9661 76.336 41.6301 76.672C41.2941 77.008 41.1261 77.46 41.1261 78.028C41.1261 78.548 41.2781 78.988 41.5821 79.348C41.8941 79.7 42.2981 79.876 42.7941 79.876ZM50.4425 76.228V75.52H51.3065V80.5H50.4425V79.804C50.0105 80.364 49.4425 80.644 48.7385 80.644C48.0665 80.644 47.4945 80.412 47.0225 79.948C46.5505 79.484 46.3145 78.836 46.3145 78.004C46.3145 77.188 46.5465 76.552 47.0105 76.096C47.4825 75.632 48.0585 75.4 48.7385 75.4C49.4585 75.4 50.0265 75.676 50.4425 76.228ZM48.8345 76.168C48.3785 76.168 47.9905 76.332 47.6705 76.66C47.3585 76.98 47.2025 77.428 47.2025 78.004C47.2025 78.556 47.3465 79.008 47.6345 79.36C47.9305 79.704 48.3305 79.876 48.8345 79.876C49.3385 79.876 49.7385 79.696 50.0345 79.336C50.3385 78.976 50.4905 78.536 50.4905 78.016C50.4905 77.424 50.3225 76.968 49.9865 76.648C49.6505 76.328 49.2665 76.168 48.8345 76.168ZM56.783 72.1H57.743C57.655 72.396 57.503 72.648 57.287 72.856C57.079 73.056 56.887 73.192 56.711 73.264C56.543 73.336 56.343 73.4 56.111 73.456C56.071 73.464 55.975 73.488 55.823 73.528C55.671 73.56 55.555 73.588 55.475 73.612C55.395 73.636 55.291 73.668 55.163 73.708C55.035 73.748 54.919 73.796 54.815 73.852C54.711 73.908 54.615 73.968 54.527 74.032C54.223 74.264 53.975 74.588 53.783 75.004C53.599 75.412 53.499 75.848 53.483 76.312H53.507C53.867 75.704 54.471 75.4 55.319 75.4C56.063 75.4 56.679 75.652 57.167 76.156C57.663 76.66 57.911 77.284 57.911 78.028C57.911 78.78 57.659 79.404 57.155 79.9C56.651 80.396 55.995 80.644 55.187 80.644C54.491 80.644 53.919 80.436 53.471 80.02C52.911 79.508 52.631 78.652 52.631 77.452C52.631 75.364 53.103 73.996 54.047 73.348C54.119 73.3 54.195 73.256 54.275 73.216C54.355 73.168 54.439 73.128 54.527 73.096C54.623 73.056 54.703 73.024 54.767 73C54.831 72.968 54.919 72.94 55.031 72.916C55.151 72.884 55.231 72.864 55.271 72.856C55.319 72.84 55.407 72.82 55.535 72.796C55.671 72.764 55.755 72.744 55.787 72.736C56.107 72.664 56.339 72.58 56.483 72.484C56.627 72.38 56.727 72.252 56.783 72.1ZM56.507 76.66C56.171 76.332 55.759 76.168 55.271 76.168C54.783 76.168 54.367 76.336 54.023 76.672C53.687 77 53.519 77.452 53.519 78.028C53.519 78.604 53.691 79.056 54.035 79.384C54.379 79.712 54.791 79.876 55.271 79.876C55.751 79.876 56.163 79.712 56.507 79.384C56.851 79.056 57.023 78.604 57.023 78.028C57.023 77.444 56.851 76.988 56.507 76.66ZM63.4479 79.9C62.9519 80.396 62.3239 80.644 61.5639 80.644C60.8039 80.644 60.1719 80.396 59.6679 79.9C59.1719 79.404 58.9239 78.78 58.9239 78.028C58.9239 77.268 59.1719 76.64 59.6679 76.144C60.1719 75.648 60.8039 75.4 61.5639 75.4C62.3239 75.4 62.9519 75.648 63.4479 76.144C63.9519 76.64 64.2039 77.268 64.2039 78.028C64.2039 78.78 63.9519 79.404 63.4479 79.9ZM62.7999 76.66C62.4639 76.332 62.0519 76.168 61.5639 76.168C61.0759 76.168 60.6599 76.336 60.3159 76.672C59.9799 77 59.8119 77.452 59.8119 78.028C59.8119 78.604 59.9839 79.056 60.3279 79.384C60.6719 79.712 61.0839 79.876 61.5639 79.876C62.0439 79.876 62.4559 79.712 62.7999 79.384C63.1439 79.056 63.3159 78.604 63.3159 78.028C63.3159 77.444 63.1439 76.988 62.7999 76.66ZM68.6757 76.312H67.1157V80.5H66.2517V76.312H64.6917V75.52H68.6757V76.312ZM69.5836 80.5V75.52H70.4476V77.428H71.3356C72.0236 77.428 72.5276 77.592 72.8476 77.92C73.1036 78.176 73.2316 78.524 73.2316 78.964C73.2316 79.428 73.0836 79.8 72.7876 80.08C72.4916 80.36 72.0036 80.5 71.3236 80.5H69.5836ZM70.4476 79.732H71.2516C71.6116 79.732 71.8676 79.688 72.0196 79.6C72.2356 79.456 72.3436 79.244 72.3436 78.964C72.3436 78.676 72.2396 78.468 72.0316 78.34C71.8876 78.244 71.6316 78.196 71.2636 78.196H70.4476V79.732ZM73.8316 80.5V75.52H74.6956V80.5H73.8316Z" fill="#E66366"/>
<rect x="103" y="0.5" width="114" height="114" rx="57" stroke="#E66366"/>
<path d="M143.644 46.994L151.982 34.322H143.952V32.826H154.732L144.92 47.852L143.644 46.994ZM163.918 45.564C162.906 47.0307 161.652 47.764 160.156 47.764C158.66 47.764 157.406 47.0307 156.394 45.564C155.412 44.1413 154.92 42.3447 154.92 40.174C154.92 38.0033 155.412 36.2067 156.394 34.784C157.406 33.3173 158.66 32.584 160.156 32.584C161.652 32.584 162.906 33.3173 163.918 34.784C164.901 36.2067 165.392 38.0033 165.392 40.174C165.392 42.3447 164.901 44.1413 163.918 45.564ZM162.686 35.708C162.012 34.6227 161.168 34.08 160.156 34.08C159.144 34.08 158.301 34.6227 157.626 35.708C156.908 36.852 156.548 38.3407 156.548 40.174C156.548 42.0073 156.908 43.496 157.626 44.64C158.301 45.7253 159.144 46.268 160.156 46.268C161.168 46.268 162.012 45.7253 162.686 44.64C163.405 43.496 163.764 42.0073 163.764 40.174C163.764 38.3407 163.405 36.852 162.686 35.708ZM167.138 40.9V39.448H171.12V35.664H172.704V39.448H176.686V40.9H172.704V44.684H171.12V40.9H167.138Z" fill="#E66366"/>
<path d="M130.903 60.832L131.623 61.228C131.455 61.548 131.251 61.816 131.011 62.032C130.555 62.44 130.003 62.644 129.355 62.644C128.683 62.644 128.103 62.428 127.615 61.996C127.135 61.556 126.895 60.904 126.895 60.04C126.895 59.28 127.111 58.652 127.543 58.156C127.983 57.652 128.571 57.4 129.307 57.4C130.139 57.4 130.767 57.704 131.191 58.312C131.527 58.792 131.683 59.416 131.659 60.184H127.783C127.791 60.688 127.947 61.096 128.251 61.408C128.555 61.72 128.927 61.876 129.367 61.876C129.759 61.876 130.099 61.756 130.387 61.516C130.611 61.324 130.783 61.096 130.903 60.832ZM127.843 59.464H130.771C130.699 59.072 130.527 58.76 130.255 58.528C129.991 58.288 129.675 58.168 129.307 58.168C128.947 58.168 128.627 58.292 128.347 58.54C128.075 58.78 127.907 59.088 127.843 59.464ZM135.195 57.52H136.059V59.56L137.931 57.52H138.939L136.779 59.824L139.155 62.5H138.075L136.227 60.4L136.059 60.568V62.5H135.195V60.568L135.027 60.4L133.179 62.5H132.099L134.475 59.824L132.315 57.52H133.323L135.195 59.56V57.52ZM143.594 60.832L144.314 61.228C144.146 61.548 143.942 61.816 143.702 62.032C143.246 62.44 142.694 62.644 142.046 62.644C141.374 62.644 140.794 62.428 140.306 61.996C139.826 61.556 139.586 60.904 139.586 60.04C139.586 59.28 139.802 58.652 140.234 58.156C140.674 57.652 141.262 57.4 141.998 57.4C142.83 57.4 143.458 57.704 143.882 58.312C144.218 58.792 144.374 59.416 144.35 60.184H140.474C140.482 60.688 140.638 61.096 140.942 61.408C141.246 61.72 141.618 61.876 142.058 61.876C142.45 61.876 142.79 61.756 143.078 61.516C143.302 61.324 143.474 61.096 143.594 60.832ZM140.534 59.464H143.462C143.39 59.072 143.218 58.76 142.946 58.528C142.682 58.288 142.366 58.168 141.998 58.168C141.638 58.168 141.318 58.292 141.038 58.54C140.766 58.78 140.598 59.088 140.534 59.464ZM145.099 62.5L146.299 57.136L148.363 61.192L150.379 57.136L151.579 62.5H150.691L150.031 59.416L148.339 62.848L146.623 59.416L145.987 62.5H145.099ZM156.332 60.832L157.052 61.228C156.884 61.548 156.68 61.816 156.44 62.032C155.984 62.44 155.432 62.644 154.784 62.644C154.112 62.644 153.532 62.428 153.044 61.996C152.564 61.556 152.324 60.904 152.324 60.04C152.324 59.28 152.54 58.652 152.972 58.156C153.412 57.652 154 57.4 154.736 57.4C155.568 57.4 156.196 57.704 156.62 58.312C156.956 58.792 157.112 59.416 157.088 60.184H153.212C153.22 60.688 153.376 61.096 153.68 61.408C153.984 61.72 154.356 61.876 154.796 61.876C155.188 61.876 155.528 61.756 155.816 61.516C156.04 61.324 156.212 61.096 156.332 60.832ZM153.272 59.464H156.2C156.128 59.072 155.956 58.76 155.684 58.528C155.42 58.288 155.104 58.168 154.736 58.168C154.376 58.168 154.056 58.292 153.776 58.54C153.504 58.78 153.336 59.088 153.272 59.464ZM162.314 57.88V58.912C161.922 58.416 161.402 58.168 160.754 58.168C160.266 58.168 159.85 58.336 159.506 58.672C159.162 59 158.99 59.452 158.99 60.028C158.99 60.604 159.162 61.056 159.506 61.384C159.85 61.712 160.262 61.876 160.742 61.876C161.382 61.876 161.918 61.616 162.35 61.096V62.128C161.878 62.472 161.35 62.644 160.766 62.644C159.99 62.644 159.35 62.4 158.846 61.912C158.35 61.416 158.102 60.792 158.102 60.04C158.102 59.28 158.354 58.652 158.858 58.156C159.362 57.652 159.998 57.4 160.766 57.4C161.342 57.4 161.858 57.56 162.314 57.88ZM163.099 62.5L164.647 60.448C164.599 60.448 164.531 60.44 164.443 60.424C164.363 60.408 164.243 60.368 164.083 60.304C163.923 60.24 163.791 60.156 163.687 60.052C163.423 59.804 163.291 59.472 163.291 59.056C163.291 58.584 163.439 58.212 163.735 57.94C164.031 57.66 164.519 57.52 165.199 57.52H166.939V62.5H166.075V60.496H165.547L164.131 62.5H163.099ZM166.075 59.776V58.288H165.271C164.895 58.288 164.635 58.332 164.491 58.42C164.283 58.556 164.179 58.76 164.179 59.032C164.179 59.304 164.283 59.504 164.491 59.632C164.643 59.728 164.899 59.776 165.259 59.776H166.075ZM171.238 62.5V60.544C170.766 60.616 170.374 60.652 170.062 60.652C169.518 60.652 169.114 60.532 168.85 60.292C168.57 60.044 168.43 59.636 168.43 59.068V57.52H169.294V58.948C169.294 59.22 169.33 59.416 169.402 59.536C169.514 59.752 169.766 59.86 170.158 59.86C170.51 59.86 170.87 59.824 171.238 59.752V57.52H172.102V62.5H171.238ZM173.73 62.5V57.52H174.594V59.56H176.946V57.52H177.81V62.5H176.946V60.352H174.594V62.5H173.73ZM179.437 62.5V57.52H180.301V59.428H181.189C181.877 59.428 182.381 59.592 182.701 59.92C182.957 60.176 183.085 60.524 183.085 60.964C183.085 61.428 182.937 61.8 182.641 62.08C182.345 62.36 181.857 62.5 181.177 62.5H179.437ZM180.301 61.732H181.105C181.465 61.732 181.721 61.688 181.873 61.6C182.089 61.456 182.197 61.244 182.197 60.964C182.197 60.676 182.093 60.468 181.885 60.34C181.741 60.244 181.485 60.196 181.117 60.196H180.301V61.732ZM183.685 62.5V57.52H184.549V62.5H183.685ZM185.455 62.5L187.579 59.836L185.767 57.52H186.823L188.107 59.212L189.415 57.52H190.471L188.647 59.848L190.711 62.5H189.655L188.083 60.472L186.511 62.5H185.455ZM148.052 74.5V72.544C147.58 72.616 147.188 72.652 146.876 72.652C146.332 72.652 145.928 72.532 145.664 72.292C145.384 72.044 145.244 71.636 145.244 71.068V69.52H146.108V70.948C146.108 71.22 146.144 71.416 146.216 71.536C146.328 71.752 146.58 71.86 146.972 71.86C147.324 71.86 147.684 71.824 148.052 71.752V69.52H148.916V74.5H148.052ZM154.361 70.228V69.52H155.225V74.5H154.361V73.804C153.929 74.364 153.361 74.644 152.657 74.644C151.985 74.644 151.413 74.412 150.941 73.948C150.469 73.484 150.233 72.836 150.233 72.004C150.233 71.188 150.465 70.552 150.929 70.096C151.401 69.632 151.977 69.4 152.657 69.4C153.377 69.4 153.945 69.676 154.361 70.228ZM152.753 70.168C152.297 70.168 151.909 70.332 151.589 70.66C151.277 70.98 151.121 71.428 151.121 72.004C151.121 72.556 151.265 73.008 151.553 73.36C151.849 73.704 152.249 73.876 152.753 73.876C153.257 73.876 153.657 73.696 153.953 73.336C154.257 72.976 154.409 72.536 154.409 72.016C154.409 71.424 154.241 70.968 153.905 70.648C153.569 70.328 153.185 70.168 152.753 70.168ZM160.761 69.88V70.912C160.369 70.416 159.849 70.168 159.201 70.168C158.713 70.168 158.297 70.336 157.953 70.672C157.609 71 157.437 71.452 157.437 72.028C157.437 72.604 157.609 73.056 157.953 73.384C158.297 73.712 158.709 73.876 159.189 73.876C159.829 73.876 160.365 73.616 160.797 73.096V74.128C160.325 74.472 159.797 74.644 159.213 74.644C158.437 74.644 157.797 74.4 157.293 73.912C156.797 73.416 156.549 72.792 156.549 72.04C156.549 71.28 156.801 70.652 157.305 70.156C157.809 69.652 158.445 69.4 159.213 69.4C159.789 69.4 160.305 69.56 160.761 69.88ZM166.206 73.9C165.71 74.396 165.082 74.644 164.322 74.644C163.562 74.644 162.93 74.396 162.426 73.9C161.93 73.404 161.682 72.78 161.682 72.028C161.682 71.268 161.93 70.64 162.426 70.144C162.93 69.648 163.562 69.4 164.322 69.4C165.082 69.4 165.71 69.648 166.206 70.144C166.71 70.64 166.962 71.268 166.962 72.028C166.962 72.78 166.71 73.404 166.206 73.9ZM165.558 70.66C165.222 70.332 164.81 70.168 164.322 70.168C163.834 70.168 163.418 70.336 163.074 70.672C162.738 71 162.57 71.452 162.57 72.028C162.57 72.604 162.742 73.056 163.086 73.384C163.43 73.712 163.842 73.876 164.322 73.876C164.802 73.876 165.214 73.712 165.558 73.384C165.902 73.056 166.074 72.604 166.074 72.028C166.074 71.444 165.902 70.988 165.558 70.66ZM168.287 69.52H170.171C170.627 69.52 170.975 69.616 171.215 69.808C171.503 70.04 171.647 70.352 171.647 70.744C171.647 71.176 171.467 71.508 171.107 71.74C171.355 71.804 171.563 71.916 171.731 72.076C171.995 72.332 172.127 72.652 172.127 73.036C172.127 73.516 171.955 73.892 171.611 74.164C171.315 74.388 170.923 74.5 170.435 74.5H168.287V69.52ZM169.151 71.548H170.063C170.295 71.548 170.479 71.5 170.615 71.404C170.775 71.284 170.855 71.112 170.855 70.888C170.855 70.688 170.775 70.528 170.615 70.408C170.495 70.328 170.263 70.288 169.919 70.288H169.151V71.548ZM169.151 73.732H170.219C170.587 73.732 170.847 73.676 170.999 73.564C171.191 73.42 171.287 73.236 171.287 73.012C171.287 72.772 171.203 72.584 171.035 72.448C170.883 72.328 170.623 72.268 170.255 72.268H169.151V73.732ZM143.674 85.804V89.26H142.81V81.52H143.674V82.216C144.114 81.672 144.682 81.4 145.378 81.4C146.122 81.4 146.71 81.664 147.142 82.192C147.582 82.712 147.802 83.328 147.802 84.04C147.802 84.76 147.586 85.376 147.154 85.888C146.722 86.392 146.142 86.644 145.414 86.644C144.686 86.644 144.106 86.364 143.674 85.804ZM145.294 85.876C145.782 85.876 146.174 85.7 146.47 85.348C146.766 84.988 146.914 84.552 146.914 84.04C146.914 83.464 146.75 83.008 146.422 82.672C146.094 82.336 145.714 82.168 145.282 82.168C144.85 82.168 144.466 82.336 144.13 82.672C143.794 83.008 143.626 83.46 143.626 84.028C143.626 84.548 143.778 84.988 144.082 85.348C144.394 85.7 144.798 85.876 145.294 85.876ZM152.943 82.228V81.52H153.807V86.5H152.943V85.804C152.511 86.364 151.943 86.644 151.239 86.644C150.567 86.644 149.995 86.412 149.523 85.948C149.051 85.484 148.815 84.836 148.815 84.004C148.815 83.188 149.047 82.552 149.511 82.096C149.983 81.632 150.559 81.4 151.239 81.4C151.959 81.4 152.527 81.676 152.943 82.228ZM151.335 82.168C150.879 82.168 150.491 82.332 150.171 82.66C149.859 82.98 149.703 83.428 149.703 84.004C149.703 84.556 149.847 85.008 150.135 85.36C150.431 85.704 150.831 85.876 151.335 85.876C151.839 85.876 152.239 85.696 152.535 85.336C152.839 84.976 152.991 84.536 152.991 84.016C152.991 83.424 152.823 82.968 152.487 82.648C152.151 82.328 151.767 82.168 151.335 82.168ZM159.283 78.1H160.243C160.155 78.396 160.003 78.648 159.787 78.856C159.579 79.056 159.387 79.192 159.211 79.264C159.043 79.336 158.843 79.4 158.611 79.456C158.571 79.464 158.475 79.488 158.323 79.528C158.171 79.56 158.055 79.588 157.975 79.612C157.895 79.636 157.791 79.668 157.663 79.708C157.535 79.748 157.419 79.796 157.315 79.852C157.211 79.908 157.115 79.968 157.027 80.032C156.723 80.264 156.475 80.588 156.283 81.004C156.099 81.412 155.999 81.848 155.983 82.312H156.007C156.367 81.704 156.971 81.4 157.819 81.4C158.563 81.4 159.179 81.652 159.667 82.156C160.163 82.66 160.411 83.284 160.411 84.028C160.411 84.78 160.159 85.404 159.655 85.9C159.151 86.396 158.495 86.644 157.687 86.644C156.991 86.644 156.419 86.436 155.971 86.02C155.411 85.508 155.131 84.652 155.131 83.452C155.131 81.364 155.603 79.996 156.547 79.348C156.619 79.3 156.695 79.256 156.775 79.216C156.855 79.168 156.939 79.128 157.027 79.096C157.123 79.056 157.203 79.024 157.267 79C157.331 78.968 157.419 78.94 157.531 78.916C157.651 78.884 157.731 78.864 157.771 78.856C157.819 78.84 157.907 78.82 158.035 78.796C158.171 78.764 158.255 78.744 158.287 78.736C158.607 78.664 158.839 78.58 158.983 78.484C159.127 78.38 159.227 78.252 159.283 78.1ZM159.007 82.66C158.671 82.332 158.259 82.168 157.771 82.168C157.283 82.168 156.867 82.336 156.523 82.672C156.187 83 156.019 83.452 156.019 84.028C156.019 84.604 156.191 85.056 156.535 85.384C156.879 85.712 157.291 85.876 157.771 85.876C158.251 85.876 158.663 85.712 159.007 85.384C159.351 85.056 159.523 84.604 159.523 84.028C159.523 83.444 159.351 82.988 159.007 82.66ZM165.948 85.9C165.452 86.396 164.824 86.644 164.064 86.644C163.304 86.644 162.672 86.396 162.168 85.9C161.672 85.404 161.424 84.78 161.424 84.028C161.424 83.268 161.672 82.64 162.168 82.144C162.672 81.648 163.304 81.4 164.064 81.4C164.824 81.4 165.452 81.648 165.948 82.144C166.452 82.64 166.704 83.268 166.704 84.028C166.704 84.78 166.452 85.404 165.948 85.9ZM165.3 82.66C164.964 82.332 164.552 82.168 164.064 82.168C163.576 82.168 163.16 82.336 162.816 82.672C162.48 83 162.312 83.452 162.312 84.028C162.312 84.604 162.484 85.056 162.828 85.384C163.172 85.712 163.584 85.876 164.064 85.876C164.544 85.876 164.956 85.712 165.3 85.384C165.644 85.056 165.816 84.604 165.816 84.028C165.816 83.444 165.644 82.988 165.3 82.66ZM171.176 82.312H169.616V86.5H168.752V82.312H167.192V81.52H171.176V82.312ZM172.084 86.5V81.52H172.948V83.428H173.836C174.524 83.428 175.028 83.592 175.348 83.92C175.604 84.176 175.732 84.524 175.732 84.964C175.732 85.428 175.584 85.8 175.288 86.08C174.992 86.36 174.504 86.5 173.824 86.5H172.084ZM172.948 85.732H173.752C174.112 85.732 174.368 85.688 174.52 85.6C174.736 85.456 174.844 85.244 174.844 84.964C174.844 84.676 174.74 84.468 174.532 84.34C174.388 84.244 174.132 84.196 173.764 84.196H172.948V85.732ZM176.332 86.5V81.52H177.196V86.5H176.332Z" fill="#E66366"/>
<rect x="205.5" y="0.5" width="114" height="114" rx="57" stroke="#E66366"/>
<path d="M265.592 38.012V49.232H267.396V50.728H265.592V53.5H263.964V50.728H256.44L265.592 38.012ZM259.322 49.232H263.964V42.742L259.322 49.232Z" fill="#E66366"/>
<path d="M238.654 71.26L240.238 68.032L237.946 63.52H238.93L240.694 67.084L242.314 63.52H243.274L239.614 71.26H238.654ZM246.732 68.5V66.544C246.26 66.616 245.868 66.652 245.556 66.652C245.012 66.652 244.608 66.532 244.344 66.292C244.064 66.044 243.924 65.636 243.924 65.068V63.52H244.788V64.948C244.788 65.22 244.824 65.416 244.896 65.536C245.008 65.752 245.26 65.86 245.652 65.86C246.004 65.86 246.364 65.824 246.732 65.752V63.52H247.596V68.5H246.732ZM253.04 64.228V63.52H253.904V68.5H253.04V67.804C252.608 68.364 252.04 68.644 251.336 68.644C250.664 68.644 250.092 68.412 249.62 67.948C249.148 67.484 248.912 66.836 248.912 66.004C248.912 65.188 249.144 64.552 249.608 64.096C250.08 63.632 250.656 63.4 251.336 63.4C252.056 63.4 252.624 63.676 253.04 64.228ZM251.432 64.168C250.976 64.168 250.588 64.332 250.268 64.66C249.956 64.98 249.8 65.428 249.8 66.004C249.8 66.556 249.944 67.008 250.232 67.36C250.528 67.704 250.928 67.876 251.432 67.876C251.936 67.876 252.336 67.696 252.632 67.336C252.936 66.976 253.088 66.536 253.088 66.016C253.088 65.424 252.92 64.968 252.584 64.648C252.248 64.328 251.864 64.168 251.432 64.168ZM259.441 63.88V64.912C259.049 64.416 258.529 64.168 257.881 64.168C257.393 64.168 256.977 64.336 256.633 64.672C256.289 65 256.117 65.452 256.117 66.028C256.117 66.604 256.289 67.056 256.633 67.384C256.977 67.712 257.389 67.876 257.869 67.876C258.509 67.876 259.045 67.616 259.477 67.096V68.128C259.005 68.472 258.477 68.644 257.893 68.644C257.117 68.644 256.477 68.4 255.973 67.912C255.477 67.416 255.229 66.792 255.229 66.04C255.229 65.28 255.481 64.652 255.985 64.156C256.489 63.652 257.125 63.4 257.893 63.4C258.469 63.4 258.985 63.56 259.441 63.88ZM264.066 64.312H262.506V68.5H261.642V64.312H260.082V63.52H264.066V64.312ZM264.974 68.5V63.52H265.838V65.56H268.19V63.52H269.054V68.5H268.19V66.352H265.838V68.5H264.974ZM270.681 63.52H271.545V66.808L274.953 63.136V68.5H274.089V65.176L270.681 68.848V63.52ZM276.587 63.52H277.451V65.56L279.467 63.52H280.523L278.363 65.74L280.787 68.5H279.659L277.715 66.316L277.451 66.568V68.5H276.587V63.52ZM285.466 64.228V63.52H286.33V68.5H285.466V67.804C285.034 68.364 284.466 68.644 283.762 68.644C283.09 68.644 282.518 68.412 282.046 67.948C281.574 67.484 281.338 66.836 281.338 66.004C281.338 65.188 281.57 64.552 282.034 64.096C282.506 63.632 283.082 63.4 283.762 63.4C284.482 63.4 285.05 63.676 285.466 64.228ZM283.858 64.168C283.402 64.168 283.014 64.332 282.694 64.66C282.382 64.98 282.226 65.428 282.226 66.004C282.226 66.556 282.37 67.008 282.658 67.36C282.954 67.704 283.354 67.876 283.858 67.876C284.362 67.876 284.762 67.696 285.058 67.336C285.362 66.976 285.514 66.536 285.514 66.016C285.514 65.424 285.346 64.968 285.01 64.648C284.674 64.328 284.29 64.168 283.858 64.168ZM242.134 75.52H242.998V77.56L245.014 75.52H246.07L243.91 77.74L246.334 80.5H245.206L243.262 78.316L242.998 78.568V80.5H242.134V75.52ZM251.174 79.9C250.678 80.396 250.05 80.644 249.29 80.644C248.53 80.644 247.898 80.396 247.394 79.9C246.898 79.404 246.65 78.78 246.65 78.028C246.65 77.268 246.898 76.64 247.394 76.144C247.898 75.648 248.53 75.4 249.29 75.4C250.05 75.4 250.678 75.648 251.174 76.144C251.678 76.64 251.93 77.268 251.93 78.028C251.93 78.78 251.678 79.404 251.174 79.9ZM250.526 76.66C250.19 76.332 249.778 76.168 249.29 76.168C248.802 76.168 248.386 76.336 248.042 76.672C247.706 77 247.538 77.452 247.538 78.028C247.538 78.604 247.71 79.056 248.054 79.384C248.398 79.712 248.81 79.876 249.29 79.876C249.77 79.876 250.182 79.712 250.526 79.384C250.87 79.056 251.042 78.604 251.042 78.028C251.042 77.444 250.87 76.988 250.526 76.66ZM252.679 80.5L253.879 75.136L255.943 79.192L257.959 75.136L259.159 80.5H258.271L257.611 77.416L255.919 80.848L254.203 77.416L253.567 80.5H252.679ZM264.032 76.228V75.52H264.896V80.5H264.032V79.804C263.6 80.364 263.032 80.644 262.328 80.644C261.656 80.644 261.084 80.412 260.612 79.948C260.14 79.484 259.904 78.836 259.904 78.004C259.904 77.188 260.136 76.552 260.6 76.096C261.072 75.632 261.648 75.4 262.328 75.4C263.048 75.4 263.616 75.676 264.032 76.228ZM262.424 76.168C261.968 76.168 261.58 76.332 261.26 76.66C260.948 76.98 260.792 77.428 260.792 78.004C260.792 78.556 260.936 79.008 261.224 79.36C261.52 79.704 261.92 79.876 262.424 79.876C262.928 79.876 263.328 79.696 263.624 79.336C263.928 78.976 264.08 78.536 264.08 78.016C264.08 77.424 263.912 76.968 263.576 76.648C263.24 76.328 262.856 76.168 262.424 76.168ZM266.533 80.5V75.52H267.397V77.56H269.749V75.52H270.613V80.5H269.749V78.352H267.397V80.5H266.533ZM272.6 75.52H276.104V79.708H276.848V81.82H276.056V80.5H272.264V81.82H271.472V79.708C271.888 79.7 272.196 79.484 272.396 79.06C272.532 78.78 272.6 78.34 272.6 77.74V75.52ZM275.24 79.708V76.312H273.464V78.184C273.464 78.848 273.264 79.356 272.864 79.708H275.24ZM277.759 80.5V75.52H278.623V77.428H279.511C280.199 77.428 280.703 77.592 281.023 77.92C281.279 78.176 281.407 78.524 281.407 78.964C281.407 79.428 281.259 79.8 280.963 80.08C280.667 80.36 280.179 80.5 279.499 80.5H277.759ZM278.623 79.732H279.427C279.787 79.732 280.043 79.688 280.195 79.6C280.411 79.456 280.519 79.244 280.519 78.964C280.519 78.676 280.415 78.468 280.207 78.34C280.063 78.244 279.807 78.196 279.439 78.196H278.623V79.732ZM282.007 80.5V75.52H282.871V80.5H282.007Z" fill="#E66366"/>
</svg>
