<svg width="180" height="125" viewBox="0 0 180 125" fill="none" xmlns="http://www.w3.org/2000/svg">
<g clip-path="url(#clip0_164_120)">
<path d="M61.2339 66.9977C60.9334 67.2452 60.9559 67.8603 61.4368 67.9892C86.7829 74.6401 111.988 81.8156 137.405 88.2042C137.711 88.2862 137.944 88.1145 138.058 87.8639C138.332 87.8905 138.598 87.7742 138.68 87.4682C143.19 69.9353 148.313 52.5664 153.042 35.0922C153.206 34.4801 152.399 34.1702 152.051 34.5925C126.928 26.4084 101.091 20.8909 75.5968 13.9192C75.4283 13.4992 74.6617 13.3875 74.5094 13.9558C69.8443 31.5409 65.5173 49.2635 61.2456 66.954C61.2339 66.9977 61.2339 66.9977 61.2339 66.9977ZM151.671 35.6619C147.068 52.8419 142.039 69.861 137.567 87.0762C112.401 80.8016 87.4692 73.6526 62.3416 67.0603C66.5313 49.6757 70.8084 32.3146 75.3477 15.0237C100.755 21.9721 126.592 27.4895 151.671 35.6619Z" fill="#E66366"/>
<path d="M157.979 116.863C157.958 116.763 157.982 116.676 157.994 116.632C158.076 116.326 157.904 116.093 157.653 115.979C157.621 115.923 157.578 115.912 157.502 115.845C156.007 112.68 153.521 109.718 151.603 106.908C148.69 102.567 145.666 98.2892 143.141 93.7238C143.109 93.6683 143.077 93.6129 143.034 93.6012C146.288 82.8536 149.837 72.2317 152.961 61.4489C155.885 51.4093 158.218 41.3049 160.125 31.0396C160.148 30.9522 160.116 30.8968 160.14 30.8093C160.21 30.547 160.117 30.1942 159.768 30.1005C130.073 22.1908 100.336 14.2694 70.5859 6.39172C69.8864 6.2043 69.5936 7.29718 70.2931 7.48459C70.3805 7.50802 70.4679 7.53145 70.5553 7.55487C70.4445 7.61888 70.3656 7.73831 70.3305 7.86945C64.6878 28.7535 59.5259 49.7664 54.5506 70.7824C54.5506 70.7824 54.5506 70.7824 54.5069 70.7707C47.2349 74.3041 39.9832 77.9366 33.9624 83.445C33.5573 83.3833 33.2887 83.6862 33.2504 84.0039C33.195 84.0359 33.1279 84.1116 33.0927 84.2428C32.4173 85.8891 31.8731 87.5706 31.5474 89.3106C31.5208 89.5846 31.6488 89.8063 31.844 89.9523C31.8291 90.1826 31.9454 90.448 32.2514 90.53C46.832 94.3431 61.2868 98.4506 75.8204 102.439C89.7304 106.306 103.664 110.087 117.471 114.161C121.895 115.487 126.264 116.845 130.737 117.809C138.886 119.571 147.191 120.578 155.472 121.673C155.395 122.308 156.401 122.577 156.588 121.878C156.986 120.392 157.373 118.949 157.771 117.463C157.993 117.335 158.095 117.128 157.979 116.863ZM159.038 31.0762C157.154 41.2541 154.801 51.2594 151.912 61.1678C148.812 71.8631 145.286 82.3976 142.055 93.0578C113.062 86.5541 84.2354 79.2518 55.6552 71.0316C60.5985 49.9601 65.7486 28.9909 71.4351 8.11857C71.4819 7.94371 71.4616 7.84457 71.3976 7.73371C100.611 15.5145 129.824 23.2954 159.038 31.0762ZM54.7621 71.9167C54.7941 71.9722 54.8815 71.9956 54.969 72.019C83.7677 80.2979 112.801 87.7024 142.024 94.221C142.068 94.2327 142.068 94.2327 142.112 94.2444C142.155 94.2561 142.155 94.2561 142.199 94.2678C144.628 98.6669 147.544 102.822 150.373 106.953C151.776 109.063 153.222 111.184 154.625 113.293C155.064 113.926 155.492 114.603 155.963 115.292C141.462 110.657 126.282 108.557 111.547 104.796C111.813 104.68 112.037 104.365 111.857 103.989C111.232 102.65 110.648 100.807 109.69 99.66C108.916 98.7029 107.986 98.5006 106.806 98.1844C103.047 97.177 99.3425 96.1377 95.6065 95.0429C92.1007 93.963 88.4615 92.3319 84.862 91.6017C82.4225 91.0886 80.726 93.3984 79.0217 94.8627C78.8991 94.9704 78.864 95.1016 78.8289 95.2327C72.9859 93.4328 67.175 91.6884 61.2969 90.0196C52.7201 87.5809 44.1169 85.4163 35.341 83.7207C41.1018 78.658 47.8781 75.2261 54.7621 71.9167ZM110.88 104.664C110.355 104.523 109.831 104.383 109.306 104.242C99.4381 101.551 89.7076 98.5225 79.9655 95.5373C81.1357 94.4921 82.8931 92.4797 84.5692 92.6945C85.7089 92.8125 87.0258 93.4934 88.0515 93.8619C90.7587 94.7747 93.4456 95.5884 96.1762 96.4137C98.732 97.1923 101.343 97.9388 103.922 98.6299C105.715 99.1101 107.962 99.2906 109.109 100.957C109.86 102.001 110.275 103.424 110.859 104.565C110.848 104.609 110.891 104.62 110.88 104.664ZM118.77 113.338C113.964 111.863 109.112 110.562 104.283 109.175C87.2489 104.376 70.2352 99.6769 53.1778 94.9659C46.3699 93.0949 39.5184 91.2121 32.6871 89.4286C32.9777 87.8197 33.4314 86.3014 34.0716 84.7862C34.0833 84.7425 34.1068 84.6551 34.1185 84.6113C66.6192 90.7898 97.4387 103.593 129.854 110.264C138.869 112.117 147.951 113.894 156.696 116.753C156.728 116.809 156.716 116.852 156.76 116.864C156.432 118.088 156.104 119.312 155.776 120.536C143.234 118.909 130.936 117.066 118.77 113.338Z" fill="#E66366"/>
<path d="M76.0764 32.4141C75.7204 32.6935 75.6439 33.3289 76.2239 33.4375C89.4915 35.6807 102.262 39.4304 115.269 42.8218C124.079 45.0888 133.093 46.942 141.684 49.853C141.859 49.8999 142.002 49.8913 142.124 49.7836C142.279 49.7313 142.402 49.6236 142.46 49.405C143.018 46.2747 143.782 43.2466 144.733 40.2217C145.153 40.0531 145.253 39.3303 144.697 39.1343C133.806 35.8882 122.907 32.4993 111.958 29.4718C101.359 26.538 90.5338 24.6214 79.8994 21.8187C80.0197 21.195 79.0025 20.9693 78.7831 21.6133C77.6391 25.0082 76.7021 28.5054 75.9953 32.0175C75.9602 32.1486 75.9687 32.2915 76.0764 32.4141ZM111.633 30.5092C122.364 33.4782 132.957 36.7851 143.629 39.9726C142.736 42.7789 142.007 45.6758 141.464 48.5759C132.993 45.7438 124.153 43.9374 115.561 41.729C102.718 38.4281 90.1224 34.7252 77.053 32.4415C77.0647 32.3978 77.0765 32.354 77.0882 32.3103C77.7567 29.116 78.5446 26.0005 79.5628 22.8999C90.209 25.6588 101.034 27.5754 111.633 30.5092Z" fill="#E66366"/>
<path d="M95.3206 41.5532C95.3354 41.3229 95.2074 41.1012 94.9014 41.0192C88.8805 39.359 82.7689 37.862 76.6543 36.5516C76.5668 36.5281 76.4794 36.5047 76.4357 36.493L76.392 36.4813C75.8557 36.3844 75.5488 37.005 75.7846 37.3493C73.1936 46.4943 70.9407 55.7767 68.9617 65.0857C68.5737 65.3098 68.6923 66.0912 69.284 66.156C75.5744 66.8107 81.6422 68.2961 87.5429 70.5799C87.8809 70.7174 88.126 70.5019 88.208 70.1959C88.3766 70.6159 89.1432 70.7276 89.2955 70.1593C91.8224 60.9035 93.9879 51.5976 95.8037 42.198C95.842 41.8803 95.6266 41.6352 95.3206 41.5532ZM87.824 69.5308C82.0865 67.3375 76.1498 65.8873 70.0694 65.1483C72.025 55.9267 74.2748 46.8309 76.7986 37.7616C82.7821 39.0369 88.7188 40.487 94.6086 42.1121C92.8045 51.4679 90.6507 60.7301 88.1472 69.8985C88.1386 69.7556 88.0426 69.5894 87.824 69.5308Z" fill="#E66366"/>
<path d="M117.965 47.6207C117.98 47.3904 117.852 47.1687 117.546 47.0867C111.525 45.4265 105.413 43.9295 99.2988 42.6191C99.2114 42.5956 99.1239 42.5722 99.0802 42.5605L99.0365 42.5488C98.5002 42.4519 98.1934 43.0725 98.4291 43.4168C95.8147 52.6492 93.5501 61.9754 91.5477 71.3718L91.536 71.4155C91.2791 71.6747 91.3134 72.2461 91.806 72.3313C98.1127 73.9743 104.475 75.5853 110.781 77.2283C111.219 77.3454 111.511 76.9551 111.473 76.5703C111.671 76.5297 111.838 76.4337 111.908 76.1714C114.435 66.9155 116.6 57.6097 118.416 48.2101C118.487 47.9478 118.227 47.691 117.965 47.6207ZM117.297 48.1913C115.493 57.5471 113.339 66.8093 110.835 75.9777C110.824 76.0214 110.8 76.1089 110.832 76.1643C104.788 74.5916 98.7318 73.0625 92.7311 71.5015C94.6984 62.2362 96.9833 53.0092 99.5306 43.8525C105.482 45.0724 111.419 46.5225 117.297 48.1913Z" fill="#E66366"/>
<path d="M140.216 53.5828C140.231 53.3526 140.103 53.1308 139.797 53.0489C133.776 51.3887 127.664 49.8917 121.55 48.5812C121.462 48.5578 121.375 48.5344 121.331 48.5227L121.287 48.5109C120.751 48.4141 120.444 49.0347 120.68 49.379C118.089 58.524 115.836 67.8064 113.857 77.1154C113.469 77.3394 113.588 78.1209 114.18 78.1857C120.47 78.8404 126.538 80.3257 132.438 82.6096C132.776 82.747 133.022 82.5316 133.104 82.2256C133.272 82.6456 134.039 82.7573 134.191 82.189C136.718 72.9331 138.883 63.6273 140.699 54.2277C140.738 53.91 140.522 53.6648 140.216 53.5828ZM132.72 81.5604C126.982 79.3671 121.045 77.917 114.965 77.178C116.92 67.9564 119.17 58.8605 121.694 49.7912C127.678 51.0665 133.614 52.5167 139.504 54.1417C137.7 63.4976 135.546 72.7597 133.043 81.9282C133.034 81.7853 132.938 81.619 132.72 81.5604Z" fill="#E66366"/>
<path d="M91.7637 46.7848C92.4749 46.9285 92.7677 45.8356 92.0566 45.6919C87.0262 44.5314 81.9638 43.3155 76.9335 42.1551C76.2223 42.0114 75.9295 43.1042 76.6406 43.2479C81.671 44.4084 86.7451 45.5806 91.7637 46.7848Z" fill="#E66366"/>
<path d="M91.2378 49.9705C86.298 48.6469 81.3145 47.3116 76.3747 45.988C75.6752 45.8006 75.3824 46.8934 76.0818 47.0808C81.0216 48.4045 86.0051 49.7398 90.9449 51.0634C91.6444 51.2508 91.9372 50.1579 91.2378 49.9705Z" fill="#E66366"/>
<path d="M82.3503 51.6653C79.9897 51.0328 77.5854 50.3886 75.2248 49.756C74.5253 49.5686 74.2325 50.6615 74.9319 50.8489C77.2925 51.4814 79.6969 52.1257 82.0575 52.7582C82.7569 52.9456 83.0498 51.8527 82.3503 51.6653Z" fill="#E66366"/>
<path d="M87.7763 60.6159C83.1425 59.3743 78.5524 58.1444 73.9186 56.9028C73.2192 56.7154 72.9263 57.8082 73.6258 57.9956C78.2596 59.2373 82.8497 60.4672 87.4834 61.7088C88.1829 61.8962 88.4757 60.8033 87.7763 60.6159Z" fill="#E66366"/>
<path d="M86.5474 64.5034C82.0448 63.2969 77.4984 62.0787 72.9958 60.8723C72.2963 60.6848 72.0035 61.7777 72.7029 61.9651C77.2056 63.1716 81.7519 64.3898 86.2546 65.5963C86.954 65.7837 87.2906 64.7025 86.5474 64.5034Z" fill="#E66366"/>
<path d="M99.6512 47.7737C104.329 49.0271 108.962 50.2687 113.64 51.522C114.339 51.7094 114.632 50.6165 113.933 50.4291C109.255 49.1758 104.622 47.9342 99.944 46.6808C99.2446 46.4934 98.9517 47.5863 99.6512 47.7737Z" fill="#E66366"/>
<path d="M98.5755 52.3116C103.384 53.6 108.193 54.8885 113.001 56.177C113.701 56.3644 113.994 55.2715 113.294 55.0841C108.486 53.7956 103.677 52.5072 98.8683 51.2187C98.1689 51.0313 97.8761 52.1241 98.5755 52.3116Z" fill="#E66366"/>
<path d="M109.147 58.8456C105.344 57.8265 101.585 56.8192 97.7814 55.8001C97.082 55.6127 96.7891 56.7056 97.4886 56.893C101.292 57.912 105.051 58.9194 108.854 59.9385C109.554 60.1259 109.89 59.0447 109.147 58.8456Z" fill="#E66366"/>
<path d="M101.899 64.9153C102.598 65.1028 102.891 64.0099 102.192 63.8225C100.574 63.3891 99.0004 62.9674 97.383 62.534C96.6835 62.3466 96.3907 63.4395 97.0901 63.6269C98.7076 64.0603 100.325 64.4937 101.899 64.9153Z" fill="#E66366"/>
<path d="M96.5036 66.5152C95.8041 66.3278 95.5113 67.4207 96.2107 67.6081C100.582 68.7794 104.954 69.9507 109.325 71.1221C110.025 71.3095 110.318 70.2166 109.618 70.0292C105.247 68.8579 100.875 67.6865 96.5036 66.5152Z" fill="#E66366"/>
<path d="M130.748 60.4166C127.863 59.6435 125.021 58.8822 122.136 58.1091C121.436 57.9217 121.144 59.0145 121.843 59.2019C124.728 59.975 127.57 60.7364 130.455 61.5095C131.154 61.6969 131.491 60.6157 130.748 60.4166Z" fill="#E66366"/>
<path d="M135.359 58.4193C136.059 58.6067 136.352 57.5138 135.652 57.3264C131.412 56.1902 127.215 55.0657 122.975 53.9295C122.275 53.7421 121.983 54.835 122.682 55.0224C126.922 56.1586 131.119 57.2831 135.359 58.4193Z" fill="#E66366"/>
<path d="M120.767 64.4423C120.067 64.2549 119.774 65.3478 120.474 65.5352C122.354 66.0389 124.277 66.5543 126.157 67.0579C126.856 67.2453 127.149 66.1525 126.45 65.9651C124.57 65.4614 122.69 64.9577 120.767 64.4423Z" fill="#E66366"/>
<path d="M132.31 73.2981C128.026 72.1501 123.741 71.0022 119.501 69.866C118.802 69.6786 118.509 70.7715 119.208 70.9589C123.492 72.1068 127.776 73.2547 132.017 74.3909C132.716 74.5783 133.009 73.4855 132.31 73.2981Z" fill="#E66366"/>
<path d="M131.077 77.3722C126.706 76.2009 122.334 75.0296 117.963 73.8582C117.263 73.6708 116.97 74.7637 117.67 74.9511C122.041 76.1224 126.413 77.2938 130.784 78.4651C131.484 78.6525 131.777 77.5596 131.077 77.3722Z" fill="#E66366"/>
</g>
<path d="M9.24003 5.98757C10.3212 8.17932 11.4223 10.4117 12.5034 12.6034C12.8237 13.2528 13.8384 12.7523 13.5181 12.1029C12.437 9.91114 11.3358 7.6788 10.2547 5.48705C9.9344 4.83765 8.9197 5.33817 9.24003 5.98757Z" fill="#E66366"/>
<path d="M23.24 24.9876C24.3212 27.1793 25.4223 29.4117 26.5034 31.6034C26.8237 32.2528 27.8384 31.7523 27.5181 31.1029C26.437 28.9111 25.3358 26.6788 24.2547 24.4871C23.9344 23.8376 22.9197 24.3382 23.24 24.9876Z" fill="#E66366"/>
<path d="M25.282 1.41709C23.9364 4.9717 22.566 8.59213 21.2204 12.1467C20.8217 13.1999 21.8799 13.6005 22.2786 12.5473C23.6241 8.99268 24.9946 5.37225 26.3401 1.81764C26.7388 0.764427 25.6807 0.363875 25.282 1.41709Z" fill="#E66366"/>
<path d="M27.8159 18.1827C31.4876 17.2006 35.2272 16.2003 38.8989 15.2182C39.9868 14.9273 40.2792 16.0203 39.1913 16.3112C35.5196 17.2933 31.7799 18.2936 28.1082 19.2757C27.0203 19.5667 26.728 18.4737 27.8159 18.1827Z" fill="#E66366"/>
<g clip-path="url(#clip1_164_120)">
<path d="M19.5144 18C13.6035 18.7692 7.97592 20.7126 2.10548 21.6032C1.7411 21.6437 1.66013 22.2105 1.90305 22.4534C3.44151 23.9109 4.85851 25.4494 6.316 26.9879C4.41317 28.9312 2.14596 30.4292 0.324099 32.413C0.0811841 32.5749 -0.0807592 32.9393 0.162156 33.2227C1.57916 34.8016 3.32005 36.0567 4.57511 37.7571C4.73705 38 5.14191 38.1215 5.38483 37.8785C7.28766 35.4899 9.35244 33.1822 11.4982 30.996C12.7532 32.4534 14.2917 33.5871 15.6682 34.9231C15.9516 35.2065 16.4375 35.085 16.5184 34.6802C17.8949 29.3765 18.4213 23.8705 20.0812 18.6478C20.0812 18.3644 19.8383 17.9595 19.5144 18ZM15.6682 33.5871C14.3727 32.413 12.9557 31.3603 11.903 29.9433C11.7006 29.7004 11.3767 29.579 11.0933 29.8219C8.94758 32.0081 6.92329 34.2753 4.97997 36.664C3.84637 35.2875 2.42936 34.1539 1.21479 32.8583C3.15811 30.8745 5.4658 29.336 7.32815 27.3117C7.53058 27.1093 7.53058 26.7854 7.32815 26.583C5.99212 25.166 4.69657 23.749 3.32005 22.3725C8.50224 21.4818 13.563 19.8219 18.7856 19.0526C17.3686 23.83 16.8423 28.8097 15.6682 33.5871Z" fill="#E66366"/>
</g>
<defs>
<clipPath id="clip0_164_120">
<rect width="129.435" height="92.3245" fill="white" transform="translate(54.8955 2) rotate(15)"/>
</clipPath>
<clipPath id="clip1_164_120">
<rect width="20" height="20" fill="white" transform="translate(0 18)"/>
</clipPath>
</defs>
</svg>
