<svg width="37" height="56" viewBox="0 0 37 56" fill="none" xmlns="http://www.w3.org/2000/svg">
<g clip-path="url(#clip0_164_126)">
<path d="M32.6476 46.4381C32.6476 46.3619 32.6476 46.2095 32.5714 46.1333C32.4952 45.6762 32.1905 45.2952 31.6571 45.2952C31.2 45.2952 30.819 45.2952 30.3619 45.2952C30.2095 41.1809 28.9905 37.6 26.4 34.4C24.3428 31.9619 20.6095 29.0666 23.5809 26.1714C28.0762 21.8285 29.7524 16.8 29.8286 10.6285C29.9048 10.6285 29.9809 10.6285 29.9809 10.6285C30.5143 10.7047 31.1238 10.4 31.1238 9.71426C31.1238 8.26664 31.1238 6.81902 31.1238 5.3714C31.1238 5.29521 31.1238 5.21902 31.1238 5.14283C31.1238 4.68569 30.819 4.22855 30.2095 4.15236C21.9048 3.84759 13.6 4.22855 5.21904 4.30474C5.06666 4.30474 4.83809 4.30474 4.7619 4.38093C4.30475 4.45712 3.9238 4.76188 3.99999 5.29521C4.15237 6.74283 4.22856 8.19045 4.30475 9.63807C4.30475 10.1714 4.7619 10.5524 5.29523 10.5524C5.59999 10.5524 5.98094 10.5524 6.28571 10.5524C6.3619 13.6762 6.89523 16.7238 8.57142 19.4666C10.2476 22.1333 13.3714 24.0381 14.819 26.7809C16.419 29.7524 12 32.419 10.4 34.5524C7.9619 37.8285 7.27618 41.4095 7.35237 45.3714C6.74285 45.3714 6.13332 45.3714 5.5238 45.3714C4.91428 45.3714 4.60951 45.9047 4.60951 46.3619C4.60951 46.4381 4.53332 46.5905 4.60951 46.6666C4.7619 47.8857 4.7619 49.1047 4.7619 50.3238C4.7619 50.4762 4.7619 50.5524 4.83809 50.6285C4.60951 51.3143 4.91428 52 5.59999 52C14.2095 52.1524 22.8952 51.9238 31.5048 51.8476C32.1905 51.8476 32.4952 51.3143 32.419 50.7809C32.5714 50.6285 32.6476 50.4 32.6476 50.1714C32.6476 48.8762 32.6476 47.6571 32.6476 46.4381ZM29.2952 5.98093C29.2952 6.89521 29.2952 7.8095 29.2952 8.72378C21.6 8.95236 13.8286 8.79998 6.13332 8.72378C6.13332 7.88569 6.05713 7.04759 5.98094 6.2095C13.7524 6.13331 21.5238 5.75236 29.2952 5.98093ZM14.0571 33.2571C15.7333 31.5809 17.5619 30.0571 16.9524 27.3905C16.419 24.8762 13.7524 23.1238 12.1524 21.2952C9.40951 18.0952 8.26666 14.819 8.03809 10.6285C14.6667 10.7047 21.2952 10.7809 27.9238 10.6285C27.9238 14.7428 27.2381 18.9333 24.6476 22.2857C23.5809 23.7333 21.8286 24.7238 20.8381 26.2476C19.5428 28.3047 20.4571 30.1333 21.7524 31.8857C25.0286 36.3809 28.2286 39.2 28.4571 45.219C27.9238 45.219 27.3905 45.219 26.8571 45.219C25.0286 43.0095 21.9048 38.9714 18.6286 39.4285C15.5809 39.8095 12.9143 43.3143 10.9333 45.3714C10.9333 45.3714 10.9333 45.3714 10.9333 45.4476C10.3238 45.4476 9.71428 45.4476 9.10475 45.4476C9.10475 40.4952 10.4762 36.7619 14.0571 33.2571ZM24.4952 45.2952C20.8381 45.2952 17.2571 45.3714 13.6 45.4476C14.9714 44 16.419 42.4 18.0952 41.7143C20.3809 40.7238 22.7428 43.2381 24.4952 45.2952ZM6.51428 50.0952C6.51428 49.1809 6.51428 48.2666 6.3619 47.3524C14.4381 47.3524 22.5905 47.0476 30.6667 47.2C30.6667 48.1143 30.6667 49.0285 30.6667 49.9428C22.6667 50.019 14.5905 50.1714 6.51428 50.0952Z" fill="white"/>
</g>
<defs>
<clipPath id="clip0_164_126">
<rect width="28.6476" height="48" fill="white" transform="translate(4 4)"/>
</clipPath>
</defs>
</svg>
