<svg width="58" height="56" viewBox="0 0 58 56" fill="none" xmlns="http://www.w3.org/2000/svg">
<g clip-path="url(#clip0_164_402)">
<path d="M41.5651 34.6623C37.8728 30.8095 33.8594 27.2777 30.0066 23.6657C27.0367 20.9366 24.2273 17.8061 21.0969 15.3178C24.0668 8.7359 17.0032 1.51181 10.2608 4.88305C9.93969 5.04359 9.77915 5.28439 9.77915 5.52519C9.61862 5.92653 9.61862 6.32787 9.93969 6.64894C11.3845 8.17402 13.0701 9.37804 14.4347 10.9834C14.5149 12.9098 13.2307 14.2744 11.3042 14.4349C9.69889 12.8295 7.933 11.3847 6.16711 10.0202C5.60524 9.69911 5.12363 9.85964 4.88283 10.261C4.7223 10.4215 4.64203 10.582 4.56176 10.7426C1.91293 17.6456 9.37781 24.8697 15.9598 21.0971C19.4113 23.8262 22.622 27.358 25.7524 30.3279C29.2842 33.6188 32.8159 36.8295 36.1872 40.281C32.7357 47.0235 39.8795 54.6489 46.7825 51.1974C47.1036 51.0369 47.2641 50.7961 47.2641 50.475C47.4246 50.154 47.4246 49.6723 47.1036 49.3513C45.6588 47.8262 43.9731 46.6222 42.6086 45.0168C42.5283 43.0904 43.8126 41.7259 45.739 41.5653C47.3444 43.1707 49.1103 44.6155 50.8761 45.98C51.3578 46.3814 51.8394 46.1406 52.1604 45.7392C52.321 45.659 52.4012 45.4984 52.4815 45.2576C55.1303 38.5152 48.0668 31.4516 41.5651 34.6623ZM47.0233 39.96C46.943 39.8797 46.7825 39.7994 46.7022 39.7192C46.5417 39.5586 46.3812 39.5586 46.0601 39.5586C42.8494 39.7192 40.2808 42.1272 40.6822 45.4984C40.6822 45.5787 40.7624 45.659 40.7624 45.7392C40.7624 45.8998 40.8427 46.0603 41.0032 46.1406C42.127 47.5051 43.4915 48.6289 44.7758 49.8329C40.04 51.1974 35.6253 45.8195 37.9531 41.2443C37.9531 41.164 38.0333 41.0837 38.0333 41.0035C38.5149 40.6824 38.7557 39.96 38.2741 39.4784C34.4213 35.465 30.2474 31.7727 26.1537 28.0001C22.943 25.1105 19.9731 21.659 16.5216 19.0904C16.1203 18.7693 15.6387 18.8496 15.3979 19.1707C15.3176 19.1707 15.1571 19.2509 15.0768 19.3312C10.2608 22.1406 5.28417 17.4048 6.08684 12.5887C7.53166 13.6322 8.89621 14.756 10.1002 16.0402C10.1805 16.1205 10.341 16.2008 10.4213 16.281C10.5818 16.4416 10.7424 16.4416 11.0634 16.4416C14.2741 16.281 16.8427 13.873 16.4414 10.5018C16.4414 10.4215 16.3611 10.3412 16.3611 10.261C16.3611 10.1004 16.2808 9.93991 16.1203 9.85964C14.9965 8.49509 13.632 7.37135 12.3477 6.16733C17.0835 4.80278 21.4982 10.1807 19.1705 14.756C19.0902 14.9165 19.0902 14.9968 19.0902 15.1573C18.8494 15.5586 18.9297 16.1205 19.4113 16.5218C23.0233 19.2509 26.3143 22.9433 29.6052 26.0737C33.2975 29.5252 37.1504 32.9767 40.6822 36.669C41.0032 36.9901 41.3243 36.9901 41.6454 36.9098C41.8059 36.9098 41.8862 36.8295 42.0467 36.7493C46.8628 33.9399 51.8394 38.6757 51.0367 43.4917C49.5919 42.368 48.2273 41.2443 47.0233 39.96Z" fill="white"/>
</g>
<defs>
<clipPath id="clip0_164_402">
<rect width="49.1237" height="48" fill="white" transform="translate(4 4)"/>
</clipPath>
</defs>
</svg>
