<svg width="58" height="56" viewBox="0 0 58 56" fill="none" xmlns="http://www.w3.org/2000/svg">
<g clip-path="url(#clip0_164_125)">
<path d="M53.2001 22.9822C52.9667 21.8931 52.6555 20.8039 52.2665 19.7926C52.1109 19.4814 51.9553 19.248 51.6441 19.1702C51.4886 19.0924 51.4108 19.0924 51.2552 19.0146C49.2325 18.859 47.132 18.7812 45.1093 18.7812C44.2536 17.2253 43.0866 15.825 41.6863 14.7358C42.2309 12.7909 42.7754 10.9239 43.32 8.97896C43.6312 8.51218 43.3978 7.96761 43.0088 7.65643C42.1531 7.03406 41.1417 6.48949 40.2082 6.02272C39.897 5.86712 39.5858 5.86712 39.3524 6.02272C39.1968 6.02272 39.0412 6.10051 38.9634 6.2561C37.3297 7.50084 35.8516 8.82336 34.3735 10.2237C32.3508 9.52353 30.3281 9.36794 28.1498 9.67912C27.1385 7.96761 26.2049 6.2561 25.1158 4.62239C25.1158 4.62239 25.1158 4.62239 25.1158 4.5446C24.8824 4.23341 24.5712 4.00003 24.0266 4.07782C22.9375 4.31121 21.8484 4.62239 20.837 5.01137C20.5258 5.16696 20.2924 5.32255 20.2147 5.63374C20.1369 5.71153 20.0591 5.78933 20.0591 5.94492C19.9035 7.96761 19.8257 9.9903 19.7479 12.0908C18.192 12.9465 16.7916 14.1135 15.7025 15.5138C13.7576 14.9692 11.8905 14.3469 9.94561 13.8801C9.94561 13.8801 9.94561 13.8801 9.86781 13.8801C9.40104 13.5689 8.85647 13.8023 8.54528 14.1913C7.92292 15.047 7.30055 16.0584 6.91157 16.9919C6.75598 17.3031 6.75598 17.6143 6.91157 17.8477C6.91157 18.0033 6.98937 18.1589 7.06716 18.2367C8.3119 19.8704 9.63442 21.3485 11.0347 22.9044C10.4124 24.7715 10.179 26.6386 10.4124 28.5835C8.62308 29.7504 6.83378 30.9174 5.04447 32.1621C4.65549 32.3177 4.34431 32.7067 4.4999 33.2512C4.81109 34.4182 5.20006 35.5073 5.66684 36.5965C5.74463 36.8298 5.90023 36.9076 6.13361 36.9854C6.28921 37.0632 6.4448 37.141 6.60039 37.141C8.62308 37.2188 10.7236 37.2188 12.7463 37.141C13.7576 38.8525 15.1579 40.3307 16.7916 41.4198C16.3249 43.3647 15.7803 45.2318 15.3135 47.1767C15.3135 47.1767 15.3135 47.1767 15.3135 47.2545C15.1579 47.6435 15.3135 48.1102 15.7025 48.3436C16.636 48.966 17.5696 49.5106 18.5809 49.8995C18.8921 50.0551 19.1255 50.0551 19.4367 49.9773C19.5923 49.9773 19.7479 49.8995 19.9035 49.7439C21.4594 48.4214 22.9375 47.0211 24.4156 45.6208C26.2049 46.1653 27.9164 46.3209 29.7057 46.0875C30.6393 47.799 31.5728 49.5884 32.5842 51.2999V51.3777C32.7398 51.9222 33.2843 52.1556 33.7511 52.0778C34.8403 51.9222 35.9294 51.611 36.9408 51.2221C37.2519 51.1443 37.4075 50.9109 37.4853 50.6775C37.5631 50.5219 37.6409 50.3663 37.7187 50.2107C37.9521 48.188 38.1077 46.1653 38.1855 44.1426C39.897 43.2869 41.3751 42.12 42.6198 40.564C44.7203 41.0308 46.8208 41.4976 48.9213 41.8866C49.3103 42.0422 49.7771 41.9644 50.0882 41.4976C50.7106 40.4862 51.2552 39.3971 51.6441 38.308C51.7219 38.0746 51.7219 37.8412 51.5664 37.6856C51.5664 37.53 51.4886 37.3744 51.333 37.2966C49.9326 35.7407 48.4545 34.3404 46.9764 32.9401C47.4432 31.073 47.521 29.2837 47.2098 27.4166C48.9991 26.3274 50.7884 25.3161 52.5777 24.2269C52.5777 24.2269 52.5777 24.2269 52.6555 24.2269C53.1223 23.8379 53.3557 23.5268 53.2001 22.9822ZM49.6993 38.1524C49.4659 38.6969 49.2325 39.2415 48.9213 39.7861C46.9764 39.3971 45.0315 38.9303 43.0866 38.5414C42.931 38.4636 42.6976 38.5414 42.542 38.5414C42.1531 38.4636 41.7641 38.5414 41.4529 38.9303C40.3638 40.4862 38.8078 41.6532 37.0963 42.4311C36.9408 42.5089 36.863 42.5867 36.7852 42.6645C36.5518 42.8201 36.474 43.0535 36.3962 43.3647C36.3184 45.3874 36.1628 47.3323 35.9294 49.355C35.307 49.5106 34.7625 49.6661 34.1401 49.8217C33.2065 48.188 32.3508 46.5543 31.495 44.9206C31.495 44.376 31.0283 43.7537 30.2503 43.9093C28.3832 44.2982 26.5161 44.0648 24.649 43.5203C24.4934 43.4425 24.4156 43.4425 24.3378 43.4425C24.0266 43.3647 23.7155 43.4425 23.4821 43.6759C22.0817 45.0762 20.6036 46.4765 19.0477 47.7213C18.5031 47.4879 17.9586 47.1767 17.414 46.8655C17.8808 44.9206 18.4253 42.9757 18.8921 41.0308C19.0477 40.4862 18.7365 40.0973 18.3476 39.9417C18.2698 39.8639 18.192 39.7861 18.1142 39.7083C16.4805 38.6969 15.1579 37.2966 14.2244 35.6629C14.1466 35.5851 14.0688 35.5073 14.0688 35.4295C13.9132 35.1183 13.6798 34.9627 13.213 34.9627C11.1903 35.0405 9.16765 35.0405 7.14496 35.0405C6.91157 34.496 6.67818 33.8736 6.52259 33.329C8.1563 32.2399 9.86781 31.1508 11.5015 30.0616C11.6571 29.9838 11.8127 29.8282 11.8905 29.6726C12.2017 29.4392 12.4351 29.1281 12.3573 28.6613C12.0461 26.7942 12.3573 24.9271 12.9796 23.1378C13.0574 22.9822 13.0574 22.8266 13.0574 22.671C13.0574 22.4376 13.0574 22.1264 12.8241 21.8931C11.4237 20.4149 10.179 18.9368 8.93426 17.3809C9.24545 16.8363 9.55663 16.2918 9.86781 15.7472C11.6571 16.214 13.4464 16.7585 15.2357 17.3031C15.6247 17.6921 16.4027 17.8477 16.7916 17.2253C17.8808 15.5916 19.3589 14.4247 20.9926 13.5689C21.1482 13.4911 21.226 13.4133 21.3038 13.3355C21.5372 13.1799 21.6928 12.9465 21.6928 12.5576C21.6928 10.5349 21.7706 8.51218 21.9262 6.56729C22.4707 6.3339 23.0931 6.17831 23.7155 6.02272C24.7268 7.73422 25.7382 9.44573 26.8273 11.235C27.1385 11.7796 27.8386 11.7796 28.2276 11.4684C28.3054 11.4684 28.3832 11.4684 28.461 11.4684C30.3281 11.1572 32.1952 11.3906 33.9845 12.0908C34.1401 12.1686 34.2957 12.1686 34.3735 12.1686C34.6069 12.2464 34.9181 12.1686 35.1514 11.9352C36.6296 10.5349 38.1077 9.29014 39.6636 8.04541C40.2082 8.35659 40.7527 8.66777 41.2973 8.97896C40.8305 10.7683 40.286 12.5576 39.7414 14.3469C39.3524 14.7358 39.1968 15.5138 39.8192 15.9028C41.4529 16.9919 42.6198 18.3922 43.4756 20.1038C43.5534 20.2593 43.6312 20.3371 43.709 20.4149C43.8646 20.6483 44.098 20.8039 44.4869 20.8039C46.5096 20.8039 48.5323 20.8817 50.4772 21.0373C50.7106 21.5819 50.8662 22.2042 51.0218 22.8266C49.3103 23.838 47.5988 24.8493 45.8095 25.9384C45.7317 26.0162 45.6539 26.094 45.5761 26.1718C45.2649 26.4052 45.0315 26.7164 45.1093 27.261C45.5761 29.1281 45.4983 30.9952 44.9537 32.8623C44.9537 32.9401 44.9537 33.0956 44.9537 33.1734C44.8759 33.4846 44.8759 33.7958 45.1871 34.107C46.8986 35.2739 48.2989 36.6743 49.6993 38.1524Z" fill="white"/>
<path d="M31.8839 18.2367C31.8061 18.2367 31.6506 18.2367 31.5728 18.2367C26.516 17.2253 21.1481 19.8704 19.5922 25.0049C17.9585 30.295 21.2259 35.5073 26.4382 37.0633C31.7284 38.6192 37.952 35.4295 39.3523 29.906C40.5971 24.7715 36.9407 19.4814 31.8839 18.2367ZM37.4852 29.0503C36.6295 33.718 31.3394 36.4409 26.905 35.1962C16.9472 32.3177 21.4593 18.0811 31.1838 20.1038C31.2616 20.1038 31.3394 20.1038 31.4172 20.1038C35.307 21.1151 38.2632 25.0049 37.4852 29.0503Z" fill="white"/>
</g>
<defs>
<clipPath id="clip0_164_125">
<rect width="48.778" height="48" fill="white" transform="translate(4.5 4)"/>
</clipPath>
</defs>
</svg>
