<svg width="57" height="57" viewBox="0 0 57 57" fill="none" xmlns="http://www.w3.org/2000/svg">
<path d="M19.4556 5.55919C21.0678 8.82748 22.7098 12.1563 24.3219 15.4246C24.7996 16.393 26.4883 15.56 26.0106 14.5916C24.3984 11.3233 22.7564 7.99452 21.1443 4.72623C20.6666 3.75784 18.978 4.5908 19.4556 5.55919Z" fill="white"/>
<path d="M41.473 33.0203C44.6823 33.8803 47.9511 34.7561 51.1604 35.616C52.1113 35.8708 52.5724 34.1498 51.6215 33.895C48.4122 33.035 45.1435 32.1592 41.9342 31.2993C40.9833 31.0445 40.5221 32.7655 41.473 33.0203Z" fill="white"/>
<path d="M37.216 5.20005C36.924 7.73519 36.6265 10.3173 36.3344 12.8524C36.2479 13.6036 37.9306 13.7974 38.0171 13.0463C38.3092 10.5111 38.6067 7.92904 38.8987 5.3939C38.9852 4.64275 37.3026 4.4489 37.216 5.20005Z" fill="white"/>
<path d="M50.3286 15.4788C48.1489 16.0629 45.9288 16.6577 43.749 17.2418C43.1032 17.4148 43.5416 19.0509 44.1874 18.8779C46.3672 18.2938 48.5873 17.699 50.767 17.1149C51.4129 16.9418 50.9745 15.3057 50.3286 15.4788Z" fill="white"/>
<path d="M37.5383 17.6416C27.5094 18.9869 17.9613 22.3853 8.00106 23.943C7.38284 24.0138 7.24546 25.005 7.6576 25.4298C10.2679 27.9787 12.6721 30.6691 15.145 33.3596C11.9165 36.758 8.06975 39.3777 4.97864 42.847C4.5665 43.1302 4.29173 43.7674 4.70388 44.263C7.10807 47.0243 10.0618 49.2191 12.1912 52.1928C12.466 52.6176 13.1529 52.83 13.5651 52.4052C16.7935 48.2279 20.2968 44.1922 23.9374 40.3689C26.0669 42.9178 28.6771 44.9002 31.0126 47.2367C31.4935 47.7323 32.3178 47.5199 32.4552 46.8118C34.7907 37.5369 35.6837 27.9079 38.5 18.7745C38.5 18.2789 38.0879 17.5708 37.5383 17.6416ZM31.0126 44.9002C28.8145 42.847 26.4103 41.0061 24.6244 38.5281C24.2809 38.1033 23.7314 37.8909 23.2505 38.3157C19.6099 42.139 16.1753 46.1038 12.8781 50.2811C10.9548 47.8739 8.55059 45.8914 6.48985 43.6258C9.78704 40.1565 13.7024 37.4661 16.8622 33.926C17.2057 33.572 17.2057 33.0056 16.8622 32.6516C14.5954 30.1735 12.3973 27.6955 10.0618 25.2882C18.8543 23.7306 27.4407 20.8277 36.3019 19.4825C33.8977 27.8371 33.0047 36.5456 31.0126 44.9002Z" fill="white"/>
</svg>
