<svg width="208" height="26" viewBox="0 0 208 26" fill="none" xmlns="http://www.w3.org/2000/svg">
<path d="M25.5 0.5L10.0933 11.503L5.29653 20.5L0.5 11.503L25.5 0.5Z" fill="#144890"/>
<path d="M25.5 0.5L14.8898 20.5L10.0933 11.503L25.5 0.5Z" fill="#144890"/>
<path d="M38.3478 8.28017L41.3669 17.8707H41.5168L44.0862 8.28017H47.3194L49.9531 17.8707H50.0816L53.1649 8.28017H55.9699L51.7089 20.1983H48.026L45.7349 11.2543H45.6065L43.2726 20.1983H39.6325L35.5 8.28017H38.3478Z" fill="#26252A"/>
<path d="M72.6642 8.28017V10.7155H64.5919V12.9138H71.8506V15.3491H64.5919V17.7198H72.964V20.1983H61.9154V8.28017H72.6642Z" fill="#26252A"/>
<path d="M86.8684 8.28017C87.3966 8.28017 87.8819 8.3592 88.3244 8.51724C88.7812 8.66092 89.1738 8.87644 89.5021 9.16379C89.8304 9.43678 90.0802 9.76724 90.2515 10.1552C90.4371 10.5431 90.5299 10.9813 90.5299 11.4698C90.5299 11.9009 90.4514 12.296 90.2943 12.6552C90.1516 13 89.9232 13.2802 89.6092 13.4957C90.1516 13.783 90.5727 14.171 90.8725 14.6595C91.1865 15.148 91.3435 15.7586 91.3435 16.4914C91.3435 17.0086 91.2436 17.4899 91.0438 17.9353C90.8582 18.3807 90.587 18.7759 90.2301 19.1207C89.8875 19.4511 89.4735 19.717 88.9882 19.9181C88.5171 20.1049 88.0033 20.1983 87.4465 20.1983H79.2457V8.28017H86.8684ZM81.9222 12.8707H86.9541C87.2396 12.8707 87.468 12.7629 87.6393 12.5474C87.8248 12.3175 87.9176 12.0661 87.9176 11.7931C87.9176 11.5345 87.832 11.2902 87.6607 11.0603C87.5036 10.8161 87.1967 10.694 86.7399 10.694H81.9222V12.8707ZM81.9222 17.7629H87.3609C87.7891 17.7629 88.1246 17.648 88.3673 17.4181C88.6099 17.1739 88.7313 16.8649 88.7313 16.4914C88.7313 16.1034 88.6099 15.7945 88.3673 15.5647C88.1246 15.3348 87.8105 15.2198 87.4251 15.2198H81.9222V17.7629Z" fill="#26252A"/>
<path d="M108.161 8.28017V10.7155H100.089V12.9138H107.348V15.3491H100.089V17.7198H108.461V20.1983H97.4125V8.28017H108.161Z" fill="#26252A"/>
<path d="M121.723 8.28017C122.423 8.28017 123.065 8.39512 123.65 8.625C124.25 8.84052 124.764 9.15661 125.192 9.57328C125.634 9.97557 125.977 10.4641 126.22 11.0388C126.477 11.6135 126.605 12.2529 126.605 12.9569C126.605 13.8764 126.398 14.6739 125.984 15.3491C125.57 16.0244 125.013 16.5489 124.314 16.9224L126.134 20.1983H123.222L121.83 17.5474H117.419V20.1983H114.743V8.28017H121.723ZM117.419 15.0905H121.616C122.301 15.0905 122.858 14.9109 123.286 14.5517C123.714 14.1782 123.929 13.6466 123.929 12.9569C123.929 12.2672 123.714 11.7284 123.286 11.3405C122.858 10.9382 122.301 10.7371 121.616 10.7371H117.419V15.0905Z" fill="#26252A"/>
<path d="M135.143 8.28017L142.231 16.2974V8.28017H144.886V20.1983H142.338L135.251 12.1595V20.1983H132.617V8.28017H135.143Z" fill="#26252A"/>
<path d="M162.055 8.28017V10.7155H153.983V12.9138H161.242V15.3491H153.983V17.7198H162.355V20.1983H151.306V8.28017H162.055Z" fill="#26252A"/>
<path d="M180.52 8.28017V10.694H175.703V20.1983H173.026V10.694H168.208V8.28017H180.52Z" fill="#26252A"/>
<path d="M189.187 8.28017V20.1983H186.511V8.28017H189.187Z" fill="#26252A"/>
<path d="M205.923 12.3966C205.466 11.75 204.924 11.2543 204.296 10.9095C203.682 10.5647 202.904 10.3922 201.962 10.3922C201.362 10.3922 200.82 10.4856 200.334 10.6724C199.863 10.8448 199.457 11.1034 199.114 11.4483C198.771 11.7787 198.507 12.181 198.322 12.6552C198.136 13.1293 198.043 13.6609 198.043 14.25C198.043 14.8247 198.136 15.3491 198.322 15.8233C198.522 16.2974 198.793 16.7069 199.135 17.0517C199.478 17.3822 199.885 17.6408 200.356 17.8276C200.841 18.0144 201.377 18.1078 201.962 18.1078C202.904 18.1078 203.682 17.9353 204.296 17.5905C204.924 17.2457 205.466 16.75 205.923 16.1034L208 17.3103C207.386 18.3592 206.58 19.1566 205.58 19.7026C204.581 20.2342 203.389 20.5 202.005 20.5C201.063 20.5 200.185 20.3563 199.371 20.069C198.557 19.7816 197.858 19.3721 197.273 18.8405C196.687 18.2945 196.223 17.6336 195.881 16.8578C195.552 16.0819 195.388 15.2126 195.388 14.25C195.388 13.2874 195.56 12.4181 195.902 11.6422C196.245 10.8664 196.709 10.2126 197.294 9.68103C197.894 9.13506 198.593 8.71839 199.392 8.43104C200.206 8.14368 201.077 8 202.005 8C203.389 8 204.581 8.27299 205.58 8.81897C206.58 9.35058 207.386 10.1408 208 11.1897L205.923 12.3966Z" fill="#26252A"/>
</svg>
