<svg width="44" height="23" viewBox="0 0 44 23" fill="none" xmlns="http://www.w3.org/2000/svg">
<path d="M43.7498 2.83422C43.5973 2.29577 43.2447 1.84357 42.7693 1.57667C42.5356 1.44256 42.2785 1.35744 42.0125 1.32612L31.8216 0.255455C31.281 0.198663 30.7392 0.366993 30.3153 0.723414C29.8913 1.07983 29.62 1.59515 29.5611 2.15599C29.5021 2.71684 29.6603 3.27728 30.0008 3.71401C30.3413 4.15075 30.8363 4.42801 31.3769 4.4848L36.6558 5.03941L24.0194 15.6634L18.0475 7.9805C17.8789 7.76239 17.67 7.58139 17.4329 7.44794C17.1958 7.31448 16.9352 7.23122 16.6662 7.20295C16.3971 7.17469 16.1249 7.20197 15.8652 7.28324C15.6056 7.3645 15.3636 7.49814 15.1533 7.67644L1.59002 19.0797C1.37832 19.2562 1.20209 19.4741 1.07152 19.721C0.940949 19.9678 0.858612 20.2386 0.829259 20.5178C0.799905 20.7969 0.824117 21.0789 0.900498 21.3475C0.976878 21.616 1.10392 21.8659 1.27428 22.0825C1.44292 22.3006 1.6518 22.4816 1.88888 22.6151C2.12597 22.7485 2.38656 22.8318 2.65562 22.8601C2.92469 22.8883 3.1969 22.861 3.45656 22.7798C3.71622 22.6985 3.95819 22.5649 4.16851 22.3866L16.129 12.3116L22.1009 19.9945C22.2695 20.2126 22.4784 20.3936 22.7155 20.5271C22.9526 20.6605 23.2131 20.7438 23.4822 20.772C23.7513 20.8003 24.0235 20.773 24.2832 20.6918C24.5428 20.6105 24.7848 20.4769 24.9951 20.2986L39.2161 8.32302L38.6402 13.8C38.5813 14.3609 38.7394 14.9213 39.08 15.358C39.4205 15.7948 39.9155 16.072 40.4561 16.1288C40.9966 16.1856 41.5385 16.0173 41.9624 15.6609C42.3863 15.3045 42.6576 14.7891 42.7166 14.2283L43.8284 3.65493C43.8542 3.37825 43.8275 3.09942 43.7498 2.83422Z" fill="#EDEDED"/>
</svg>
