<svg width="46" height="46" viewBox="0 0 46 46" fill="none" xmlns="http://www.w3.org/2000/svg">
<path d="M38.64 9.58337C36.6082 7.54635 33.915 6.30307 31.0468 6.07811C28.1785 5.85315 25.3244 6.66134 23 8.3567C20.5613 6.54284 17.5259 5.72035 14.5051 6.05485C11.4843 6.38936 8.70247 7.85602 6.71974 10.1595C4.73701 12.4629 3.7007 15.4321 3.81949 18.4691C3.93829 21.506 5.20336 24.3851 7.35996 26.5267L19.2625 38.4484C20.2592 39.4293 21.6015 39.979 23 39.979C24.3984 39.979 25.7408 39.4293 26.7375 38.4484L38.64 26.5267C40.8778 24.2751 42.1339 21.2296 42.1339 18.055C42.1339 14.8805 40.8778 11.8349 38.64 9.58337ZM35.9375 23.8817L24.035 35.7842C23.8995 35.921 23.7383 36.0295 23.5607 36.1036C23.383 36.1777 23.1924 36.2159 23 36.2159C22.8075 36.2159 22.6169 36.1777 22.4393 36.1036C22.2616 36.0295 22.1004 35.921 21.965 35.7842L10.0625 23.8242C8.55933 22.2877 7.71763 20.2237 7.71763 18.0742C7.71763 15.9247 8.55933 13.8607 10.0625 12.3242C11.5942 10.8119 13.66 9.96396 15.8125 9.96396C17.9649 9.96396 20.0307 10.8119 21.5625 12.3242C21.7406 12.5038 21.9526 12.6464 22.1862 12.7437C22.4198 12.841 22.6703 12.8911 22.9233 12.8911C23.1763 12.8911 23.4268 12.841 23.6604 12.7437C23.894 12.6464 24.1059 12.5038 24.2841 12.3242C25.8158 10.8119 27.8817 9.96396 30.0341 9.96396C32.1866 9.96396 34.2524 10.8119 35.7841 12.3242C37.3079 13.8406 38.1772 15.8934 38.2059 18.0429C38.2346 20.1925 37.4203 22.2677 35.9375 23.8242V23.8817Z" fill="#09CB85"/>
</svg>
