<svg width="46" height="46" viewBox="0 0 46 46" fill="none" xmlns="http://www.w3.org/2000/svg">
<path d="M40.3651 23.5367C40.3515 20.6589 39.201 17.9032 37.1643 15.8701L26.8334 5.38589C25.8164 4.36996 24.4376 3.79932 23.0001 3.79932C21.5626 3.79932 20.1838 4.36996 19.1668 5.38589L8.83594 15.7742C6.79925 17.8074 5.64873 20.5631 5.6351 23.4409C5.61729 24.8901 5.888 26.3283 6.43146 27.6718C6.97492 29.0154 7.78026 30.2373 8.80059 31.2666C9.82092 32.2958 11.0358 33.1118 12.3746 33.6669C13.7133 34.222 15.1492 34.5053 16.5984 34.5001C16.1168 36.1536 15.3159 37.6969 14.2409 39.0426C14.009 39.328 13.8641 39.6742 13.8236 40.0397C13.783 40.4052 13.8484 40.7747 14.0121 41.1041C14.1758 41.4335 14.4307 41.7088 14.7466 41.8972C15.0625 42.0856 15.4259 42.1792 15.7934 42.1667H30.2068C30.5695 42.168 30.9251 42.0663 31.2323 41.8734C31.5395 41.6806 31.7857 41.4046 31.9422 41.0774C32.0988 40.7502 32.1593 40.3853 32.1167 40.0252C32.0742 39.665 31.9303 39.3242 31.7018 39.0426C30.6252 37.698 29.8241 36.1544 29.3443 34.5001C30.7893 34.5153 32.223 34.2432 33.562 33.6996C34.901 33.1559 36.1185 32.3516 37.144 31.3333C38.1694 30.315 38.9822 29.1031 39.5352 27.7679C40.0882 26.4328 40.3703 25.001 40.3651 23.5559V23.5367ZM34.5001 28.5776C33.5936 29.4703 32.4681 30.1085 31.2366 30.4282C30.0052 30.7478 28.7113 30.7375 27.4851 30.3984C27.3767 30.3891 27.2677 30.3891 27.1593 30.3984H26.7759C26.6325 30.4253 26.4915 30.4637 26.3543 30.5134H26.0668C25.9753 30.5731 25.8916 30.6439 25.8176 30.7242C25.6964 30.7971 25.5866 30.8876 25.4918 30.9926C25.4609 31.0667 25.4224 31.1373 25.3768 31.2034C25.2926 31.3463 25.2158 31.4934 25.1468 31.6442C25.1373 31.759 25.1373 31.8744 25.1468 31.9892C25.1468 32.1042 25.1468 32.2192 25.1468 32.3342C25.2971 34.4136 25.8299 36.4474 26.7184 38.3334H19.2818C20.1898 36.5356 20.7614 34.5868 20.9684 32.5834C20.9684 32.4684 20.9684 32.3534 20.9684 32.2192C20.9779 32.1044 20.9779 31.989 20.9684 31.8742C20.9044 31.7113 20.8208 31.5568 20.7193 31.4142C20.6881 31.3463 20.6495 31.282 20.6043 31.2226C20.5208 31.1137 20.4166 31.0225 20.2976 30.9542C20.2194 30.8784 20.1361 30.808 20.0484 30.7434H19.7801C19.64 30.6787 19.4917 30.6336 19.3393 30.6092H18.9751C18.8603 30.5998 18.7449 30.5998 18.6301 30.6092C17.3685 30.9379 16.0419 30.9228 14.7881 30.5655C13.5343 30.2082 12.399 29.5218 11.5001 28.5776C10.1682 27.2372 9.41764 25.4263 9.41094 23.5367C9.408 22.6 9.59117 21.6721 9.94981 20.8067C10.3084 19.9414 10.8354 19.1559 11.5001 18.4959L21.8501 8.10755C22.14 7.82539 22.5285 7.66751 22.933 7.66751C23.3375 7.66751 23.7261 7.82539 24.0159 8.10755L34.5001 18.4959C35.1648 19.1559 35.6918 19.9414 36.0504 20.8067C36.409 21.6721 36.5922 22.6 36.5893 23.5367C36.5764 25.4251 35.8268 27.2338 34.5001 28.5776Z" fill="#09CB85"/>
</svg>
