<svg width="46" height="46" viewBox="0 0 46 46" fill="none" xmlns="http://www.w3.org/2000/svg">
<path d="M38.3334 19.8375L27.255 5.63502C26.6985 5.0556 26.0289 4.5967 25.2878 4.28676C24.5466 3.97681 23.7496 3.82245 22.9463 3.83323C22.143 3.84401 21.3505 4.01971 20.6179 4.34944C19.8853 4.67916 19.2283 5.15587 18.6875 5.75002L7.66671 19.8375C7.05652 20.7797 6.73048 21.8775 6.72754 23C6.75955 24.0761 7.08424 25.123 7.66671 26.0284L7.78171 26.1625L18.7834 40.365C19.325 40.9385 19.9789 41.3944 20.7043 41.7044C21.4298 42.0143 22.2112 42.1717 23 42.1667C23.8156 42.166 24.6221 41.9951 25.368 41.6651C26.1138 41.3351 26.7826 40.8531 27.3317 40.25L38.3334 26.1625C38.9347 25.2125 39.2443 24.107 39.2239 22.9828C39.2034 21.8586 38.8538 20.7651 38.2184 19.8375H38.3334ZM35.3242 23.9392L24.4567 37.7775C24.0905 38.1148 23.6175 38.313 23.1202 38.3375C22.6229 38.362 22.1327 38.2113 21.735 37.9117L10.8292 23.9009C10.6664 23.6275 10.5742 23.3179 10.5609 23C10.5637 22.7023 10.629 22.4084 10.7525 22.1375L21.62 8.29918C21.9863 7.96186 22.4593 7.76369 22.9566 7.73918C23.4539 7.71466 23.9441 7.86536 24.3417 8.16502L35.1325 22.1184C35.3318 22.4268 35.4383 22.7861 35.4392 23.1534C35.4262 23.4251 35.3611 23.6919 35.2475 23.9392H35.3242Z" fill="#09CB85"/>
</svg>
