<svg width="46" height="46" viewBox="0 0 46 46" fill="none" xmlns="http://www.w3.org/2000/svg">
<g clip-path="url(#clip0_34_100)">
<path d="M22.1855 28.3418C25.0005 28.6376 27.5224 26.5954 27.8184 23.7804C28.1144 20.9655 26.0723 18.4438 23.2573 18.148C20.4424 17.8523 17.9205 19.8945 17.6245 22.7095C17.3285 25.5244 19.3705 28.0461 22.1855 28.3418Z" fill="#EDEDED"/>
<path d="M34.7386 15.2623C31.5078 12.5089 27.9087 10.9069 24.0422 10.5007C20.5627 10.1351 17.062 10.8141 13.6384 12.506C10.1854 14.2166 6.62009 17.6079 3.60793 21.2369C5.34357 24.9621 7.84291 28.8673 10.6233 31.2481C13.8131 33.9778 17.426 35.5716 21.3626 35.9852C25.2649 36.3952 29.1222 35.587 32.8314 33.5837C36.0971 31.8164 39.3744 28.5229 41.835 25.253C40.0978 21.5736 37.5673 17.6739 34.7386 15.2623ZM21.9176 30.8903C20.4055 30.7315 18.9745 30.1278 17.8055 29.1556C16.6366 28.1834 15.7822 26.8864 15.3504 25.4286C14.9186 23.9708 14.9289 22.4177 15.3798 20.9656C15.8307 19.5136 16.7021 18.2278 17.8838 17.2709C19.0655 16.314 20.5043 15.729 22.0184 15.5898C23.5325 15.4506 25.0538 15.7635 26.39 16.489C27.7261 17.2144 28.8172 18.3198 29.525 19.6653C30.2329 21.0108 30.5259 22.5361 30.3669 24.0482C30.1515 26.0749 29.1409 27.9335 27.5569 29.2162C25.9729 30.4989 23.9448 31.101 21.9176 30.8903Z" fill="#EDEDED"/>
</g>
<defs>
<clipPath id="clip0_34_100">
<rect width="41" height="41" fill="white" transform="matrix(0.994526 0.104486 -0.104571 0.994517 4.47729 0.715332)"/>
</clipPath>
</defs>
</svg>
