<svg width="43" height="41" viewBox="0 0 43 41" fill="none" xmlns="http://www.w3.org/2000/svg">
<path d="M10.8831 10.2457L18.033 18.6474L2.65053 17.101C2.25259 17.061 1.85306 17.1728 1.53993 17.4141C1.22652 17.6555 1.02527 18.0071 0.982961 18.3922C0.940652 18.7773 1.0611 19.1613 1.31518 19.4598C1.56904 19.758 1.93554 19.9468 2.33348 19.9869L17.7158 21.5332L8.89469 28.3276L8.89468 28.3276L8.89268 28.3292C8.58703 28.5729 8.39282 28.9227 8.35428 29.3037C8.31574 29.6847 8.43625 30.0635 8.68731 30.3588C8.93815 30.6537 9.29926 30.842 9.69231 30.885C10.0853 30.9279 10.4815 30.8225 10.7954 30.5894L10.7954 30.5894L10.7976 30.5878L19.6386 23.778L18.03 38.4194C17.9877 38.8045 18.1082 39.1885 18.3623 39.487C18.6161 39.7852 18.9826 39.9741 19.3806 40.0141C19.7785 40.0541 20.178 39.9422 20.4912 39.701C20.8046 39.4595 21.0058 39.1079 21.0481 38.7228L22.6569 24.0798L29.8228 32.5003L29.8228 32.5004L29.8245 32.5023C30.0806 32.793 30.445 32.9752 30.8388 33.0117C31.2325 33.0481 31.6268 32.9362 31.9365 32.6978C32.2464 32.4593 32.447 32.1129 32.4925 31.7325C32.538 31.3522 32.4244 30.9714 32.1787 30.6719L32.177 30.6699L25.0271 22.2682L40.4077 23.8144C40.8057 23.8544 41.2052 23.7426 41.5183 23.5013C41.8317 23.2599 42.033 22.9083 42.0753 22.5232C42.1176 22.1381 41.9972 21.7542 41.7431 21.4557C41.4892 21.1574 41.1227 20.9686 40.7248 20.9286L25.3425 19.3822L34.1614 12.5895C34.1618 12.5892 34.1622 12.5889 34.1626 12.5886C34.3212 12.4706 34.4539 12.3234 34.5528 12.1554L34.4236 12.0803L34.5529 12.1554C34.652 11.9869 34.7151 11.801 34.7381 11.6085C34.7611 11.4161 34.7436 11.2213 34.6868 11.0357C34.6299 10.8502 34.535 10.6777 34.4079 10.5283C34.2808 10.3788 34.1241 10.2553 33.9471 10.1647C33.7702 10.074 33.5763 10.0179 33.3768 9.99944C33.1772 9.98095 32.9757 10.0004 32.7838 10.0569C32.5924 10.1133 32.4142 10.2055 32.2597 10.3284C32.2594 10.3287 32.259 10.329 32.2587 10.3292L23.4196 17.1374L25.0282 2.496C25.0705 2.1109 24.9501 1.72697 24.696 1.42847C24.4421 1.13023 24.0756 0.941385 23.6777 0.90138C23.2798 0.861376 22.8802 0.973214 22.5671 1.21446C22.2537 1.45591 22.0524 1.8075 22.0101 2.1926L20.4014 16.8356L13.2373 8.41541C13.237 8.41506 13.2368 8.41471 13.2365 8.41436C13.1122 8.26327 12.9581 8.13756 12.7832 8.0442C12.6079 7.95063 12.4151 7.89131 12.2159 7.86953C12.0167 7.84775 11.8148 7.86391 11.622 7.91721C11.4292 7.97052 11.249 8.05998 11.0921 8.18074C10.9352 8.30151 10.8047 8.4512 10.7086 8.62132C10.6125 8.79147 10.5528 8.97842 10.5333 9.17123C10.5138 9.36403 10.5349 9.55845 10.5951 9.74303C10.6552 9.9272 10.7529 10.0977 10.8823 10.2448C10.8826 10.2451 10.8828 10.2454 10.8831 10.2457Z" fill="#EDEDED" stroke="#EDEDED" stroke-width="0.3"/>
</svg>
