<svg width="25" height="24" viewBox="0 0 25 24" fill="none" xmlns="http://www.w3.org/2000/svg">
<rect x="0.5" width="24" height="24" rx="5" fill="#4E76C2"/>
<path d="M15.5536 9.82777C15.5542 9.20465 15.349 8.59878 14.9699 8.10426C14.5908 7.60974 14.059 7.25426 13.4571 7.09303C12.8552 6.9318 12.2169 6.97384 11.6413 7.21264C11.0658 7.45143 10.5852 7.8736 10.2742 8.41358C10.1671 8.59929 10.1381 8.81996 10.1936 9.02706C10.2492 9.23415 10.3847 9.4107 10.5704 9.51786C10.7561 9.62502 10.9768 9.65402 11.1839 9.59848C11.391 9.54294 11.5675 9.4074 11.6747 9.22169C11.7811 9.0373 11.9343 8.88421 12.1187 8.77781C12.3031 8.67141 12.5123 8.61547 12.7252 8.61561C13.0467 8.61561 13.355 8.74331 13.5824 8.97064C13.8097 9.19796 13.9374 9.50628 13.9374 9.82777C13.9374 10.1493 13.8097 10.4576 13.5824 10.6849C13.355 10.9122 13.0467 11.0399 12.7252 11.0399H12.7228C12.6707 11.0454 12.6193 11.056 12.5693 11.0715C12.515 11.0768 12.4614 11.0876 12.4093 11.1038C12.3649 11.1281 12.323 11.1565 12.284 11.1886C12.2376 11.2139 12.1937 11.2437 12.1531 11.2775C12.1167 11.3209 12.085 11.3681 12.0585 11.4181C12.0291 11.4546 12.0029 11.4935 11.9802 11.5345C11.9624 11.5902 11.9508 11.6476 11.9454 11.7058C11.9317 11.7523 11.9223 11.7999 11.9171 11.848V12.6562L11.9187 12.665V13.0618C11.9192 13.2759 12.0045 13.481 12.156 13.6322C12.3075 13.7834 12.5128 13.8683 12.7268 13.8683H12.7293C12.8354 13.8681 12.9404 13.847 13.0384 13.8062C13.1364 13.7654 13.2253 13.7057 13.3002 13.6305C13.3751 13.5553 13.4345 13.4661 13.4749 13.368C13.5153 13.2698 13.536 13.1647 13.5358 13.0586L13.5341 12.5236C14.116 12.3513 14.6267 11.996 14.9905 11.5103C15.3543 11.0246 15.5518 10.4346 15.5536 9.82777ZM12.1571 15.3148C12.0437 15.4274 11.9661 15.5711 11.9343 15.7277C11.9024 15.8843 11.9178 16.0468 11.9783 16.1947C12.0389 16.3427 12.1419 16.4693 12.2744 16.5586C12.4069 16.648 12.563 16.696 12.7228 16.6967C12.9369 16.6945 13.1421 16.6107 13.2966 16.4624C13.4466 16.3091 13.5306 16.1031 13.5306 15.8886C13.5306 15.6741 13.4466 15.4681 13.2966 15.3148C13.1419 15.1707 12.9383 15.0905 12.7268 15.0905C12.5154 15.0905 12.3118 15.1707 12.1571 15.3148Z" fill="white"/>
</svg>
