<svg width="158" height="152" viewBox="0 0 158 152" fill="none" xmlns="http://www.w3.org/2000/svg">
<path d="M120.438 83.4375C119.476 83.4375 118.554 83.8194 117.874 84.4992C117.194 85.1791 116.812 86.1011 116.812 87.0625V94.3125C116.812 95.2739 117.194 96.1959 117.874 96.8758C118.554 97.5556 119.476 97.9375 120.438 97.9375V103.375L126.962 97.9375H134.938C135.899 97.9375 136.821 97.5556 137.501 96.8758C138.181 96.1959 138.562 95.2739 138.562 94.3125V87.0625C138.562 86.1011 138.181 85.1791 137.501 84.4992C136.821 83.8194 135.899 83.4375 134.938 83.4375H120.438ZM104.125 92.5C102.202 92.5 100.358 93.2638 98.9985 94.6235C97.6388 95.9831 96.875 97.8272 96.875 99.75C96.875 101.673 97.6388 103.517 98.9985 104.877C100.358 106.236 102.202 107 104.125 107C106.048 107 107.892 106.236 109.252 104.877C110.611 103.517 111.375 101.673 111.375 99.75C111.375 97.8272 110.611 95.9831 109.252 94.6235C107.892 93.2638 106.048 92.5 104.125 92.5ZM113.188 110.625H95.0625C93.6204 110.625 92.2373 111.198 91.2176 112.218C90.1979 113.237 89.625 114.62 89.625 116.062C89.625 120.108 91.2889 123.349 94.0185 125.542C96.7046 127.699 100.308 128.75 104.125 128.75C107.942 128.75 111.545 127.699 114.231 125.542C116.957 123.349 118.625 120.108 118.625 116.062C118.625 114.62 118.052 113.237 117.032 112.218C116.013 111.198 114.63 110.625 113.188 110.625Z" fill="url(#paint0_linear_70_11106)" fill-opacity="0.69"/>
<g filter="url(#filter0_d_70_11106)">
<path d="M93.3333 49C95.6319 49 97.8363 49.8812 99.4616 51.4497C101.087 53.0181 102 55.1455 102 57.3636V74.0909C102 76.3091 101.087 78.4364 99.4616 80.0049C97.8363 81.5734 95.6319 82.4545 93.3333 82.4545V95L77.7333 82.4545H58.6667C56.3681 82.4545 54.1637 81.5734 52.5384 80.0049C50.9131 78.4364 50 76.3091 50 74.0909V57.3636C50 55.1455 50.9131 53.0181 52.5384 51.4497C54.1637 49.8812 56.3681 49 58.6667 49H93.3333Z" fill="#62A9FF"/>
</g>
<defs>
<filter id="filter0_d_70_11106" x="0" y="0" width="158" height="152" filterUnits="userSpaceOnUse" color-interpolation-filters="sRGB">
<feFlood flood-opacity="0" result="BackgroundImageFix"/>
<feColorMatrix in="SourceAlpha" type="matrix" values="0 0 0 0 0 0 0 0 0 0 0 0 0 0 0 0 0 0 127 0" result="hardAlpha"/>
<feOffset dx="3" dy="4"/>
<feGaussianBlur stdDeviation="26.5"/>
<feComposite in2="hardAlpha" operator="out"/>
<feColorMatrix type="matrix" values="0 0 0 0 0.384314 0 0 0 0 0.662745 0 0 0 0 1 0 0 0 0.68 0"/>
<feBlend mode="normal" in2="BackgroundImageFix" result="effect1_dropShadow_70_11106"/>
<feBlend mode="normal" in="SourceGraphic" in2="effect1_dropShadow_70_11106" result="shape"/>
</filter>
<linearGradient id="paint0_linear_70_11106" x1="114.094" y1="83.4375" x2="114.094" y2="128.75" gradientUnits="userSpaceOnUse">
<stop stop-color="white"/>
<stop offset="1" stop-color="white"/>
</linearGradient>
</defs>
</svg>
