<svg width="28" height="28" viewBox="0 0 28 28" fill="none" xmlns="http://www.w3.org/2000/svg">
<path d="M6.42358 18.6573L9.36825 10.5338C9.90492 9.40566 10.7239 8.47349 11.6631 10.71C12.5299 12.775 13.8214 16.555 14.5856 18.6608M7.76058 15.169H13.2078" stroke="#5787E6" stroke-width="1.5" stroke-linecap="round" stroke-linejoin="round"/>
<path d="M4.04125 5.03767C2.33325 6.57533 2.33325 9.051 2.33325 14C2.33325 18.949 2.33325 21.4247 4.04125 22.9623C5.75159 24.5 8.50025 24.5 13.9999 24.5C19.4996 24.5 22.2494 24.5 23.9574 22.9623C25.6654 21.4247 25.6666 18.949 25.6666 14C25.6666 9.051 25.6666 6.57533 23.9574 5.03767C22.2506 3.5 19.4996 3.5 13.9999 3.5C8.50025 3.5 5.75042 3.5 4.04125 5.03767Z" stroke="#5787E6" stroke-width="1.5" stroke-linecap="round" stroke-linejoin="round"/>
<path d="M21.5646 10.4849V13.979M21.5646 13.979V18.5792M21.5646 13.979H19.2103C18.9303 13.979 18.6526 14.0304 18.3913 14.1319C16.4161 14.8984 16.4161 17.7485 18.3913 18.515C18.6538 18.6165 18.9303 18.6679 19.2103 18.6679H21.5646" stroke="#5787E6" stroke-width="1.5" stroke-linecap="round" stroke-linejoin="round"/>
</svg>
