<svg width="28" height="28" viewBox="0 0 28 28" fill="none" xmlns="http://www.w3.org/2000/svg">
<path d="M2.33337 14C2.33337 20.4435 7.55654 25.6666 14 25.6666C20.4435 25.6666 25.6667 20.4435 25.6667 14C25.6667 7.55648 20.4435 2.33331 14 2.33331C7.55654 2.33331 2.33337 7.55648 2.33337 14Z" stroke="#5787E6" stroke-width="1.5" stroke-linecap="round" stroke-linejoin="round"/>
<path d="M15.1667 2.39166C15.1667 2.39166 18.6667 7 18.6667 14C18.6667 21 15.1667 25.6083 15.1667 25.6083M12.8334 25.6083C12.8334 25.6083 9.33336 21 9.33336 14C9.33336 7 12.8334 2.39166 12.8334 2.39166M3.06836 18.0833H24.9317M3.06836 9.91666H24.9317" stroke="#5787E6" stroke-width="1.5" stroke-linecap="round" stroke-linejoin="round"/>
</svg>
