<svg width="72" height="39" viewBox="0 0 72 39" fill="none" xmlns="http://www.w3.org/2000/svg">
<path d="M69.66 19.9062C69.66 18.6388 69.5463 17.42 69.335 16.25H52.5V23.1725H62.12C61.6975 25.3988 60.43 27.2837 58.5288 28.5512V33.0525H64.33C67.71 29.9325 69.66 25.35 69.66 19.9062Z" fill="#4285F4"/>
<path d="M52.5 37.375C57.3262 37.375 61.3725 35.7825 64.33 33.0525L58.5287 28.5512C56.9362 29.6237 54.905 30.2737 52.5 30.2737C47.8525 30.2737 43.9037 27.1375 42.49 22.9125H36.5425V27.5275C39.4837 33.3612 45.5125 37.375 52.5 37.375Z" fill="#34A853"/>
<path d="M42.49 22.8963C42.1325 21.8238 41.9212 20.6863 41.9212 19.5C41.9212 18.3138 42.1325 17.1763 42.49 16.1038V11.4888H36.5425C35.3238 13.8938 34.625 16.6075 34.625 19.5C34.625 22.3925 35.3238 25.1063 36.5425 27.5113L41.1738 23.9038L42.49 22.8963Z" fill="#FBBC05"/>
<path d="M52.5 8.7425C55.1325 8.7425 57.4725 9.6525 59.3412 11.4075L64.46 6.28875C61.3562 3.39625 57.3262 1.625 52.5 1.625C45.5125 1.625 39.4837 5.63875 36.5425 11.4888L42.49 16.1038C43.9037 11.8787 47.8525 8.7425 52.5 8.7425Z" fill="#EA4335"/>
<path d="M0 19.6269C0 9.33925 8.33739 1 18.6269 1C28.9126 1 37.2537 9.33925 37.2537 19.6269C37.2537 29.9145 28.9126 38.2537 18.6269 38.2537C8.33739 38.2537 0 29.9145 0 19.6269Z" fill="#FC3F1D"/>
<path d="M21.0111 11.554H19.29C16.1346 11.554 14.4749 13.1522 14.4749 15.5085C14.4749 18.1721 15.6223 19.4201 17.9786 21.0201L19.9251 22.3315L14.3315 30.6894H10.1516L15.1716 23.2125C12.2844 21.1431 10.6639 19.1332 10.6639 15.7338C10.6639 11.472 13.6348 8.5625 19.2695 8.5625H24.8631V30.6689H21.0111V11.554Z" fill="white"/>
</svg>
