<svg width="28" height="28" viewBox="0 0 28 28" fill="none" xmlns="http://www.w3.org/2000/svg">
<path d="M15.0266 8.18644L20.5963 9.66927M13.8343 12.6151L16.618 13.3571M13.9731 20.9603L15.0861 21.2578C18.2361 22.0978 19.8111 22.5166 21.0525 21.8038C22.2926 21.0921 22.715 19.5253 23.5585 16.3939L24.752 11.9641C25.5966 8.83161 26.0178 7.26594 25.3015 6.03161C24.5851 4.79728 23.0113 4.37844 19.8601 3.53961L18.7471 3.24211C15.5971 2.40211 14.0221 1.98328 12.782 2.69611C11.5406 3.40778 11.1183 4.97461 10.2736 8.10594L9.0813 12.5358C8.23663 15.6683 7.8143 17.2339 8.5318 18.4683C9.24813 19.7014 10.8231 20.1214 13.9731 20.9603Z" stroke="#5787E6" stroke-width="1.9" stroke-linecap="round" stroke-linejoin="round"/>
<path d="M14 24.437L12.8893 24.7404C9.74628 25.5955 8.17595 26.0237 6.93695 25.2969C5.70028 24.5712 5.27795 22.9752 4.43678 19.7809L3.24562 15.2635C2.40328 12.0704 1.98212 10.4732 2.69728 9.21552C3.31562 8.12702 4.66662 8.16669 6.41662 8.16669" stroke="#5787E6" stroke-width="1.9" stroke-linecap="round" stroke-linejoin="round"/>
</svg>
