<svg width="28" height="28" viewBox="0 0 28 28" fill="none" xmlns="http://www.w3.org/2000/svg">
<path d="M5.83325 23.3333L8.64842 20.5181M8.64842 20.5181C9.12988 20.9996 9.70145 21.3815 10.3305 21.642C10.9596 21.9026 11.6338 22.0367 12.3147 22.0367C12.9956 22.0367 13.6698 21.9026 14.2988 21.642C14.9279 21.3815 15.4995 20.9996 15.9809 20.5181C16.4624 20.0366 16.8443 19.4651 17.1049 18.836C17.3654 18.207 17.4995 17.5327 17.4995 16.8519C17.4995 16.171 17.3654 15.4967 17.1049 14.8677C16.8443 14.2386 16.4624 13.6671 15.9809 13.1856C15.0086 12.2133 13.6898 11.667 12.3147 11.667C10.9396 11.667 9.62077 12.2133 8.64842 13.1856C7.67607 14.158 7.12981 15.4767 7.12981 16.8519C7.12981 18.227 7.67607 19.5458 8.64842 20.5181Z" stroke="#5787E6" stroke-width="1.9" stroke-linecap="round" stroke-linejoin="round"/>
<path d="M3.49993 17.7192C2.73353 16.3988 2.33096 14.8988 2.33326 13.3722C2.33326 8.56434 6.25093 4.6665 11.0833 4.6665H16.9166C21.7489 4.6665 25.6666 8.56434 25.6666 13.3722C25.6666 17.1638 23.2318 20.3885 19.8333 21.5832" stroke="#5787E6" stroke-width="1.9" stroke-linecap="round" stroke-linejoin="round"/>
</svg>
