<svg width="36" height="36" viewBox="0 0 36 36" fill="none" xmlns="http://www.w3.org/2000/svg">
<path d="M18 10.5V31.5M18 10.5C18 8.9087 17.3679 7.38258 16.2426 6.25736C15.1174 5.13214 13.5913 4.5 12 4.5H4.5C4.10218 4.5 3.72064 4.65804 3.43934 4.93934C3.15804 5.22064 3 5.60218 3 6V25.5C3 25.8978 3.15804 26.2794 3.43934 26.5607C3.72064 26.842 4.10218 27 4.5 27H13.5C14.6935 27 15.8381 27.4741 16.682 28.318C17.5259 29.1619 18 30.3065 18 31.5M18 10.5C18 8.9087 18.6321 7.38258 19.7574 6.25736C20.8826 5.13214 22.4087 4.5 24 4.5H31.5C31.8978 4.5 32.2794 4.65804 32.5607 4.93934C32.842 5.22064 33 5.60218 33 6V25.5C33 25.8978 32.842 26.2794 32.5607 26.5607C32.2794 26.842 31.8978 27 31.5 27H22.5C21.3065 27 20.1619 27.4741 19.318 28.318C18.4741 29.1619 18 30.3065 18 31.5M24 18H27M24 12H27M9 18H12M9 12H12" stroke="#E03000" stroke-width="2" stroke-linecap="round" stroke-linejoin="round"/>
</svg>
