<svg width="32" height="33" viewBox="0 0 32 33" fill="none" xmlns="http://www.w3.org/2000/svg">
<path d="M12.1201 12.4085C12.4336 11.5174 13.0523 10.766 13.8667 10.2874C14.6811 9.80874 15.6386 9.63378 16.5696 9.79348C17.5007 9.95318 18.3452 10.4372 18.9535 11.1599C19.5619 11.8826 19.8948 12.7972 19.8934 13.7419C19.8934 16.4085 15.8934 17.7419 15.8934 17.7419M16.0001 23.0752H16.0134M29.3334 16.4085C29.3334 23.7723 23.3639 29.7419 16.0001 29.7419C8.63628 29.7419 2.66675 23.7723 2.66675 16.4085C2.66675 9.04473 8.63628 3.0752 16.0001 3.0752C23.3639 3.0752 29.3334 9.04473 29.3334 16.4085Z" stroke="#E03000" stroke-width="2.5" stroke-linecap="round" stroke-linejoin="round"/>
</svg>
