<svg width="38" height="38" viewBox="0 0 38 38" fill="none" xmlns="http://www.w3.org/2000/svg">
<path d="M6.92944 5.0473L6.45823 32.0432L8.70789 32.0825L8.86496 23.0838L31.3615 23.4765L31.6757 5.47925L6.92944 5.0473ZM9.13983 7.33623L12.5143 7.39513L12.4554 10.7696L15.8299 10.8285L15.8888 7.45403L19.2633 7.51293L19.2044 10.8874L22.5789 10.9463L22.6378 7.57184L26.0123 7.63074L25.9534 11.0052L29.3278 11.0641L29.2689 14.4386L25.8945 14.3797L25.8356 17.7542L29.21 17.8131L29.1511 21.1876L25.7767 21.1287L25.8356 17.7542L22.4611 17.6953L22.4022 21.0698L19.0277 21.0109L19.0866 17.6364L15.7121 17.5775L15.6532 20.952L12.2787 20.8931L12.3376 17.5186L8.96313 17.4597L9.02203 14.0852L12.3965 14.1441L12.4554 10.7696L9.08093 10.7107L9.13983 7.33623ZM12.3965 14.1441L12.3376 17.5186L15.7121 17.5775L15.771 14.203L12.3965 14.1441ZM15.771 14.203L19.1455 14.2619L19.2044 10.8874L15.8299 10.8285L15.771 14.203ZM19.1455 14.2619L19.0866 17.6364L22.4611 17.6953L22.52 14.3208L19.1455 14.2619ZM22.52 14.3208L25.8945 14.3797L25.9534 11.0052L22.5789 10.9463L22.52 14.3208Z" fill="#E03000"/>
</svg>
