<svg width="34" height="34" viewBox="0 0 34 34" fill="none" xmlns="http://www.w3.org/2000/svg">
<path d="M16.7419 29.2175C23.3683 29.3332 28.8338 24.0552 28.9495 17.4287C29.0652 10.8023 23.7872 5.33681 17.1608 5.22115C10.5344 5.10548 5.06883 10.3835 4.95317 17.0099C4.8375 23.6363 10.1155 29.1018 16.7419 29.2175Z" stroke="#E03000" stroke-width="2.5" stroke-miterlimit="10" stroke-linecap="round"/>
<path d="M17.0395 12.1672L12.215 16.0729M17.0395 12.1672L21.7248 16.2389M17.0395 12.1672L17.1023 8.5696M12.215 16.0729L13.382 21.1578M12.215 16.0729L8.93554 14.6155M13.382 21.1578L20.381 21.28M13.382 21.1578L11.5799 24.1268M20.381 21.28L21.7248 16.2389M20.381 21.28L22.0783 24.3101L20.2512 28.7164M21.7248 16.2389L25.0531 14.8968M25.0531 14.8968L26.744 10.3469M25.0531 14.8968L28.8718 18.3009M8.93554 14.6155L7.40444 10.0093M8.93554 14.6155L5.00039 17.8842M17.1023 8.5696L21.1482 5.97482M17.1023 8.5696L13.1494 5.83457M26.4989 24.3873L22.2033 24.3123M11.5799 24.1268L13.2748 28.6259M11.5799 24.1268L7.18249 24.0501" stroke="#E03000" stroke-width="2.5" stroke-linecap="round" stroke-linejoin="round"/>
</svg>
