<svg width="32" height="33" viewBox="0 0 32 33" fill="none" xmlns="http://www.w3.org/2000/svg">
<path d="M13.3334 21.8271V19.1604C13.3334 18.4532 13.6144 17.7749 14.1145 17.2748C14.6146 16.7747 15.2928 16.4937 16.0001 16.4937H26.6667C27.374 16.4937 28.0523 16.2128 28.5524 15.7127C29.0525 15.2126 29.3334 14.5343 29.3334 13.8271V9.82707C29.3334 9.11982 29.0525 8.44155 28.5524 7.94145C28.0523 7.44135 27.374 7.1604 26.6667 7.1604H24.0001M5.33341 3.1604H21.3334C22.8062 3.1604 24.0001 4.35431 24.0001 5.82707V8.49373C24.0001 9.96649 22.8062 11.1604 21.3334 11.1604H5.33341C3.86066 11.1604 2.66675 9.96649 2.66675 8.49373V5.82707C2.66675 4.35431 3.86066 3.1604 5.33341 3.1604ZM12.0001 21.8271H14.6667C15.4031 21.8271 16.0001 22.424 16.0001 23.1604V28.4937C16.0001 29.2301 15.4031 29.8271 14.6667 29.8271H12.0001C11.2637 29.8271 10.6667 29.2301 10.6667 28.4937V23.1604C10.6667 22.424 11.2637 21.8271 12.0001 21.8271Z" stroke="#E03000" stroke-width="2.5" stroke-linecap="round" stroke-linejoin="round"/>
</svg>
