<svg width="26" height="27" viewBox="0 0 26 27" fill="none" xmlns="http://www.w3.org/2000/svg">
<path d="M23.6665 1.52319H16.9998C16.2635 1.52319 15.6665 2.12015 15.6665 2.85653V9.52319C15.6665 10.2596 16.2635 10.8565 16.9998 10.8565H23.6665C24.4029 10.8565 24.9998 10.2596 24.9998 9.52319V2.85653C24.9998 2.12015 24.4029 1.52319 23.6665 1.52319Z" stroke="white" stroke-width="1.7" stroke-linecap="round" stroke-linejoin="round"/>
<path d="M10.3333 25.5232V8.1899C10.3333 7.83628 10.1929 7.49714 9.94281 7.24709C9.69276 6.99704 9.35362 6.85657 9 6.85657H2.33333C1.97971 6.85657 1.64057 6.99704 1.39052 7.24709C1.14048 7.49714 1 7.83628 1 8.1899V24.1899C1 24.5435 1.14048 24.8827 1.39052 25.1327C1.64057 25.3828 1.97971 25.5232 2.33333 25.5232H18.3333C18.687 25.5232 19.0261 25.3828 19.2761 25.1327C19.5262 24.8827 19.6667 24.5435 19.6667 24.1899V17.5232C19.6667 17.1696 19.5262 16.8305 19.2761 16.5804C19.0261 16.3304 18.687 16.1899 18.3333 16.1899H1" stroke="white" stroke-width="1.7" stroke-linecap="round" stroke-linejoin="round"/>
</svg>
