<svg width="24" height="23" viewBox="0 0 24 23" fill="none" xmlns="http://www.w3.org/2000/svg">
<path d="M7.57642 22.2774L0.615384 15.3164C0.410256 15.1113 0.256188 14.8839 0.15318 14.6344C0.0510601 14.3858 0 14.1251 0 13.8525C0 13.5986 0.0510601 13.3468 0.15318 13.0973C0.256188 12.8486 0.410256 12.6218 0.615384 12.4166L8.01732 5.02136L4.70063 1.80591C4.54878 1.65495 4.47153 1.48179 4.46886 1.28643C4.4662 1.09107 4.54079 0.915246 4.69264 0.758957C4.84449 0.602669 5.02031 0.524081 5.22011 0.523193C5.41991 0.523193 5.5984 0.601781 5.75558 0.758957L17.4133 12.4406C17.6175 12.6466 17.7698 12.874 17.8701 13.1226C17.9705 13.3721 18.0206 13.6243 18.0206 13.8792C18.0206 14.15 17.9705 14.4102 17.8701 14.6597C17.7707 14.9093 17.6184 15.1366 17.4133 15.3417L10.4762 22.2774C10.2719 22.4826 10.0451 22.6366 9.79554 22.7396C9.5469 22.8418 9.29515 22.8928 9.04029 22.8928C8.76856 22.8928 8.50794 22.8418 8.25841 22.7396C8.00977 22.6366 7.78244 22.4826 7.57642 22.2774ZM9.01498 6.0177L1.73427 13.2971C1.63215 13.4001 1.56377 13.5022 1.52914 13.6034C1.49539 13.7065 1.47852 13.8095 1.47852 13.9125H16.5501C16.5501 13.8095 16.5332 13.7069 16.4995 13.6048C16.4649 13.5027 16.3965 13.4005 16.2944 13.2984L9.01365 6.01637L9.01498 6.0177ZM21.7356 22.8928C21.1078 22.8928 20.5843 22.6739 20.1652 22.2361C19.7478 21.7975 19.5391 21.2616 19.5391 20.6284C19.5391 20.1489 19.6412 19.6854 19.8455 19.2378C20.0524 18.7903 20.3188 18.3711 20.6447 17.9804L21.1242 17.385C21.2894 17.1923 21.4945 17.0946 21.7396 17.092C21.9847 17.0893 22.1903 17.1848 22.3563 17.3783L22.8931 17.9804C23.2146 18.3711 23.4796 18.7903 23.6883 19.2378C23.8961 19.6854 24 20.1489 24 20.6284C24 21.2616 23.7798 21.7975 23.3393 22.2361C22.8989 22.6739 22.3643 22.8928 21.7356 22.8928Z" fill="white"/>
</svg>
