<svg width="25" height="23" viewBox="0 0 25 23" fill="none" xmlns="http://www.w3.org/2000/svg">
<path d="M24.6706 1.31252C24.9029 1.57873 25.02 1.92624 24.9963 2.27873C24.9725 2.63122 24.8098 2.95988 24.544 3.19252L3.21062 21.8592C3.07978 21.9802 2.926 22.0738 2.75838 22.1343C2.59076 22.1949 2.41269 22.2213 2.23471 22.2118C2.05673 22.2024 1.88245 22.1574 1.72217 22.0794C1.56188 22.0015 1.41885 21.8922 1.30153 21.758C1.18421 21.6239 1.09498 21.4675 1.03912 21.2983C0.983251 21.129 0.961884 20.9503 0.976281 20.7727C0.990677 20.595 1.04054 20.4221 1.12293 20.264C1.20532 20.106 1.31856 19.9661 1.45595 19.8525L22.7893 1.18586C23.0555 0.953594 23.403 0.836477 23.7555 0.860226C24.108 0.883975 24.438 1.04665 24.6706 1.31252ZM24.6706 9.81252C24.9029 10.0787 25.02 10.4262 24.9963 10.7787C24.9725 11.1312 24.8098 11.4599 24.544 11.6925L12.9253 21.8605C12.7934 21.9758 12.6402 22.064 12.4742 22.1201C12.3083 22.1762 12.1329 22.199 11.9582 22.1873C11.7834 22.1756 11.6127 22.1296 11.4557 22.0519C11.2987 21.9742 11.1586 21.8664 11.0433 21.7345C10.928 21.6027 10.8398 21.4494 10.7837 21.2835C10.7276 21.1175 10.7048 20.9422 10.7165 20.7674C10.7282 20.5927 10.7742 20.4219 10.8519 20.2649C10.9296 20.108 11.0374 19.9678 11.1693 19.8525L22.788 9.68586C22.9198 9.57044 23.0732 9.48216 23.2392 9.42606C23.4052 9.36995 23.5807 9.34713 23.7555 9.3589C23.9304 9.37066 24.1012 9.41678 24.2582 9.49462C24.4153 9.57246 24.5554 9.68048 24.6706 9.81252ZM22.788 17.5192C23.0428 17.293 23.3745 17.1729 23.7151 17.1836C24.0557 17.1943 24.3792 17.335 24.6193 17.5768C24.8594 17.8186 24.9978 18.1432 25.0061 18.4838C25.0144 18.8244 24.892 19.1553 24.664 19.4085L24.544 19.5272L21.8773 21.8605C21.6221 22.0842 21.2912 22.2022 20.952 22.1903C20.6129 22.1785 20.291 22.0378 20.052 21.797C19.8129 21.5561 19.6748 21.2331 19.6656 20.8938C19.6564 20.5546 19.777 20.2246 20.0026 19.9712L20.1226 19.8525L22.788 17.5192ZM14.9573 1.31252C15.1897 1.57856 15.3071 1.92597 15.2836 2.27845C15.2601 2.63094 15.0976 2.95969 14.832 3.19252L3.21329 13.3605C3.08144 13.4758 2.92817 13.564 2.76224 13.6201C2.5963 13.6762 2.42095 13.699 2.24619 13.6873C2.07143 13.6756 1.90069 13.6296 1.74371 13.5519C1.58673 13.4742 1.44659 13.3664 1.33129 13.2345C1.21598 13.1027 1.12778 12.9494 1.07171 12.7835C1.01565 12.6175 0.99281 12.4422 1.00451 12.2674C1.01621 12.0927 1.06222 11.9219 1.13991 11.7649C1.21759 11.608 1.32544 11.4678 1.45729 11.3525L13.076 1.18586C13.3422 0.953594 13.6897 0.836477 14.0422 0.860226C14.3946 0.883975 14.7233 1.04665 14.956 1.31252H14.9573ZM4.69329 1.18586C4.94849 0.962175 5.27939 0.844221 5.61854 0.856033C5.95769 0.867845 6.27958 1.00853 6.51861 1.24943C6.75763 1.49033 6.89581 1.8133 6.90498 2.15253C6.91415 2.49177 6.79362 2.82174 6.56795 3.07519L6.44929 3.19386L3.21329 6.02719C2.95932 6.25936 2.62542 6.38435 2.28143 6.37603C1.93743 6.36771 1.60997 6.22673 1.36752 5.98256C1.12507 5.73838 0.986409 5.40993 0.980525 5.06589C0.974641 4.72184 1.10199 4.38884 1.33595 4.13652L1.45595 4.01786L4.69329 1.18586Z" fill="white"/>
</svg>
