<svg width="65" height="66" viewBox="0 0 65 66" fill="none" xmlns="http://www.w3.org/2000/svg">
<path d="M59.2667 23.138V54.6901C59.2667 56.1267 58.7048 57.5045 57.7046 58.5203C56.7044 59.5361 55.3478 60.1068 53.9334 60.1068H11.2667C9.8522 60.1068 8.49564 59.5361 7.49545 58.5203C6.49525 57.5045 5.93335 56.1267 5.93335 54.6901V23.138C5.93764 22.0578 6.25985 21.0036 6.85858 20.1107C7.45731 19.2179 8.30521 18.5273 9.29335 18.1276L30.6267 9.46095C31.8938 8.9484 33.3062 8.9484 34.5733 9.46095L55.9067 18.1276C56.8948 18.5273 57.7427 19.2179 58.3415 20.1107C58.9402 21.0036 59.2624 22.0578 59.2667 23.138Z" stroke="#17214A" stroke-width="2" stroke-linecap="round" stroke-linejoin="round"/>
<path d="M16.6001 49.2734H48.6001" stroke="#17214A" stroke-width="2" stroke-linecap="round" stroke-linejoin="round"/>
<path d="M16.6001 38.4401H48.6001" stroke="#17214A" stroke-width="2" stroke-linecap="round" stroke-linejoin="round"/>
<path d="M48.6001 27.6068H16.6001V60.1068H48.6001V27.6068Z" stroke="#17214A" stroke-width="2" stroke-linecap="round" stroke-linejoin="round"/>
</svg>
