<svg width="65" height="66" viewBox="0 0 65 66" fill="none" xmlns="http://www.w3.org/2000/svg">
<path d="M40.8 5.94006H24.8C23.3272 5.94006 22.1333 7.15263 22.1333 8.6484V14.0651C22.1333 15.5608 23.3272 16.7734 24.8 16.7734H40.8C42.2727 16.7734 43.4666 15.5608 43.4666 14.0651V8.6484C43.4666 7.15263 42.2727 5.94006 40.8 5.94006Z" stroke="#17214A" stroke-width="2" stroke-linecap="round" stroke-linejoin="round"/>
<path d="M28.5868 34.6756C29.1068 34.1474 29.7242 33.7284 30.4037 33.4426C31.0831 33.1568 31.8114 33.0096 32.5468 33.0096C33.2822 33.0096 34.0105 33.1568 34.6899 33.4426C35.3694 33.7284 35.9868 34.1474 36.5068 34.6756C37.0268 35.2037 37.4393 35.8307 37.7208 36.5208C38.0022 37.2109 38.1471 37.9505 38.1471 38.6974C38.1471 39.4444 38.0022 40.184 37.7208 40.8741C37.4393 41.5641 37.0268 42.1911 36.5068 42.7193L22.0001 57.3985L11.4668 60.1068L14.1068 49.4089L28.5868 34.6756Z" stroke="#17214A" stroke-width="2" stroke-linecap="round" stroke-linejoin="round"/>
<path d="M43.4666 11.3568H48.8C50.2145 11.3568 51.571 11.9275 52.5712 12.9433C53.5714 13.9591 54.1333 15.3369 54.1333 16.7735V54.6901C54.1333 56.1267 53.5714 57.5045 52.5712 58.5203C51.571 59.5361 50.2145 60.1068 48.8 60.1068H34.1333" stroke="#17214A" stroke-width="2" stroke-linecap="round" stroke-linejoin="round"/>
<path d="M11.4668 37.086V16.7735C11.4668 15.3369 12.0287 13.9591 13.0289 12.9433C14.0291 11.9275 15.3856 11.3568 16.8001 11.3568H22.1335" stroke="#17214A" stroke-width="2" stroke-linecap="round" stroke-linejoin="round"/>
</svg>
