<svg width="64" height="66" viewBox="0 0 64 66" fill="none" xmlns="http://www.w3.org/2000/svg">
<path d="M39.9999 5.94006H23.9999C22.5272 5.94006 21.3333 7.15263 21.3333 8.6484V14.0651C21.3333 15.5608 22.5272 16.7734 23.9999 16.7734H39.9999C41.4727 16.7734 42.6666 15.5608 42.6666 14.0651V8.6484C42.6666 7.15263 41.4727 5.94006 39.9999 5.94006Z" stroke="#17214A" stroke-width="2" stroke-linecap="round" stroke-linejoin="round"/>
<path d="M42.6667 11.3568H48.0001C49.4146 11.3568 50.7711 11.9275 51.7713 12.9433C52.7715 13.9591 53.3334 15.3369 53.3334 16.7735V54.6901C53.3334 56.1267 52.7715 57.5045 51.7713 58.5203C50.7711 59.5361 49.4146 60.1068 48.0001 60.1068H16.0001C14.5856 60.1068 13.229 59.5361 12.2288 58.5203C11.2287 57.5045 10.6667 56.1267 10.6667 54.6901V16.7735C10.6667 15.3369 11.2287 13.9591 12.2288 12.9433C13.229 11.9275 14.5856 11.3568 16.0001 11.3568H21.3334" stroke="#17214A" stroke-width="2" stroke-linecap="round" stroke-linejoin="round"/>
<path d="M32 30.3151H42.6667" stroke="#17214A" stroke-width="2" stroke-linecap="round" stroke-linejoin="round"/>
<path d="M32 43.8568H42.6667" stroke="#17214A" stroke-width="2" stroke-linecap="round" stroke-linejoin="round"/>
<path d="M21.3333 30.3151H21.3599" stroke="#17214A" stroke-width="2" stroke-linecap="round" stroke-linejoin="round"/>
<path d="M21.3333 43.8568H21.3599" stroke="#17214A" stroke-width="2" stroke-linecap="round" stroke-linejoin="round"/>
</svg>
