<svg width="65" height="66" viewBox="0 0 65 66" fill="none" xmlns="http://www.w3.org/2000/svg">
<path d="M8.11987 35.5151C7.33256 35.9955 6.68074 36.6743 6.22757 37.4857C5.77439 38.297 5.53522 39.2135 5.5332 40.1464V48.9214C5.53522 49.8542 5.77439 50.7707 6.22757 51.5821C6.68074 52.3934 7.33256 53.0722 8.11987 53.5526L16.1199 58.4276C16.9494 58.9338 17.8988 59.2012 18.8665 59.2012C19.8342 59.2012 20.7837 58.9338 21.6132 58.4276L32.1999 51.9818V37.0859L18.8665 28.9609L8.11987 35.5151Z" stroke="#17214A" stroke-width="2" stroke-linecap="round" stroke-linejoin="round"/>
<path d="M18.8666 45.2109L6.22656 37.4922" stroke="#17214A" stroke-width="2" stroke-linecap="round" stroke-linejoin="round"/>
<path d="M18.8667 45.2109L32.2 37.0859" stroke="#17214A" stroke-width="2" stroke-linecap="round" stroke-linejoin="round"/>
<path d="M18.8667 45.2109V59.213" stroke="#17214A" stroke-width="2" stroke-linecap="round" stroke-linejoin="round"/>
<path d="M32.2 37.0859V51.9818L42.7866 58.4276C43.6161 58.9338 44.5656 59.2012 45.5333 59.2012C46.501 59.2012 47.4505 58.9338 48.28 58.4276L56.28 53.5526C57.0673 53.0722 57.7191 52.3934 58.1723 51.5821C58.6254 50.7707 58.8646 49.8542 58.8666 48.9214V40.1464C58.8646 39.2135 58.6254 38.297 58.1723 37.4857C57.7191 36.6743 57.0673 35.9955 56.28 35.5151L45.5333 28.9609L32.2 37.0859Z" stroke="#17214A" stroke-width="2" stroke-linecap="round" stroke-linejoin="round"/>
<path d="M45.5333 45.2109L32.2 37.0859" stroke="#17214A" stroke-width="2" stroke-linecap="round" stroke-linejoin="round"/>
<path d="M45.5332 45.2109L58.1732 37.4922" stroke="#17214A" stroke-width="2" stroke-linecap="round" stroke-linejoin="round"/>
<path d="M45.5332 45.2109V59.213" stroke="#17214A" stroke-width="2" stroke-linecap="round" stroke-linejoin="round"/>
<path d="M21.4534 12.4943C20.6661 12.9747 20.0142 13.6534 19.5611 14.4648C19.1079 15.2762 18.8687 16.1927 18.8667 17.1255V28.9609L32.2 37.0859L45.5334 28.9609V17.1255C45.5314 16.1927 45.2922 15.2762 44.839 14.4648C44.3858 13.6534 43.734 12.9747 42.9467 12.4943L34.9467 7.61926C34.1172 7.1131 33.1677 6.8457 32.2 6.8457C31.2323 6.8457 30.2829 7.1131 29.4534 7.61926L21.4534 12.4943Z" stroke="#17214A" stroke-width="2" stroke-linecap="round" stroke-linejoin="round"/>
<path d="M32.2001 22.1901L19.5601 14.4713" stroke="#17214A" stroke-width="2" stroke-linecap="round" stroke-linejoin="round"/>
<path d="M32.2 22.1901L44.84 14.4713" stroke="#17214A" stroke-width="2" stroke-linecap="round" stroke-linejoin="round"/>
<path d="M32.2 37.0859V22.1901" stroke="#17214A" stroke-width="2" stroke-linecap="round" stroke-linejoin="round"/>
</svg>
