<svg width="65" height="66" viewBox="0 0 65 66" fill="none" xmlns="http://www.w3.org/2000/svg">
<path d="M19.6266 41.1484L7.49328 19.8609C6.97009 18.9424 6.72403 17.8881 6.78566 16.8289C6.84729 15.7696 7.21389 14.7521 7.83995 13.9026L12.1333 8.10673C12.6301 7.434 13.2742 6.88798 14.0148 6.51192C14.7554 6.13585 15.572 5.94006 16.3999 5.94006H48.3999C49.2279 5.94006 50.0445 6.13585 50.7851 6.51192C51.5256 6.88798 52.1698 7.434 52.6666 8.10673L56.9333 13.9026C57.5635 14.7493 57.9348 15.7655 58.0012 16.8248C58.0676 17.8841 57.826 18.9398 57.3066 19.8609L45.1733 41.1484" stroke="#17214A" stroke-width="2" stroke-linecap="round" stroke-linejoin="round"/>
<path d="M29.7332 33.0235L14.0532 6.48181" stroke="#17214A" stroke-width="2" stroke-linecap="round" stroke-linejoin="round"/>
<path d="M35.0667 33.0235L50.7466 6.48181" stroke="#17214A" stroke-width="2" stroke-linecap="round" stroke-linejoin="round"/>
<path d="M21.7332 19.4818H43.0665" stroke="#17214A" stroke-width="2" stroke-linecap="round" stroke-linejoin="round"/>
<path d="M32.4 60.1068C39.7638 60.1068 45.7333 54.044 45.7333 46.5651C45.7333 39.0862 39.7638 33.0234 32.4 33.0234C25.0362 33.0234 19.0667 39.0862 19.0667 46.5651C19.0667 54.044 25.0362 60.1068 32.4 60.1068Z" stroke="#17214A" stroke-width="2" stroke-linecap="round" stroke-linejoin="round"/>
<path d="M32.4 49.2735V43.8568H31.0667" stroke="#17214A" stroke-width="2" stroke-linecap="round" stroke-linejoin="round"/>
</svg>
