<svg width="48" height="58" viewBox="0 0 48 58" fill="none" xmlns="http://www.w3.org/2000/svg">
<path d="M34.6667 1.94006H16.2667C15.2 1.94006 14.1333 2.48173 13.3333 3.29423C12.5333 4.10673 12 5.19006 12 6.2734V40.9401C12 42.0234 12.5333 43.1067 13.3333 43.9192C14.1333 44.7317 15.2 45.2734 16.2667 45.2734H42.4C43.4667 45.2734 44.5333 44.7317 45.3333 43.9192C46.1333 43.1067 46.6667 42.0234 46.6667 40.9401V14.1276L34.6667 1.94006Z" stroke="#17214A" stroke-width="2" stroke-linecap="round" stroke-linejoin="round"/>
<path d="M1.33325 17.1067V51.7734C1.33325 52.8567 1.86659 53.94 2.66659 54.7525C3.46659 55.565 4.53325 56.1067 5.59992 56.1067H31.7333" stroke="#17214A" stroke-width="2" stroke-linecap="round" stroke-linejoin="round"/>
<path d="M33.3333 1.94006V15.4817H46.6666" stroke="#17214A" stroke-width="2" stroke-linecap="round" stroke-linejoin="round"/>
</svg>
