<svg width="64" height="52" viewBox="0 0 64 52" fill="none" xmlns="http://www.w3.org/2000/svg">
<path d="M50.3333 31.4401C54.3067 27.4859 58.3333 22.7464 58.3333 16.5443C58.3333 12.5937 56.7881 8.80484 54.0376 6.01133C51.287 3.21782 47.5565 1.64844 43.6667 1.64844C38.9733 1.64844 35.6667 3.0026 31.6667 7.0651C27.6667 3.0026 24.36 1.64844 19.6667 1.64844C15.7768 1.64844 12.0463 3.21782 9.29577 6.01133C6.54523 8.80484 5 12.5937 5 16.5443C5 22.7734 9 27.513 13 31.4401L31.6667 50.3984L50.3333 31.4401Z" stroke="#17214A" stroke-width="2" stroke-linecap="round" stroke-linejoin="round"/>
<path d="M31.6669 7.06506L22.2936 15.0817C21.6502 15.628 21.1395 16.2778 20.7911 16.9936C20.4426 17.7094 20.2632 18.4772 20.2632 19.2526C20.2632 20.028 20.4426 20.7957 20.7911 21.5115C21.1395 22.2273 21.6502 22.8771 22.2936 23.4234C24.8902 25.6442 29.0386 25.7255 31.7936 23.613L38.3486 18.4671C39.9916 17.192 42.1308 16.4857 44.3494 16.4857C46.568 16.4857 48.7072 17.192 50.3502 18.4671L59.7236 25.6713" stroke="#17214A" stroke-width="2" stroke-linecap="round" stroke-linejoin="round"/>
<path d="M50.6668 34.1485L44.3335 28.7318" stroke="#17214A" stroke-width="2" stroke-linecap="round" stroke-linejoin="round"/>
<path d="M41.1668 42.2735L34.8335 36.8568" stroke="#17214A" stroke-width="2" stroke-linecap="round" stroke-linejoin="round"/>
</svg>
