<svg width="64" height="66" viewBox="0 0 64 66" fill="none" xmlns="http://www.w3.org/2000/svg">
<path d="M55.7599 24.4651L22.8266 6.56305C22.0833 6.16231 21.2547 5.95276 20.4132 5.95276C19.5718 5.95276 18.7431 6.16231 17.9999 6.56305L8.26657 11.7089C7.38896 12.1973 6.65474 12.9136 6.13892 13.7846C5.6231 14.6556 5.34416 15.65 5.3306 16.6663C5.31704 17.6826 5.56934 18.6843 6.06174 19.5691C6.55414 20.454 7.26898 21.1902 8.13324 21.7026L40.7199 40.4714C41.5114 40.9172 42.4015 41.1511 43.3066 41.1511C44.2116 41.1511 45.1018 40.9172 45.8932 40.4714L55.9999 34.4047C56.8464 33.8794 57.5418 33.1371 58.0164 32.2524C58.491 31.3677 58.7281 30.3718 58.7038 29.3646C58.6795 28.3574 58.3946 27.3745 57.8779 26.5145C57.3611 25.6545 56.6307 24.9477 55.7599 24.4651Z" stroke="#17214A" stroke-width="2" stroke-linecap="round" stroke-linejoin="round"/>
<path d="M8.24 24.4651L41.1733 6.56305C41.9166 6.16231 42.7452 5.95276 43.5867 5.95276C44.4281 5.95276 45.2568 6.16231 46 6.56305L55.7333 11.7089C56.618 12.185 57.3623 12.8912 57.8902 13.7553C58.418 14.6193 58.7105 15.6103 58.7376 16.6267C58.7647 17.6432 58.5255 18.6488 58.0446 19.5406C57.5636 20.4325 56.858 21.1785 56 21.7026L23.28 40.4714C22.4885 40.9172 21.5984 41.1511 20.6933 41.1511C19.7883 41.1511 18.8981 40.9172 18.1067 40.4714L8 34.4047C7.15354 33.8794 6.45808 33.1371 5.98347 32.2524C5.50886 31.3677 5.27181 30.3718 5.29613 29.3646C5.32045 28.3574 5.60528 27.3745 6.12202 26.5145C6.63876 25.6545 7.3692 24.9477 8.24 24.4651Z" stroke="#17214A" stroke-width="2" stroke-linecap="round" stroke-linejoin="round"/>
<path d="M32 60.1068V35.7318" stroke="#17214A" stroke-width="2" stroke-linecap="round" stroke-linejoin="round"/>
<path d="M53.3334 37.0859V46.213C53.3345 47.2353 53.0589 48.2382 52.5369 49.1122C52.0149 49.9863 51.2665 50.6978 50.3734 51.1693L34.3734 59.5109C33.6403 59.8979 32.8263 60.0999 32.0001 60.0999C31.1739 60.0999 30.3598 59.8979 29.6268 59.5109L13.6268 51.1693C12.7336 50.6978 11.9852 49.9863 11.4632 49.1122C10.9412 48.2382 10.6657 47.2353 10.6668 46.213V37.0859" stroke="#17214A" stroke-width="2" stroke-linecap="round" stroke-linejoin="round"/>
</svg>
