<svg width="53" height="43" viewBox="0 0 53 43" fill="none" xmlns="http://www.w3.org/2000/svg">
<path d="M48.0001 30.8567V6.48173C48.0001 5.04514 47.4381 3.66739 46.438 2.65157C45.4378 1.63575 44.0812 1.06506 42.6667 1.06506H10.6667C9.25223 1.06506 7.89568 1.63575 6.89549 2.65157C5.89529 3.66739 5.33339 5.04514 5.33339 6.48173V30.8567M48.0001 30.8567H5.33339M48.0001 30.8567L51.4134 37.763C51.619 38.1773 51.7163 38.6384 51.6961 39.1019C51.6758 39.5654 51.5386 40.0159 51.2977 40.4101C51.0568 40.8043 50.7202 41.129 50.3202 41.3532C49.9202 41.5773 49.4702 41.6933 49.0134 41.6901H4.32006C3.86323 41.6933 3.41324 41.5773 3.01324 41.3532C2.61324 41.129 2.27665 40.8043 2.03573 40.4101C1.79481 40.0159 1.65764 39.5654 1.63739 39.1019C1.61713 38.6384 1.71447 38.1773 1.92006 37.763L5.33339 30.8567" stroke="#17214A" stroke-width="2" stroke-linecap="round" stroke-linejoin="round"/>
</svg>
