<svg width="56" height="56" viewBox="0 0 56 56" fill="none" xmlns="http://www.w3.org/2000/svg">
<path d="M54.3333 16.3776C54.3333 14.7526 53.2667 13.1276 52.2 12.3151L35.4 1.75263C34.7091 1.35376 33.928 1.14404 33.1333 1.14404C32.3386 1.14404 31.5576 1.35376 30.8667 1.75263L3.4 18.0026C2.06667 18.5443 1 20.1693 1 21.7943V39.6693C1 41.0235 2.06667 42.9193 3.13333 43.7318L19.9333 54.2943C20.6242 54.6932 21.4053 54.9029 22.2 54.9029C22.9947 54.9029 23.7758 54.6932 24.4667 54.2943L51.9333 38.0443C53.2667 37.2318 54.3333 35.336 54.3333 33.9818V16.3776Z" stroke="#17214A" stroke-width="2" stroke-linecap="round" stroke-linejoin="round"/>
</svg>
