<svg width="65" height="66" viewBox="0 0 65 66" fill="none" xmlns="http://www.w3.org/2000/svg">
<path d="M22 5.94006H11.3333C8.38781 5.94006 6 8.36519 6 11.3567V22.1901C6 25.1816 8.38781 27.6067 11.3333 27.6067H22C24.9455 27.6067 27.3333 25.1816 27.3333 22.1901V11.3567C27.3333 8.36519 24.9455 5.94006 22 5.94006Z" stroke="#17214A" stroke-width="2" stroke-linecap="round" stroke-linejoin="round"/>
<path d="M38 5.94006C40.9333 5.94006 43.3333 8.37756 43.3333 11.3567V22.1901C43.3333 25.1692 40.9333 27.6067 38 27.6067" stroke="#17214A" stroke-width="2" stroke-linecap="round" stroke-linejoin="round"/>
<path d="M54 5.94006C56.9333 5.94006 59.3333 8.37756 59.3333 11.3567V22.1901C59.3333 25.1692 56.9333 27.6067 54 27.6067" stroke="#17214A" stroke-width="2" stroke-linecap="round" stroke-linejoin="round"/>
<path d="M27.3333 49.2734H14C9.46667 49.2734 6 45.7526 6 41.1484V38.4401" stroke="#17214A" stroke-width="2" stroke-linecap="round" stroke-linejoin="round"/>
<path d="M19.3335 57.3984L27.3335 49.2734L19.3335 41.1484" stroke="#17214A" stroke-width="2" stroke-linecap="round" stroke-linejoin="round"/>
<path d="M54 38.4401H43.3333C40.3878 38.4401 38 40.8652 38 43.8567V54.6901C38 57.6816 40.3878 60.1067 43.3333 60.1067H54C56.9455 60.1067 59.3333 57.6816 59.3333 54.6901V43.8567C59.3333 40.8652 56.9455 38.4401 54 38.4401Z" stroke="#17214A" stroke-width="2" stroke-linecap="round" stroke-linejoin="round"/>
</svg>
