<svg width="517" height="224" viewBox="0 0 517 224" fill="none" xmlns="http://www.w3.org/2000/svg">
<rect x="14.0342" y="0.239258" width="430" height="84" rx="42" transform="rotate(4.32275 14.0342 0.239258)" fill="#1E2C69"/>
<path d="M79.1322 37.4924C80.1541 36.6379 80.2682 35.128 79.3864 34.1295L76.1437 30.4383L76.1483 30.4435C75.2901 29.4666 73.8148 27.7873 71.7269 25.4158C70.7415 24.3208 69.0225 24.2007 67.8926 25.1506L46.7065 42.9493C46.4356 43.1756 46.2132 43.4522 46.0522 43.7632C45.8912 44.0743 45.7948 44.4136 45.7685 44.7618C45.7421 45.1099 45.7865 45.4599 45.8989 45.7916C46.0113 46.1233 46.1895 46.4302 46.4234 46.6946L64.6886 67.4705C65.1596 68.0056 65.8277 68.3367 66.5462 68.3911C67.2647 68.4454 67.975 68.2185 68.521 67.7602L77.4034 60.2968C78.4252 59.4423 78.5394 57.9324 77.6576 56.9339C77.234 56.4542 76.6342 56.1576 75.9893 56.1088C75.3444 56.0601 74.7068 56.2632 74.2159 56.6738L67.4899 62.3379C67.2102 62.5731 66.8044 62.5425 66.5632 62.2679L51.9721 45.6744C51.7308 45.3998 51.7609 45.0027 52.0406 44.7675L68.9552 30.5555C68.9768 30.5374 69.0029 30.5246 69.0245 30.5065C69.3001 30.3252 69.6594 30.3721 69.882 30.6256L75.6906 37.2323C76.572 38.2356 78.115 38.3523 79.1322 37.4924ZM62.9742 46.1609C62.8698 47.5417 63.3308 48.9083 64.2556 49.9601C65.1805 51.0119 66.4936 51.6628 67.9059 51.7695C69.3182 51.8763 70.7142 51.4302 71.7867 50.5293C72.8592 49.6285 73.5203 48.3467 73.6247 46.966C73.7291 45.5853 73.2681 44.2187 72.3432 43.1668C71.4183 42.115 70.1053 41.4641 68.6929 41.3574C67.2806 41.2506 65.8846 41.6967 64.8122 42.5976C63.7397 43.4984 63.0785 44.7802 62.9742 46.1609ZM89.9789 46.2992L84.2753 39.8385C83.3935 38.84 81.8505 38.7234 80.8333 39.5832C80.5903 39.7866 80.3909 40.035 80.2466 40.3143C80.1023 40.5936 80.0158 40.8982 79.9922 41.2107C79.9686 41.5231 80.0083 41.8373 80.109 42.1351C80.2097 42.4329 80.3694 42.7085 80.5791 42.9461L84.4299 47.3243C84.6711 47.5989 84.6411 47.9959 84.3613 48.2312L79.9607 51.9264C79.7178 52.1298 79.5184 52.3782 79.374 52.6575C79.2297 52.9368 79.1432 53.2414 79.1196 53.5539C79.096 53.8664 79.1357 54.1805 79.2364 54.4783C79.3371 54.7762 79.4969 55.0518 79.7065 55.2893C80.13 55.769 80.7298 56.0657 81.3748 56.1144C82.0197 56.1632 82.6573 55.96 83.1481 55.5495L89.7009 50.0448C89.971 49.8179 90.1925 49.5408 90.3527 49.2296C90.513 48.9184 90.6088 48.579 90.6346 48.231C90.6604 47.883 90.6158 47.5333 90.5033 47.2018C90.3908 46.8702 90.2126 46.5635 89.9789 46.2992Z" fill="white"/>
<path d="M130.29 57.6154L132.666 62.007C130.575 64.4564 127.503 65.5278 123.447 65.2213C119.824 64.9474 116.964 63.6448 114.868 61.3135C112.801 59.0179 111.903 56.0918 112.172 52.5353C112.425 49.1782 113.733 46.4691 116.095 44.4079C118.46 42.3135 121.321 41.3932 124.678 41.647C128.666 41.9485 131.598 43.1896 133.472 45.3704L130.437 49.704C129.018 48.1259 127.212 47.254 125.019 47.0881C123.357 46.9625 121.849 47.4503 120.496 48.5514C119.18 49.5885 118.45 51.071 118.304 52.9988C118.158 54.9267 118.672 56.5366 119.844 57.8287C121.086 59.0925 122.571 59.7898 124.299 59.9204C126.526 60.0888 128.523 59.3204 130.29 57.6154ZM140.019 49.1747L138.89 44.8774C141.424 43.6316 144.121 43.1167 146.979 43.3327C150.104 43.5689 152.323 44.5055 153.637 46.1425C154.95 47.7795 155.488 50.1769 155.249 53.3345L154.216 66.9955L149.231 66.6187L149.427 64.0261C147.951 65.8534 145.668 66.6502 142.577 66.4166C140.45 66.2558 138.784 65.5115 137.581 64.1837C136.413 62.8251 135.909 61.0988 136.067 59.0048C136.243 56.6781 137.127 54.9398 138.718 53.7898C140.309 52.6398 142.334 52.1577 144.794 52.3437C146.822 52.4969 148.48 53.107 149.77 54.1739C149.987 52.1847 149.799 50.6995 149.204 49.7186C148.643 48.7402 147.582 48.192 146.019 48.0739C144.291 47.9432 142.291 48.3102 140.019 49.1747ZM144.837 61.7236C146.765 61.8693 148.262 61.2972 149.329 60.0073L149.503 57.7138C148.627 56.9122 147.342 56.4474 145.647 56.3192C144.583 56.2388 143.7 56.4228 142.998 56.8711C142.295 57.3195 141.911 57.9757 141.846 58.8399C141.786 59.6377 142.036 60.3084 142.596 60.8522C143.16 61.3628 143.906 61.6532 144.837 61.7236ZM177.372 54.4552L165.828 67.8733L160.094 67.4398L161.79 45.0039L167.524 45.4373L166.45 59.6467L177.994 46.2287L183.728 46.6621L182.032 69.0981L176.298 68.6647L177.372 54.4552ZM165.979 34.0384L171.214 34.4341C171.131 35.5309 171.28 36.4281 171.662 37.1255C172.044 37.823 172.667 38.2043 173.531 38.2697C174.296 38.3275 174.902 38.039 175.352 37.4044C175.836 36.7391 176.119 35.8746 176.199 34.811L181.434 35.2067C181.259 37.5334 180.435 39.3598 178.964 40.6861C177.496 41.9791 175.582 42.5364 173.222 42.358C170.629 42.162 168.72 41.3324 167.493 39.8691C166.303 38.3751 165.798 36.4315 165.979 34.0384ZM194.729 53.2601L187.351 52.7024L187.784 46.9687L208.226 48.5139L207.792 54.2475L200.463 53.6935L199.201 70.3959L193.467 69.9625L194.729 53.2601ZM224.414 61.2704L211.85 60.3207L212.253 54.9859L224.817 55.9356L224.414 61.2704ZM229.866 72.7139L231.562 50.2779C231.861 50.3005 233.127 50.3627 235.359 50.4646C237.626 50.5357 239.309 50.6127 240.405 50.6956C247.186 51.2082 250.428 53.4255 250.132 57.3477C250.036 58.6108 249.553 59.6941 248.683 60.5977C247.815 61.4681 246.776 61.9411 245.567 62.0169L245.559 62.1166C248.692 63.1223 250.157 64.9713 249.954 67.6636C249.612 72.184 245.885 74.1754 238.772 73.6378C237.741 73.5599 236.166 73.3907 234.046 73.1302C233.515 73.09 232.901 73.0269 232.205 72.9409C231.541 72.8906 231.027 72.835 230.664 72.7742C230.331 72.749 230.065 72.7289 229.866 72.7139ZM239.909 63.8958L236.319 63.6244L235.942 68.6102C237.927 68.8939 239.185 69.0559 239.717 69.0961C240.98 69.1915 241.978 69.033 242.711 68.6204C243.477 68.2104 243.891 67.6065 243.951 66.8087C244.082 65.0803 242.734 64.1093 239.909 63.8958ZM240.554 55.3701C239.224 55.2696 238.025 55.2124 236.956 55.1985L236.583 60.1344L240.322 60.417C241.353 60.4949 242.201 60.3251 242.868 59.9075C243.535 59.4899 243.898 58.8822 243.959 58.0845C244.082 56.4558 242.947 55.551 240.554 55.3701ZM272.17 61.621L260.626 75.039L254.892 74.6056L256.588 52.1696L262.322 52.603L261.248 66.8125L272.792 53.3944L278.525 53.8278L276.83 76.2638L271.096 75.8304L272.17 61.621ZM291.115 77.8953C289.154 77.747 287.269 77.2535 285.461 76.4148C283.655 75.5429 282.376 74.5437 281.626 73.4172L284.839 70.0498C285.446 70.8646 286.344 71.5843 287.534 72.2091C288.723 72.8339 289.866 73.1877 290.963 73.2707C292.426 73.3812 293.575 73.2173 294.41 72.7791C295.246 72.3408 295.695 71.7062 295.758 70.8752C295.815 70.1107 295.563 69.4732 295 68.9626C294.436 68.4521 293.623 68.1566 292.559 68.0762L288.371 67.7596L288.662 63.9206L292.6 64.2183C293.498 64.2861 294.231 64.0909 294.801 63.6325C295.406 63.1434 295.739 62.5 295.799 61.7022C295.922 60.0735 294.671 59.16 292.045 58.9615C289.984 58.8057 287.875 59.5154 285.716 61.0905L283.583 57.4694C285.902 55.1041 289.205 54.0835 293.492 54.4076C296.384 54.6262 298.552 55.3583 299.995 56.604C301.475 57.819 302.138 59.4402 301.984 61.4678C301.901 62.5647 301.46 63.5342 300.661 64.3763C299.862 65.2185 298.798 65.8066 297.469 66.1408L297.462 66.2405C298.935 66.6527 300.05 67.3721 300.809 68.3989C301.569 69.3924 301.899 70.5539 301.799 71.8834C301.64 73.9774 300.584 75.569 298.63 76.6581C296.711 77.7165 294.206 78.1289 291.115 77.8953ZM324.024 65.5406L312.48 78.9586L306.746 78.5252L308.442 56.0892L314.176 56.5226L313.102 70.7321L324.646 57.3141L330.379 57.7475L328.684 80.1835L322.95 79.7501L324.024 65.5406ZM341.381 64.3455L334.002 63.7877L334.436 58.0541L354.878 59.5993L354.444 65.3329L347.115 64.7789L345.853 81.4813L340.119 81.0479L341.381 64.3455ZM372.992 60.9685L380.221 61.515L370.789 71.5325L379.572 84.0301L372.093 83.4648L364.074 71.4763L372.992 60.9685ZM363.019 82.7789L357.286 82.3455L358.981 59.9095L364.715 60.3429L363.019 82.7789ZM385.949 67.7645L384.819 63.4671C387.354 62.2213 390.05 61.7064 392.909 61.9225C396.033 62.1586 398.252 63.0952 399.566 64.7322C400.88 66.3693 401.417 68.7666 401.178 71.9242L400.146 85.5853L395.16 85.2084L395.356 82.6158C393.881 84.4431 391.597 85.24 388.506 85.0063C386.379 84.8455 384.714 84.1012 383.51 82.7734C382.343 81.4148 381.838 79.6886 381.996 77.5945C382.172 75.2678 383.056 73.5295 384.647 72.3795C386.238 71.2295 388.264 70.7475 390.723 70.9334C392.751 71.0866 394.41 71.6967 395.699 72.7637C395.917 70.7744 395.728 69.2893 395.134 68.3083C394.572 67.3299 393.511 66.7817 391.949 66.6636C390.22 66.5329 388.22 66.8999 385.949 67.7645ZM390.766 80.3133C392.694 80.459 394.192 79.8869 395.259 78.597L395.432 76.3036C394.556 75.502 393.271 75.0371 391.576 74.909C390.512 74.8286 389.629 75.0125 388.927 75.4609C388.224 75.9092 387.841 76.5655 387.775 77.4297C387.715 78.2274 387.965 78.8981 388.526 79.4419C389.089 79.9525 389.836 80.243 390.766 80.3133Z" fill="#FBFBFB"/>
<rect x="150.758" y="114.563" width="357.513" height="81" rx="40.5" transform="rotate(4.32275 150.758 114.563)" stroke="#2E408C" stroke-width="3"/>
<path d="M211.09 159.274C211.208 169.214 203.245 177.368 193.304 177.485C183.364 177.603 175.21 169.64 175.093 159.699C174.975 149.759 182.938 141.605 192.879 141.488" stroke="#2D2D2D" stroke-width="4" stroke-linecap="round" stroke-linejoin="round"/>
<path d="M182.134 163.117C190.633 163.016 194.127 162.475 201.02 153.393" stroke="#2D2D2D" stroke-width="4" stroke-linecap="round" stroke-linejoin="round"/>
<path d="M193.021 153.487L201.02 153.392L201.115 161.392" stroke="#2D2D2D" stroke-width="4" stroke-linecap="round" stroke-linejoin="round"/>
<path d="M200.854 139.394L200.908 143.893" stroke="#2D2D2D" stroke-width="4" stroke-linecap="round" stroke-linejoin="round"/>
<path d="M213.495 151.245L208.996 151.298" stroke="#2D2D2D" stroke-width="4" stroke-linecap="round" stroke-linejoin="round"/>
<path d="M210.767 141.276L206.924 145.211" stroke="#2D2D2D" stroke-width="4" stroke-linecap="round" stroke-linejoin="round"/>
<path d="M239.666 175.939L233.583 175.479L235.279 153.043L241.362 153.503L240.748 161.63L244.736 161.931C245.536 159.317 247.008 157.306 249.154 155.897C251.299 154.488 253.835 153.894 256.76 154.115C260.349 154.387 263.174 155.72 265.232 158.115C267.293 160.477 268.195 163.37 267.936 166.794C267.682 170.151 266.34 172.874 263.909 174.963C261.513 177.022 258.537 177.917 254.981 177.648C251.956 177.42 249.475 176.413 247.537 174.628C245.635 172.813 244.524 170.49 244.203 167.657L240.314 167.363L239.666 175.939ZM250.635 165.486C250.495 167.347 250.865 168.863 251.746 170.033C252.662 171.172 253.935 171.803 255.564 171.926C257.193 172.049 258.546 171.616 259.623 170.628C260.703 169.607 261.314 168.165 261.454 166.304C261.595 164.442 261.207 162.942 260.29 161.803C259.409 160.634 258.138 159.986 256.476 159.86C254.88 159.74 253.543 160.19 252.463 161.212C251.383 162.233 250.773 163.658 250.635 165.486ZM279.983 179.538C278.021 179.39 276.137 178.896 274.328 178.058C272.522 177.186 271.244 176.186 270.493 175.06L273.706 171.693C274.313 172.507 275.211 173.227 276.401 173.852C277.591 174.477 278.734 174.831 279.831 174.913C281.293 175.024 282.442 174.86 283.278 174.422C284.113 173.984 284.562 173.349 284.625 172.518C284.683 171.753 284.43 171.116 283.867 170.605C283.304 170.095 282.49 169.799 281.427 169.719L277.239 169.402L277.529 165.563L281.468 165.861C282.365 165.929 283.099 165.734 283.668 165.275C284.273 164.786 284.606 164.143 284.666 163.345C284.79 161.716 283.538 160.803 280.912 160.604C278.852 160.448 276.742 161.158 274.584 162.733L272.451 159.112C274.769 156.747 278.072 155.726 282.36 156.05C285.251 156.269 287.419 157.001 288.863 158.247C290.342 159.462 291.005 161.083 290.852 163.111C290.769 164.207 290.328 165.177 289.529 166.019C288.73 166.861 287.666 167.449 286.337 167.784L286.329 167.883C287.802 168.295 288.918 169.015 289.676 170.042C290.437 171.035 290.767 172.197 290.666 173.526C290.508 175.62 289.452 177.212 287.497 178.301C285.579 179.359 283.074 179.772 279.983 179.538ZM298.617 163.647L297.488 159.35C300.022 158.104 302.719 157.589 305.577 157.805C308.702 158.042 310.921 158.978 312.235 160.615C313.548 162.252 314.086 164.65 313.847 167.807L312.814 181.468L307.829 181.091L308.025 178.499C306.549 180.326 304.266 181.123 301.175 180.889C299.048 180.728 297.382 179.984 296.179 178.656C295.011 177.298 294.507 175.571 294.665 173.477C294.841 171.151 295.725 169.412 297.316 168.262C298.907 167.112 300.932 166.63 303.392 166.816C305.42 166.97 307.078 167.58 308.368 168.647C308.585 166.657 308.397 165.172 307.802 164.191C307.241 163.213 306.18 162.665 304.617 162.547C302.889 162.416 300.889 162.783 298.617 163.647ZM303.435 176.196C305.363 176.342 306.86 175.77 307.927 174.48L308.101 172.186C307.225 171.385 305.94 170.92 304.245 170.792C303.181 170.711 302.298 170.895 301.596 171.344C300.893 171.792 300.509 172.448 300.444 173.313C300.384 174.11 300.634 174.781 301.194 175.325C301.758 175.835 302.504 176.126 303.435 176.196ZM338.224 147.737L340.861 152.65C339.988 153.587 338.935 154.243 337.704 154.618C336.612 154.903 335.255 155.168 333.632 155.413C332.047 155.594 330.72 155.912 329.649 156.366C326.792 157.453 324.969 160.124 324.18 164.376L324.279 164.384C325.07 163.207 326.226 162.291 327.746 161.637C329.269 160.95 330.845 160.668 332.473 160.791C335.565 161.025 337.966 162.209 339.676 164.344C341.384 166.512 342.113 169.258 341.861 172.582C341.618 175.806 340.314 178.466 337.949 180.56C335.587 182.621 332.677 183.521 329.221 183.26C325.465 182.976 322.587 181.471 320.586 178.746C318.619 176.024 317.8 172.485 318.129 168.131C318.853 158.558 322.133 152.756 327.97 150.723C329.24 150.284 330.632 149.988 332.148 149.835C333.869 149.631 335.139 149.41 335.959 149.171C336.782 148.899 337.537 148.421 338.224 147.737ZM324.171 169.791C324.034 172.054 324.443 173.94 325.398 175.45C326.354 176.959 327.713 177.781 329.474 177.914C331.203 178.044 332.641 177.585 333.79 176.535C334.94 175.486 335.579 174.096 335.71 172.368C335.843 170.606 335.453 169.139 334.538 167.967C333.657 166.797 332.353 166.147 330.624 166.017C329.129 165.904 327.802 166.204 326.645 166.919C325.49 167.601 324.666 168.558 324.171 169.791ZM363.285 170.993L351.741 184.411L346.007 183.977L347.703 161.541L353.436 161.975L352.362 176.184L363.907 162.766L369.64 163.199L367.944 185.635L362.211 185.202L363.285 170.993ZM394.836 187.668L389.102 187.235L390.364 170.532L384.431 170.084L384.101 172.466C383.362 176.488 382.497 179.532 381.505 181.596C380.547 183.663 379.407 185.031 378.086 185.7C376.801 186.338 375.06 186.591 372.864 186.459L372.788 180.837C373.516 180.925 374.213 180.777 374.877 180.393C375.649 179.917 376.381 178.852 377.074 177.2C377.767 175.547 378.294 173.448 378.653 170.901L379.53 163.947L396.531 165.232L394.836 187.668ZM418.498 175.166L406.954 188.584L401.22 188.151L402.916 165.715L408.65 166.148L407.576 180.358L419.12 166.94L424.854 167.373L423.158 189.809L417.424 189.376L418.498 175.166ZM435.856 173.971L428.477 173.413L428.91 167.68L449.352 169.225L448.918 174.958L441.589 174.404L440.327 191.107L434.593 190.673L435.856 173.971ZM469.038 178.986L457.494 192.404L451.76 191.971L453.456 169.535L459.189 169.968L458.115 184.178L469.66 170.76L475.393 171.193L473.697 193.629L467.964 193.196L469.038 178.986Z" fill="#2D2D2D"/>
</svg>
