<svg width="24" height="25" viewBox="0 0 24 25" fill="none" xmlns="http://www.w3.org/2000/svg">
<path d="M22 17.0905V20.0905C22.0011 20.369 21.9441 20.6447 21.8325 20.8999C21.7209 21.155 21.5573 21.3841 21.3521 21.5724C21.1468 21.7606 20.9046 21.904 20.6407 21.9932C20.3769 22.0824 20.0974 22.1156 19.82 22.0905C16.7428 21.7561 13.787 20.7047 11.19 19.0205C8.77382 17.4852 6.72533 15.4367 5.18999 13.0205C3.49997 10.4117 2.44824 7.4415 2.11999 4.35051C2.095 4.07397 2.12787 3.79527 2.21649 3.53213C2.30512 3.269 2.44756 3.0272 2.63476 2.82213C2.82196 2.61706 3.0498 2.45322 3.30379 2.34103C3.55777 2.22884 3.83233 2.17077 4.10999 2.17051H7.10999C7.5953 2.16573 8.06579 2.33759 8.43376 2.65404C8.80173 2.97049 9.04207 3.40995 9.10999 3.89051C9.23662 4.85057 9.47144 5.79323 9.80999 6.70051C9.94454 7.05843 9.97366 7.44742 9.8939 7.82139C9.81415 8.19535 9.62886 8.53862 9.35999 8.81051L8.08999 10.0805C9.51355 12.5841 11.5864 14.657 14.09 16.0805L15.36 14.8105C15.6319 14.5416 15.9751 14.3564 16.3491 14.2766C16.7231 14.1968 17.1121 14.226 17.47 14.3605C18.3773 14.6991 19.3199 14.9339 20.28 15.0605C20.7658 15.129 21.2094 15.3737 21.5265 15.748C21.8437 16.1223 22.0122 16.6001 22 17.0905Z" stroke="#283975" stroke-width="2" stroke-linecap="round" stroke-linejoin="round"/>
</svg>
