<svg width="23" height="18" viewBox="0 0 23 18" fill="none" xmlns="http://www.w3.org/2000/svg">
<path d="M4.81 9.145C5.06667 9.10833 5.415 9.09 5.855 9.09C7.24833 9.09 8.29333 9.49333 8.99 10.3C9.72333 11.07 10.09 12.0417 10.09 13.215C10.09 14.4617 9.66833 15.5067 8.825 16.35C8.01833 17.1933 6.9 17.615 5.47 17.615C4.00333 17.615 2.83 17.2117 1.95 16.405C1.07 15.5617 0.63 14.3517 0.63 12.775C0.63 10.6483 1.27167 8.50333 2.555 6.34C3.83833 4.14 5.415 2.30666 7.285 0.839999L8.385 1.995C6.00167 4.525 4.81 6.90833 4.81 9.145ZM17.68 9.145C17.9367 9.10833 18.285 9.09 18.725 9.09C20.1183 9.09 21.1633 9.49333 21.86 10.3C22.5933 11.07 22.96 12.0417 22.96 13.215C22.96 14.4617 22.5383 15.5067 21.695 16.35C20.8883 17.1933 19.77 17.615 18.34 17.615C16.8733 17.615 15.7 17.2117 14.82 16.405C13.94 15.5617 13.5 14.3517 13.5 12.775C13.5 10.6483 14.1417 8.50333 15.425 6.34C16.7083 4.14 18.285 2.30666 20.155 0.839999L21.255 1.995C18.8717 4.525 17.68 6.90833 17.68 9.145Z" fill="#3F484F"/>
</svg>
